M48
; DRILL file {KiCad (5.1.9)-1} date 07/25/21 18:06:38
; FORMAT={-:-/ absolute / inch / decimal}
; #@! TF.CreationDate,2021-07-25T18:06:38+01:00
; #@! TF.GenerationSoftware,Kicad,Pcbnew,(5.1.9)-1
; #@! TF.FileFunction,Plated,1,4,PTH
FMAT,2
INCH
T1C0.0118
T2C0.0197
T3C0.0256
T4C0.0394
T5C0.0472
T6C0.0551
T7C0.1260
%
G90
G05
T1
X6.5876Y-0.8705
X6.6988Y-0.9281
X6.6988Y-1.0108
X6.8406Y-0.8268
X6.8415Y-0.8711
X6.8421Y-0.9571
X6.9281Y-0.9252
X7.0266Y-0.7894
X7.19Y-0.8799
X8.251Y-3.7008
X8.436Y-3.5965
X8.9993Y-1.8981
X9.0171Y-1.7974
X9.0464Y-1.8499
X9.048Y-1.8813
X9.0636Y-1.8237
X9.0677Y-1.9057
X9.0777Y-1.9639
X9.0929Y-1.8125
X9.098Y-1.9139
X9.1109Y-1.7641
X9.1232Y-1.8206
X9.1274Y-1.9027
X9.1429Y-1.8451
X9.1445Y-1.8764
X9.1738Y-1.929
X9.1916Y-1.8282
T2
X8.7835Y-1.5827
T3
X8.7648Y-4.686
X8.7648Y-4.736
X8.8148Y-4.686
X8.8148Y-4.736
X8.8648Y-4.686
X8.8648Y-4.736
X8.9148Y-4.686
X8.9148Y-4.736
X8.9648Y-4.686
X8.9648Y-4.736
X9.0148Y-4.686
X9.0148Y-4.736
X9.0648Y-4.686
X9.0648Y-4.736
X9.1148Y-4.686
X9.1148Y-4.736
X9.2136Y-4.686
X9.2136Y-4.736
X9.2636Y-4.686
X9.2636Y-4.736
X9.3136Y-4.686
X9.3136Y-4.736
X9.3636Y-4.686
X9.3636Y-4.736
X9.4136Y-4.686
X9.4136Y-4.736
X9.4636Y-4.686
X9.4636Y-4.736
X9.5136Y-4.686
X9.5136Y-4.736
X9.5636Y-4.686
X9.5636Y-4.736
T4
X6.2268Y-3.2163
X6.2268Y-3.3254
X6.2268Y-3.4344
X6.2268Y-3.5435
X6.2268Y-3.6526
X6.2268Y-3.7616
X6.2268Y-3.8707
X6.3386Y-3.1618
X6.3386Y-3.2709
X6.3386Y-3.3799
X6.3386Y-3.489
X6.3386Y-3.598
X6.3386Y-3.7071
X6.3386Y-3.8161
X6.3386Y-3.9252
X9.2567Y-1.3055
X9.2567Y-1.4055
X9.2567Y-1.5535
X9.2567Y-1.6535
X9.3567Y-1.3055
X9.3567Y-1.4055
X9.3567Y-1.5535
X9.3567Y-1.6535
X9.4567Y-1.3055
X9.4567Y-1.4055
X9.4567Y-1.5535
X9.4567Y-1.6535
T5
X6.6016Y-2.311
X6.6016Y-2.5276
X6.6016Y-2.7441
X6.6016Y-2.9606
X6.6016Y-3.1772
X6.6016Y-3.3937
X6.6016Y-3.6102
X6.6016Y-3.8465
X6.6016Y-4.0827
X6.6016Y-4.2992
X6.6016Y-4.5354
X6.6016Y-4.7717
X7.4016Y-2.311
X7.4016Y-2.5276
X7.4016Y-2.7441
X7.4016Y-2.9606
X7.4016Y-3.1772
X7.4016Y-3.3937
X7.4016Y-3.6102
X7.4016Y-3.8465
X7.4016Y-4.0827
X7.4016Y-4.2992
X7.4016Y-4.5354
X7.4016Y-4.7717
T6
X6.4055Y-1.4516
X6.4055Y-2.0906
X6.9055Y-1.4516
X6.9055Y-2.0906
T7
X6.2827Y-2.888
X6.2827Y-4.199
X6.2992Y-0.9055
X6.2992Y-2.4803
X6.2992Y-4.7244
X7.4803Y-0.9055
X9.0157Y-1.3898
X9.8425Y-4.7244
T2
G00X8.465Y-1.311
M15
G01X8.465Y-1.2874
M16
G05
G00X8.4791Y-1.5453
M15
G01X8.4791Y-1.5217
M16
G05
G00X8.5079Y-1.5827
M15
G01X8.4921Y-1.5827
M16
G05
G00X8.8043Y-1.5453
M15
G01X8.8043Y-1.5217
M16
G05
G00X8.8185Y-1.311
M15
G01X8.8185Y-1.2874
M16
G05
T0
M30
