%FSLAX45Y45*%
G04 Gerber Fmt 4.5, Leading zero omitted, Abs format (unit mm)*
G04 Created by KiCad (PCBNEW (5.1.9)-1) date 2021-07-25 18:06:38*
%MOMM*%
%LPD*%
G01*
G04 APERTURE LIST*
%TA.AperFunction,Profile*%
%ADD10C,0.050000*%
%TD*%
%ADD11C,0.200000*%
%ADD12C,0.300000*%
G04 APERTURE END LIST*
D10*
X15500000Y-1500000D02*
X15500000Y-12500000D01*
X25500000Y-1500000D02*
X25500000Y-12500000D01*
X15500000Y-12500000D02*
X25500000Y-12500000D01*
X15500000Y-1500000D02*
X25500000Y-1500000D01*
D11*
X18597500Y-8540000D02*
X18612500Y-8555000D01*
X18612500Y-8540000D02*
X18597500Y-8555000D01*
X19155000Y-8932500D02*
X19170000Y-8947500D01*
X19170000Y-8932500D02*
X19155000Y-8947500D01*
X19200000Y-10157500D02*
X19215000Y-10172500D01*
X19215000Y-10157500D02*
X19200000Y-10172500D01*
X19237500Y-9767500D02*
X19252500Y-9782500D01*
X19252500Y-9767500D02*
X19237500Y-9782500D01*
X19350000Y-9942500D02*
X19365000Y-9957500D01*
X19365000Y-9942500D02*
X19350000Y-9957500D01*
X19402500Y-5960000D02*
X19417500Y-5975000D01*
X19417500Y-5960000D02*
X19402500Y-5975000D01*
X19402500Y-8842500D02*
X19417500Y-8857500D01*
X19417500Y-8842500D02*
X19402500Y-8857500D01*
X19480000Y-8397500D02*
X19495000Y-8412500D01*
X19495000Y-8397500D02*
X19480000Y-8412500D01*
X19617500Y-9500000D02*
X19632500Y-9515000D01*
X19632500Y-9500000D02*
X19617500Y-9515000D01*
X19707500Y-8185000D02*
X19722500Y-8200000D01*
X19722500Y-8185000D02*
X19707500Y-8200000D01*
X19795000Y-8460000D02*
X19810000Y-8475000D01*
X19810000Y-8460000D02*
X19795000Y-8475000D01*
X19857500Y-9867500D02*
X19872500Y-9882500D01*
X19872500Y-9867500D02*
X19857500Y-9882500D01*
X19861001Y-10203999D02*
X19876001Y-10218999D01*
X19876001Y-10203999D02*
X19861001Y-10218999D01*
X19960000Y-9500000D02*
X19975000Y-9515000D01*
X19975000Y-9500000D02*
X19960000Y-9515000D01*
X19977390Y-9662500D02*
X19992390Y-9677500D01*
X19992390Y-9662500D02*
X19977390Y-9677500D01*
X20087500Y-9582500D02*
X20102500Y-9597500D01*
X20102500Y-9582500D02*
X20087500Y-9597500D01*
X20087500Y-9942500D02*
X20102500Y-9957500D01*
X20102500Y-9942500D02*
X20087500Y-9957500D01*
X20110000Y-8230000D02*
X20125000Y-8245000D01*
X20125000Y-8230000D02*
X20110000Y-8245000D01*
X20122105Y-10025664D02*
X20137105Y-10040664D01*
X20137105Y-10025664D02*
X20122105Y-10040664D01*
X20157500Y-8452500D02*
X20172500Y-8467500D01*
X20172500Y-8452500D02*
X20157500Y-8467500D01*
X20180000Y-10260000D02*
X20195000Y-10275000D01*
X20195000Y-10260000D02*
X20180000Y-10275000D01*
X20202500Y-7902500D02*
X20217500Y-7917500D01*
X20217500Y-7902500D02*
X20202500Y-7917500D01*
X20202500Y-8222500D02*
X20217500Y-8237500D01*
X20217500Y-8222500D02*
X20202500Y-8237500D01*
X20202500Y-9462500D02*
X20217500Y-9477500D01*
X20217500Y-9462500D02*
X20202500Y-9477500D01*
X20202500Y-9862500D02*
X20217500Y-9877500D01*
X20217500Y-9862500D02*
X20202500Y-9877500D01*
X20202500Y-9942500D02*
X20217500Y-9957500D01*
X20217500Y-9942500D02*
X20202500Y-9957500D01*
X20241499Y-8310517D02*
X20256499Y-8325517D01*
X20256499Y-8310517D02*
X20241499Y-8325517D01*
X20282500Y-8062500D02*
X20297500Y-8077500D01*
X20297500Y-8062500D02*
X20282500Y-8077500D01*
X20282500Y-8142500D02*
X20297500Y-8157500D01*
X20297500Y-8142500D02*
X20282500Y-8157500D01*
X20282500Y-8222500D02*
X20297500Y-8237500D01*
X20297500Y-8222500D02*
X20282500Y-8237500D01*
X20282500Y-9622500D02*
X20297500Y-9637500D01*
X20297500Y-9622500D02*
X20282500Y-9637500D01*
X20282500Y-9862500D02*
X20297500Y-9877500D01*
X20297500Y-9862500D02*
X20282500Y-9877500D01*
X20282500Y-9942500D02*
X20297500Y-9957500D01*
X20297500Y-9942500D02*
X20282500Y-9957500D01*
X20282500Y-10022500D02*
X20297500Y-10037500D01*
X20297500Y-10022500D02*
X20282500Y-10037500D01*
X20362500Y-7982500D02*
X20377500Y-7997500D01*
X20377500Y-7982500D02*
X20362500Y-7997500D01*
X20362500Y-8062500D02*
X20377500Y-8077500D01*
X20377500Y-8062500D02*
X20362500Y-8077500D01*
X20362500Y-8142500D02*
X20377500Y-8157500D01*
X20377500Y-8142500D02*
X20362500Y-8157500D01*
X20362500Y-8222500D02*
X20377500Y-8237500D01*
X20377500Y-8222500D02*
X20362500Y-8237500D01*
X20362500Y-9622500D02*
X20377500Y-9637500D01*
X20377500Y-9622500D02*
X20362500Y-9637500D01*
X20362500Y-9782500D02*
X20377500Y-9797500D01*
X20377500Y-9782500D02*
X20362500Y-9797500D01*
X20362500Y-9862500D02*
X20377500Y-9877500D01*
X20377500Y-9862500D02*
X20362500Y-9877500D01*
X20442500Y-7822500D02*
X20457500Y-7837500D01*
X20457500Y-7822500D02*
X20442500Y-7837500D01*
X20442500Y-7902500D02*
X20457500Y-7917500D01*
X20457500Y-7902500D02*
X20442500Y-7917500D01*
X20442500Y-7982500D02*
X20457500Y-7997500D01*
X20457500Y-7982500D02*
X20442500Y-7997500D01*
X20442500Y-8062500D02*
X20457500Y-8077500D01*
X20457500Y-8062500D02*
X20442500Y-8077500D01*
X20442500Y-8142500D02*
X20457500Y-8157500D01*
X20457500Y-8142500D02*
X20442500Y-8157500D01*
X20442500Y-8222500D02*
X20457500Y-8237500D01*
X20457500Y-8222500D02*
X20442500Y-8237500D01*
X20442500Y-9622500D02*
X20457500Y-9637500D01*
X20457500Y-9622500D02*
X20442500Y-9637500D01*
X20442500Y-9702500D02*
X20457500Y-9717500D01*
X20457500Y-9702500D02*
X20442500Y-9717500D01*
X20442500Y-9782500D02*
X20457500Y-9797500D01*
X20457500Y-9782500D02*
X20442500Y-9797500D01*
X20442500Y-9862500D02*
X20457500Y-9877500D01*
X20457500Y-9862500D02*
X20442500Y-9877500D01*
X20442500Y-9942500D02*
X20457500Y-9957500D01*
X20457500Y-9942500D02*
X20442500Y-9957500D01*
X20442500Y-10022500D02*
X20457500Y-10037500D01*
X20457500Y-10022500D02*
X20442500Y-10037500D01*
X20522500Y-7822500D02*
X20537500Y-7837500D01*
X20537500Y-7822500D02*
X20522500Y-7837500D01*
X20522500Y-7902500D02*
X20537500Y-7917500D01*
X20537500Y-7902500D02*
X20522500Y-7917500D01*
X20522500Y-8062500D02*
X20537500Y-8077500D01*
X20537500Y-8062500D02*
X20522500Y-8077500D01*
X20522500Y-8142500D02*
X20537500Y-8157500D01*
X20537500Y-8142500D02*
X20522500Y-8157500D01*
X20522500Y-8222500D02*
X20537500Y-8237500D01*
X20537500Y-8222500D02*
X20522500Y-8237500D01*
X20522500Y-9622500D02*
X20537500Y-9637500D01*
X20537500Y-9622500D02*
X20522500Y-9637500D01*
X20522500Y-9702500D02*
X20537500Y-9717500D01*
X20537500Y-9702500D02*
X20522500Y-9717500D01*
X20522500Y-9782500D02*
X20537500Y-9797500D01*
X20537500Y-9782500D02*
X20522500Y-9797500D01*
X20522500Y-9860000D02*
X20537500Y-9875000D01*
X20537500Y-9860000D02*
X20522500Y-9875000D01*
X20522500Y-9942500D02*
X20537500Y-9957500D01*
X20537500Y-9942500D02*
X20522500Y-9957500D01*
X20522500Y-10022500D02*
X20537500Y-10037500D01*
X20537500Y-10022500D02*
X20522500Y-10037500D01*
X20602000Y-9942500D02*
X20617000Y-9957500D01*
X20617000Y-9942500D02*
X20602000Y-9957500D01*
X20602500Y-7822500D02*
X20617500Y-7837500D01*
X20617500Y-7822500D02*
X20602500Y-7837500D01*
X20602500Y-7902500D02*
X20617500Y-7917500D01*
X20617500Y-7902500D02*
X20602500Y-7917500D01*
X20602500Y-7982500D02*
X20617500Y-7997500D01*
X20617500Y-7982500D02*
X20602500Y-7997500D01*
X20602500Y-8062500D02*
X20617500Y-8077500D01*
X20617500Y-8062500D02*
X20602500Y-8077500D01*
X20602500Y-8142500D02*
X20617500Y-8157500D01*
X20617500Y-8142500D02*
X20602500Y-8157500D01*
X20602500Y-8222500D02*
X20617500Y-8237500D01*
X20617500Y-8222500D02*
X20602500Y-8237500D01*
X20602500Y-9622500D02*
X20617500Y-9637500D01*
X20617500Y-9622500D02*
X20602500Y-9637500D01*
X20602500Y-9702500D02*
X20617500Y-9717500D01*
X20617500Y-9702500D02*
X20602500Y-9717500D01*
X20602500Y-9782500D02*
X20617500Y-9797500D01*
X20617500Y-9782500D02*
X20602500Y-9797500D01*
X20602500Y-9862500D02*
X20617500Y-9877500D01*
X20617500Y-9862500D02*
X20602500Y-9877500D01*
X20602500Y-10022500D02*
X20617500Y-10037500D01*
X20617500Y-10022500D02*
X20602500Y-10037500D01*
X20785000Y-9582500D02*
X20800000Y-9597500D01*
X20800000Y-9582500D02*
X20785000Y-9597500D01*
X20790000Y-7782500D02*
X20805000Y-7797500D01*
X20805000Y-7782500D02*
X20790000Y-7797500D01*
X20797500Y-9390000D02*
X20812500Y-9405000D01*
X20812500Y-9390000D02*
X20797500Y-9405000D01*
X20827500Y-8122500D02*
X20842500Y-8137500D01*
X20842500Y-8122500D02*
X20827500Y-8137500D01*
X20862500Y-9287500D02*
X20877500Y-9302500D01*
X20877500Y-9287500D02*
X20862500Y-9302500D01*
X21202500Y-8122500D02*
X21217500Y-8137500D01*
X21217500Y-8122500D02*
X21202500Y-8137500D01*
X21532500Y-9627500D02*
X21547500Y-9642500D01*
X21547500Y-9627500D02*
X21532500Y-9642500D01*
X21732500Y-9747500D02*
X21747500Y-9762500D01*
X21747500Y-9747500D02*
X21732500Y-9762500D01*
X21790000Y-9490000D02*
X21805000Y-9505000D01*
X21805000Y-9490000D02*
X21790000Y-9505000D01*
X21795000Y-9387500D02*
X21810000Y-9402500D01*
X21810000Y-9387500D02*
X21795000Y-9402500D01*
X21857500Y-11535000D02*
X21872500Y-11550000D01*
X21872500Y-11535000D02*
X21857500Y-11550000D01*
D12*
X15783928Y-12968214D02*
X15783928Y-12668214D01*
X15855357Y-12668214D01*
X15898214Y-12682500D01*
X15926786Y-12711071D01*
X15941071Y-12739643D01*
X15955357Y-12796786D01*
X15955357Y-12839643D01*
X15941071Y-12896786D01*
X15926786Y-12925357D01*
X15898214Y-12953929D01*
X15855357Y-12968214D01*
X15783928Y-12968214D01*
X16083928Y-12968214D02*
X16083928Y-12768214D01*
X16083928Y-12825357D02*
X16098214Y-12796786D01*
X16112500Y-12782500D01*
X16141071Y-12768214D01*
X16169643Y-12768214D01*
X16269643Y-12968214D02*
X16269643Y-12768214D01*
X16269643Y-12668214D02*
X16255357Y-12682500D01*
X16269643Y-12696786D01*
X16283928Y-12682500D01*
X16269643Y-12668214D01*
X16269643Y-12696786D01*
X16455357Y-12968214D02*
X16426786Y-12953929D01*
X16412500Y-12925357D01*
X16412500Y-12668214D01*
X16612500Y-12968214D02*
X16583928Y-12953929D01*
X16569643Y-12925357D01*
X16569643Y-12668214D01*
X16955357Y-12968214D02*
X16955357Y-12668214D01*
X17055357Y-12882500D01*
X17155357Y-12668214D01*
X17155357Y-12968214D01*
X17426786Y-12968214D02*
X17426786Y-12811071D01*
X17412500Y-12782500D01*
X17383928Y-12768214D01*
X17326786Y-12768214D01*
X17298214Y-12782500D01*
X17426786Y-12953929D02*
X17398214Y-12968214D01*
X17326786Y-12968214D01*
X17298214Y-12953929D01*
X17283928Y-12925357D01*
X17283928Y-12896786D01*
X17298214Y-12868214D01*
X17326786Y-12853929D01*
X17398214Y-12853929D01*
X17426786Y-12839643D01*
X17569643Y-12768214D02*
X17569643Y-13068214D01*
X17569643Y-12782500D02*
X17598214Y-12768214D01*
X17655357Y-12768214D01*
X17683928Y-12782500D01*
X17698214Y-12796786D01*
X17712500Y-12825357D01*
X17712500Y-12911071D01*
X17698214Y-12939643D01*
X17683928Y-12953929D01*
X17655357Y-12968214D01*
X17598214Y-12968214D01*
X17569643Y-12953929D01*
X17841071Y-12939643D02*
X17855357Y-12953929D01*
X17841071Y-12968214D01*
X17826786Y-12953929D01*
X17841071Y-12939643D01*
X17841071Y-12968214D01*
X17841071Y-12782500D02*
X17855357Y-12796786D01*
X17841071Y-12811071D01*
X17826786Y-12796786D01*
X17841071Y-12782500D01*
X17841071Y-12811071D01*
X15482500Y-13455000D02*
X15497500Y-13470000D01*
X15497500Y-13455000D02*
X15482500Y-13470000D01*
X15841071Y-13298214D02*
X15869643Y-13298214D01*
X15898214Y-13312500D01*
X15912500Y-13326786D01*
X15926786Y-13355357D01*
X15941071Y-13412500D01*
X15941071Y-13483929D01*
X15926786Y-13541071D01*
X15912500Y-13569643D01*
X15898214Y-13583929D01*
X15869643Y-13598214D01*
X15841071Y-13598214D01*
X15812500Y-13583929D01*
X15798214Y-13569643D01*
X15783928Y-13541071D01*
X15769643Y-13483929D01*
X15769643Y-13412500D01*
X15783928Y-13355357D01*
X15798214Y-13326786D01*
X15812500Y-13312500D01*
X15841071Y-13298214D01*
X16069643Y-13569643D02*
X16083928Y-13583929D01*
X16069643Y-13598214D01*
X16055357Y-13583929D01*
X16069643Y-13569643D01*
X16069643Y-13598214D01*
X16369643Y-13598214D02*
X16198214Y-13598214D01*
X16283928Y-13598214D02*
X16283928Y-13298214D01*
X16255357Y-13341071D01*
X16226786Y-13369643D01*
X16198214Y-13383929D01*
X16641071Y-13298214D02*
X16498214Y-13298214D01*
X16483928Y-13441071D01*
X16498214Y-13426786D01*
X16526786Y-13412500D01*
X16598214Y-13412500D01*
X16626786Y-13426786D01*
X16641071Y-13441071D01*
X16655357Y-13469643D01*
X16655357Y-13541071D01*
X16641071Y-13569643D01*
X16626786Y-13583929D01*
X16598214Y-13598214D01*
X16526786Y-13598214D01*
X16498214Y-13583929D01*
X16483928Y-13569643D01*
X16783928Y-13598214D02*
X16783928Y-13398214D01*
X16783928Y-13426786D02*
X16798214Y-13412500D01*
X16826786Y-13398214D01*
X16869643Y-13398214D01*
X16898214Y-13412500D01*
X16912500Y-13441071D01*
X16912500Y-13598214D01*
X16912500Y-13441071D02*
X16926786Y-13412500D01*
X16955357Y-13398214D01*
X16998214Y-13398214D01*
X17026786Y-13412500D01*
X17041071Y-13441071D01*
X17041071Y-13598214D01*
X17183928Y-13598214D02*
X17183928Y-13398214D01*
X17183928Y-13426786D02*
X17198214Y-13412500D01*
X17226786Y-13398214D01*
X17269643Y-13398214D01*
X17298214Y-13412500D01*
X17312500Y-13441071D01*
X17312500Y-13598214D01*
X17312500Y-13441071D02*
X17326786Y-13412500D01*
X17355357Y-13398214D01*
X17398214Y-13398214D01*
X17426786Y-13412500D01*
X17441071Y-13441071D01*
X17441071Y-13598214D01*
X18026786Y-13283929D02*
X17769643Y-13669643D01*
X18412500Y-13298214D02*
X18441071Y-13298214D01*
X18469643Y-13312500D01*
X18483928Y-13326786D01*
X18498214Y-13355357D01*
X18512500Y-13412500D01*
X18512500Y-13483929D01*
X18498214Y-13541071D01*
X18483928Y-13569643D01*
X18469643Y-13583929D01*
X18441071Y-13598214D01*
X18412500Y-13598214D01*
X18383928Y-13583929D01*
X18369643Y-13569643D01*
X18355357Y-13541071D01*
X18341071Y-13483929D01*
X18341071Y-13412500D01*
X18355357Y-13355357D01*
X18369643Y-13326786D01*
X18383928Y-13312500D01*
X18412500Y-13298214D01*
X18641071Y-13569643D02*
X18655357Y-13583929D01*
X18641071Y-13598214D01*
X18626786Y-13583929D01*
X18641071Y-13569643D01*
X18641071Y-13598214D01*
X18841071Y-13298214D02*
X18869643Y-13298214D01*
X18898214Y-13312500D01*
X18912500Y-13326786D01*
X18926786Y-13355357D01*
X18941071Y-13412500D01*
X18941071Y-13483929D01*
X18926786Y-13541071D01*
X18912500Y-13569643D01*
X18898214Y-13583929D01*
X18869643Y-13598214D01*
X18841071Y-13598214D01*
X18812500Y-13583929D01*
X18798214Y-13569643D01*
X18783928Y-13541071D01*
X18769643Y-13483929D01*
X18769643Y-13412500D01*
X18783928Y-13355357D01*
X18798214Y-13326786D01*
X18812500Y-13312500D01*
X18841071Y-13298214D01*
X19126786Y-13298214D02*
X19155357Y-13298214D01*
X19183928Y-13312500D01*
X19198214Y-13326786D01*
X19212500Y-13355357D01*
X19226786Y-13412500D01*
X19226786Y-13483929D01*
X19212500Y-13541071D01*
X19198214Y-13569643D01*
X19183928Y-13583929D01*
X19155357Y-13598214D01*
X19126786Y-13598214D01*
X19098214Y-13583929D01*
X19083928Y-13569643D01*
X19069643Y-13541071D01*
X19055357Y-13483929D01*
X19055357Y-13412500D01*
X19069643Y-13355357D01*
X19083928Y-13326786D01*
X19098214Y-13312500D01*
X19126786Y-13298214D01*
X19483928Y-13298214D02*
X19426786Y-13298214D01*
X19398214Y-13312500D01*
X19383928Y-13326786D01*
X19355357Y-13369643D01*
X19341071Y-13426786D01*
X19341071Y-13541071D01*
X19355357Y-13569643D01*
X19369643Y-13583929D01*
X19398214Y-13598214D01*
X19455357Y-13598214D01*
X19483928Y-13583929D01*
X19498214Y-13569643D01*
X19512500Y-13541071D01*
X19512500Y-13469643D01*
X19498214Y-13441071D01*
X19483928Y-13426786D01*
X19455357Y-13412500D01*
X19398214Y-13412500D01*
X19369643Y-13426786D01*
X19355357Y-13441071D01*
X19341071Y-13469643D01*
X19626786Y-13298214D02*
X19626786Y-13355357D01*
X19741071Y-13298214D02*
X19741071Y-13355357D01*
X20183928Y-13712500D02*
X20169643Y-13698214D01*
X20141071Y-13655357D01*
X20126786Y-13626786D01*
X20112500Y-13583929D01*
X20098214Y-13512500D01*
X20098214Y-13455357D01*
X20112500Y-13383929D01*
X20126786Y-13341071D01*
X20141071Y-13312500D01*
X20169643Y-13269643D01*
X20183928Y-13255357D01*
X20341071Y-13426786D02*
X20312500Y-13412500D01*
X20298214Y-13398214D01*
X20283928Y-13369643D01*
X20283928Y-13355357D01*
X20298214Y-13326786D01*
X20312500Y-13312500D01*
X20341071Y-13298214D01*
X20398214Y-13298214D01*
X20426786Y-13312500D01*
X20441071Y-13326786D01*
X20455357Y-13355357D01*
X20455357Y-13369643D01*
X20441071Y-13398214D01*
X20426786Y-13412500D01*
X20398214Y-13426786D01*
X20341071Y-13426786D01*
X20312500Y-13441071D01*
X20298214Y-13455357D01*
X20283928Y-13483929D01*
X20283928Y-13541071D01*
X20298214Y-13569643D01*
X20312500Y-13583929D01*
X20341071Y-13598214D01*
X20398214Y-13598214D01*
X20426786Y-13583929D01*
X20441071Y-13569643D01*
X20455357Y-13541071D01*
X20455357Y-13483929D01*
X20441071Y-13455357D01*
X20426786Y-13441071D01*
X20398214Y-13426786D01*
X20555357Y-13298214D02*
X20755357Y-13298214D01*
X20626786Y-13598214D01*
X21098214Y-13598214D02*
X21098214Y-13298214D01*
X21226786Y-13598214D02*
X21226786Y-13441071D01*
X21212500Y-13412500D01*
X21183928Y-13398214D01*
X21141071Y-13398214D01*
X21112500Y-13412500D01*
X21098214Y-13426786D01*
X21412500Y-13598214D02*
X21383928Y-13583929D01*
X21369643Y-13569643D01*
X21355357Y-13541071D01*
X21355357Y-13455357D01*
X21369643Y-13426786D01*
X21383928Y-13412500D01*
X21412500Y-13398214D01*
X21455357Y-13398214D01*
X21483928Y-13412500D01*
X21498214Y-13426786D01*
X21512500Y-13455357D01*
X21512500Y-13541071D01*
X21498214Y-13569643D01*
X21483928Y-13583929D01*
X21455357Y-13598214D01*
X21412500Y-13598214D01*
X21683928Y-13598214D02*
X21655357Y-13583929D01*
X21641071Y-13555357D01*
X21641071Y-13298214D01*
X21912500Y-13583929D02*
X21883928Y-13598214D01*
X21826786Y-13598214D01*
X21798214Y-13583929D01*
X21783928Y-13555357D01*
X21783928Y-13441071D01*
X21798214Y-13412500D01*
X21826786Y-13398214D01*
X21883928Y-13398214D01*
X21912500Y-13412500D01*
X21926786Y-13441071D01*
X21926786Y-13469643D01*
X21783928Y-13498214D01*
X22041071Y-13583929D02*
X22069643Y-13598214D01*
X22126786Y-13598214D01*
X22155357Y-13583929D01*
X22169643Y-13555357D01*
X22169643Y-13541071D01*
X22155357Y-13512500D01*
X22126786Y-13498214D01*
X22083928Y-13498214D01*
X22055357Y-13483929D01*
X22041071Y-13455357D01*
X22041071Y-13441071D01*
X22055357Y-13412500D01*
X22083928Y-13398214D01*
X22126786Y-13398214D01*
X22155357Y-13412500D01*
X22269643Y-13712500D02*
X22283928Y-13698214D01*
X22312500Y-13655357D01*
X22326786Y-13626786D01*
X22341071Y-13583929D01*
X22355357Y-13512500D01*
X22355357Y-13455357D01*
X22341071Y-13383929D01*
X22326786Y-13341071D01*
X22312500Y-13312500D01*
X22283928Y-13269643D01*
X22269643Y-13255357D01*
M02*
