%FSLAX45Y45*%
G04 Gerber Fmt 4.5, Leading zero omitted, Abs format (unit mm)*
G04 Created by KiCad (PCBNEW (5.1.9)-1) date 2021-07-25 18:06:38*
%MOMM*%
%LPD*%
G01*
G04 APERTURE LIST*
%TA.AperFunction,Profile*%
%ADD10C,0.050000*%
%TD*%
%ADD11C,0.200000*%
%ADD12C,0.300000*%
G04 APERTURE END LIST*
D10*
X15500000Y-1500000D02*
X15500000Y-12500000D01*
X25500000Y-1500000D02*
X25500000Y-12500000D01*
X15500000Y-12500000D02*
X25500000Y-12500000D01*
X15500000Y-1500000D02*
X25500000Y-1500000D01*
D11*
D12*
X15783928Y-12968214D02*
X15783928Y-12668214D01*
X15855357Y-12668214D01*
X15898214Y-12682500D01*
X15926786Y-12711071D01*
X15941071Y-12739643D01*
X15955357Y-12796786D01*
X15955357Y-12839643D01*
X15941071Y-12896786D01*
X15926786Y-12925357D01*
X15898214Y-12953929D01*
X15855357Y-12968214D01*
X15783928Y-12968214D01*
X16083928Y-12968214D02*
X16083928Y-12768214D01*
X16083928Y-12825357D02*
X16098214Y-12796786D01*
X16112500Y-12782500D01*
X16141071Y-12768214D01*
X16169643Y-12768214D01*
X16269643Y-12968214D02*
X16269643Y-12768214D01*
X16269643Y-12668214D02*
X16255357Y-12682500D01*
X16269643Y-12696786D01*
X16283928Y-12682500D01*
X16269643Y-12668214D01*
X16269643Y-12696786D01*
X16455357Y-12968214D02*
X16426786Y-12953929D01*
X16412500Y-12925357D01*
X16412500Y-12668214D01*
X16612500Y-12968214D02*
X16583928Y-12953929D01*
X16569643Y-12925357D01*
X16569643Y-12668214D01*
X16955357Y-12968214D02*
X16955357Y-12668214D01*
X17055357Y-12882500D01*
X17155357Y-12668214D01*
X17155357Y-12968214D01*
X17426786Y-12968214D02*
X17426786Y-12811071D01*
X17412500Y-12782500D01*
X17383928Y-12768214D01*
X17326786Y-12768214D01*
X17298214Y-12782500D01*
X17426786Y-12953929D02*
X17398214Y-12968214D01*
X17326786Y-12968214D01*
X17298214Y-12953929D01*
X17283928Y-12925357D01*
X17283928Y-12896786D01*
X17298214Y-12868214D01*
X17326786Y-12853929D01*
X17398214Y-12853929D01*
X17426786Y-12839643D01*
X17569643Y-12768214D02*
X17569643Y-13068214D01*
X17569643Y-12782500D02*
X17598214Y-12768214D01*
X17655357Y-12768214D01*
X17683928Y-12782500D01*
X17698214Y-12796786D01*
X17712500Y-12825357D01*
X17712500Y-12911071D01*
X17698214Y-12939643D01*
X17683928Y-12953929D01*
X17655357Y-12968214D01*
X17598214Y-12968214D01*
X17569643Y-12953929D01*
X17841071Y-12939643D02*
X17855357Y-12953929D01*
X17841071Y-12968214D01*
X17826786Y-12953929D01*
X17841071Y-12939643D01*
X17841071Y-12968214D01*
X17841071Y-12782500D02*
X17855357Y-12796786D01*
X17841071Y-12811071D01*
X17826786Y-12796786D01*
X17841071Y-12782500D01*
X17841071Y-12811071D01*
M02*
