%TF.GenerationSoftware,KiCad,Pcbnew,(5.1.9)-1*%
%TF.CreationDate,2021-07-25T18:06:35+01:00*%
%TF.ProjectId,P205,50323035-2e6b-4696-9361-645f70636258,rev?*%
%TF.SameCoordinates,Original*%
%TF.FileFunction,Copper,L2,Inr*%
%TF.FilePolarity,Positive*%
%FSLAX46Y46*%
G04 Gerber Fmt 4.6, Leading zero omitted, Abs format (unit mm)*
G04 Created by KiCad (PCBNEW (5.1.9)-1) date 2021-07-25 18:06:35*
%MOMM*%
%LPD*%
G01*
G04 APERTURE LIST*
%TA.AperFunction,ComponentPad*%
%ADD10C,2.100000*%
%TD*%
%TA.AperFunction,ComponentPad*%
%ADD11O,2.400000X2.400000*%
%TD*%
%TA.AperFunction,ComponentPad*%
%ADD12C,2.400000*%
%TD*%
%TA.AperFunction,ComponentPad*%
%ADD13C,3.600000*%
%TD*%
%TA.AperFunction,ComponentPad*%
%ADD14C,0.600000*%
%TD*%
%TA.AperFunction,ComponentPad*%
%ADD15O,1.700000X1.700000*%
%TD*%
%TA.AperFunction,ComponentPad*%
%ADD16R,1.700000X1.700000*%
%TD*%
%TA.AperFunction,ComponentPad*%
%ADD17O,1.000000X1.000000*%
%TD*%
%TA.AperFunction,ComponentPad*%
%ADD18R,1.000000X1.000000*%
%TD*%
%TA.AperFunction,ComponentPad*%
%ADD19C,0.700000*%
%TD*%
%TA.AperFunction,ComponentPad*%
%ADD20O,1.100000X0.700000*%
%TD*%
%TA.AperFunction,ComponentPad*%
%ADD21O,0.800000X1.600000*%
%TD*%
%TA.AperFunction,ComponentPad*%
%ADD22C,4.000000*%
%TD*%
%TA.AperFunction,ComponentPad*%
%ADD23C,1.600000*%
%TD*%
%TA.AperFunction,ComponentPad*%
%ADD24R,1.600000X1.600000*%
%TD*%
%TA.AperFunction,ViaPad*%
%ADD25C,0.600000*%
%TD*%
%TA.AperFunction,ViaPad*%
%ADD26C,0.250000*%
%TD*%
%TA.AperFunction,Conductor*%
%ADD27C,0.300000*%
%TD*%
%TA.AperFunction,Conductor*%
%ADD28C,0.200000*%
%TD*%
%TA.AperFunction,Conductor*%
%ADD29C,0.160000*%
%TD*%
%TA.AperFunction,Conductor*%
%ADD30C,0.100000*%
%TD*%
G04 APERTURE END LIST*
D10*
%TO.N,Net-(J5-PadTN1)*%
%TO.C,J5*%
X175400000Y-36870000D03*
%TO.N,Net-(J5-PadSN1)*%
X162700000Y-36870000D03*
%TO.N,/NTC2*%
X175400000Y-53100000D03*
%TO.N,/NTC1*%
X162700000Y-53100000D03*
%TD*%
D11*
%TO.N,/V5*%
%TO.C,R18*%
X167680000Y-75200000D03*
D12*
%TO.N,/ECG_AFE/ADS_V5*%
X188000000Y-75200000D03*
%TD*%
D11*
%TO.N,/V1*%
%TO.C,R14*%
X167680000Y-69700000D03*
D12*
%TO.N,/ECG_AFE/ADS_V1*%
X188000000Y-69700000D03*
%TD*%
D11*
%TO.N,/V2*%
%TO.C,R15*%
X167680000Y-121200000D03*
D12*
%TO.N,/ECG_AFE/ADS_V2*%
X188000000Y-121200000D03*
%TD*%
D13*
%TO.N,Earth*%
%TO.C,H6*%
X190000000Y-23000000D03*
%TD*%
%TO.N,Earth*%
%TO.C,H5*%
X160000000Y-23000000D03*
%TD*%
D14*
%TO.N,GNDS*%
%TO.C,NT1*%
X228582870Y-48212976D03*
%TO.N,GNDD*%
X229034925Y-45654041D03*
%TO.N,GNDREF*%
X231418117Y-44808801D03*
X233467130Y-46437024D03*
%TO.N,GNDD*%
X233015075Y-48995959D03*
%TO.N,GNDS*%
X230572945Y-49883935D03*
%TO.N,*%
X229779459Y-46988653D03*
X230215036Y-46320779D03*
X230959992Y-46036484D03*
X231729778Y-46244358D03*
X232230363Y-46865000D03*
X232270541Y-47661347D03*
X231834964Y-48329221D03*
X231090008Y-48613516D03*
X230320222Y-48405642D03*
X229819637Y-47785000D03*
%TD*%
D11*
%TO.N,/RA*%
%TO.C,R25*%
X167680000Y-115200000D03*
D12*
%TO.N,Net-(C5-Pad2)*%
X188000000Y-115200000D03*
%TD*%
D11*
%TO.N,/LA*%
%TO.C,R24*%
X167680000Y-97700000D03*
D12*
%TO.N,Net-(C4-Pad2)*%
X188000000Y-97700000D03*
%TD*%
D11*
%TO.N,/RL*%
%TO.C,R23*%
X167680000Y-58700000D03*
D12*
%TO.N,/ECG_AFE/ADS_RL*%
X188000000Y-58700000D03*
%TD*%
D11*
%TO.N,/LA*%
%TO.C,R22*%
X167680000Y-91700000D03*
D12*
%TO.N,/ECG_AFE/ADS_LA*%
X188000000Y-91700000D03*
%TD*%
D11*
%TO.N,/LL*%
%TO.C,R21*%
X167680000Y-80700000D03*
D12*
%TO.N,/ECG_AFE/ADS_LL*%
X188000000Y-80700000D03*
%TD*%
D11*
%TO.N,/RA*%
%TO.C,R20*%
X167680000Y-109200000D03*
D12*
%TO.N,/ECG_AFE/ADS_RA*%
X188000000Y-109200000D03*
%TD*%
D11*
%TO.N,/V6*%
%TO.C,R19*%
X167680000Y-64200000D03*
D12*
%TO.N,/ECG_AFE/ADS_V6*%
X188000000Y-64200000D03*
%TD*%
D11*
%TO.N,/V4*%
%TO.C,R17*%
X167680000Y-86200000D03*
D12*
%TO.N,/ECG_AFE/ADS_V4*%
X188000000Y-86200000D03*
%TD*%
D11*
%TO.N,/V3*%
%TO.C,R16*%
X167680000Y-103700000D03*
D12*
%TO.N,/ECG_AFE/ADS_V3*%
X188000000Y-103700000D03*
%TD*%
D15*
%TO.N,/BATT_RAW*%
%TO.C,J17*%
X240200000Y-33160000D03*
%TO.N,Net-(J11-Pad6)*%
X240200000Y-35700000D03*
%TO.N,/BATT*%
X237660000Y-33160000D03*
%TO.N,Net-(J11-Pad4)*%
X237660000Y-35700000D03*
%TO.N,/V_BUS*%
X235120000Y-33160000D03*
D16*
%TO.N,Net-(J11-Pad2)*%
X235120000Y-35700000D03*
%TD*%
D17*
%TO.N,N/C*%
%TO.C,J16*%
X231515000Y-120295000D03*
X231515000Y-119025000D03*
%TO.N,GNDD*%
X230245000Y-120295000D03*
X230245000Y-119025000D03*
X228975000Y-120295000D03*
X228975000Y-119025000D03*
%TO.N,/uC1_P0.24*%
X227705000Y-120295000D03*
%TO.N,/uC1_P0.23*%
X227705000Y-119025000D03*
%TO.N,/uC1_P0.22*%
X226435000Y-120295000D03*
%TO.N,/uC1_P0.20*%
X226435000Y-119025000D03*
%TO.N,/uC1_P0.19*%
X225165000Y-120295000D03*
%TO.N,/DVCC*%
X225165000Y-119025000D03*
X223895000Y-120295000D03*
X223895000Y-119025000D03*
%TO.N,/BATT*%
X222625000Y-120295000D03*
D18*
X222625000Y-119025000D03*
%TD*%
D19*
%TO.N,*%
%TO.C,J14*%
X223100000Y-40200000D03*
D20*
X215900000Y-40200000D03*
D21*
%TO.N,GNDREF*%
X223630000Y-38950000D03*
X215370000Y-38950000D03*
X215010000Y-33000000D03*
X223990000Y-33000000D03*
%TD*%
D15*
%TO.N,Net-(J11-Pad6)*%
%TO.C,J11*%
X240200000Y-39460000D03*
%TO.N,/BATT_RAW*%
X240200000Y-42000000D03*
%TO.N,Net-(J11-Pad4)*%
X237660000Y-39460000D03*
%TO.N,/BATT*%
X237660000Y-42000000D03*
%TO.N,Net-(J11-Pad2)*%
X235120000Y-39460000D03*
D16*
%TO.N,/V_BUS*%
X235120000Y-42000000D03*
%TD*%
D17*
%TO.N,N/C*%
%TO.C,J8*%
X242915000Y-120295000D03*
X242915000Y-119025000D03*
%TO.N,GNDD*%
X241645000Y-120295000D03*
X241645000Y-119025000D03*
X240375000Y-120295000D03*
X240375000Y-119025000D03*
%TO.N,/uC2_AIN0_P0.02*%
X239105000Y-120295000D03*
%TO.N,/uC1_AIN5_P0.29*%
X239105000Y-119025000D03*
%TO.N,/uC1_AIN4_P0.28*%
X237835000Y-120295000D03*
%TO.N,/uC1_AIN3_P0.05*%
X237835000Y-119025000D03*
%TO.N,/uC1_AIN2_P0.04*%
X236565000Y-120295000D03*
%TO.N,/uC1_AIN1_P0.03*%
X236565000Y-119025000D03*
%TO.N,/uC1_AIN0_P0.02*%
X235295000Y-120295000D03*
%TO.N,/DVCC*%
X235295000Y-119025000D03*
X234025000Y-120295000D03*
D18*
X234025000Y-119025000D03*
%TD*%
D22*
%TO.N,GNDS*%
%TO.C,J4*%
X159580000Y-106655000D03*
X159580000Y-73355000D03*
D23*
%TO.N,Net-(J4-Pad15)*%
X158160000Y-81695000D03*
%TO.N,/RL*%
X158160000Y-84465000D03*
%TO.N,Net-(J4-Pad13)*%
X158160000Y-87235000D03*
%TO.N,/V1*%
X158160000Y-90005000D03*
%TO.N,/LL*%
X158160000Y-92775000D03*
%TO.N,/LA*%
X158160000Y-95545000D03*
%TO.N,/RA*%
X158160000Y-98315000D03*
%TO.N,Net-(J4-Pad8)*%
X161000000Y-80310000D03*
%TO.N,Net-(J4-Pad7)*%
X161000000Y-83080000D03*
%TO.N,Net-(J4-Pad6)*%
X161000000Y-85850000D03*
%TO.N,/V6*%
X161000000Y-88620000D03*
%TO.N,/V5*%
X161000000Y-91390000D03*
%TO.N,/V4*%
X161000000Y-94160000D03*
%TO.N,/V3*%
X161000000Y-96930000D03*
D24*
%TO.N,/V2*%
X161000000Y-99700000D03*
%TD*%
D13*
%TO.N,GNDD*%
%TO.C,H4*%
X229000000Y-35300000D03*
%TD*%
%TO.N,GNDD*%
%TO.C,H3*%
X160000000Y-120000000D03*
%TD*%
%TO.N,GNDD*%
%TO.C,H2*%
X160000000Y-63000000D03*
%TD*%
%TO.N,GNDD*%
%TO.C,H1*%
X250000000Y-120000000D03*
%TD*%
D25*
%TO.N,/BTN_C*%
X170150000Y-25675000D03*
X170150000Y-23575000D03*
%TO.N,/BTN_RD*%
X173775000Y-22125000D03*
%TO.N,/BTN_LD*%
X173750000Y-21000000D03*
%TO.N,Net-(J18-Pad7)*%
X182625000Y-22350000D03*
D26*
%TO.N,GNDD*%
X206100000Y-79100000D03*
X206100000Y-79900000D03*
X206100000Y-80700000D03*
X205300000Y-81500000D03*
X205300000Y-80700000D03*
X204500000Y-80700000D03*
X203700000Y-80700000D03*
X206100000Y-82300000D03*
X204500000Y-98700000D03*
X206100000Y-97100000D03*
X206100000Y-97900000D03*
X206100000Y-98700000D03*
X205300000Y-98675000D03*
X203700000Y-98700000D03*
%TO.N,GNDS*%
X203700000Y-79900000D03*
X204500000Y-79900000D03*
X204500000Y-79100000D03*
X204500000Y-78300000D03*
X204500000Y-96300000D03*
X204500000Y-97100000D03*
X204500000Y-97900000D03*
X203700000Y-97900000D03*
%TO.N,/ECG_AFE/ADS_V1*%
X192075000Y-101650000D03*
%TO.N,/ECG_AFE/ADS_V2*%
X196250000Y-95075000D03*
X199675000Y-95075000D03*
%TO.N,/ECG_AFE/ADS_V3*%
X191625000Y-89400000D03*
%TO.N,/ECG_AFE/ADS_RA*%
X198650000Y-98750000D03*
X198685010Y-102114990D03*
%TO.N,/ECG_AFE/ADS_LL*%
X200950000Y-99500000D03*
X200950000Y-95900000D03*
X186050000Y-85475000D03*
%TO.N,/ECG_AFE/ADS_LA*%
X199848896Y-96700000D03*
X202100000Y-99500000D03*
X201296045Y-100331641D03*
%TO.N,/ECG_AFE/ADS_IN1P*%
X192450000Y-97750000D03*
X198025000Y-84675000D03*
%TO.N,/ECG_AFE/ADS_IN1N*%
X194875000Y-84050000D03*
X202489990Y-83180170D03*
%TO.N,/ECG_AFE/ADS_RL*%
X194100000Y-59675000D03*
X194100000Y-88500000D03*
%TO.N,/ECG_AFE/WCT*%
X202100000Y-94700000D03*
X202100000Y-98700000D03*
X202100000Y-82300000D03*
X201175000Y-82375000D03*
%TO.N,Net-(C25-Pad1)*%
X202900000Y-100300000D03*
X201875000Y-102675000D03*
%TO.N,Net-(C26-Pad1)*%
X202900000Y-82300000D03*
X201650000Y-84600000D03*
%TO.N,Net-(C30-Pad1)*%
X206100000Y-96300000D03*
X207925000Y-95900000D03*
%TO.N,Net-(C31-Pad1)*%
X206100000Y-78300000D03*
X207975000Y-77900000D03*
D25*
%TO.N,Net-(C32-Pad2)*%
X209575000Y-94000000D03*
X214275000Y-91350000D03*
D26*
%TO.N,/DVCC*%
X205300000Y-82300000D03*
X205300000Y-100300000D03*
%TO.N,GNDD*%
X206100000Y-100300000D03*
X205300000Y-99500000D03*
%TO.N,/AVCC*%
X205300000Y-78300000D03*
X205300000Y-79100000D03*
X202100000Y-79100000D03*
X203700000Y-96300000D03*
X205300000Y-96300000D03*
X205300000Y-97100000D03*
%TO.N,/~uC1_ECG_PWDN*%
X204500000Y-82300000D03*
X204500000Y-100300000D03*
%TO.N,/ECG_AFE/RESP_MODP*%
X203700000Y-82300000D03*
X193575000Y-99500000D03*
%TO.N,/~uC1_CS_96*%
X206100000Y-81500000D03*
%TO.N,/ECG_AFE/RESP_MODN*%
X197150000Y-81925000D03*
X203700000Y-81500000D03*
%TO.N,Net-(IC1-PadF3)*%
X202900000Y-81500000D03*
X217400000Y-97550000D03*
%TO.N,Net-(IC1-PadE3)*%
X202900000Y-80700000D03*
X215400000Y-96350000D03*
X212100000Y-81300000D03*
X208350000Y-81300000D03*
%TO.N,/~uC1_DRDY*%
X205300000Y-97900000D03*
%TO.N,/~uC1_CS_98*%
X206095000Y-99500000D03*
%TO.N,Net-(IC2-PadF3)*%
X202900000Y-99500000D03*
X218025000Y-93950000D03*
%TO.N,Net-(IC2-PadE3)*%
X202900000Y-98700000D03*
X217975000Y-94975000D03*
%TO.N,Net-(IC2-PadB3)*%
X202900000Y-96300000D03*
X208050000Y-93975000D03*
%TO.N,Net-(IC1-PadF5)*%
X204500000Y-81500000D03*
X208700000Y-92950000D03*
%TO.N,Net-(IC2-PadF5)*%
X204500000Y-99500000D03*
X218650000Y-115425000D03*
D25*
%TO.N,/BTN_LU*%
X178475000Y-20050000D03*
%TO.N,/BTN_RU*%
X175975000Y-23500000D03*
X173790000Y-24310000D03*
%TO.N,Net-(J18-Pad7)*%
X167325000Y-22110000D03*
%TD*%
D27*
%TO.N,/ECG_AFE/ADS_V1*%
X188000000Y-69700000D02*
X186025000Y-69700000D01*
X186025000Y-69700000D02*
X185050000Y-70675000D01*
X185050000Y-96984802D02*
X189715198Y-101650000D01*
X185050000Y-70675000D02*
X185050000Y-96984802D01*
X189715198Y-101650000D02*
X191200000Y-101650000D01*
X191200000Y-101650000D02*
X192075000Y-101650000D01*
D28*
%TO.N,/ECG_AFE/ADS_V2*%
X199600000Y-95075000D02*
X199675000Y-95075000D01*
D27*
X196250000Y-95075000D02*
X199600000Y-95075000D01*
%TO.N,/ECG_AFE/ADS_V3*%
X191625000Y-99500000D02*
X191625000Y-89400000D01*
X192750000Y-100625000D02*
X191625000Y-99500000D01*
X192750000Y-102325000D02*
X192750000Y-100625000D01*
X191375000Y-103700000D02*
X192750000Y-102325000D01*
X188000000Y-103700000D02*
X191375000Y-103700000D01*
D28*
%TO.N,/ECG_AFE/ADS_RA*%
X198650000Y-102079980D02*
X198685010Y-102114990D01*
X198650000Y-98750000D02*
X198650000Y-102079980D01*
D27*
%TO.N,/ECG_AFE/ADS_LL*%
X200950000Y-99500000D02*
X200950000Y-95900000D01*
X186050000Y-85475000D02*
X186050000Y-80950000D01*
X186300000Y-80700000D02*
X188000000Y-80700000D01*
X186050000Y-80950000D02*
X186300000Y-80700000D01*
%TO.N,/ECG_AFE/ADS_LA*%
X199848896Y-96700000D02*
X199848896Y-99598896D01*
X201296045Y-100331641D02*
X200581641Y-100331641D01*
X200581641Y-100331641D02*
X199848896Y-99598896D01*
X201296045Y-100303955D02*
X202100000Y-99500000D01*
X201296045Y-100331641D02*
X201296045Y-100303955D01*
%TO.N,/ECG_AFE/ADS_IN1P*%
X192450000Y-93775000D02*
X195675000Y-90550000D01*
X192450000Y-97750000D02*
X192450000Y-93775000D01*
X195675000Y-87025000D02*
X198025000Y-84675000D01*
X195675000Y-90550000D02*
X195675000Y-87025000D01*
%TO.N,/ECG_AFE/ADS_IN1N*%
X201620160Y-84050000D02*
X194875000Y-84050000D01*
X202260080Y-83410080D02*
X202489990Y-83180170D01*
X202260080Y-83410080D02*
X201620160Y-84050000D01*
%TO.N,/ECG_AFE/ADS_RL*%
X194100000Y-59675000D02*
X194100000Y-87925000D01*
X194100000Y-88500000D02*
X194100000Y-87925000D01*
%TO.N,/ECG_AFE/WCT*%
X202135010Y-94735010D02*
X202100000Y-94700000D01*
X202135010Y-98664990D02*
X202135010Y-94735010D01*
X202100000Y-98700000D02*
X202135010Y-98664990D01*
X202050009Y-82375000D02*
X202100000Y-82325009D01*
X201175000Y-82375000D02*
X202050009Y-82375000D01*
D28*
%TO.N,Net-(C25-Pad1)*%
X201875000Y-102675000D02*
X202875000Y-101675000D01*
X202875000Y-100325000D02*
X202900000Y-100300000D01*
X202875000Y-101675000D02*
X202875000Y-100325000D01*
%TO.N,Net-(C26-Pad1)*%
X201650000Y-84600000D02*
X202900000Y-83350000D01*
X202900000Y-83350000D02*
X202900000Y-82300000D01*
%TO.N,Net-(C30-Pad1)*%
X206500000Y-95900000D02*
X206100000Y-96300000D01*
X207925000Y-95900000D02*
X206500000Y-95900000D01*
%TO.N,Net-(C31-Pad1)*%
X206500000Y-77900000D02*
X206100000Y-78300000D01*
X207975000Y-77900000D02*
X206500000Y-77900000D01*
D27*
%TO.N,Net-(C32-Pad2)*%
X209575000Y-94000000D02*
X211625000Y-94000000D01*
X211625000Y-94000000D02*
X214275000Y-91350000D01*
X214275000Y-91350000D02*
X214275000Y-91350000D01*
%TO.N,/ECG_AFE/RESP_MODP*%
X203700000Y-85525552D02*
X203700000Y-82300000D01*
X193575000Y-95650552D02*
X203700000Y-85525552D01*
X193575000Y-99500000D02*
X193575000Y-95650552D01*
D28*
%TO.N,/ECG_AFE/RESP_MODN*%
X197960001Y-81114999D02*
X197150000Y-81925000D01*
X203314999Y-81114999D02*
X197960001Y-81114999D01*
X203700000Y-81500000D02*
X203314999Y-81114999D01*
%TO.N,Net-(IC1-PadF3)*%
X203889790Y-81889990D02*
X204114999Y-82115199D01*
X203289990Y-81889990D02*
X203889790Y-81889990D01*
X202900000Y-81500000D02*
X203289990Y-81889990D01*
X204114999Y-83929989D02*
X204160010Y-83975000D01*
X204114999Y-82115199D02*
X204114999Y-83929989D01*
D27*
X211400000Y-97550000D02*
X217400000Y-97550000D01*
X208700000Y-94850000D02*
X211400000Y-97550000D01*
X208700000Y-93600552D02*
X208700000Y-94850000D01*
X204160010Y-89060562D02*
X208700000Y-93600552D01*
X204160010Y-83975000D02*
X204160010Y-89060562D01*
%TO.N,Net-(IC1-PadE3)*%
X215400000Y-96350000D02*
X215400000Y-84600000D01*
X215400000Y-84600000D02*
X212100000Y-81300000D01*
D28*
X208135001Y-81085001D02*
X208350000Y-81300000D01*
X207364999Y-80314999D02*
X208135001Y-81085001D01*
X203285001Y-80314999D02*
X207364999Y-80314999D01*
X202900000Y-80700000D02*
X203285001Y-80314999D01*
%TO.N,Net-(IC2-PadF3)*%
X203285001Y-99114999D02*
X207885001Y-99114999D01*
X202900000Y-99500000D02*
X203285001Y-99114999D01*
D27*
X218685010Y-94610010D02*
X218685009Y-97665543D01*
X218025000Y-93950000D02*
X218685010Y-94610010D01*
X217235553Y-99114999D02*
X218512776Y-97837776D01*
X207885001Y-99114999D02*
X217235553Y-99114999D01*
X218512776Y-97837776D02*
X217605542Y-98745010D01*
X218685009Y-97665543D02*
X218512776Y-97837776D01*
D28*
%TO.N,Net-(IC2-PadE3)*%
X202900000Y-98700000D02*
X203314999Y-98285001D01*
X203314999Y-98285001D02*
X207110001Y-98285001D01*
X207885001Y-98285001D02*
X207900000Y-98300000D01*
D27*
X217975000Y-94975000D02*
X218225000Y-95225000D01*
D28*
X207110001Y-98285001D02*
X207885001Y-98285001D01*
D27*
X207885001Y-98285001D02*
X217414999Y-98285001D01*
X218225000Y-97475000D02*
X218225000Y-95225000D01*
X217414999Y-98285001D02*
X218225000Y-97475000D01*
D28*
%TO.N,Net-(IC2-PadB3)*%
X203285001Y-95914999D02*
X203285001Y-94789999D01*
X202900000Y-96300000D02*
X203285001Y-95914999D01*
X204100000Y-93975000D02*
X208050000Y-93975000D01*
X203285001Y-94789999D02*
X204100000Y-93975000D01*
%TO.N,Net-(IC1-PadF5)*%
X204885001Y-81885001D02*
X204500000Y-81500000D01*
X204885001Y-83960001D02*
X204885001Y-81885001D01*
D27*
X204885001Y-89135001D02*
X208700000Y-92950000D01*
X204885001Y-83960001D02*
X204885001Y-89135001D01*
D28*
%TO.N,Net-(IC2-PadF5)*%
X204914999Y-99914999D02*
X204914999Y-114664999D01*
X204500000Y-99500000D02*
X204914999Y-99914999D01*
X205675000Y-115425000D02*
X218650000Y-115425000D01*
X204914999Y-114664999D02*
X205675000Y-115425000D01*
%TD*%
D29*
%TO.N,Net-(IC2-PadE3)*%
X207858756Y-98280086D02*
X207866039Y-98314585D01*
X207853640Y-98339936D01*
X207851857Y-98340941D01*
X207841165Y-98340611D01*
X207748501Y-98311654D01*
X207732880Y-98306376D01*
X207698229Y-98293776D01*
X207685403Y-98284297D01*
X207680123Y-98270227D01*
X207695823Y-98268179D01*
X207701684Y-98267192D01*
X207759837Y-98255161D01*
X207765605Y-98253742D01*
X207791493Y-98246346D01*
X207794571Y-98245400D01*
X207825132Y-98235322D01*
X207828169Y-98234252D01*
X207830689Y-98233307D01*
X207858756Y-98280086D01*
%TA.AperFunction,Conductor*%
D30*
G36*
X207858756Y-98280086D02*
G01*
X207866039Y-98314585D01*
X207853640Y-98339936D01*
X207851857Y-98340941D01*
X207841165Y-98340611D01*
X207748501Y-98311654D01*
X207732880Y-98306376D01*
X207698229Y-98293776D01*
X207685403Y-98284297D01*
X207680123Y-98270227D01*
X207695823Y-98268179D01*
X207701684Y-98267192D01*
X207759837Y-98255161D01*
X207765605Y-98253742D01*
X207791493Y-98246346D01*
X207794571Y-98245400D01*
X207825132Y-98235322D01*
X207828169Y-98234252D01*
X207830689Y-98233307D01*
X207858756Y-98280086D01*
G37*
%TD.AperFunction*%
%TD*%
M02*
