%TF.GenerationSoftware,KiCad,Pcbnew,(5.1.9)-1*%
%TF.CreationDate,2021-07-25T18:06:35+01:00*%
%TF.ProjectId,P205,50323035-2e6b-4696-9361-645f70636258,rev?*%
%TF.SameCoordinates,Original*%
%TF.FileFunction,Copper,L3,Inr*%
%TF.FilePolarity,Positive*%
%FSLAX46Y46*%
G04 Gerber Fmt 4.6, Leading zero omitted, Abs format (unit mm)*
G04 Created by KiCad (PCBNEW (5.1.9)-1) date 2021-07-25 18:06:35*
%MOMM*%
%LPD*%
G01*
G04 APERTURE LIST*
%TA.AperFunction,ComponentPad*%
%ADD10C,2.100000*%
%TD*%
%TA.AperFunction,ComponentPad*%
%ADD11O,2.400000X2.400000*%
%TD*%
%TA.AperFunction,ComponentPad*%
%ADD12C,2.400000*%
%TD*%
%TA.AperFunction,ComponentPad*%
%ADD13C,3.600000*%
%TD*%
%TA.AperFunction,ComponentPad*%
%ADD14C,0.600000*%
%TD*%
%TA.AperFunction,ComponentPad*%
%ADD15O,1.700000X1.700000*%
%TD*%
%TA.AperFunction,ComponentPad*%
%ADD16R,1.700000X1.700000*%
%TD*%
%TA.AperFunction,ComponentPad*%
%ADD17O,1.000000X1.000000*%
%TD*%
%TA.AperFunction,ComponentPad*%
%ADD18R,1.000000X1.000000*%
%TD*%
%TA.AperFunction,ComponentPad*%
%ADD19C,0.700000*%
%TD*%
%TA.AperFunction,ComponentPad*%
%ADD20O,1.100000X0.700000*%
%TD*%
%TA.AperFunction,ComponentPad*%
%ADD21O,0.800000X1.600000*%
%TD*%
%TA.AperFunction,ComponentPad*%
%ADD22C,4.000000*%
%TD*%
%TA.AperFunction,ComponentPad*%
%ADD23C,1.600000*%
%TD*%
%TA.AperFunction,ComponentPad*%
%ADD24R,1.600000X1.600000*%
%TD*%
%TA.AperFunction,ViaPad*%
%ADD25C,0.600000*%
%TD*%
%TA.AperFunction,ViaPad*%
%ADD26C,0.250000*%
%TD*%
G04 APERTURE END LIST*
D10*
%TO.N,Net-(J5-PadTN1)*%
%TO.C,J5*%
X175400000Y-36870000D03*
%TO.N,Net-(J5-PadSN1)*%
X162700000Y-36870000D03*
%TO.N,/NTC2*%
X175400000Y-53100000D03*
%TO.N,/NTC1*%
X162700000Y-53100000D03*
%TD*%
D11*
%TO.N,/V5*%
%TO.C,R18*%
X167680000Y-75200000D03*
D12*
%TO.N,/ECG_AFE/ADS_V5*%
X188000000Y-75200000D03*
%TD*%
D11*
%TO.N,/V1*%
%TO.C,R14*%
X167680000Y-69700000D03*
D12*
%TO.N,/ECG_AFE/ADS_V1*%
X188000000Y-69700000D03*
%TD*%
D11*
%TO.N,/V2*%
%TO.C,R15*%
X167680000Y-121200000D03*
D12*
%TO.N,/ECG_AFE/ADS_V2*%
X188000000Y-121200000D03*
%TD*%
D13*
%TO.N,Earth*%
%TO.C,H6*%
X190000000Y-23000000D03*
%TD*%
%TO.N,Earth*%
%TO.C,H5*%
X160000000Y-23000000D03*
%TD*%
D14*
%TO.N,GNDS*%
%TO.C,NT1*%
X228582870Y-48212976D03*
%TO.N,GNDD*%
X229034925Y-45654041D03*
%TO.N,GNDREF*%
X231418117Y-44808801D03*
X233467130Y-46437024D03*
%TO.N,GNDD*%
X233015075Y-48995959D03*
%TO.N,GNDS*%
X230572945Y-49883935D03*
%TO.N,*%
X229779459Y-46988653D03*
X230215036Y-46320779D03*
X230959992Y-46036484D03*
X231729778Y-46244358D03*
X232230363Y-46865000D03*
X232270541Y-47661347D03*
X231834964Y-48329221D03*
X231090008Y-48613516D03*
X230320222Y-48405642D03*
X229819637Y-47785000D03*
%TD*%
D11*
%TO.N,/RA*%
%TO.C,R25*%
X167680000Y-115200000D03*
D12*
%TO.N,Net-(C5-Pad2)*%
X188000000Y-115200000D03*
%TD*%
D11*
%TO.N,/LA*%
%TO.C,R24*%
X167680000Y-97700000D03*
D12*
%TO.N,Net-(C4-Pad2)*%
X188000000Y-97700000D03*
%TD*%
D11*
%TO.N,/RL*%
%TO.C,R23*%
X167680000Y-58700000D03*
D12*
%TO.N,/ECG_AFE/ADS_RL*%
X188000000Y-58700000D03*
%TD*%
D11*
%TO.N,/LA*%
%TO.C,R22*%
X167680000Y-91700000D03*
D12*
%TO.N,/ECG_AFE/ADS_LA*%
X188000000Y-91700000D03*
%TD*%
D11*
%TO.N,/LL*%
%TO.C,R21*%
X167680000Y-80700000D03*
D12*
%TO.N,/ECG_AFE/ADS_LL*%
X188000000Y-80700000D03*
%TD*%
D11*
%TO.N,/RA*%
%TO.C,R20*%
X167680000Y-109200000D03*
D12*
%TO.N,/ECG_AFE/ADS_RA*%
X188000000Y-109200000D03*
%TD*%
D11*
%TO.N,/V6*%
%TO.C,R19*%
X167680000Y-64200000D03*
D12*
%TO.N,/ECG_AFE/ADS_V6*%
X188000000Y-64200000D03*
%TD*%
D11*
%TO.N,/V4*%
%TO.C,R17*%
X167680000Y-86200000D03*
D12*
%TO.N,/ECG_AFE/ADS_V4*%
X188000000Y-86200000D03*
%TD*%
D11*
%TO.N,/V3*%
%TO.C,R16*%
X167680000Y-103700000D03*
D12*
%TO.N,/ECG_AFE/ADS_V3*%
X188000000Y-103700000D03*
%TD*%
D15*
%TO.N,/BATT_RAW*%
%TO.C,J17*%
X240200000Y-33160000D03*
%TO.N,Net-(J11-Pad6)*%
X240200000Y-35700000D03*
%TO.N,/BATT*%
X237660000Y-33160000D03*
%TO.N,Net-(J11-Pad4)*%
X237660000Y-35700000D03*
%TO.N,/V_BUS*%
X235120000Y-33160000D03*
D16*
%TO.N,Net-(J11-Pad2)*%
X235120000Y-35700000D03*
%TD*%
D17*
%TO.N,N/C*%
%TO.C,J16*%
X231515000Y-120295000D03*
X231515000Y-119025000D03*
%TO.N,GNDD*%
X230245000Y-120295000D03*
X230245000Y-119025000D03*
X228975000Y-120295000D03*
X228975000Y-119025000D03*
%TO.N,/uC1_P0.24*%
X227705000Y-120295000D03*
%TO.N,/uC1_P0.23*%
X227705000Y-119025000D03*
%TO.N,/uC1_P0.22*%
X226435000Y-120295000D03*
%TO.N,/uC1_P0.20*%
X226435000Y-119025000D03*
%TO.N,/uC1_P0.19*%
X225165000Y-120295000D03*
%TO.N,/DVCC*%
X225165000Y-119025000D03*
X223895000Y-120295000D03*
X223895000Y-119025000D03*
%TO.N,/BATT*%
X222625000Y-120295000D03*
D18*
X222625000Y-119025000D03*
%TD*%
D19*
%TO.N,*%
%TO.C,J14*%
X223100000Y-40200000D03*
D20*
X215900000Y-40200000D03*
D21*
%TO.N,GNDREF*%
X223630000Y-38950000D03*
X215370000Y-38950000D03*
X215010000Y-33000000D03*
X223990000Y-33000000D03*
%TD*%
D15*
%TO.N,Net-(J11-Pad6)*%
%TO.C,J11*%
X240200000Y-39460000D03*
%TO.N,/BATT_RAW*%
X240200000Y-42000000D03*
%TO.N,Net-(J11-Pad4)*%
X237660000Y-39460000D03*
%TO.N,/BATT*%
X237660000Y-42000000D03*
%TO.N,Net-(J11-Pad2)*%
X235120000Y-39460000D03*
D16*
%TO.N,/V_BUS*%
X235120000Y-42000000D03*
%TD*%
D17*
%TO.N,N/C*%
%TO.C,J8*%
X242915000Y-120295000D03*
X242915000Y-119025000D03*
%TO.N,GNDD*%
X241645000Y-120295000D03*
X241645000Y-119025000D03*
X240375000Y-120295000D03*
X240375000Y-119025000D03*
%TO.N,/uC2_AIN0_P0.02*%
X239105000Y-120295000D03*
%TO.N,/uC1_AIN5_P0.29*%
X239105000Y-119025000D03*
%TO.N,/uC1_AIN4_P0.28*%
X237835000Y-120295000D03*
%TO.N,/uC1_AIN3_P0.05*%
X237835000Y-119025000D03*
%TO.N,/uC1_AIN2_P0.04*%
X236565000Y-120295000D03*
%TO.N,/uC1_AIN1_P0.03*%
X236565000Y-119025000D03*
%TO.N,/uC1_AIN0_P0.02*%
X235295000Y-120295000D03*
%TO.N,/DVCC*%
X235295000Y-119025000D03*
X234025000Y-120295000D03*
D18*
X234025000Y-119025000D03*
%TD*%
D22*
%TO.N,GNDS*%
%TO.C,J4*%
X159580000Y-106655000D03*
X159580000Y-73355000D03*
D23*
%TO.N,Net-(J4-Pad15)*%
X158160000Y-81695000D03*
%TO.N,/RL*%
X158160000Y-84465000D03*
%TO.N,Net-(J4-Pad13)*%
X158160000Y-87235000D03*
%TO.N,/V1*%
X158160000Y-90005000D03*
%TO.N,/LL*%
X158160000Y-92775000D03*
%TO.N,/LA*%
X158160000Y-95545000D03*
%TO.N,/RA*%
X158160000Y-98315000D03*
%TO.N,Net-(J4-Pad8)*%
X161000000Y-80310000D03*
%TO.N,Net-(J4-Pad7)*%
X161000000Y-83080000D03*
%TO.N,Net-(J4-Pad6)*%
X161000000Y-85850000D03*
%TO.N,/V6*%
X161000000Y-88620000D03*
%TO.N,/V5*%
X161000000Y-91390000D03*
%TO.N,/V4*%
X161000000Y-94160000D03*
%TO.N,/V3*%
X161000000Y-96930000D03*
D24*
%TO.N,/V2*%
X161000000Y-99700000D03*
%TD*%
D13*
%TO.N,GNDD*%
%TO.C,H4*%
X229000000Y-35300000D03*
%TD*%
%TO.N,GNDD*%
%TO.C,H3*%
X160000000Y-120000000D03*
%TD*%
%TO.N,GNDD*%
%TO.C,H2*%
X160000000Y-63000000D03*
%TD*%
%TO.N,GNDD*%
%TO.C,H1*%
X250000000Y-120000000D03*
%TD*%
D25*
%TO.N,/BTN_C*%
X170150000Y-25675000D03*
X170150000Y-23575000D03*
%TO.N,/BTN_RD*%
X173775000Y-22125000D03*
%TO.N,/BTN_LD*%
X173750000Y-21000000D03*
%TO.N,Net-(J18-Pad7)*%
X182625000Y-22350000D03*
%TO.N,Net-(C32-Pad2)*%
X209575000Y-94000000D03*
X214275000Y-91350000D03*
D26*
%TO.N,/uC1_AIN5_P0.29*%
X227355000Y-104605000D03*
%TO.N,/uC1_AIN4_P0.28*%
X226825000Y-104625000D03*
D25*
%TO.N,/BTN_LU*%
X178475000Y-20050000D03*
%TO.N,/BTN_RU*%
X175975000Y-23500000D03*
X173790000Y-24310000D03*
%TO.N,Net-(J18-Pad7)*%
X167325000Y-22110000D03*
%TD*%
M02*
