%TF.GenerationSoftware,KiCad,Pcbnew,(5.1.9)-1*%
%TF.CreationDate,2021-07-25T18:06:35+01:00*%
%TF.ProjectId,P205,50323035-2e6b-4696-9361-645f70636258,rev?*%
%TF.SameCoordinates,Original*%
%TF.FileFunction,Legend,Bot*%
%TF.FilePolarity,Positive*%
%FSLAX46Y46*%
G04 Gerber Fmt 4.6, Leading zero omitted, Abs format (unit mm)*
G04 Created by KiCad (PCBNEW (5.1.9)-1) date 2021-07-25 18:06:35*
%MOMM*%
%LPD*%
G01*
G04 APERTURE LIST*
%ADD10C,0.150000*%
%ADD11C,0.120000*%
%ADD12C,0.200000*%
%ADD13C,0.100000*%
%ADD14C,0.127000*%
%ADD15C,0.010000*%
%ADD16C,0.300000*%
%ADD17C,0.254000*%
G04 APERTURE END LIST*
D10*
X155000000Y-30000000D02*
X255000000Y-30000000D01*
D11*
%TO.C,C114*%
X224885000Y-107417164D02*
X224885000Y-107632836D01*
X224165000Y-107417164D02*
X224165000Y-107632836D01*
D12*
%TO.C,X4*%
X222600000Y-112425000D02*
G75*
G03*
X222600000Y-112325000I0J50000D01*
G01*
X222600000Y-112325000D02*
G75*
G03*
X222600000Y-112425000I0J-50000D01*
G01*
X222600000Y-112425000D02*
G75*
G03*
X222600000Y-112325000I0J50000D01*
G01*
X222600000Y-112325000D02*
X222600000Y-112325000D01*
X222600000Y-112425000D02*
X222600000Y-112425000D01*
X222600000Y-112325000D02*
X222600000Y-112325000D01*
D13*
%TO.C,X3*%
X233579290Y-101527818D02*
X233862132Y-101810660D01*
X234427818Y-100679290D02*
X234710660Y-100962132D01*
D12*
%TO.C,X2*%
X225775000Y-55875000D02*
G75*
G03*
X225875000Y-55875000I50000J0D01*
G01*
X225875000Y-55875000D02*
G75*
G03*
X225775000Y-55875000I-50000J0D01*
G01*
X225775000Y-55875000D02*
G75*
G03*
X225875000Y-55875000I50000J0D01*
G01*
X225875000Y-55875000D02*
X225875000Y-55875000D01*
X225775000Y-55875000D02*
X225775000Y-55875000D01*
X225875000Y-55875000D02*
X225875000Y-55875000D01*
D13*
%TO.C,X1*%
X235306210Y-65646251D02*
X235023368Y-65929093D01*
X236154738Y-66494779D02*
X235871896Y-66777621D01*
D14*
%TO.C,U8*%
X249750000Y-74650000D02*
X249750000Y-72550000D01*
X249750000Y-72550000D02*
X246950000Y-72550000D01*
X236850000Y-72550000D02*
X234050000Y-72550000D01*
X234050000Y-72550000D02*
X234050000Y-74650000D01*
X246950000Y-90150000D02*
X249750000Y-90150000D01*
X249750000Y-90150000D02*
X249750000Y-88050000D01*
X236850000Y-90150000D02*
X234050000Y-90150000D01*
X234050000Y-90150000D02*
X234050000Y-88050000D01*
D12*
X251450000Y-74800000D02*
G75*
G03*
X251450000Y-74800000I-100000J0D01*
G01*
%TO.C,J1*%
X201750000Y-48875000D02*
G75*
G03*
X201750000Y-48675000I0J100000D01*
G01*
X201750000Y-48675000D02*
G75*
G03*
X201750000Y-48875000I0J-100000D01*
G01*
D13*
X210690000Y-44675000D02*
X210690000Y-32700000D01*
X210690000Y-32700000D02*
X210090000Y-32700000D01*
X201690000Y-32700000D02*
X196690000Y-32700000D01*
X196690000Y-32700000D02*
X196690000Y-46475000D01*
X210690000Y-48150000D02*
X198190000Y-48150000D01*
D12*
X201750000Y-48875000D02*
X201750000Y-48875000D01*
X201750000Y-48675000D02*
X201750000Y-48675000D01*
%TO.C,IC6*%
X212272487Y-70456192D02*
X209656192Y-73072487D01*
X209656192Y-73072487D02*
X211777513Y-75193808D01*
X211777513Y-75193808D02*
X214393808Y-72577513D01*
X214393808Y-72577513D02*
X212272487Y-70456192D01*
X213527602Y-69130367D02*
X212484619Y-70173350D01*
%TO.C,IC4*%
X220300914Y-65765381D02*
X217684619Y-63149086D01*
X217684619Y-63149086D02*
X214149086Y-66684619D01*
X214149086Y-66684619D02*
X216765381Y-69300914D01*
X216765381Y-69300914D02*
X220300914Y-65765381D01*
X221609062Y-67038173D02*
X220566080Y-65995190D01*
%TO.C,IC3*%
X246200000Y-45125000D02*
G75*
G02*
X246400000Y-45125000I100000J0D01*
G01*
X246400000Y-45125000D02*
G75*
G02*
X246200000Y-45125000I-100000J0D01*
G01*
D13*
X245500000Y-44475000D02*
X245250000Y-44475000D01*
X245250000Y-44475000D02*
X245250000Y-44225000D01*
X248500000Y-44475000D02*
X248750000Y-44475000D01*
X248750000Y-44475000D02*
X248750000Y-44225000D01*
X245250000Y-40225000D02*
X245250000Y-39975000D01*
X245250000Y-39975000D02*
X245500000Y-39975000D01*
X248750000Y-40225000D02*
X248750000Y-39975000D01*
X248750000Y-39975000D02*
X248500000Y-39975000D01*
D12*
X246200000Y-45125000D02*
X246200000Y-45125000D01*
X246400000Y-45125000D02*
X246400000Y-45125000D01*
D11*
%TO.C,J18*%
X180840000Y-21325000D02*
X183950000Y-21325000D01*
X175760000Y-21325000D02*
X179320000Y-21325000D01*
X170680000Y-21325000D02*
X174240000Y-21325000D01*
X183380000Y-21325000D02*
X183950000Y-21325000D01*
X166050000Y-23985000D02*
X166620000Y-23985000D01*
X166620000Y-23985000D02*
X166620000Y-25505000D01*
X166050000Y-21325000D02*
X169160000Y-21325000D01*
X178300000Y-23985000D02*
X181860000Y-23985000D01*
X173220000Y-23985000D02*
X176780000Y-23985000D01*
X168140000Y-23985000D02*
X171700000Y-23985000D01*
X183950000Y-21325000D02*
X183950000Y-23985000D01*
X166050000Y-21325000D02*
X166050000Y-23985000D01*
D13*
%TO.C,J10*%
X249725000Y-102895000D02*
X253825000Y-102895000D01*
X253825000Y-102895000D02*
X253825000Y-101625000D01*
X245725000Y-93355000D02*
X241625000Y-93355000D01*
X241625000Y-93355000D02*
X241625000Y-94625000D01*
X253825000Y-94625000D02*
X253825000Y-93355000D01*
X253825000Y-93355000D02*
X253225000Y-93355000D01*
X242225000Y-102895000D02*
X241625000Y-102895000D01*
X241625000Y-102895000D02*
X241625000Y-101625000D01*
D12*
X254625000Y-100625000D02*
X254625000Y-100625000D01*
X254625000Y-100825000D02*
X254625000Y-100825000D01*
X254625000Y-100625000D02*
G75*
G02*
X254625000Y-100825000I0J-100000D01*
G01*
X254625000Y-100825000D02*
G75*
G02*
X254625000Y-100625000I0J100000D01*
G01*
D15*
%TO.C,NT1*%
G36*
X230835141Y-34518418D02*
G01*
X230827551Y-34534696D01*
X230843828Y-34542286D01*
X230851419Y-34526009D01*
X230835141Y-34518418D01*
G37*
X230835141Y-34518418D02*
X230827551Y-34534696D01*
X230843828Y-34542286D01*
X230851419Y-34526009D01*
X230835141Y-34518418D01*
G36*
X232410642Y-49226576D02*
G01*
X232403051Y-49242853D01*
X232419329Y-49250444D01*
X232426919Y-49234166D01*
X232410642Y-49226576D01*
G37*
X232410642Y-49226576D02*
X232403051Y-49242853D01*
X232419329Y-49250444D01*
X232426919Y-49234166D01*
X232410642Y-49226576D01*
D11*
%TO.C,J3*%
X247605000Y-31400000D02*
X243795000Y-31400000D01*
X243795000Y-31400000D02*
X243795000Y-36480000D01*
X243795000Y-36480000D02*
X251415000Y-36480000D01*
X251415000Y-36480000D02*
X251415000Y-31400000D01*
X251415000Y-31400000D02*
X247605000Y-31400000D01*
X247605000Y-31400000D02*
X247605000Y-36480000D01*
D16*
X245846421Y-38400000D02*
G75*
G03*
X245846421Y-38400000I-141421J0D01*
G01*
D11*
X245422223Y-37718446D02*
G75*
G03*
X245001000Y-38400000I340777J-681554D01*
G01*
X245205492Y-36801011D02*
G75*
G03*
X244205000Y-38400000I777508J-1598989D01*
G01*
X245270304Y-37291453D02*
G75*
G03*
X244620000Y-38400000I619696J-1108547D01*
G01*
%TO.C,U18*%
X214383992Y-75460876D02*
X214048116Y-75125000D01*
X218601884Y-75125000D02*
X218266008Y-75460876D01*
X218266008Y-74789124D02*
X218601884Y-75125000D01*
X216325000Y-72848116D02*
X215989124Y-73183992D01*
X216660876Y-73183992D02*
X216325000Y-72848116D01*
X216325000Y-77401884D02*
X216660876Y-77066008D01*
X215989124Y-77066008D02*
X216325000Y-77401884D01*
%TO.C,U17*%
X205235876Y-58041008D02*
X204900000Y-58376884D01*
X204900000Y-53823116D02*
X205235876Y-54158992D01*
X204564124Y-54158992D02*
X204900000Y-53823116D01*
X202623116Y-56100000D02*
X202958992Y-56435876D01*
X202958992Y-55764124D02*
X202623116Y-56100000D01*
X207176884Y-56100000D02*
X206841008Y-55764124D01*
X206841008Y-56435876D02*
X207176884Y-56100000D01*
%TO.C,U16*%
X230061091Y-102840705D02*
X230450000Y-102451796D01*
X230450000Y-111248204D02*
X230061091Y-110859295D01*
X230838909Y-110859295D02*
X230450000Y-111248204D01*
X234848204Y-106850000D02*
X234459295Y-106461091D01*
X234459295Y-107238909D02*
X234848204Y-106850000D01*
X226051796Y-106850000D02*
X226440705Y-107238909D01*
X226440705Y-106461091D02*
X226051796Y-106850000D01*
%TO.C,U13*%
X223008705Y-67817893D02*
X223185482Y-67994670D01*
X223539035Y-67287563D02*
X223008705Y-67817893D01*
X224917893Y-65908705D02*
X225094670Y-66085482D01*
X224387563Y-66439035D02*
X224917893Y-65908705D01*
X226332107Y-71141295D02*
X226155330Y-70964518D01*
X228241295Y-69232107D02*
X228064518Y-69055330D01*
X227710965Y-69762437D02*
X228241295Y-69232107D01*
%TO.C,U7*%
X234437239Y-62838298D02*
X234826148Y-63227207D01*
X226029740Y-63227207D02*
X226418649Y-62838298D01*
X226418649Y-63616116D02*
X226029740Y-63227207D01*
X230427944Y-67625411D02*
X230816853Y-67236502D01*
X230039035Y-67236502D02*
X230427944Y-67625411D01*
X230427944Y-58829003D02*
X230039035Y-59217912D01*
X230816853Y-59217912D02*
X230427944Y-58829003D01*
%TO.C,R98*%
X194120000Y-46993641D02*
X194120000Y-46686359D01*
X194880000Y-46993641D02*
X194880000Y-46686359D01*
%TO.C,R97*%
X212320000Y-47053641D02*
X212320000Y-46746359D01*
X213080000Y-47053641D02*
X213080000Y-46746359D01*
%TO.C,R91*%
X213081358Y-38645000D02*
X213388640Y-38645000D01*
X213081358Y-39405000D02*
X213388640Y-39405000D01*
%TO.C,R90*%
X211702341Y-57085060D02*
X211485060Y-57302341D01*
X211164940Y-56547659D02*
X210947659Y-56764940D01*
%TO.C,R89*%
X202585060Y-52547659D02*
X202802341Y-52764940D01*
X202047659Y-53085060D02*
X202264940Y-53302341D01*
%TO.C,R88*%
X213937742Y-53477500D02*
X214412258Y-53477500D01*
X213937742Y-54522500D02*
X214412258Y-54522500D01*
%TO.C,R87*%
X231974436Y-55312035D02*
X232191717Y-55529316D01*
X231437035Y-55849436D02*
X231654316Y-56066717D01*
%TO.C,R86*%
X215853641Y-46780000D02*
X215546359Y-46780000D01*
X215853641Y-46020000D02*
X215546359Y-46020000D01*
%TO.C,R83*%
X248493641Y-38580000D02*
X248186359Y-38580000D01*
X248493641Y-37820000D02*
X248186359Y-37820000D01*
%TO.C,R78*%
X250136359Y-37820000D02*
X250443641Y-37820000D01*
X250136359Y-38580000D02*
X250443641Y-38580000D01*
%TO.C,R77*%
X251195000Y-40343641D02*
X251195000Y-40036359D01*
X251955000Y-40343641D02*
X251955000Y-40036359D01*
%TO.C,R76*%
X252980000Y-40036359D02*
X252980000Y-40343641D01*
X252220000Y-40036359D02*
X252220000Y-40343641D01*
%TO.C,R75*%
X250170000Y-40343641D02*
X250170000Y-40036359D01*
X250930000Y-40343641D02*
X250930000Y-40036359D01*
%TO.C,R74*%
X245193641Y-38580000D02*
X244886359Y-38580000D01*
X245193641Y-37820000D02*
X244886359Y-37820000D01*
%TO.C,R72*%
X233745000Y-92278641D02*
X233745000Y-91971359D01*
X234505000Y-92278641D02*
X234505000Y-91971359D01*
%TO.C,R63*%
X233895000Y-53178641D02*
X233895000Y-52871359D01*
X234655000Y-53178641D02*
X234655000Y-52871359D01*
%TO.C,R58*%
X245193641Y-37555000D02*
X244886359Y-37555000D01*
X245193641Y-36795000D02*
X244886359Y-36795000D01*
%TO.C,R40*%
X213080000Y-35796359D02*
X213080000Y-36103641D01*
X212320000Y-35796359D02*
X212320000Y-36103641D01*
%TO.C,R38*%
X209180000Y-50786360D02*
X209180000Y-51093642D01*
X208420000Y-50786360D02*
X208420000Y-51093642D01*
%TO.C,R37*%
X208130000Y-50786360D02*
X208130000Y-51093642D01*
X207370000Y-50786360D02*
X207370000Y-51093642D01*
%TO.C,R13*%
X201280000Y-50656359D02*
X201280000Y-50963641D01*
X200520000Y-50656359D02*
X200520000Y-50963641D01*
%TO.C,R12*%
X200230000Y-50646359D02*
X200230000Y-50953641D01*
X199470000Y-50646359D02*
X199470000Y-50953641D01*
%TO.C,R11*%
X226040060Y-102612659D02*
X226257341Y-102829940D01*
X225502659Y-103150060D02*
X225719940Y-103367341D01*
%TO.C,R10*%
X225329436Y-103302035D02*
X225546717Y-103519316D01*
X224792035Y-103839436D02*
X225009316Y-104056717D01*
%TO.C,R5*%
X224954316Y-64416717D02*
X224737035Y-64199436D01*
X225491717Y-63879316D02*
X225274436Y-63662035D01*
%TO.C,Q1*%
X217880000Y-49760000D02*
X217880000Y-48300000D01*
X214720000Y-49760000D02*
X214720000Y-47600000D01*
X214720000Y-49760000D02*
X215650000Y-49760000D01*
X217880000Y-49760000D02*
X216950000Y-49760000D01*
%TO.C,L9*%
X228495522Y-100274273D02*
X228725727Y-100504478D01*
X227774273Y-100995522D02*
X228004478Y-101225727D01*
%TO.C,L5*%
X230127836Y-76760000D02*
X229912164Y-76760000D01*
X230127836Y-76040000D02*
X229912164Y-76040000D01*
%TO.C,L1*%
X236202217Y-60531686D02*
X236432422Y-60301481D01*
X236923466Y-61252935D02*
X237153671Y-61022730D01*
D12*
%TO.C,J15*%
X240525000Y-110925000D02*
X243125000Y-110925000D01*
X240525000Y-108325000D02*
X241064000Y-108325000D01*
X243125000Y-108325000D02*
X242586000Y-108325000D01*
X241843000Y-107272000D02*
G75*
G03*
X241843000Y-107272000I-31000J0D01*
G01*
%TO.C,J13*%
X226610630Y-79651985D02*
G75*
G03*
X226610630Y-79651985I-31000J0D01*
G01*
X226763478Y-81325000D02*
X226382347Y-80943869D01*
X224925000Y-79486522D02*
X225306131Y-79867653D01*
X223086522Y-81325000D02*
X224925000Y-83163478D01*
%TO.C,J12*%
X222210630Y-59751985D02*
G75*
G03*
X222210630Y-59751985I-31000J0D01*
G01*
X222363478Y-61425000D02*
X221982347Y-61043869D01*
X220525000Y-59586522D02*
X220906131Y-59967653D01*
X218686522Y-61425000D02*
X220525000Y-63263478D01*
D11*
%TO.C,FB1*%
X244497936Y-61190000D02*
X244952064Y-61190000D01*
X244497936Y-62660000D02*
X244952064Y-62660000D01*
%TO.C,D29*%
X200919239Y-55817157D02*
X199116117Y-54014035D01*
X199717157Y-57019239D02*
X197914035Y-55216117D01*
X200919239Y-55817157D02*
X199717157Y-57019239D01*
%TO.C,D28*%
X202519239Y-54217157D02*
X200716117Y-52414035D01*
X201317157Y-55419239D02*
X199514035Y-53616117D01*
X202519239Y-54217157D02*
X201317157Y-55419239D01*
%TO.C,D27*%
X208482843Y-55419239D02*
X210285965Y-53616117D01*
X207280761Y-54217157D02*
X209083883Y-52414035D01*
X208482843Y-55419239D02*
X207280761Y-54217157D01*
%TO.C,D26*%
X210082843Y-57019239D02*
X211885965Y-55216117D01*
X208880761Y-55817157D02*
X210683883Y-54014035D01*
X210082843Y-57019239D02*
X208880761Y-55817157D01*
%TO.C,D25*%
X214075000Y-36775000D02*
X216625000Y-36775000D01*
X214075000Y-35075000D02*
X216625000Y-35075000D01*
X214075000Y-36775000D02*
X214075000Y-35075000D01*
%TO.C,D24*%
X232325000Y-84375000D02*
X229775000Y-84375000D01*
X232325000Y-86075000D02*
X229775000Y-86075000D01*
X232325000Y-84375000D02*
X232325000Y-86075000D01*
%TO.C,D23*%
X232325000Y-82275000D02*
X229775000Y-82275000D01*
X232325000Y-83975000D02*
X229775000Y-83975000D01*
X232325000Y-82275000D02*
X232325000Y-83975000D01*
%TO.C,D22*%
X232325000Y-86475000D02*
X229775000Y-86475000D01*
X232325000Y-88175000D02*
X229775000Y-88175000D01*
X232325000Y-86475000D02*
X232325000Y-88175000D01*
%TO.C,D21*%
X240525000Y-94375000D02*
X237975000Y-94375000D01*
X240525000Y-96075000D02*
X237975000Y-96075000D01*
X240525000Y-94375000D02*
X240525000Y-96075000D01*
%TO.C,D20*%
X240525000Y-98375000D02*
X237975000Y-98375000D01*
X240525000Y-100075000D02*
X237975000Y-100075000D01*
X240525000Y-98375000D02*
X240525000Y-100075000D01*
%TO.C,D19*%
X240525000Y-96375000D02*
X237975000Y-96375000D01*
X240525000Y-98075000D02*
X237975000Y-98075000D01*
X240525000Y-96375000D02*
X240525000Y-98075000D01*
%TO.C,D18*%
X240525000Y-100475000D02*
X237975000Y-100475000D01*
X240525000Y-102175000D02*
X237975000Y-102175000D01*
X240525000Y-100475000D02*
X240525000Y-102175000D01*
%TO.C,D16*%
X243875000Y-70825000D02*
X243875000Y-68275000D01*
X242175000Y-70825000D02*
X242175000Y-68275000D01*
X243875000Y-70825000D02*
X242175000Y-70825000D01*
%TO.C,C_TUNE2_3*%
X249087836Y-47260000D02*
X248872164Y-47260000D01*
X249087836Y-46540000D02*
X248872164Y-46540000D01*
%TO.C,C_TUNE2_2*%
X247912164Y-47540000D02*
X248127836Y-47540000D01*
X247912164Y-48260000D02*
X248127836Y-48260000D01*
%TO.C,C_TUNE2_1*%
X246912164Y-46540000D02*
X247127836Y-46540000D01*
X246912164Y-47260000D02*
X247127836Y-47260000D01*
%TO.C,C_TUNE1_3*%
X242987836Y-46460000D02*
X242772164Y-46460000D01*
X242987836Y-45740000D02*
X242772164Y-45740000D01*
%TO.C,C_TUNE1_2*%
X242772164Y-46740000D02*
X242987836Y-46740000D01*
X242772164Y-47460000D02*
X242987836Y-47460000D01*
%TO.C,C_TUNE1_1*%
X242772164Y-47740000D02*
X242987836Y-47740000D01*
X242772164Y-48460000D02*
X242987836Y-48460000D01*
%TO.C,C128*%
X227420810Y-111818307D02*
X227268307Y-111970810D01*
X226911693Y-111309190D02*
X226759190Y-111461693D01*
%TO.C,C127*%
X221446693Y-54155810D02*
X221294190Y-54003307D01*
X221955810Y-53646693D02*
X221803307Y-53494190D01*
%TO.C,C126*%
X250862164Y-41340000D02*
X251077836Y-41340000D01*
X250862164Y-42060000D02*
X251077836Y-42060000D01*
%TO.C,C125*%
X250862164Y-42340000D02*
X251077836Y-42340000D01*
X250862164Y-43060000D02*
X251077836Y-43060000D01*
%TO.C,C124*%
X204910000Y-50812164D02*
X204910000Y-51027836D01*
X204190000Y-50812164D02*
X204190000Y-51027836D01*
%TO.C,C123*%
X212665000Y-51111252D02*
X212665000Y-50588748D01*
X214135000Y-51111252D02*
X214135000Y-50588748D01*
%TO.C,C122*%
X220410000Y-48863748D02*
X220410000Y-50286252D01*
X218590000Y-48863748D02*
X218590000Y-50286252D01*
%TO.C,C121*%
X231482282Y-102091399D02*
X231329779Y-101938896D01*
X231991399Y-101582282D02*
X231838896Y-101429779D01*
%TO.C,C120*%
X228881399Y-113257718D02*
X228728896Y-113410221D01*
X228372282Y-112748601D02*
X228219779Y-112901104D01*
%TO.C,C119*%
X228131399Y-112507718D02*
X227978896Y-112660221D01*
X227622282Y-111998601D02*
X227469779Y-112151104D01*
%TO.C,C118*%
X226362282Y-102631399D02*
X226209779Y-102478896D01*
X226871399Y-102122282D02*
X226718896Y-101969779D01*
%TO.C,C117*%
X225203307Y-105494190D02*
X225355810Y-105646693D01*
X224694190Y-106003307D02*
X224846693Y-106155810D01*
%TO.C,C116*%
X229738896Y-99779779D02*
X229891399Y-99932282D01*
X229229779Y-100288896D02*
X229382282Y-100441399D01*
%TO.C,C115*%
X234617294Y-109843259D02*
X234986761Y-109473792D01*
X235656741Y-110882706D02*
X236026208Y-110513239D01*
%TO.C,C113*%
X225265000Y-111132836D02*
X225265000Y-110917164D01*
X225985000Y-111132836D02*
X225985000Y-110917164D01*
%TO.C,C112*%
X243917164Y-107065000D02*
X244132836Y-107065000D01*
X243917164Y-107785000D02*
X244132836Y-107785000D01*
%TO.C,C111*%
X236020221Y-102988896D02*
X235867718Y-103141399D01*
X235511104Y-102479779D02*
X235358601Y-102632282D01*
%TO.C,C110*%
X233020221Y-99788896D02*
X232867718Y-99941399D01*
X232511104Y-99279779D02*
X232358601Y-99432282D01*
%TO.C,C109*%
X239632836Y-107785000D02*
X239417164Y-107785000D01*
X239632836Y-107065000D02*
X239417164Y-107065000D01*
%TO.C,C108*%
X222046693Y-58555810D02*
X221894190Y-58403307D01*
X222555810Y-58046693D02*
X222403307Y-57894190D01*
%TO.C,C107*%
X226555810Y-61303307D02*
X226403307Y-61455810D01*
X226046693Y-60794190D02*
X225894190Y-60946693D01*
%TO.C,C104*%
X250212164Y-36840000D02*
X250427836Y-36840000D01*
X250212164Y-37560000D02*
X250427836Y-37560000D01*
%TO.C,C101*%
X252740000Y-38227836D02*
X252740000Y-38012164D01*
X253460000Y-38227836D02*
X253460000Y-38012164D01*
%TO.C,C99*%
X251785000Y-47063748D02*
X251785000Y-47586252D01*
X250315000Y-47063748D02*
X250315000Y-47586252D01*
%TO.C,C97*%
X253835000Y-47063748D02*
X253835000Y-47586252D01*
X252365000Y-47063748D02*
X252365000Y-47586252D01*
%TO.C,C95*%
X250885000Y-44222163D02*
X250885000Y-44437835D01*
X250165000Y-44222163D02*
X250165000Y-44437835D01*
%TO.C,C94*%
X243760000Y-44472164D02*
X243760000Y-44687836D01*
X243040000Y-44472164D02*
X243040000Y-44687836D01*
%TO.C,C93*%
X243065000Y-39637836D02*
X243065000Y-39422164D01*
X243785000Y-39637836D02*
X243785000Y-39422164D01*
%TO.C,C92*%
X242860000Y-41412165D02*
X242860000Y-41627837D01*
X242140000Y-41412165D02*
X242140000Y-41627837D01*
%TO.C,C91*%
X243860001Y-41412164D02*
X243860001Y-41627836D01*
X243140001Y-41412164D02*
X243140001Y-41627836D01*
%TO.C,C90*%
X251885000Y-44222164D02*
X251885000Y-44437836D01*
X251165000Y-44222164D02*
X251165000Y-44437836D01*
%TO.C,C89*%
X242760000Y-44472164D02*
X242760000Y-44687836D01*
X242040000Y-44472164D02*
X242040000Y-44687836D01*
%TO.C,C88*%
X226846693Y-78355810D02*
X226694190Y-78203307D01*
X227355810Y-77846693D02*
X227203307Y-77694190D01*
%TO.C,C87*%
X248813748Y-64290000D02*
X250236252Y-64290000D01*
X248813748Y-67010000D02*
X250236252Y-67010000D01*
%TO.C,C86*%
X248838748Y-60915000D02*
X250261252Y-60915000D01*
X248838748Y-63635000D02*
X250261252Y-63635000D01*
%TO.C,C85*%
X248813748Y-67615000D02*
X250236252Y-67615000D01*
X248813748Y-70335000D02*
X250236252Y-70335000D01*
%TO.C,C84*%
X239617164Y-70165000D02*
X239832836Y-70165000D01*
X239617164Y-70885000D02*
X239832836Y-70885000D01*
%TO.C,C83*%
X236332836Y-70910000D02*
X236117164Y-70910000D01*
X236332836Y-70190000D02*
X236117164Y-70190000D01*
%TO.C,C82*%
X237503307Y-64194190D02*
X237655810Y-64346693D01*
X236994190Y-64703307D02*
X237146693Y-64855810D01*
%TO.C,C81*%
X221607282Y-56016400D02*
X221454779Y-55863897D01*
X222116399Y-55507283D02*
X221963896Y-55354780D01*
%TO.C,C80*%
X222837144Y-55523773D02*
X222684641Y-55371270D01*
X223346261Y-55014656D02*
X223193758Y-54862153D01*
%TO.C,C79*%
X234286544Y-59309490D02*
X234439047Y-59156987D01*
X234795661Y-59818607D02*
X234948164Y-59666104D01*
%TO.C,C78*%
X237498165Y-62266104D02*
X237345662Y-62418607D01*
X236989048Y-61756987D02*
X236836545Y-61909490D01*
%TO.C,C77*%
X232995221Y-57838896D02*
X232842718Y-57991399D01*
X232486104Y-57329779D02*
X232333601Y-57482282D01*
%TO.C,C76*%
X230461761Y-71151208D02*
X230092294Y-70781741D01*
X231501208Y-70111761D02*
X231131741Y-69742294D01*
%TO.C,C75*%
X230735000Y-56912164D02*
X230735000Y-57127836D01*
X230015000Y-56912164D02*
X230015000Y-57127836D01*
%TO.C,C74*%
X227387164Y-58540000D02*
X227602836Y-58540000D01*
X227387164Y-59260000D02*
X227602836Y-59260000D01*
%TO.C,C73*%
X236339048Y-68747428D02*
X236186545Y-68594925D01*
X236848165Y-68238311D02*
X236695662Y-68085808D01*
%TO.C,C72*%
X237539048Y-67547429D02*
X237386545Y-67394926D01*
X238048165Y-67038312D02*
X237895662Y-66885809D01*
%TO.C,C60*%
X230121693Y-99680810D02*
X229969190Y-99528307D01*
X230630810Y-99171693D02*
X230478307Y-99019190D01*
%TO.C,C3*%
X231465000Y-75932836D02*
X231465000Y-75717164D01*
X232185000Y-75932836D02*
X232185000Y-75717164D01*
%TO.C,C1*%
X239832836Y-103285000D02*
X239617164Y-103285000D01*
X239832836Y-102565000D02*
X239617164Y-102565000D01*
%TO.C,C114*%
D10*
X223722142Y-106405952D02*
X223769761Y-106358333D01*
X223817380Y-106215476D01*
X223817380Y-106120238D01*
X223769761Y-105977380D01*
X223674523Y-105882142D01*
X223579285Y-105834523D01*
X223388809Y-105786904D01*
X223245952Y-105786904D01*
X223055476Y-105834523D01*
X222960238Y-105882142D01*
X222865000Y-105977380D01*
X222817380Y-106120238D01*
X222817380Y-106215476D01*
X222865000Y-106358333D01*
X222912619Y-106405952D01*
X223817380Y-107358333D02*
X223817380Y-106786904D01*
X223817380Y-107072619D02*
X222817380Y-107072619D01*
X222960238Y-106977380D01*
X223055476Y-106882142D01*
X223103095Y-106786904D01*
X223817380Y-108310714D02*
X223817380Y-107739285D01*
X223817380Y-108025000D02*
X222817380Y-108025000D01*
X222960238Y-107929761D01*
X223055476Y-107834523D01*
X223103095Y-107739285D01*
X223150714Y-109167857D02*
X223817380Y-109167857D01*
X222769761Y-108929761D02*
X223484047Y-108691666D01*
X223484047Y-109310714D01*
%TO.C,X4*%
D17*
X222429523Y-109946904D02*
X223699523Y-110793571D01*
X222429523Y-110793571D02*
X223699523Y-109946904D01*
X222852857Y-111821666D02*
X223699523Y-111821666D01*
X222369047Y-111519285D02*
X223276190Y-111216904D01*
X223276190Y-112003095D01*
%TO.C,X3*%
X235363724Y-101480172D02*
X233867014Y-101779514D01*
X234765040Y-100881488D02*
X234465698Y-102378197D01*
X234508461Y-100624909D02*
X233952540Y-100068989D01*
X233909777Y-100710435D01*
X233781488Y-100582146D01*
X233653199Y-100539383D01*
X233567672Y-100539383D01*
X233439383Y-100582146D01*
X233225567Y-100795962D01*
X233182804Y-100924251D01*
X233182804Y-101009777D01*
X233225567Y-101138067D01*
X233482146Y-101394645D01*
X233610435Y-101437409D01*
X233695962Y-101437409D01*
%TO.C,X2*%
X228253095Y-55704523D02*
X227406428Y-56974523D01*
X227406428Y-55704523D02*
X228253095Y-56974523D01*
X226983095Y-55825476D02*
X226922619Y-55765000D01*
X226801666Y-55704523D01*
X226499285Y-55704523D01*
X226378333Y-55765000D01*
X226317857Y-55825476D01*
X226257380Y-55946428D01*
X226257380Y-56067380D01*
X226317857Y-56248809D01*
X227043571Y-56974523D01*
X226257380Y-56974523D01*
%TO.C,X1*%
X235824250Y-64993186D02*
X236123592Y-66489896D01*
X235225566Y-65591870D02*
X236722275Y-65891212D01*
X235311092Y-67302395D02*
X235824250Y-66789238D01*
X235567671Y-67045816D02*
X234669645Y-66147791D01*
X234883461Y-66190554D01*
X235054513Y-66190554D01*
X235182803Y-66147791D01*
%TO.C,U8*%
D10*
X247596904Y-69962380D02*
X247596904Y-70771904D01*
X247549285Y-70867142D01*
X247501666Y-70914761D01*
X247406428Y-70962380D01*
X247215952Y-70962380D01*
X247120714Y-70914761D01*
X247073095Y-70867142D01*
X247025476Y-70771904D01*
X247025476Y-69962380D01*
X246406428Y-70390952D02*
X246501666Y-70343333D01*
X246549285Y-70295714D01*
X246596904Y-70200476D01*
X246596904Y-70152857D01*
X246549285Y-70057619D01*
X246501666Y-70010000D01*
X246406428Y-69962380D01*
X246215952Y-69962380D01*
X246120714Y-70010000D01*
X246073095Y-70057619D01*
X246025476Y-70152857D01*
X246025476Y-70200476D01*
X246073095Y-70295714D01*
X246120714Y-70343333D01*
X246215952Y-70390952D01*
X246406428Y-70390952D01*
X246501666Y-70438571D01*
X246549285Y-70486190D01*
X246596904Y-70581428D01*
X246596904Y-70771904D01*
X246549285Y-70867142D01*
X246501666Y-70914761D01*
X246406428Y-70962380D01*
X246215952Y-70962380D01*
X246120714Y-70914761D01*
X246073095Y-70867142D01*
X246025476Y-70771904D01*
X246025476Y-70581428D01*
X246073095Y-70486190D01*
X246120714Y-70438571D01*
X246215952Y-70390952D01*
%TO.C,J1*%
D17*
X204088333Y-39842523D02*
X204088333Y-40749666D01*
X204148809Y-40931095D01*
X204269761Y-41052047D01*
X204451190Y-41112523D01*
X204572142Y-41112523D01*
X202818333Y-41112523D02*
X203544047Y-41112523D01*
X203181190Y-41112523D02*
X203181190Y-39842523D01*
X203302142Y-40023952D01*
X203423095Y-40144904D01*
X203544047Y-40205380D01*
%TO.C,IC6*%
X213307893Y-72354605D02*
X212409868Y-71456580D01*
X212281578Y-73209868D02*
X212367104Y-73209868D01*
X212538157Y-73124341D01*
X212623683Y-73038815D01*
X212709209Y-72867763D01*
X212709209Y-72696710D01*
X212666446Y-72568421D01*
X212538157Y-72354605D01*
X212409868Y-72226316D01*
X212196052Y-72098026D01*
X212067763Y-72055263D01*
X211896710Y-72055263D01*
X211725658Y-72140790D01*
X211640131Y-72226316D01*
X211554605Y-72397368D01*
X211554605Y-72482895D01*
X210699343Y-73167104D02*
X210870395Y-72996052D01*
X210998685Y-72953289D01*
X211084211Y-72953289D01*
X211298026Y-72996052D01*
X211511842Y-73124341D01*
X211853947Y-73466446D01*
X211896710Y-73594736D01*
X211896710Y-73680262D01*
X211853947Y-73808551D01*
X211682895Y-73979604D01*
X211554605Y-74022367D01*
X211469079Y-74022367D01*
X211340790Y-73979604D01*
X211126974Y-73765788D01*
X211084211Y-73637499D01*
X211084211Y-73551973D01*
X211126974Y-73423683D01*
X211298026Y-73252631D01*
X211426316Y-73209868D01*
X211511842Y-73209868D01*
X211640131Y-73252631D01*
%TO.C,IC4*%
X217695394Y-67507893D02*
X218593419Y-66609868D01*
X216840131Y-66481578D02*
X216840131Y-66567104D01*
X216925658Y-66738157D01*
X217011184Y-66823683D01*
X217182236Y-66909209D01*
X217353289Y-66909209D01*
X217481578Y-66866446D01*
X217695394Y-66738157D01*
X217823683Y-66609868D01*
X217951973Y-66396052D01*
X217994736Y-66267763D01*
X217994736Y-66096710D01*
X217909209Y-65925658D01*
X217823683Y-65840131D01*
X217652631Y-65754605D01*
X217567104Y-65754605D01*
X216583553Y-65198685D02*
X215984869Y-65797368D01*
X217139473Y-65070395D02*
X216711842Y-65925658D01*
X216155921Y-65369737D01*
%TO.C,IC3*%
X248239761Y-43074523D02*
X248239761Y-41804523D01*
X246909285Y-42953571D02*
X246969761Y-43014047D01*
X247151190Y-43074523D01*
X247272142Y-43074523D01*
X247453571Y-43014047D01*
X247574523Y-42893095D01*
X247635000Y-42772142D01*
X247695476Y-42530238D01*
X247695476Y-42348809D01*
X247635000Y-42106904D01*
X247574523Y-41985952D01*
X247453571Y-41865000D01*
X247272142Y-41804523D01*
X247151190Y-41804523D01*
X246969761Y-41865000D01*
X246909285Y-41925476D01*
X246485952Y-41804523D02*
X245699761Y-41804523D01*
X246123095Y-42288333D01*
X245941666Y-42288333D01*
X245820714Y-42348809D01*
X245760238Y-42409285D01*
X245699761Y-42530238D01*
X245699761Y-42832619D01*
X245760238Y-42953571D01*
X245820714Y-43014047D01*
X245941666Y-43074523D01*
X246304523Y-43074523D01*
X246425476Y-43014047D01*
X246485952Y-42953571D01*
%TO.C,J18*%
D10*
X164502380Y-21845476D02*
X165216666Y-21845476D01*
X165359523Y-21797857D01*
X165454761Y-21702619D01*
X165502380Y-21559761D01*
X165502380Y-21464523D01*
X165502380Y-22845476D02*
X165502380Y-22274047D01*
X165502380Y-22559761D02*
X164502380Y-22559761D01*
X164645238Y-22464523D01*
X164740476Y-22369285D01*
X164788095Y-22274047D01*
X164930952Y-23416904D02*
X164883333Y-23321666D01*
X164835714Y-23274047D01*
X164740476Y-23226428D01*
X164692857Y-23226428D01*
X164597619Y-23274047D01*
X164550000Y-23321666D01*
X164502380Y-23416904D01*
X164502380Y-23607380D01*
X164550000Y-23702619D01*
X164597619Y-23750238D01*
X164692857Y-23797857D01*
X164740476Y-23797857D01*
X164835714Y-23750238D01*
X164883333Y-23702619D01*
X164930952Y-23607380D01*
X164930952Y-23416904D01*
X164978571Y-23321666D01*
X165026190Y-23274047D01*
X165121428Y-23226428D01*
X165311904Y-23226428D01*
X165407142Y-23274047D01*
X165454761Y-23321666D01*
X165502380Y-23416904D01*
X165502380Y-23607380D01*
X165454761Y-23702619D01*
X165407142Y-23750238D01*
X165311904Y-23797857D01*
X165121428Y-23797857D01*
X165026190Y-23750238D01*
X164978571Y-23702619D01*
X164930952Y-23607380D01*
%TO.C,J10*%
D17*
X247029523Y-97096904D02*
X247936666Y-97096904D01*
X248118095Y-97036428D01*
X248239047Y-96915476D01*
X248299523Y-96734047D01*
X248299523Y-96613095D01*
X248299523Y-98366904D02*
X248299523Y-97641190D01*
X248299523Y-98004047D02*
X247029523Y-98004047D01*
X247210952Y-97883095D01*
X247331904Y-97762142D01*
X247392380Y-97641190D01*
X247029523Y-99153095D02*
X247029523Y-99274047D01*
X247090000Y-99395000D01*
X247150476Y-99455476D01*
X247271428Y-99515952D01*
X247513333Y-99576428D01*
X247815714Y-99576428D01*
X248057619Y-99515952D01*
X248178571Y-99455476D01*
X248239047Y-99395000D01*
X248299523Y-99274047D01*
X248299523Y-99153095D01*
X248239047Y-99032142D01*
X248178571Y-98971666D01*
X248057619Y-98911190D01*
X247815714Y-98850714D01*
X247513333Y-98850714D01*
X247271428Y-98911190D01*
X247150476Y-98971666D01*
X247090000Y-99032142D01*
X247029523Y-99153095D01*
%TO.C,J3*%
D10*
X247938333Y-30217380D02*
X247938333Y-30931666D01*
X247985952Y-31074523D01*
X248081190Y-31169761D01*
X248224047Y-31217380D01*
X248319285Y-31217380D01*
X247557380Y-30217380D02*
X246938333Y-30217380D01*
X247271666Y-30598333D01*
X247128809Y-30598333D01*
X247033571Y-30645952D01*
X246985952Y-30693571D01*
X246938333Y-30788809D01*
X246938333Y-31026904D01*
X246985952Y-31122142D01*
X247033571Y-31169761D01*
X247128809Y-31217380D01*
X247414523Y-31217380D01*
X247509761Y-31169761D01*
X247557380Y-31122142D01*
X249019285Y-38052380D02*
X249019285Y-37052380D01*
X248447857Y-38052380D01*
X248447857Y-37052380D01*
X247638333Y-37528571D02*
X247971666Y-37528571D01*
X247971666Y-38052380D02*
X247971666Y-37052380D01*
X247495476Y-37052380D01*
X246543095Y-37957142D02*
X246590714Y-38004761D01*
X246733571Y-38052380D01*
X246828809Y-38052380D01*
X246971666Y-38004761D01*
X247066904Y-37909523D01*
X247114523Y-37814285D01*
X247162142Y-37623809D01*
X247162142Y-37480952D01*
X247114523Y-37290476D01*
X247066904Y-37195238D01*
X246971666Y-37100000D01*
X246828809Y-37052380D01*
X246733571Y-37052380D01*
X246590714Y-37100000D01*
X246543095Y-37147619D01*
%TO.C,U18*%
X215593649Y-77607281D02*
X215021229Y-78179701D01*
X214920214Y-78213372D01*
X214852871Y-78213372D01*
X214751855Y-78179701D01*
X214617168Y-78045014D01*
X214583497Y-77943998D01*
X214583497Y-77876655D01*
X214617168Y-77775640D01*
X215189588Y-77203220D01*
X213775375Y-77203220D02*
X214179436Y-77607281D01*
X213977405Y-77405250D02*
X214684512Y-76698144D01*
X214650840Y-76866502D01*
X214650840Y-77001189D01*
X214684512Y-77102205D01*
X213775375Y-76395098D02*
X213876390Y-76428770D01*
X213943733Y-76428770D01*
X214044749Y-76395098D01*
X214078420Y-76361426D01*
X214112092Y-76260411D01*
X214112092Y-76193067D01*
X214078420Y-76092052D01*
X213943733Y-75957365D01*
X213842718Y-75923693D01*
X213775375Y-75923693D01*
X213674359Y-75957365D01*
X213640688Y-75991037D01*
X213607016Y-76092052D01*
X213607016Y-76159396D01*
X213640688Y-76260411D01*
X213775375Y-76395098D01*
X213809046Y-76496113D01*
X213809046Y-76563457D01*
X213775375Y-76664472D01*
X213640688Y-76799159D01*
X213539672Y-76832831D01*
X213472329Y-76832831D01*
X213371314Y-76799159D01*
X213236627Y-76664472D01*
X213202955Y-76563457D01*
X213202955Y-76496113D01*
X213236627Y-76395098D01*
X213371314Y-76260411D01*
X213472329Y-76226739D01*
X213539672Y-76226739D01*
X213640688Y-76260411D01*
%TO.C,U17*%
X207382281Y-56831350D02*
X207954701Y-57403770D01*
X207988372Y-57504785D01*
X207988372Y-57572128D01*
X207954701Y-57673144D01*
X207820014Y-57807831D01*
X207718998Y-57841502D01*
X207651655Y-57841502D01*
X207550640Y-57807831D01*
X206978220Y-57235411D01*
X206978220Y-58649624D02*
X207382281Y-58245563D01*
X207180250Y-58447594D02*
X206473144Y-57740487D01*
X206641502Y-57774159D01*
X206776189Y-57774159D01*
X206877205Y-57740487D01*
X206035411Y-58178220D02*
X205564006Y-58649624D01*
X206574159Y-59053685D01*
%TO.C,U16*%
X227897681Y-102546750D02*
X228470101Y-103119170D01*
X228503772Y-103220185D01*
X228503772Y-103287528D01*
X228470101Y-103388544D01*
X228335414Y-103523231D01*
X228234398Y-103556902D01*
X228167055Y-103556902D01*
X228066040Y-103523231D01*
X227493620Y-102950811D01*
X227493620Y-104365024D02*
X227897681Y-103960963D01*
X227695650Y-104162994D02*
X226988544Y-103455887D01*
X227156902Y-103489559D01*
X227291589Y-103489559D01*
X227392605Y-103455887D01*
X226180422Y-104264009D02*
X226315109Y-104129322D01*
X226416124Y-104095650D01*
X226483467Y-104095650D01*
X226651826Y-104129322D01*
X226820185Y-104230337D01*
X227089559Y-104499711D01*
X227123231Y-104600727D01*
X227123231Y-104668070D01*
X227089559Y-104769085D01*
X226954872Y-104903772D01*
X226853857Y-104937444D01*
X226786513Y-104937444D01*
X226685498Y-104903772D01*
X226517139Y-104735414D01*
X226483467Y-104634398D01*
X226483467Y-104567055D01*
X226517139Y-104466040D01*
X226651826Y-104331353D01*
X226752841Y-104297681D01*
X226820185Y-104297681D01*
X226921200Y-104331353D01*
%TO.C,U13*%
X228941667Y-70090736D02*
X229514087Y-70663156D01*
X229547758Y-70764171D01*
X229547758Y-70831514D01*
X229514087Y-70932530D01*
X229379400Y-71067217D01*
X229278384Y-71100888D01*
X229211041Y-71100888D01*
X229110026Y-71067217D01*
X228537606Y-70494797D01*
X228537606Y-71909010D02*
X228941667Y-71504949D01*
X228739636Y-71706980D02*
X228032530Y-70999873D01*
X228200888Y-71033545D01*
X228335575Y-71033545D01*
X228436591Y-70999873D01*
X227594797Y-71437606D02*
X227157064Y-71875339D01*
X227662140Y-71909010D01*
X227561125Y-72010026D01*
X227527453Y-72111041D01*
X227527453Y-72178384D01*
X227561125Y-72279400D01*
X227729484Y-72447758D01*
X227830499Y-72481430D01*
X227897843Y-72481430D01*
X227998858Y-72447758D01*
X228200888Y-72245728D01*
X228234560Y-72144713D01*
X228234560Y-72077369D01*
%TO.C,U7*%
X234394476Y-60338170D02*
X233822056Y-60910590D01*
X233721041Y-60944262D01*
X233653697Y-60944262D01*
X233552682Y-60910590D01*
X233417995Y-60775903D01*
X233384323Y-60674888D01*
X233384323Y-60607544D01*
X233417995Y-60506529D01*
X233990415Y-59934109D01*
X233721041Y-59664735D02*
X233249636Y-59193331D01*
X232845575Y-60203483D01*
%TO.C,R98*%
X196122380Y-46197142D02*
X195646190Y-45863809D01*
X196122380Y-45625714D02*
X195122380Y-45625714D01*
X195122380Y-46006666D01*
X195170000Y-46101904D01*
X195217619Y-46149523D01*
X195312857Y-46197142D01*
X195455714Y-46197142D01*
X195550952Y-46149523D01*
X195598571Y-46101904D01*
X195646190Y-46006666D01*
X195646190Y-45625714D01*
X196122380Y-46673333D02*
X196122380Y-46863809D01*
X196074761Y-46959047D01*
X196027142Y-47006666D01*
X195884285Y-47101904D01*
X195693809Y-47149523D01*
X195312857Y-47149523D01*
X195217619Y-47101904D01*
X195170000Y-47054285D01*
X195122380Y-46959047D01*
X195122380Y-46768571D01*
X195170000Y-46673333D01*
X195217619Y-46625714D01*
X195312857Y-46578095D01*
X195550952Y-46578095D01*
X195646190Y-46625714D01*
X195693809Y-46673333D01*
X195741428Y-46768571D01*
X195741428Y-46959047D01*
X195693809Y-47054285D01*
X195646190Y-47101904D01*
X195550952Y-47149523D01*
X195550952Y-47720952D02*
X195503333Y-47625714D01*
X195455714Y-47578095D01*
X195360476Y-47530476D01*
X195312857Y-47530476D01*
X195217619Y-47578095D01*
X195170000Y-47625714D01*
X195122380Y-47720952D01*
X195122380Y-47911428D01*
X195170000Y-48006666D01*
X195217619Y-48054285D01*
X195312857Y-48101904D01*
X195360476Y-48101904D01*
X195455714Y-48054285D01*
X195503333Y-48006666D01*
X195550952Y-47911428D01*
X195550952Y-47720952D01*
X195598571Y-47625714D01*
X195646190Y-47578095D01*
X195741428Y-47530476D01*
X195931904Y-47530476D01*
X196027142Y-47578095D01*
X196074761Y-47625714D01*
X196122380Y-47720952D01*
X196122380Y-47911428D01*
X196074761Y-48006666D01*
X196027142Y-48054285D01*
X195931904Y-48101904D01*
X195741428Y-48101904D01*
X195646190Y-48054285D01*
X195598571Y-48006666D01*
X195550952Y-47911428D01*
%TO.C,R97*%
X214322380Y-46257142D02*
X213846190Y-45923809D01*
X214322380Y-45685714D02*
X213322380Y-45685714D01*
X213322380Y-46066666D01*
X213370000Y-46161904D01*
X213417619Y-46209523D01*
X213512857Y-46257142D01*
X213655714Y-46257142D01*
X213750952Y-46209523D01*
X213798571Y-46161904D01*
X213846190Y-46066666D01*
X213846190Y-45685714D01*
X214322380Y-46733333D02*
X214322380Y-46923809D01*
X214274761Y-47019047D01*
X214227142Y-47066666D01*
X214084285Y-47161904D01*
X213893809Y-47209523D01*
X213512857Y-47209523D01*
X213417619Y-47161904D01*
X213370000Y-47114285D01*
X213322380Y-47019047D01*
X213322380Y-46828571D01*
X213370000Y-46733333D01*
X213417619Y-46685714D01*
X213512857Y-46638095D01*
X213750952Y-46638095D01*
X213846190Y-46685714D01*
X213893809Y-46733333D01*
X213941428Y-46828571D01*
X213941428Y-47019047D01*
X213893809Y-47114285D01*
X213846190Y-47161904D01*
X213750952Y-47209523D01*
X213322380Y-47542857D02*
X213322380Y-48209523D01*
X214322380Y-47780952D01*
%TO.C,R91*%
X213877856Y-40647380D02*
X214211189Y-40171190D01*
X214449284Y-40647380D02*
X214449284Y-39647380D01*
X214068332Y-39647380D01*
X213973094Y-39695000D01*
X213925475Y-39742619D01*
X213877856Y-39837857D01*
X213877856Y-39980714D01*
X213925475Y-40075952D01*
X213973094Y-40123571D01*
X214068332Y-40171190D01*
X214449284Y-40171190D01*
X213401665Y-40647380D02*
X213211189Y-40647380D01*
X213115951Y-40599761D01*
X213068332Y-40552142D01*
X212973094Y-40409285D01*
X212925475Y-40218809D01*
X212925475Y-39837857D01*
X212973094Y-39742619D01*
X213020713Y-39695000D01*
X213115951Y-39647380D01*
X213306427Y-39647380D01*
X213401665Y-39695000D01*
X213449284Y-39742619D01*
X213496903Y-39837857D01*
X213496903Y-40075952D01*
X213449284Y-40171190D01*
X213401665Y-40218809D01*
X213306427Y-40266428D01*
X213115951Y-40266428D01*
X213020713Y-40218809D01*
X212973094Y-40171190D01*
X212925475Y-40075952D01*
X211973094Y-40647380D02*
X212544522Y-40647380D01*
X212258808Y-40647380D02*
X212258808Y-39647380D01*
X212354046Y-39790238D01*
X212449284Y-39885476D01*
X212544522Y-39933095D01*
%TO.C,R90*%
X211272135Y-55962997D02*
X211171120Y-55390578D01*
X211676196Y-55558936D02*
X210969089Y-54851830D01*
X210699715Y-55121204D01*
X210666043Y-55222219D01*
X210666043Y-55289562D01*
X210699715Y-55390578D01*
X210800730Y-55491593D01*
X210901746Y-55525265D01*
X210969089Y-55525265D01*
X211070104Y-55491593D01*
X211339478Y-55222219D01*
X210935417Y-56299715D02*
X210800730Y-56434402D01*
X210699715Y-56468074D01*
X210632372Y-56468074D01*
X210464013Y-56434402D01*
X210295654Y-56333387D01*
X210026280Y-56064013D01*
X209992608Y-55962997D01*
X209992608Y-55895654D01*
X210026280Y-55794639D01*
X210160967Y-55659952D01*
X210261982Y-55626280D01*
X210329326Y-55626280D01*
X210430341Y-55659952D01*
X210598700Y-55828310D01*
X210632372Y-55929326D01*
X210632372Y-55996669D01*
X210598700Y-56097685D01*
X210464013Y-56232372D01*
X210362997Y-56266043D01*
X210295654Y-56266043D01*
X210194639Y-56232372D01*
X209453860Y-56367059D02*
X209386517Y-56434402D01*
X209352845Y-56535417D01*
X209352845Y-56602761D01*
X209386517Y-56703776D01*
X209487532Y-56872135D01*
X209655891Y-57040494D01*
X209824249Y-57141509D01*
X209925265Y-57175181D01*
X209992608Y-57175181D01*
X210093623Y-57141509D01*
X210160967Y-57074165D01*
X210194639Y-56973150D01*
X210194639Y-56905807D01*
X210160967Y-56804791D01*
X210059952Y-56636433D01*
X209891593Y-56468074D01*
X209723234Y-56367059D01*
X209622219Y-56333387D01*
X209554875Y-56333387D01*
X209453860Y-56367059D01*
%TO.C,R89*%
X201732372Y-54526765D02*
X202304791Y-54425750D01*
X202136433Y-54930826D02*
X202843539Y-54223719D01*
X202574165Y-53954345D01*
X202473150Y-53920673D01*
X202405807Y-53920673D01*
X202304791Y-53954345D01*
X202203776Y-54055360D01*
X202170104Y-54156376D01*
X202170104Y-54223719D01*
X202203776Y-54324734D01*
X202473150Y-54594108D01*
X201732372Y-53718643D02*
X201833387Y-53752314D01*
X201900730Y-53752314D01*
X202001746Y-53718643D01*
X202035417Y-53684971D01*
X202069089Y-53583956D01*
X202069089Y-53516612D01*
X202035417Y-53415597D01*
X201900730Y-53280910D01*
X201799715Y-53247238D01*
X201732372Y-53247238D01*
X201631356Y-53280910D01*
X201597685Y-53314582D01*
X201564013Y-53415597D01*
X201564013Y-53482940D01*
X201597685Y-53583956D01*
X201732372Y-53718643D01*
X201766043Y-53819658D01*
X201766043Y-53887002D01*
X201732372Y-53988017D01*
X201597685Y-54122704D01*
X201496669Y-54156376D01*
X201429326Y-54156376D01*
X201328310Y-54122704D01*
X201193623Y-53988017D01*
X201159952Y-53887002D01*
X201159952Y-53819658D01*
X201193623Y-53718643D01*
X201328310Y-53583956D01*
X201429326Y-53550284D01*
X201496669Y-53550284D01*
X201597685Y-53583956D01*
X200722219Y-53516612D02*
X200587532Y-53381925D01*
X200553860Y-53280910D01*
X200553860Y-53213566D01*
X200587532Y-53045208D01*
X200688547Y-52876849D01*
X200957921Y-52607475D01*
X201058936Y-52573803D01*
X201126280Y-52573803D01*
X201227295Y-52607475D01*
X201361982Y-52742162D01*
X201395654Y-52843177D01*
X201395654Y-52910521D01*
X201361982Y-53011536D01*
X201193623Y-53179895D01*
X201092608Y-53213566D01*
X201025265Y-53213566D01*
X200924249Y-53179895D01*
X200789562Y-53045208D01*
X200755891Y-52944192D01*
X200755891Y-52876849D01*
X200789562Y-52775834D01*
%TO.C,R88*%
X214817857Y-55882380D02*
X215151190Y-55406190D01*
X215389285Y-55882380D02*
X215389285Y-54882380D01*
X215008333Y-54882380D01*
X214913095Y-54930000D01*
X214865476Y-54977619D01*
X214817857Y-55072857D01*
X214817857Y-55215714D01*
X214865476Y-55310952D01*
X214913095Y-55358571D01*
X215008333Y-55406190D01*
X215389285Y-55406190D01*
X214246428Y-55310952D02*
X214341666Y-55263333D01*
X214389285Y-55215714D01*
X214436904Y-55120476D01*
X214436904Y-55072857D01*
X214389285Y-54977619D01*
X214341666Y-54930000D01*
X214246428Y-54882380D01*
X214055952Y-54882380D01*
X213960714Y-54930000D01*
X213913095Y-54977619D01*
X213865476Y-55072857D01*
X213865476Y-55120476D01*
X213913095Y-55215714D01*
X213960714Y-55263333D01*
X214055952Y-55310952D01*
X214246428Y-55310952D01*
X214341666Y-55358571D01*
X214389285Y-55406190D01*
X214436904Y-55501428D01*
X214436904Y-55691904D01*
X214389285Y-55787142D01*
X214341666Y-55834761D01*
X214246428Y-55882380D01*
X214055952Y-55882380D01*
X213960714Y-55834761D01*
X213913095Y-55787142D01*
X213865476Y-55691904D01*
X213865476Y-55501428D01*
X213913095Y-55406190D01*
X213960714Y-55358571D01*
X214055952Y-55310952D01*
X213294047Y-55310952D02*
X213389285Y-55263333D01*
X213436904Y-55215714D01*
X213484523Y-55120476D01*
X213484523Y-55072857D01*
X213436904Y-54977619D01*
X213389285Y-54930000D01*
X213294047Y-54882380D01*
X213103571Y-54882380D01*
X213008333Y-54930000D01*
X212960714Y-54977619D01*
X212913095Y-55072857D01*
X212913095Y-55120476D01*
X212960714Y-55215714D01*
X213008333Y-55263333D01*
X213103571Y-55310952D01*
X213294047Y-55310952D01*
X213389285Y-55358571D01*
X213436904Y-55406190D01*
X213484523Y-55501428D01*
X213484523Y-55691904D01*
X213436904Y-55787142D01*
X213389285Y-55834761D01*
X213294047Y-55882380D01*
X213103571Y-55882380D01*
X213008333Y-55834761D01*
X212960714Y-55787142D01*
X212913095Y-55691904D01*
X212913095Y-55501428D01*
X212960714Y-55406190D01*
X213008333Y-55358571D01*
X213103571Y-55310952D01*
%TO.C,R87*%
X231121748Y-57291141D02*
X231694167Y-57190126D01*
X231525809Y-57695202D02*
X232232915Y-56988095D01*
X231963541Y-56718721D01*
X231862526Y-56685049D01*
X231795183Y-56685049D01*
X231694167Y-56718721D01*
X231593152Y-56819736D01*
X231559480Y-56920752D01*
X231559480Y-56988095D01*
X231593152Y-57089110D01*
X231862526Y-57358484D01*
X231121748Y-56483019D02*
X231222763Y-56516690D01*
X231290106Y-56516690D01*
X231391122Y-56483019D01*
X231424793Y-56449347D01*
X231458465Y-56348332D01*
X231458465Y-56280988D01*
X231424793Y-56179973D01*
X231290106Y-56045286D01*
X231189091Y-56011614D01*
X231121748Y-56011614D01*
X231020732Y-56045286D01*
X230987061Y-56078958D01*
X230953389Y-56179973D01*
X230953389Y-56247316D01*
X230987061Y-56348332D01*
X231121748Y-56483019D01*
X231155419Y-56584034D01*
X231155419Y-56651378D01*
X231121748Y-56752393D01*
X230987061Y-56887080D01*
X230886045Y-56920752D01*
X230818702Y-56920752D01*
X230717686Y-56887080D01*
X230582999Y-56752393D01*
X230549328Y-56651378D01*
X230549328Y-56584034D01*
X230582999Y-56483019D01*
X230717686Y-56348332D01*
X230818702Y-56314660D01*
X230886045Y-56314660D01*
X230987061Y-56348332D01*
X230919717Y-55674897D02*
X230448312Y-55203492D01*
X230044251Y-56213645D01*
%TO.C,R86*%
X216342857Y-45682380D02*
X216676190Y-45206190D01*
X216914285Y-45682380D02*
X216914285Y-44682380D01*
X216533333Y-44682380D01*
X216438095Y-44730000D01*
X216390476Y-44777619D01*
X216342857Y-44872857D01*
X216342857Y-45015714D01*
X216390476Y-45110952D01*
X216438095Y-45158571D01*
X216533333Y-45206190D01*
X216914285Y-45206190D01*
X215771428Y-45110952D02*
X215866666Y-45063333D01*
X215914285Y-45015714D01*
X215961904Y-44920476D01*
X215961904Y-44872857D01*
X215914285Y-44777619D01*
X215866666Y-44730000D01*
X215771428Y-44682380D01*
X215580952Y-44682380D01*
X215485714Y-44730000D01*
X215438095Y-44777619D01*
X215390476Y-44872857D01*
X215390476Y-44920476D01*
X215438095Y-45015714D01*
X215485714Y-45063333D01*
X215580952Y-45110952D01*
X215771428Y-45110952D01*
X215866666Y-45158571D01*
X215914285Y-45206190D01*
X215961904Y-45301428D01*
X215961904Y-45491904D01*
X215914285Y-45587142D01*
X215866666Y-45634761D01*
X215771428Y-45682380D01*
X215580952Y-45682380D01*
X215485714Y-45634761D01*
X215438095Y-45587142D01*
X215390476Y-45491904D01*
X215390476Y-45301428D01*
X215438095Y-45206190D01*
X215485714Y-45158571D01*
X215580952Y-45110952D01*
X214533333Y-44682380D02*
X214723809Y-44682380D01*
X214819047Y-44730000D01*
X214866666Y-44777619D01*
X214961904Y-44920476D01*
X215009523Y-45110952D01*
X215009523Y-45491904D01*
X214961904Y-45587142D01*
X214914285Y-45634761D01*
X214819047Y-45682380D01*
X214628571Y-45682380D01*
X214533333Y-45634761D01*
X214485714Y-45587142D01*
X214438095Y-45491904D01*
X214438095Y-45253809D01*
X214485714Y-45158571D01*
X214533333Y-45110952D01*
X214628571Y-45063333D01*
X214819047Y-45063333D01*
X214914285Y-45110952D01*
X214961904Y-45158571D01*
X215009523Y-45253809D01*
%TO.C,R83*%
X248982857Y-37482380D02*
X249316190Y-37006190D01*
X249554285Y-37482380D02*
X249554285Y-36482380D01*
X249173333Y-36482380D01*
X249078095Y-36530000D01*
X249030476Y-36577619D01*
X248982857Y-36672857D01*
X248982857Y-36815714D01*
X249030476Y-36910952D01*
X249078095Y-36958571D01*
X249173333Y-37006190D01*
X249554285Y-37006190D01*
X248411428Y-36910952D02*
X248506666Y-36863333D01*
X248554285Y-36815714D01*
X248601904Y-36720476D01*
X248601904Y-36672857D01*
X248554285Y-36577619D01*
X248506666Y-36530000D01*
X248411428Y-36482380D01*
X248220952Y-36482380D01*
X248125714Y-36530000D01*
X248078095Y-36577619D01*
X248030476Y-36672857D01*
X248030476Y-36720476D01*
X248078095Y-36815714D01*
X248125714Y-36863333D01*
X248220952Y-36910952D01*
X248411428Y-36910952D01*
X248506666Y-36958571D01*
X248554285Y-37006190D01*
X248601904Y-37101428D01*
X248601904Y-37291904D01*
X248554285Y-37387142D01*
X248506666Y-37434761D01*
X248411428Y-37482380D01*
X248220952Y-37482380D01*
X248125714Y-37434761D01*
X248078095Y-37387142D01*
X248030476Y-37291904D01*
X248030476Y-37101428D01*
X248078095Y-37006190D01*
X248125714Y-36958571D01*
X248220952Y-36910952D01*
X247697142Y-36482380D02*
X247078095Y-36482380D01*
X247411428Y-36863333D01*
X247268571Y-36863333D01*
X247173333Y-36910952D01*
X247125714Y-36958571D01*
X247078095Y-37053809D01*
X247078095Y-37291904D01*
X247125714Y-37387142D01*
X247173333Y-37434761D01*
X247268571Y-37482380D01*
X247554285Y-37482380D01*
X247649523Y-37434761D01*
X247697142Y-37387142D01*
%TO.C,R78*%
X250932857Y-39822380D02*
X251266190Y-39346190D01*
X251504285Y-39822380D02*
X251504285Y-38822380D01*
X251123333Y-38822380D01*
X251028095Y-38870000D01*
X250980476Y-38917619D01*
X250932857Y-39012857D01*
X250932857Y-39155714D01*
X250980476Y-39250952D01*
X251028095Y-39298571D01*
X251123333Y-39346190D01*
X251504285Y-39346190D01*
X250599523Y-38822380D02*
X249932857Y-38822380D01*
X250361428Y-39822380D01*
X249409047Y-39250952D02*
X249504285Y-39203333D01*
X249551904Y-39155714D01*
X249599523Y-39060476D01*
X249599523Y-39012857D01*
X249551904Y-38917619D01*
X249504285Y-38870000D01*
X249409047Y-38822380D01*
X249218571Y-38822380D01*
X249123333Y-38870000D01*
X249075714Y-38917619D01*
X249028095Y-39012857D01*
X249028095Y-39060476D01*
X249075714Y-39155714D01*
X249123333Y-39203333D01*
X249218571Y-39250952D01*
X249409047Y-39250952D01*
X249504285Y-39298571D01*
X249551904Y-39346190D01*
X249599523Y-39441428D01*
X249599523Y-39631904D01*
X249551904Y-39727142D01*
X249504285Y-39774761D01*
X249409047Y-39822380D01*
X249218571Y-39822380D01*
X249123333Y-39774761D01*
X249075714Y-39727142D01*
X249028095Y-39631904D01*
X249028095Y-39441428D01*
X249075714Y-39346190D01*
X249123333Y-39298571D01*
X249218571Y-39250952D01*
%TO.C,R77*%
X253197380Y-39547142D02*
X252721190Y-39213809D01*
X253197380Y-38975714D02*
X252197380Y-38975714D01*
X252197380Y-39356666D01*
X252245000Y-39451904D01*
X252292619Y-39499523D01*
X252387857Y-39547142D01*
X252530714Y-39547142D01*
X252625952Y-39499523D01*
X252673571Y-39451904D01*
X252721190Y-39356666D01*
X252721190Y-38975714D01*
X252197380Y-39880476D02*
X252197380Y-40547142D01*
X253197380Y-40118571D01*
X252197380Y-40832857D02*
X252197380Y-41499523D01*
X253197380Y-41070952D01*
%TO.C,R76*%
X251882380Y-39547142D02*
X251406190Y-39213809D01*
X251882380Y-38975714D02*
X250882380Y-38975714D01*
X250882380Y-39356666D01*
X250930000Y-39451904D01*
X250977619Y-39499523D01*
X251072857Y-39547142D01*
X251215714Y-39547142D01*
X251310952Y-39499523D01*
X251358571Y-39451904D01*
X251406190Y-39356666D01*
X251406190Y-38975714D01*
X250882380Y-39880476D02*
X250882380Y-40547142D01*
X251882380Y-40118571D01*
X250882380Y-41356666D02*
X250882380Y-41166190D01*
X250930000Y-41070952D01*
X250977619Y-41023333D01*
X251120476Y-40928095D01*
X251310952Y-40880476D01*
X251691904Y-40880476D01*
X251787142Y-40928095D01*
X251834761Y-40975714D01*
X251882380Y-41070952D01*
X251882380Y-41261428D01*
X251834761Y-41356666D01*
X251787142Y-41404285D01*
X251691904Y-41451904D01*
X251453809Y-41451904D01*
X251358571Y-41404285D01*
X251310952Y-41356666D01*
X251263333Y-41261428D01*
X251263333Y-41070952D01*
X251310952Y-40975714D01*
X251358571Y-40928095D01*
X251453809Y-40880476D01*
%TO.C,R75*%
X252172380Y-39547142D02*
X251696190Y-39213809D01*
X252172380Y-38975714D02*
X251172380Y-38975714D01*
X251172380Y-39356666D01*
X251220000Y-39451904D01*
X251267619Y-39499523D01*
X251362857Y-39547142D01*
X251505714Y-39547142D01*
X251600952Y-39499523D01*
X251648571Y-39451904D01*
X251696190Y-39356666D01*
X251696190Y-38975714D01*
X251172380Y-39880476D02*
X251172380Y-40547142D01*
X252172380Y-40118571D01*
X251172380Y-41404285D02*
X251172380Y-40928095D01*
X251648571Y-40880476D01*
X251600952Y-40928095D01*
X251553333Y-41023333D01*
X251553333Y-41261428D01*
X251600952Y-41356666D01*
X251648571Y-41404285D01*
X251743809Y-41451904D01*
X251981904Y-41451904D01*
X252077142Y-41404285D01*
X252124761Y-41356666D01*
X252172380Y-41261428D01*
X252172380Y-41023333D01*
X252124761Y-40928095D01*
X252077142Y-40880476D01*
%TO.C,R74*%
X245682857Y-37482380D02*
X246016190Y-37006190D01*
X246254285Y-37482380D02*
X246254285Y-36482380D01*
X245873333Y-36482380D01*
X245778095Y-36530000D01*
X245730476Y-36577619D01*
X245682857Y-36672857D01*
X245682857Y-36815714D01*
X245730476Y-36910952D01*
X245778095Y-36958571D01*
X245873333Y-37006190D01*
X246254285Y-37006190D01*
X245349523Y-36482380D02*
X244682857Y-36482380D01*
X245111428Y-37482380D01*
X243873333Y-36815714D02*
X243873333Y-37482380D01*
X244111428Y-36434761D02*
X244349523Y-37149047D01*
X243730476Y-37149047D01*
%TO.C,R72*%
X235747380Y-91482142D02*
X235271190Y-91148809D01*
X235747380Y-90910714D02*
X234747380Y-90910714D01*
X234747380Y-91291666D01*
X234795000Y-91386904D01*
X234842619Y-91434523D01*
X234937857Y-91482142D01*
X235080714Y-91482142D01*
X235175952Y-91434523D01*
X235223571Y-91386904D01*
X235271190Y-91291666D01*
X235271190Y-90910714D01*
X234747380Y-91815476D02*
X234747380Y-92482142D01*
X235747380Y-92053571D01*
X234842619Y-92815476D02*
X234795000Y-92863095D01*
X234747380Y-92958333D01*
X234747380Y-93196428D01*
X234795000Y-93291666D01*
X234842619Y-93339285D01*
X234937857Y-93386904D01*
X235033095Y-93386904D01*
X235175952Y-93339285D01*
X235747380Y-92767857D01*
X235747380Y-93386904D01*
%TO.C,R63*%
X235897380Y-52382142D02*
X235421190Y-52048809D01*
X235897380Y-51810714D02*
X234897380Y-51810714D01*
X234897380Y-52191666D01*
X234945000Y-52286904D01*
X234992619Y-52334523D01*
X235087857Y-52382142D01*
X235230714Y-52382142D01*
X235325952Y-52334523D01*
X235373571Y-52286904D01*
X235421190Y-52191666D01*
X235421190Y-51810714D01*
X234897380Y-53239285D02*
X234897380Y-53048809D01*
X234945000Y-52953571D01*
X234992619Y-52905952D01*
X235135476Y-52810714D01*
X235325952Y-52763095D01*
X235706904Y-52763095D01*
X235802142Y-52810714D01*
X235849761Y-52858333D01*
X235897380Y-52953571D01*
X235897380Y-53144047D01*
X235849761Y-53239285D01*
X235802142Y-53286904D01*
X235706904Y-53334523D01*
X235468809Y-53334523D01*
X235373571Y-53286904D01*
X235325952Y-53239285D01*
X235278333Y-53144047D01*
X235278333Y-52953571D01*
X235325952Y-52858333D01*
X235373571Y-52810714D01*
X235468809Y-52763095D01*
X234897380Y-53667857D02*
X234897380Y-54286904D01*
X235278333Y-53953571D01*
X235278333Y-54096428D01*
X235325952Y-54191666D01*
X235373571Y-54239285D01*
X235468809Y-54286904D01*
X235706904Y-54286904D01*
X235802142Y-54239285D01*
X235849761Y-54191666D01*
X235897380Y-54096428D01*
X235897380Y-53810714D01*
X235849761Y-53715476D01*
X235802142Y-53667857D01*
%TO.C,R58*%
X245682857Y-36457380D02*
X246016190Y-35981190D01*
X246254285Y-36457380D02*
X246254285Y-35457380D01*
X245873333Y-35457380D01*
X245778095Y-35505000D01*
X245730476Y-35552619D01*
X245682857Y-35647857D01*
X245682857Y-35790714D01*
X245730476Y-35885952D01*
X245778095Y-35933571D01*
X245873333Y-35981190D01*
X246254285Y-35981190D01*
X244778095Y-35457380D02*
X245254285Y-35457380D01*
X245301904Y-35933571D01*
X245254285Y-35885952D01*
X245159047Y-35838333D01*
X244920952Y-35838333D01*
X244825714Y-35885952D01*
X244778095Y-35933571D01*
X244730476Y-36028809D01*
X244730476Y-36266904D01*
X244778095Y-36362142D01*
X244825714Y-36409761D01*
X244920952Y-36457380D01*
X245159047Y-36457380D01*
X245254285Y-36409761D01*
X245301904Y-36362142D01*
X244159047Y-35885952D02*
X244254285Y-35838333D01*
X244301904Y-35790714D01*
X244349523Y-35695476D01*
X244349523Y-35647857D01*
X244301904Y-35552619D01*
X244254285Y-35505000D01*
X244159047Y-35457380D01*
X243968571Y-35457380D01*
X243873333Y-35505000D01*
X243825714Y-35552619D01*
X243778095Y-35647857D01*
X243778095Y-35695476D01*
X243825714Y-35790714D01*
X243873333Y-35838333D01*
X243968571Y-35885952D01*
X244159047Y-35885952D01*
X244254285Y-35933571D01*
X244301904Y-35981190D01*
X244349523Y-36076428D01*
X244349523Y-36266904D01*
X244301904Y-36362142D01*
X244254285Y-36409761D01*
X244159047Y-36457380D01*
X243968571Y-36457380D01*
X243873333Y-36409761D01*
X243825714Y-36362142D01*
X243778095Y-36266904D01*
X243778095Y-36076428D01*
X243825714Y-35981190D01*
X243873333Y-35933571D01*
X243968571Y-35885952D01*
%TO.C,R40*%
X211982380Y-35307142D02*
X211506190Y-34973809D01*
X211982380Y-34735714D02*
X210982380Y-34735714D01*
X210982380Y-35116666D01*
X211030000Y-35211904D01*
X211077619Y-35259523D01*
X211172857Y-35307142D01*
X211315714Y-35307142D01*
X211410952Y-35259523D01*
X211458571Y-35211904D01*
X211506190Y-35116666D01*
X211506190Y-34735714D01*
X211315714Y-36164285D02*
X211982380Y-36164285D01*
X210934761Y-35926190D02*
X211649047Y-35688095D01*
X211649047Y-36307142D01*
X210982380Y-36878571D02*
X210982380Y-36973809D01*
X211030000Y-37069047D01*
X211077619Y-37116666D01*
X211172857Y-37164285D01*
X211363333Y-37211904D01*
X211601428Y-37211904D01*
X211791904Y-37164285D01*
X211887142Y-37116666D01*
X211934761Y-37069047D01*
X211982380Y-36973809D01*
X211982380Y-36878571D01*
X211934761Y-36783333D01*
X211887142Y-36735714D01*
X211791904Y-36688095D01*
X211601428Y-36640476D01*
X211363333Y-36640476D01*
X211172857Y-36688095D01*
X211077619Y-36735714D01*
X211030000Y-36783333D01*
X210982380Y-36878571D01*
%TO.C,R38*%
X208082380Y-50297143D02*
X207606190Y-49963810D01*
X208082380Y-49725715D02*
X207082380Y-49725715D01*
X207082380Y-50106667D01*
X207130000Y-50201905D01*
X207177619Y-50249524D01*
X207272857Y-50297143D01*
X207415714Y-50297143D01*
X207510952Y-50249524D01*
X207558571Y-50201905D01*
X207606190Y-50106667D01*
X207606190Y-49725715D01*
X207082380Y-50630477D02*
X207082380Y-51249524D01*
X207463333Y-50916191D01*
X207463333Y-51059048D01*
X207510952Y-51154286D01*
X207558571Y-51201905D01*
X207653809Y-51249524D01*
X207891904Y-51249524D01*
X207987142Y-51201905D01*
X208034761Y-51154286D01*
X208082380Y-51059048D01*
X208082380Y-50773334D01*
X208034761Y-50678096D01*
X207987142Y-50630477D01*
X207510952Y-51820953D02*
X207463333Y-51725715D01*
X207415714Y-51678096D01*
X207320476Y-51630477D01*
X207272857Y-51630477D01*
X207177619Y-51678096D01*
X207130000Y-51725715D01*
X207082380Y-51820953D01*
X207082380Y-52011429D01*
X207130000Y-52106667D01*
X207177619Y-52154286D01*
X207272857Y-52201905D01*
X207320476Y-52201905D01*
X207415714Y-52154286D01*
X207463333Y-52106667D01*
X207510952Y-52011429D01*
X207510952Y-51820953D01*
X207558571Y-51725715D01*
X207606190Y-51678096D01*
X207701428Y-51630477D01*
X207891904Y-51630477D01*
X207987142Y-51678096D01*
X208034761Y-51725715D01*
X208082380Y-51820953D01*
X208082380Y-52011429D01*
X208034761Y-52106667D01*
X207987142Y-52154286D01*
X207891904Y-52201905D01*
X207701428Y-52201905D01*
X207606190Y-52154286D01*
X207558571Y-52106667D01*
X207510952Y-52011429D01*
%TO.C,R37*%
X207032380Y-50297143D02*
X206556190Y-49963810D01*
X207032380Y-49725715D02*
X206032380Y-49725715D01*
X206032380Y-50106667D01*
X206080000Y-50201905D01*
X206127619Y-50249524D01*
X206222857Y-50297143D01*
X206365714Y-50297143D01*
X206460952Y-50249524D01*
X206508571Y-50201905D01*
X206556190Y-50106667D01*
X206556190Y-49725715D01*
X206032380Y-50630477D02*
X206032380Y-51249524D01*
X206413333Y-50916191D01*
X206413333Y-51059048D01*
X206460952Y-51154286D01*
X206508571Y-51201905D01*
X206603809Y-51249524D01*
X206841904Y-51249524D01*
X206937142Y-51201905D01*
X206984761Y-51154286D01*
X207032380Y-51059048D01*
X207032380Y-50773334D01*
X206984761Y-50678096D01*
X206937142Y-50630477D01*
X206032380Y-51582858D02*
X206032380Y-52249524D01*
X207032380Y-51820953D01*
%TO.C,R13*%
X200182380Y-50167142D02*
X199706190Y-49833809D01*
X200182380Y-49595714D02*
X199182380Y-49595714D01*
X199182380Y-49976666D01*
X199230000Y-50071904D01*
X199277619Y-50119523D01*
X199372857Y-50167142D01*
X199515714Y-50167142D01*
X199610952Y-50119523D01*
X199658571Y-50071904D01*
X199706190Y-49976666D01*
X199706190Y-49595714D01*
X200182380Y-51119523D02*
X200182380Y-50548095D01*
X200182380Y-50833809D02*
X199182380Y-50833809D01*
X199325238Y-50738571D01*
X199420476Y-50643333D01*
X199468095Y-50548095D01*
X199182380Y-51452857D02*
X199182380Y-52071904D01*
X199563333Y-51738571D01*
X199563333Y-51881428D01*
X199610952Y-51976666D01*
X199658571Y-52024285D01*
X199753809Y-52071904D01*
X199991904Y-52071904D01*
X200087142Y-52024285D01*
X200134761Y-51976666D01*
X200182380Y-51881428D01*
X200182380Y-51595714D01*
X200134761Y-51500476D01*
X200087142Y-51452857D01*
%TO.C,R12*%
X199132380Y-50157142D02*
X198656190Y-49823809D01*
X199132380Y-49585714D02*
X198132380Y-49585714D01*
X198132380Y-49966666D01*
X198180000Y-50061904D01*
X198227619Y-50109523D01*
X198322857Y-50157142D01*
X198465714Y-50157142D01*
X198560952Y-50109523D01*
X198608571Y-50061904D01*
X198656190Y-49966666D01*
X198656190Y-49585714D01*
X199132380Y-51109523D02*
X199132380Y-50538095D01*
X199132380Y-50823809D02*
X198132380Y-50823809D01*
X198275238Y-50728571D01*
X198370476Y-50633333D01*
X198418095Y-50538095D01*
X198227619Y-51490476D02*
X198180000Y-51538095D01*
X198132380Y-51633333D01*
X198132380Y-51871428D01*
X198180000Y-51966666D01*
X198227619Y-52014285D01*
X198322857Y-52061904D01*
X198418095Y-52061904D01*
X198560952Y-52014285D01*
X199132380Y-51442857D01*
X199132380Y-52061904D01*
%TO.C,R11*%
X225187372Y-104591765D02*
X225759791Y-104490750D01*
X225591433Y-104995826D02*
X226298539Y-104288719D01*
X226029165Y-104019345D01*
X225928150Y-103985673D01*
X225860807Y-103985673D01*
X225759791Y-104019345D01*
X225658776Y-104120360D01*
X225625104Y-104221376D01*
X225625104Y-104288719D01*
X225658776Y-104389734D01*
X225928150Y-104659108D01*
X224513936Y-103918330D02*
X224917997Y-104322391D01*
X224715967Y-104120360D02*
X225423074Y-103413253D01*
X225389402Y-103581612D01*
X225389402Y-103716299D01*
X225423074Y-103817314D01*
X223840501Y-103244895D02*
X224244562Y-103648956D01*
X224042532Y-103446925D02*
X224749639Y-102739818D01*
X224715967Y-102908177D01*
X224715967Y-103042864D01*
X224749639Y-103143879D01*
%TO.C,R10*%
X224476748Y-105281141D02*
X225049167Y-105180126D01*
X224880809Y-105685202D02*
X225587915Y-104978095D01*
X225318541Y-104708721D01*
X225217526Y-104675049D01*
X225150183Y-104675049D01*
X225049167Y-104708721D01*
X224948152Y-104809736D01*
X224914480Y-104910752D01*
X224914480Y-104978095D01*
X224948152Y-105079110D01*
X225217526Y-105348484D01*
X223803312Y-104607706D02*
X224207373Y-105011767D01*
X224005343Y-104809736D02*
X224712450Y-104102629D01*
X224678778Y-104270988D01*
X224678778Y-104405675D01*
X224712450Y-104506690D01*
X224072686Y-103462866D02*
X224005343Y-103395523D01*
X223904328Y-103361851D01*
X223836984Y-103361851D01*
X223735969Y-103395523D01*
X223567610Y-103496538D01*
X223399251Y-103664897D01*
X223298236Y-103833255D01*
X223264564Y-103934271D01*
X223264564Y-104001614D01*
X223298236Y-104102629D01*
X223365580Y-104169973D01*
X223466595Y-104203645D01*
X223533938Y-104203645D01*
X223634954Y-104169973D01*
X223803312Y-104068958D01*
X223971671Y-103900599D01*
X224072686Y-103732240D01*
X224106358Y-103631225D01*
X224106358Y-103563881D01*
X224072686Y-103462866D01*
%TO.C,R5*%
X225739660Y-63649793D02*
X226312080Y-63548778D01*
X226143721Y-64053854D02*
X226850828Y-63346748D01*
X226581454Y-63077373D01*
X226480439Y-63043702D01*
X226413095Y-63043702D01*
X226312080Y-63077373D01*
X226211065Y-63178389D01*
X226177393Y-63279404D01*
X226177393Y-63346748D01*
X226211065Y-63447763D01*
X226480439Y-63717137D01*
X225807003Y-62302923D02*
X226143721Y-62639641D01*
X225840675Y-63010030D01*
X225840675Y-62942686D01*
X225807003Y-62841671D01*
X225638645Y-62673312D01*
X225537629Y-62639641D01*
X225470286Y-62639641D01*
X225369271Y-62673312D01*
X225200912Y-62841671D01*
X225167240Y-62942686D01*
X225167240Y-63010030D01*
X225200912Y-63111045D01*
X225369271Y-63279404D01*
X225470286Y-63313076D01*
X225537629Y-63313076D01*
%TO.C,Q1*%
X214347619Y-48904761D02*
X214300000Y-48809523D01*
X214204761Y-48714285D01*
X214061904Y-48571428D01*
X214014285Y-48476190D01*
X214014285Y-48380952D01*
X214252380Y-48428571D02*
X214204761Y-48333333D01*
X214109523Y-48238095D01*
X213919047Y-48190476D01*
X213585714Y-48190476D01*
X213395238Y-48238095D01*
X213300000Y-48333333D01*
X213252380Y-48428571D01*
X213252380Y-48619047D01*
X213300000Y-48714285D01*
X213395238Y-48809523D01*
X213585714Y-48857142D01*
X213919047Y-48857142D01*
X214109523Y-48809523D01*
X214204761Y-48714285D01*
X214252380Y-48619047D01*
X214252380Y-48428571D01*
X214252380Y-49809523D02*
X214252380Y-49238095D01*
X214252380Y-49523809D02*
X213252380Y-49523809D01*
X213395238Y-49428571D01*
X213490476Y-49333333D01*
X213538095Y-49238095D01*
%TO.C,L9*%
X227036806Y-102198895D02*
X227373524Y-102535613D01*
X228080630Y-101828506D01*
X226767432Y-101929521D02*
X226632745Y-101794834D01*
X226599073Y-101693819D01*
X226599073Y-101626475D01*
X226632745Y-101458117D01*
X226733760Y-101289758D01*
X227003134Y-101020384D01*
X227104149Y-100986712D01*
X227171493Y-100986712D01*
X227272508Y-101020384D01*
X227407195Y-101155071D01*
X227440867Y-101256086D01*
X227440867Y-101323430D01*
X227407195Y-101424445D01*
X227238837Y-101592804D01*
X227137821Y-101626475D01*
X227070478Y-101626475D01*
X226969462Y-101592804D01*
X226834775Y-101458117D01*
X226801104Y-101357101D01*
X226801104Y-101289758D01*
X226834775Y-101188743D01*
%TO.C,L8*%
X227848231Y-101250417D02*
X228184949Y-101587135D01*
X228892055Y-100880028D01*
X227915574Y-100509639D02*
X228016590Y-100543310D01*
X228083933Y-100543310D01*
X228184949Y-100509639D01*
X228218620Y-100475967D01*
X228252292Y-100374952D01*
X228252292Y-100307608D01*
X228218620Y-100206593D01*
X228083933Y-100071906D01*
X227982918Y-100038234D01*
X227915574Y-100038234D01*
X227814559Y-100071906D01*
X227780887Y-100105578D01*
X227747216Y-100206593D01*
X227747216Y-100273936D01*
X227780887Y-100374952D01*
X227915574Y-100509639D01*
X227949246Y-100610654D01*
X227949246Y-100677997D01*
X227915574Y-100779013D01*
X227780887Y-100913700D01*
X227679872Y-100947372D01*
X227612529Y-100947372D01*
X227511513Y-100913700D01*
X227376826Y-100779013D01*
X227343155Y-100677997D01*
X227343155Y-100610654D01*
X227376826Y-100509639D01*
X227511513Y-100374952D01*
X227612529Y-100341280D01*
X227679872Y-100341280D01*
X227780887Y-100374952D01*
%TO.C,L7*%
X225850284Y-59135417D02*
X226187002Y-59472135D01*
X226894108Y-58765028D01*
X226389032Y-58259952D02*
X225917627Y-57788547D01*
X225513566Y-58798700D01*
%TO.C,L5*%
X230186666Y-75692380D02*
X230662857Y-75692380D01*
X230662857Y-74692380D01*
X229377142Y-74692380D02*
X229853333Y-74692380D01*
X229900952Y-75168571D01*
X229853333Y-75120952D01*
X229758095Y-75073333D01*
X229520000Y-75073333D01*
X229424761Y-75120952D01*
X229377142Y-75168571D01*
X229329523Y-75263809D01*
X229329523Y-75501904D01*
X229377142Y-75597142D01*
X229424761Y-75644761D01*
X229520000Y-75692380D01*
X229758095Y-75692380D01*
X229853333Y-75644761D01*
X229900952Y-75597142D01*
%TO.C,L2*%
X234988360Y-59601923D02*
X235325078Y-59265205D01*
X234617971Y-58558099D01*
X234146566Y-59164190D02*
X234079223Y-59164190D01*
X233978208Y-59197862D01*
X233809849Y-59366221D01*
X233776177Y-59467236D01*
X233776177Y-59534580D01*
X233809849Y-59635595D01*
X233877192Y-59702938D01*
X234011879Y-59770282D01*
X234820002Y-59770282D01*
X234382269Y-60208015D01*
%TO.C,L1*%
X238126839Y-61990401D02*
X238463557Y-61653683D01*
X237756450Y-60946577D01*
X237520748Y-62596493D02*
X237924809Y-62192432D01*
X237722778Y-62394462D02*
X237015671Y-61687355D01*
X237184030Y-61721027D01*
X237318717Y-61721027D01*
X237419732Y-61687355D01*
%TO.C,J15*%
D17*
X242521095Y-108980523D02*
X242521095Y-109887666D01*
X242581571Y-110069095D01*
X242702523Y-110190047D01*
X242883952Y-110250523D01*
X243004904Y-110250523D01*
X241251095Y-110250523D02*
X241976809Y-110250523D01*
X241613952Y-110250523D02*
X241613952Y-108980523D01*
X241734904Y-109161952D01*
X241855857Y-109282904D01*
X241976809Y-109343380D01*
X240102047Y-108980523D02*
X240706809Y-108980523D01*
X240767285Y-109585285D01*
X240706809Y-109524809D01*
X240585857Y-109464333D01*
X240283476Y-109464333D01*
X240162523Y-109524809D01*
X240102047Y-109585285D01*
X240041571Y-109706238D01*
X240041571Y-110008619D01*
X240102047Y-110129571D01*
X240162523Y-110190047D01*
X240283476Y-110250523D01*
X240585857Y-110250523D01*
X240706809Y-110190047D01*
X240767285Y-110129571D01*
%TO.C,J13*%
X225872927Y-81361500D02*
X225231480Y-82002947D01*
X225145953Y-82173999D01*
X225145953Y-82345052D01*
X225231480Y-82516104D01*
X225317006Y-82601630D01*
X224076875Y-81361500D02*
X224590033Y-81874657D01*
X224333454Y-81618078D02*
X225231480Y-80720053D01*
X225188717Y-80933868D01*
X225188717Y-81104921D01*
X225231480Y-81233210D01*
X224675559Y-80164132D02*
X224119638Y-79608212D01*
X224076875Y-80249658D01*
X223948586Y-80121369D01*
X223820297Y-80078606D01*
X223734770Y-80078606D01*
X223606481Y-80121369D01*
X223392665Y-80335185D01*
X223349902Y-80463474D01*
X223349902Y-80549000D01*
X223392665Y-80677290D01*
X223649244Y-80933868D01*
X223777533Y-80976632D01*
X223863060Y-80976632D01*
%TO.C,J12*%
X221472927Y-61461500D02*
X220831480Y-62102947D01*
X220745953Y-62273999D01*
X220745953Y-62445052D01*
X220831480Y-62616104D01*
X220917006Y-62701630D01*
X219676875Y-61461500D02*
X220190033Y-61974657D01*
X219933454Y-61718078D02*
X220831480Y-60820053D01*
X220788717Y-61033868D01*
X220788717Y-61204921D01*
X220831480Y-61333210D01*
X220147270Y-60306895D02*
X220147270Y-60221369D01*
X220104507Y-60093080D01*
X219890691Y-59879264D01*
X219762402Y-59836501D01*
X219676875Y-59836501D01*
X219548586Y-59879264D01*
X219463060Y-59964790D01*
X219377533Y-60135843D01*
X219377533Y-61162158D01*
X218821613Y-60606237D01*
%TO.C,FB1*%
D10*
X245558333Y-63503571D02*
X245891666Y-63503571D01*
X245891666Y-64027380D02*
X245891666Y-63027380D01*
X245415476Y-63027380D01*
X244701190Y-63503571D02*
X244558333Y-63551190D01*
X244510714Y-63598809D01*
X244463095Y-63694047D01*
X244463095Y-63836904D01*
X244510714Y-63932142D01*
X244558333Y-63979761D01*
X244653571Y-64027380D01*
X245034523Y-64027380D01*
X245034523Y-63027380D01*
X244701190Y-63027380D01*
X244605952Y-63075000D01*
X244558333Y-63122619D01*
X244510714Y-63217857D01*
X244510714Y-63313095D01*
X244558333Y-63408333D01*
X244605952Y-63455952D01*
X244701190Y-63503571D01*
X245034523Y-63503571D01*
X243510714Y-64027380D02*
X244082142Y-64027380D01*
X243796428Y-64027380D02*
X243796428Y-63027380D01*
X243891666Y-63170238D01*
X243986904Y-63265476D01*
X244082142Y-63313095D01*
%TO.C,D29*%
X201104434Y-55227901D02*
X201811540Y-54520794D01*
X201643182Y-54352435D01*
X201508495Y-54285092D01*
X201373808Y-54285092D01*
X201272792Y-54318764D01*
X201104434Y-54419779D01*
X201003418Y-54520794D01*
X200902403Y-54689153D01*
X200868731Y-54790168D01*
X200868731Y-54924855D01*
X200936075Y-55059542D01*
X201104434Y-55227901D01*
X201070762Y-53914702D02*
X201070762Y-53847359D01*
X201037090Y-53746344D01*
X200868731Y-53577985D01*
X200767716Y-53544313D01*
X200700373Y-53544313D01*
X200599357Y-53577985D01*
X200532014Y-53645328D01*
X200464670Y-53780015D01*
X200464670Y-54588138D01*
X200026937Y-54150405D01*
X199690220Y-53813687D02*
X199555533Y-53679000D01*
X199521861Y-53577985D01*
X199521861Y-53510641D01*
X199555533Y-53342283D01*
X199656548Y-53173924D01*
X199925922Y-52904550D01*
X200026937Y-52870878D01*
X200094281Y-52870878D01*
X200195296Y-52904550D01*
X200329983Y-53039237D01*
X200363655Y-53140252D01*
X200363655Y-53207596D01*
X200329983Y-53308611D01*
X200161624Y-53476970D01*
X200060609Y-53510641D01*
X199993266Y-53510641D01*
X199892250Y-53476970D01*
X199757563Y-53342283D01*
X199723892Y-53241267D01*
X199723892Y-53173924D01*
X199757563Y-53072909D01*
%TO.C,D28*%
X202704434Y-53627901D02*
X203411540Y-52920794D01*
X203243182Y-52752435D01*
X203108495Y-52685092D01*
X202973808Y-52685092D01*
X202872792Y-52718764D01*
X202704434Y-52819779D01*
X202603418Y-52920794D01*
X202502403Y-53089153D01*
X202468731Y-53190168D01*
X202468731Y-53324855D01*
X202536075Y-53459542D01*
X202704434Y-53627901D01*
X202670762Y-52314702D02*
X202670762Y-52247359D01*
X202637090Y-52146344D01*
X202468731Y-51977985D01*
X202367716Y-51944313D01*
X202300373Y-51944313D01*
X202199357Y-51977985D01*
X202132014Y-52045328D01*
X202064670Y-52180015D01*
X202064670Y-52988138D01*
X201626937Y-52550405D01*
X201626937Y-51742283D02*
X201727953Y-51775954D01*
X201795296Y-51775954D01*
X201896311Y-51742283D01*
X201929983Y-51708611D01*
X201963655Y-51607596D01*
X201963655Y-51540252D01*
X201929983Y-51439237D01*
X201795296Y-51304550D01*
X201694281Y-51270878D01*
X201626937Y-51270878D01*
X201525922Y-51304550D01*
X201492250Y-51338222D01*
X201458579Y-51439237D01*
X201458579Y-51506580D01*
X201492250Y-51607596D01*
X201626937Y-51742283D01*
X201660609Y-51843298D01*
X201660609Y-51910641D01*
X201626937Y-52011657D01*
X201492250Y-52146344D01*
X201391235Y-52180015D01*
X201323892Y-52180015D01*
X201222876Y-52146344D01*
X201088189Y-52011657D01*
X201054518Y-51910641D01*
X201054518Y-51843298D01*
X201088189Y-51742283D01*
X201222876Y-51607596D01*
X201323892Y-51573924D01*
X201391235Y-51573924D01*
X201492250Y-51607596D01*
%TO.C,D27*%
X211429121Y-54526937D02*
X210722014Y-53819831D01*
X210553655Y-53988189D01*
X210486312Y-54122876D01*
X210486312Y-54257563D01*
X210519984Y-54358579D01*
X210620999Y-54526937D01*
X210722014Y-54627953D01*
X210890373Y-54728968D01*
X210991388Y-54762640D01*
X211126075Y-54762640D01*
X211260762Y-54695296D01*
X211429121Y-54526937D01*
X210115922Y-54560609D02*
X210048579Y-54560609D01*
X209947564Y-54594281D01*
X209779205Y-54762640D01*
X209745533Y-54863655D01*
X209745533Y-54930998D01*
X209779205Y-55032014D01*
X209846548Y-55099357D01*
X209981235Y-55166701D01*
X210789358Y-55166701D01*
X210351625Y-55604434D01*
X209408816Y-55133029D02*
X208937411Y-55604434D01*
X209947564Y-56008495D01*
%TO.C,D26*%
X213029121Y-56126937D02*
X212322014Y-55419831D01*
X212153655Y-55588189D01*
X212086312Y-55722876D01*
X212086312Y-55857563D01*
X212119984Y-55958579D01*
X212220999Y-56126937D01*
X212322014Y-56227953D01*
X212490373Y-56328968D01*
X212591388Y-56362640D01*
X212726075Y-56362640D01*
X212860762Y-56295296D01*
X213029121Y-56126937D01*
X211715922Y-56160609D02*
X211648579Y-56160609D01*
X211547564Y-56194281D01*
X211379205Y-56362640D01*
X211345533Y-56463655D01*
X211345533Y-56530998D01*
X211379205Y-56632014D01*
X211446548Y-56699357D01*
X211581235Y-56766701D01*
X212389358Y-56766701D01*
X211951625Y-57204434D01*
X210638426Y-57103418D02*
X210773113Y-56968731D01*
X210874129Y-56935060D01*
X210941472Y-56935060D01*
X211109831Y-56968731D01*
X211278190Y-57069747D01*
X211547564Y-57339121D01*
X211581235Y-57440136D01*
X211581235Y-57507479D01*
X211547564Y-57608495D01*
X211412877Y-57743182D01*
X211311861Y-57776853D01*
X211244518Y-57776853D01*
X211143503Y-57743182D01*
X210975144Y-57574823D01*
X210941472Y-57473808D01*
X210941472Y-57406464D01*
X210975144Y-57305449D01*
X211109831Y-57170762D01*
X211210846Y-57137090D01*
X211278190Y-57137090D01*
X211379205Y-57170762D01*
%TO.C,D25*%
X216789285Y-38227380D02*
X216789285Y-37227380D01*
X216551190Y-37227380D01*
X216408333Y-37275000D01*
X216313095Y-37370238D01*
X216265476Y-37465476D01*
X216217857Y-37655952D01*
X216217857Y-37798809D01*
X216265476Y-37989285D01*
X216313095Y-38084523D01*
X216408333Y-38179761D01*
X216551190Y-38227380D01*
X216789285Y-38227380D01*
X215836904Y-37322619D02*
X215789285Y-37275000D01*
X215694047Y-37227380D01*
X215455952Y-37227380D01*
X215360714Y-37275000D01*
X215313095Y-37322619D01*
X215265476Y-37417857D01*
X215265476Y-37513095D01*
X215313095Y-37655952D01*
X215884523Y-38227380D01*
X215265476Y-38227380D01*
X214360714Y-37227380D02*
X214836904Y-37227380D01*
X214884523Y-37703571D01*
X214836904Y-37655952D01*
X214741666Y-37608333D01*
X214503571Y-37608333D01*
X214408333Y-37655952D01*
X214360714Y-37703571D01*
X214313095Y-37798809D01*
X214313095Y-38036904D01*
X214360714Y-38132142D01*
X214408333Y-38179761D01*
X214503571Y-38227380D01*
X214741666Y-38227380D01*
X214836904Y-38179761D01*
X214884523Y-38132142D01*
%TO.C,D24*%
X232039285Y-83827380D02*
X232039285Y-82827380D01*
X231801190Y-82827380D01*
X231658333Y-82875000D01*
X231563095Y-82970238D01*
X231515476Y-83065476D01*
X231467857Y-83255952D01*
X231467857Y-83398809D01*
X231515476Y-83589285D01*
X231563095Y-83684523D01*
X231658333Y-83779761D01*
X231801190Y-83827380D01*
X232039285Y-83827380D01*
X231086904Y-82922619D02*
X231039285Y-82875000D01*
X230944047Y-82827380D01*
X230705952Y-82827380D01*
X230610714Y-82875000D01*
X230563095Y-82922619D01*
X230515476Y-83017857D01*
X230515476Y-83113095D01*
X230563095Y-83255952D01*
X231134523Y-83827380D01*
X230515476Y-83827380D01*
X229658333Y-83160714D02*
X229658333Y-83827380D01*
X229896428Y-82779761D02*
X230134523Y-83494047D01*
X229515476Y-83494047D01*
%TO.C,D23*%
X232039285Y-81727380D02*
X232039285Y-80727380D01*
X231801190Y-80727380D01*
X231658333Y-80775000D01*
X231563095Y-80870238D01*
X231515476Y-80965476D01*
X231467857Y-81155952D01*
X231467857Y-81298809D01*
X231515476Y-81489285D01*
X231563095Y-81584523D01*
X231658333Y-81679761D01*
X231801190Y-81727380D01*
X232039285Y-81727380D01*
X231086904Y-80822619D02*
X231039285Y-80775000D01*
X230944047Y-80727380D01*
X230705952Y-80727380D01*
X230610714Y-80775000D01*
X230563095Y-80822619D01*
X230515476Y-80917857D01*
X230515476Y-81013095D01*
X230563095Y-81155952D01*
X231134523Y-81727380D01*
X230515476Y-81727380D01*
X230182142Y-80727380D02*
X229563095Y-80727380D01*
X229896428Y-81108333D01*
X229753571Y-81108333D01*
X229658333Y-81155952D01*
X229610714Y-81203571D01*
X229563095Y-81298809D01*
X229563095Y-81536904D01*
X229610714Y-81632142D01*
X229658333Y-81679761D01*
X229753571Y-81727380D01*
X230039285Y-81727380D01*
X230134523Y-81679761D01*
X230182142Y-81632142D01*
%TO.C,D22*%
X232039285Y-85927380D02*
X232039285Y-84927380D01*
X231801190Y-84927380D01*
X231658333Y-84975000D01*
X231563095Y-85070238D01*
X231515476Y-85165476D01*
X231467857Y-85355952D01*
X231467857Y-85498809D01*
X231515476Y-85689285D01*
X231563095Y-85784523D01*
X231658333Y-85879761D01*
X231801190Y-85927380D01*
X232039285Y-85927380D01*
X231086904Y-85022619D02*
X231039285Y-84975000D01*
X230944047Y-84927380D01*
X230705952Y-84927380D01*
X230610714Y-84975000D01*
X230563095Y-85022619D01*
X230515476Y-85117857D01*
X230515476Y-85213095D01*
X230563095Y-85355952D01*
X231134523Y-85927380D01*
X230515476Y-85927380D01*
X230134523Y-85022619D02*
X230086904Y-84975000D01*
X229991666Y-84927380D01*
X229753571Y-84927380D01*
X229658333Y-84975000D01*
X229610714Y-85022619D01*
X229563095Y-85117857D01*
X229563095Y-85213095D01*
X229610714Y-85355952D01*
X230182142Y-85927380D01*
X229563095Y-85927380D01*
%TO.C,D21*%
X240239285Y-93827380D02*
X240239285Y-92827380D01*
X240001190Y-92827380D01*
X239858333Y-92875000D01*
X239763095Y-92970238D01*
X239715476Y-93065476D01*
X239667857Y-93255952D01*
X239667857Y-93398809D01*
X239715476Y-93589285D01*
X239763095Y-93684523D01*
X239858333Y-93779761D01*
X240001190Y-93827380D01*
X240239285Y-93827380D01*
X239286904Y-92922619D02*
X239239285Y-92875000D01*
X239144047Y-92827380D01*
X238905952Y-92827380D01*
X238810714Y-92875000D01*
X238763095Y-92922619D01*
X238715476Y-93017857D01*
X238715476Y-93113095D01*
X238763095Y-93255952D01*
X239334523Y-93827380D01*
X238715476Y-93827380D01*
X237763095Y-93827380D02*
X238334523Y-93827380D01*
X238048809Y-93827380D02*
X238048809Y-92827380D01*
X238144047Y-92970238D01*
X238239285Y-93065476D01*
X238334523Y-93113095D01*
%TO.C,D20*%
X240239285Y-97827380D02*
X240239285Y-96827380D01*
X240001190Y-96827380D01*
X239858333Y-96875000D01*
X239763095Y-96970238D01*
X239715476Y-97065476D01*
X239667857Y-97255952D01*
X239667857Y-97398809D01*
X239715476Y-97589285D01*
X239763095Y-97684523D01*
X239858333Y-97779761D01*
X240001190Y-97827380D01*
X240239285Y-97827380D01*
X239286904Y-96922619D02*
X239239285Y-96875000D01*
X239144047Y-96827380D01*
X238905952Y-96827380D01*
X238810714Y-96875000D01*
X238763095Y-96922619D01*
X238715476Y-97017857D01*
X238715476Y-97113095D01*
X238763095Y-97255952D01*
X239334523Y-97827380D01*
X238715476Y-97827380D01*
X238096428Y-96827380D02*
X238001190Y-96827380D01*
X237905952Y-96875000D01*
X237858333Y-96922619D01*
X237810714Y-97017857D01*
X237763095Y-97208333D01*
X237763095Y-97446428D01*
X237810714Y-97636904D01*
X237858333Y-97732142D01*
X237905952Y-97779761D01*
X238001190Y-97827380D01*
X238096428Y-97827380D01*
X238191666Y-97779761D01*
X238239285Y-97732142D01*
X238286904Y-97636904D01*
X238334523Y-97446428D01*
X238334523Y-97208333D01*
X238286904Y-97017857D01*
X238239285Y-96922619D01*
X238191666Y-96875000D01*
X238096428Y-96827380D01*
%TO.C,D19*%
X240239285Y-95827380D02*
X240239285Y-94827380D01*
X240001190Y-94827380D01*
X239858333Y-94875000D01*
X239763095Y-94970238D01*
X239715476Y-95065476D01*
X239667857Y-95255952D01*
X239667857Y-95398809D01*
X239715476Y-95589285D01*
X239763095Y-95684523D01*
X239858333Y-95779761D01*
X240001190Y-95827380D01*
X240239285Y-95827380D01*
X238715476Y-95827380D02*
X239286904Y-95827380D01*
X239001190Y-95827380D02*
X239001190Y-94827380D01*
X239096428Y-94970238D01*
X239191666Y-95065476D01*
X239286904Y-95113095D01*
X238239285Y-95827380D02*
X238048809Y-95827380D01*
X237953571Y-95779761D01*
X237905952Y-95732142D01*
X237810714Y-95589285D01*
X237763095Y-95398809D01*
X237763095Y-95017857D01*
X237810714Y-94922619D01*
X237858333Y-94875000D01*
X237953571Y-94827380D01*
X238144047Y-94827380D01*
X238239285Y-94875000D01*
X238286904Y-94922619D01*
X238334523Y-95017857D01*
X238334523Y-95255952D01*
X238286904Y-95351190D01*
X238239285Y-95398809D01*
X238144047Y-95446428D01*
X237953571Y-95446428D01*
X237858333Y-95398809D01*
X237810714Y-95351190D01*
X237763095Y-95255952D01*
%TO.C,D18*%
X240239285Y-99927380D02*
X240239285Y-98927380D01*
X240001190Y-98927380D01*
X239858333Y-98975000D01*
X239763095Y-99070238D01*
X239715476Y-99165476D01*
X239667857Y-99355952D01*
X239667857Y-99498809D01*
X239715476Y-99689285D01*
X239763095Y-99784523D01*
X239858333Y-99879761D01*
X240001190Y-99927380D01*
X240239285Y-99927380D01*
X238715476Y-99927380D02*
X239286904Y-99927380D01*
X239001190Y-99927380D02*
X239001190Y-98927380D01*
X239096428Y-99070238D01*
X239191666Y-99165476D01*
X239286904Y-99213095D01*
X238144047Y-99355952D02*
X238239285Y-99308333D01*
X238286904Y-99260714D01*
X238334523Y-99165476D01*
X238334523Y-99117857D01*
X238286904Y-99022619D01*
X238239285Y-98975000D01*
X238144047Y-98927380D01*
X237953571Y-98927380D01*
X237858333Y-98975000D01*
X237810714Y-99022619D01*
X237763095Y-99117857D01*
X237763095Y-99165476D01*
X237810714Y-99260714D01*
X237858333Y-99308333D01*
X237953571Y-99355952D01*
X238144047Y-99355952D01*
X238239285Y-99403571D01*
X238286904Y-99451190D01*
X238334523Y-99546428D01*
X238334523Y-99736904D01*
X238286904Y-99832142D01*
X238239285Y-99879761D01*
X238144047Y-99927380D01*
X237953571Y-99927380D01*
X237858333Y-99879761D01*
X237810714Y-99832142D01*
X237763095Y-99736904D01*
X237763095Y-99546428D01*
X237810714Y-99451190D01*
X237858333Y-99403571D01*
X237953571Y-99355952D01*
%TO.C,D16*%
X245327380Y-68110714D02*
X244327380Y-68110714D01*
X244327380Y-68348809D01*
X244375000Y-68491666D01*
X244470238Y-68586904D01*
X244565476Y-68634523D01*
X244755952Y-68682142D01*
X244898809Y-68682142D01*
X245089285Y-68634523D01*
X245184523Y-68586904D01*
X245279761Y-68491666D01*
X245327380Y-68348809D01*
X245327380Y-68110714D01*
X245327380Y-69634523D02*
X245327380Y-69063095D01*
X245327380Y-69348809D02*
X244327380Y-69348809D01*
X244470238Y-69253571D01*
X244565476Y-69158333D01*
X244613095Y-69063095D01*
X244327380Y-70491666D02*
X244327380Y-70301190D01*
X244375000Y-70205952D01*
X244422619Y-70158333D01*
X244565476Y-70063095D01*
X244755952Y-70015476D01*
X245136904Y-70015476D01*
X245232142Y-70063095D01*
X245279761Y-70110714D01*
X245327380Y-70205952D01*
X245327380Y-70396428D01*
X245279761Y-70491666D01*
X245232142Y-70539285D01*
X245136904Y-70586904D01*
X244898809Y-70586904D01*
X244803571Y-70539285D01*
X244755952Y-70491666D01*
X244708333Y-70396428D01*
X244708333Y-70205952D01*
X244755952Y-70110714D01*
X244803571Y-70063095D01*
X244898809Y-70015476D01*
%TO.C,C_TUNE2_3*%
X252265714Y-46097142D02*
X252313333Y-46144761D01*
X252456190Y-46192380D01*
X252551428Y-46192380D01*
X252694285Y-46144761D01*
X252789523Y-46049523D01*
X252837142Y-45954285D01*
X252884761Y-45763809D01*
X252884761Y-45620952D01*
X252837142Y-45430476D01*
X252789523Y-45335238D01*
X252694285Y-45240000D01*
X252551428Y-45192380D01*
X252456190Y-45192380D01*
X252313333Y-45240000D01*
X252265714Y-45287619D01*
X252075238Y-46287619D02*
X251313333Y-46287619D01*
X251218095Y-45192380D02*
X250646666Y-45192380D01*
X250932380Y-46192380D02*
X250932380Y-45192380D01*
X250313333Y-45192380D02*
X250313333Y-46001904D01*
X250265714Y-46097142D01*
X250218095Y-46144761D01*
X250122857Y-46192380D01*
X249932380Y-46192380D01*
X249837142Y-46144761D01*
X249789523Y-46097142D01*
X249741904Y-46001904D01*
X249741904Y-45192380D01*
X249265714Y-46192380D02*
X249265714Y-45192380D01*
X248694285Y-46192380D01*
X248694285Y-45192380D01*
X248218095Y-45668571D02*
X247884761Y-45668571D01*
X247741904Y-46192380D02*
X248218095Y-46192380D01*
X248218095Y-45192380D01*
X247741904Y-45192380D01*
X247360952Y-45287619D02*
X247313333Y-45240000D01*
X247218095Y-45192380D01*
X246980000Y-45192380D01*
X246884761Y-45240000D01*
X246837142Y-45287619D01*
X246789523Y-45382857D01*
X246789523Y-45478095D01*
X246837142Y-45620952D01*
X247408571Y-46192380D01*
X246789523Y-46192380D01*
X246599047Y-46287619D02*
X245837142Y-46287619D01*
X245694285Y-45192380D02*
X245075238Y-45192380D01*
X245408571Y-45573333D01*
X245265714Y-45573333D01*
X245170476Y-45620952D01*
X245122857Y-45668571D01*
X245075238Y-45763809D01*
X245075238Y-46001904D01*
X245122857Y-46097142D01*
X245170476Y-46144761D01*
X245265714Y-46192380D01*
X245551428Y-46192380D01*
X245646666Y-46144761D01*
X245694285Y-46097142D01*
%TO.C,C_TUNE2_2*%
X251305714Y-49417142D02*
X251353333Y-49464761D01*
X251496190Y-49512380D01*
X251591428Y-49512380D01*
X251734285Y-49464761D01*
X251829523Y-49369523D01*
X251877142Y-49274285D01*
X251924761Y-49083809D01*
X251924761Y-48940952D01*
X251877142Y-48750476D01*
X251829523Y-48655238D01*
X251734285Y-48560000D01*
X251591428Y-48512380D01*
X251496190Y-48512380D01*
X251353333Y-48560000D01*
X251305714Y-48607619D01*
X251115238Y-49607619D02*
X250353333Y-49607619D01*
X250258095Y-48512380D02*
X249686666Y-48512380D01*
X249972380Y-49512380D02*
X249972380Y-48512380D01*
X249353333Y-48512380D02*
X249353333Y-49321904D01*
X249305714Y-49417142D01*
X249258095Y-49464761D01*
X249162857Y-49512380D01*
X248972380Y-49512380D01*
X248877142Y-49464761D01*
X248829523Y-49417142D01*
X248781904Y-49321904D01*
X248781904Y-48512380D01*
X248305714Y-49512380D02*
X248305714Y-48512380D01*
X247734285Y-49512380D01*
X247734285Y-48512380D01*
X247258095Y-48988571D02*
X246924761Y-48988571D01*
X246781904Y-49512380D02*
X247258095Y-49512380D01*
X247258095Y-48512380D01*
X246781904Y-48512380D01*
X246400952Y-48607619D02*
X246353333Y-48560000D01*
X246258095Y-48512380D01*
X246020000Y-48512380D01*
X245924761Y-48560000D01*
X245877142Y-48607619D01*
X245829523Y-48702857D01*
X245829523Y-48798095D01*
X245877142Y-48940952D01*
X246448571Y-49512380D01*
X245829523Y-49512380D01*
X245639047Y-49607619D02*
X244877142Y-49607619D01*
X244686666Y-48607619D02*
X244639047Y-48560000D01*
X244543809Y-48512380D01*
X244305714Y-48512380D01*
X244210476Y-48560000D01*
X244162857Y-48607619D01*
X244115238Y-48702857D01*
X244115238Y-48798095D01*
X244162857Y-48940952D01*
X244734285Y-49512380D01*
X244115238Y-49512380D01*
%TO.C,C_TUNE2_1*%
X250305714Y-48417142D02*
X250353333Y-48464761D01*
X250496190Y-48512380D01*
X250591428Y-48512380D01*
X250734285Y-48464761D01*
X250829523Y-48369523D01*
X250877142Y-48274285D01*
X250924761Y-48083809D01*
X250924761Y-47940952D01*
X250877142Y-47750476D01*
X250829523Y-47655238D01*
X250734285Y-47560000D01*
X250591428Y-47512380D01*
X250496190Y-47512380D01*
X250353333Y-47560000D01*
X250305714Y-47607619D01*
X250115238Y-48607619D02*
X249353333Y-48607619D01*
X249258095Y-47512380D02*
X248686666Y-47512380D01*
X248972380Y-48512380D02*
X248972380Y-47512380D01*
X248353333Y-47512380D02*
X248353333Y-48321904D01*
X248305714Y-48417142D01*
X248258095Y-48464761D01*
X248162857Y-48512380D01*
X247972380Y-48512380D01*
X247877142Y-48464761D01*
X247829523Y-48417142D01*
X247781904Y-48321904D01*
X247781904Y-47512380D01*
X247305714Y-48512380D02*
X247305714Y-47512380D01*
X246734285Y-48512380D01*
X246734285Y-47512380D01*
X246258095Y-47988571D02*
X245924761Y-47988571D01*
X245781904Y-48512380D02*
X246258095Y-48512380D01*
X246258095Y-47512380D01*
X245781904Y-47512380D01*
X245400952Y-47607619D02*
X245353333Y-47560000D01*
X245258095Y-47512380D01*
X245020000Y-47512380D01*
X244924761Y-47560000D01*
X244877142Y-47607619D01*
X244829523Y-47702857D01*
X244829523Y-47798095D01*
X244877142Y-47940952D01*
X245448571Y-48512380D01*
X244829523Y-48512380D01*
X244639047Y-48607619D02*
X243877142Y-48607619D01*
X243115238Y-48512380D02*
X243686666Y-48512380D01*
X243400952Y-48512380D02*
X243400952Y-47512380D01*
X243496190Y-47655238D01*
X243591428Y-47750476D01*
X243686666Y-47798095D01*
%TO.C,C_TUNE1_3*%
X246165714Y-45297142D02*
X246213333Y-45344761D01*
X246356190Y-45392380D01*
X246451428Y-45392380D01*
X246594285Y-45344761D01*
X246689523Y-45249523D01*
X246737142Y-45154285D01*
X246784761Y-44963809D01*
X246784761Y-44820952D01*
X246737142Y-44630476D01*
X246689523Y-44535238D01*
X246594285Y-44440000D01*
X246451428Y-44392380D01*
X246356190Y-44392380D01*
X246213333Y-44440000D01*
X246165714Y-44487619D01*
X245975238Y-45487619D02*
X245213333Y-45487619D01*
X245118095Y-44392380D02*
X244546666Y-44392380D01*
X244832380Y-45392380D02*
X244832380Y-44392380D01*
X244213333Y-44392380D02*
X244213333Y-45201904D01*
X244165714Y-45297142D01*
X244118095Y-45344761D01*
X244022857Y-45392380D01*
X243832380Y-45392380D01*
X243737142Y-45344761D01*
X243689523Y-45297142D01*
X243641904Y-45201904D01*
X243641904Y-44392380D01*
X243165714Y-45392380D02*
X243165714Y-44392380D01*
X242594285Y-45392380D01*
X242594285Y-44392380D01*
X242118095Y-44868571D02*
X241784761Y-44868571D01*
X241641904Y-45392380D02*
X242118095Y-45392380D01*
X242118095Y-44392380D01*
X241641904Y-44392380D01*
X240689523Y-45392380D02*
X241260952Y-45392380D01*
X240975238Y-45392380D02*
X240975238Y-44392380D01*
X241070476Y-44535238D01*
X241165714Y-44630476D01*
X241260952Y-44678095D01*
X240499047Y-45487619D02*
X239737142Y-45487619D01*
X239594285Y-44392380D02*
X238975238Y-44392380D01*
X239308571Y-44773333D01*
X239165714Y-44773333D01*
X239070476Y-44820952D01*
X239022857Y-44868571D01*
X238975238Y-44963809D01*
X238975238Y-45201904D01*
X239022857Y-45297142D01*
X239070476Y-45344761D01*
X239165714Y-45392380D01*
X239451428Y-45392380D01*
X239546666Y-45344761D01*
X239594285Y-45297142D01*
%TO.C,C_TUNE1_2*%
X246165714Y-48617142D02*
X246213333Y-48664761D01*
X246356190Y-48712380D01*
X246451428Y-48712380D01*
X246594285Y-48664761D01*
X246689523Y-48569523D01*
X246737142Y-48474285D01*
X246784761Y-48283809D01*
X246784761Y-48140952D01*
X246737142Y-47950476D01*
X246689523Y-47855238D01*
X246594285Y-47760000D01*
X246451428Y-47712380D01*
X246356190Y-47712380D01*
X246213333Y-47760000D01*
X246165714Y-47807619D01*
X245975238Y-48807619D02*
X245213333Y-48807619D01*
X245118095Y-47712380D02*
X244546666Y-47712380D01*
X244832380Y-48712380D02*
X244832380Y-47712380D01*
X244213333Y-47712380D02*
X244213333Y-48521904D01*
X244165714Y-48617142D01*
X244118095Y-48664761D01*
X244022857Y-48712380D01*
X243832380Y-48712380D01*
X243737142Y-48664761D01*
X243689523Y-48617142D01*
X243641904Y-48521904D01*
X243641904Y-47712380D01*
X243165714Y-48712380D02*
X243165714Y-47712380D01*
X242594285Y-48712380D01*
X242594285Y-47712380D01*
X242118095Y-48188571D02*
X241784761Y-48188571D01*
X241641904Y-48712380D02*
X242118095Y-48712380D01*
X242118095Y-47712380D01*
X241641904Y-47712380D01*
X240689523Y-48712380D02*
X241260952Y-48712380D01*
X240975238Y-48712380D02*
X240975238Y-47712380D01*
X241070476Y-47855238D01*
X241165714Y-47950476D01*
X241260952Y-47998095D01*
X240499047Y-48807619D02*
X239737142Y-48807619D01*
X239546666Y-47807619D02*
X239499047Y-47760000D01*
X239403809Y-47712380D01*
X239165714Y-47712380D01*
X239070476Y-47760000D01*
X239022857Y-47807619D01*
X238975238Y-47902857D01*
X238975238Y-47998095D01*
X239022857Y-48140952D01*
X239594285Y-48712380D01*
X238975238Y-48712380D01*
%TO.C,C_TUNE1_1*%
X246165714Y-49617142D02*
X246213333Y-49664761D01*
X246356190Y-49712380D01*
X246451428Y-49712380D01*
X246594285Y-49664761D01*
X246689523Y-49569523D01*
X246737142Y-49474285D01*
X246784761Y-49283809D01*
X246784761Y-49140952D01*
X246737142Y-48950476D01*
X246689523Y-48855238D01*
X246594285Y-48760000D01*
X246451428Y-48712380D01*
X246356190Y-48712380D01*
X246213333Y-48760000D01*
X246165714Y-48807619D01*
X245975238Y-49807619D02*
X245213333Y-49807619D01*
X245118095Y-48712380D02*
X244546666Y-48712380D01*
X244832380Y-49712380D02*
X244832380Y-48712380D01*
X244213333Y-48712380D02*
X244213333Y-49521904D01*
X244165714Y-49617142D01*
X244118095Y-49664761D01*
X244022857Y-49712380D01*
X243832380Y-49712380D01*
X243737142Y-49664761D01*
X243689523Y-49617142D01*
X243641904Y-49521904D01*
X243641904Y-48712380D01*
X243165714Y-49712380D02*
X243165714Y-48712380D01*
X242594285Y-49712380D01*
X242594285Y-48712380D01*
X242118095Y-49188571D02*
X241784761Y-49188571D01*
X241641904Y-49712380D02*
X242118095Y-49712380D01*
X242118095Y-48712380D01*
X241641904Y-48712380D01*
X240689523Y-49712380D02*
X241260952Y-49712380D01*
X240975238Y-49712380D02*
X240975238Y-48712380D01*
X241070476Y-48855238D01*
X241165714Y-48950476D01*
X241260952Y-48998095D01*
X240499047Y-49807619D02*
X239737142Y-49807619D01*
X238975238Y-49712380D02*
X239546666Y-49712380D01*
X239260952Y-49712380D02*
X239260952Y-48712380D01*
X239356190Y-48855238D01*
X239451428Y-48950476D01*
X239546666Y-48998095D01*
%TO.C,C128*%
X227313580Y-110281007D02*
X227380923Y-110281007D01*
X227515610Y-110213664D01*
X227582954Y-110146320D01*
X227650297Y-110011633D01*
X227650297Y-109876946D01*
X227616626Y-109775931D01*
X227515610Y-109607572D01*
X227414595Y-109506557D01*
X227246236Y-109405542D01*
X227145221Y-109371870D01*
X227010534Y-109371870D01*
X226875847Y-109439214D01*
X226808504Y-109506557D01*
X226741160Y-109641244D01*
X226741160Y-109708588D01*
X226707488Y-111021786D02*
X227111549Y-110617725D01*
X226909519Y-110819756D02*
X226202412Y-110112649D01*
X226370771Y-110146320D01*
X226505458Y-110146320D01*
X226606473Y-110112649D01*
X225798351Y-110651397D02*
X225731007Y-110651397D01*
X225629992Y-110685068D01*
X225461633Y-110853427D01*
X225427962Y-110954443D01*
X225427962Y-111021786D01*
X225461633Y-111122801D01*
X225528977Y-111190145D01*
X225663664Y-111257488D01*
X226471786Y-111257488D01*
X226034053Y-111695221D01*
X225225931Y-111695221D02*
X225259603Y-111594206D01*
X225259603Y-111526862D01*
X225225931Y-111425847D01*
X225192259Y-111392175D01*
X225091244Y-111358504D01*
X225023901Y-111358504D01*
X224922885Y-111392175D01*
X224788198Y-111526862D01*
X224754527Y-111627878D01*
X224754527Y-111695221D01*
X224788198Y-111796236D01*
X224821870Y-111829908D01*
X224922885Y-111863580D01*
X224990229Y-111863580D01*
X225091244Y-111829908D01*
X225225931Y-111695221D01*
X225326946Y-111661549D01*
X225394290Y-111661549D01*
X225495305Y-111695221D01*
X225629992Y-111829908D01*
X225663664Y-111930923D01*
X225663664Y-111998267D01*
X225629992Y-112099282D01*
X225495305Y-112233969D01*
X225394290Y-112267641D01*
X225326946Y-112267641D01*
X225225931Y-112233969D01*
X225091244Y-112099282D01*
X225057572Y-111998267D01*
X225057572Y-111930923D01*
X225091244Y-111829908D01*
%TO.C,C127*%
X222983992Y-54048580D02*
X222983992Y-54115923D01*
X223051335Y-54250610D01*
X223118679Y-54317954D01*
X223253366Y-54385297D01*
X223388053Y-54385297D01*
X223489068Y-54351626D01*
X223657427Y-54250610D01*
X223758442Y-54149595D01*
X223859457Y-53981236D01*
X223893129Y-53880221D01*
X223893129Y-53745534D01*
X223825785Y-53610847D01*
X223758442Y-53543504D01*
X223623755Y-53476160D01*
X223556411Y-53476160D01*
X222243213Y-53442488D02*
X222647274Y-53846549D01*
X222445244Y-53644519D02*
X223152350Y-52937412D01*
X223118679Y-53105771D01*
X223118679Y-53240458D01*
X223152350Y-53341473D01*
X222613602Y-52533351D02*
X222613602Y-52466007D01*
X222579931Y-52364992D01*
X222411572Y-52196633D01*
X222310556Y-52162962D01*
X222243213Y-52162962D01*
X222142198Y-52196633D01*
X222074854Y-52263977D01*
X222007511Y-52398664D01*
X222007511Y-53206786D01*
X221569778Y-52769053D01*
X222041182Y-51826244D02*
X221569778Y-51354840D01*
X221165717Y-52364992D01*
%TO.C,C126*%
X252089047Y-43217142D02*
X252136666Y-43264761D01*
X252279523Y-43312380D01*
X252374761Y-43312380D01*
X252517619Y-43264761D01*
X252612857Y-43169523D01*
X252660476Y-43074285D01*
X252708095Y-42883809D01*
X252708095Y-42740952D01*
X252660476Y-42550476D01*
X252612857Y-42455238D01*
X252517619Y-42360000D01*
X252374761Y-42312380D01*
X252279523Y-42312380D01*
X252136666Y-42360000D01*
X252089047Y-42407619D01*
X251136666Y-43312380D02*
X251708095Y-43312380D01*
X251422380Y-43312380D02*
X251422380Y-42312380D01*
X251517619Y-42455238D01*
X251612857Y-42550476D01*
X251708095Y-42598095D01*
X250755714Y-42407619D02*
X250708095Y-42360000D01*
X250612857Y-42312380D01*
X250374761Y-42312380D01*
X250279523Y-42360000D01*
X250231904Y-42407619D01*
X250184285Y-42502857D01*
X250184285Y-42598095D01*
X250231904Y-42740952D01*
X250803333Y-43312380D01*
X250184285Y-43312380D01*
X249327142Y-42312380D02*
X249517619Y-42312380D01*
X249612857Y-42360000D01*
X249660476Y-42407619D01*
X249755714Y-42550476D01*
X249803333Y-42740952D01*
X249803333Y-43121904D01*
X249755714Y-43217142D01*
X249708095Y-43264761D01*
X249612857Y-43312380D01*
X249422380Y-43312380D01*
X249327142Y-43264761D01*
X249279523Y-43217142D01*
X249231904Y-43121904D01*
X249231904Y-42883809D01*
X249279523Y-42788571D01*
X249327142Y-42740952D01*
X249422380Y-42693333D01*
X249612857Y-42693333D01*
X249708095Y-42740952D01*
X249755714Y-42788571D01*
X249803333Y-42883809D01*
%TO.C,C125*%
X252089047Y-44217142D02*
X252136666Y-44264761D01*
X252279523Y-44312380D01*
X252374761Y-44312380D01*
X252517619Y-44264761D01*
X252612857Y-44169523D01*
X252660476Y-44074285D01*
X252708095Y-43883809D01*
X252708095Y-43740952D01*
X252660476Y-43550476D01*
X252612857Y-43455238D01*
X252517619Y-43360000D01*
X252374761Y-43312380D01*
X252279523Y-43312380D01*
X252136666Y-43360000D01*
X252089047Y-43407619D01*
X251136666Y-44312380D02*
X251708095Y-44312380D01*
X251422380Y-44312380D02*
X251422380Y-43312380D01*
X251517619Y-43455238D01*
X251612857Y-43550476D01*
X251708095Y-43598095D01*
X250755714Y-43407619D02*
X250708095Y-43360000D01*
X250612857Y-43312380D01*
X250374761Y-43312380D01*
X250279523Y-43360000D01*
X250231904Y-43407619D01*
X250184285Y-43502857D01*
X250184285Y-43598095D01*
X250231904Y-43740952D01*
X250803333Y-44312380D01*
X250184285Y-44312380D01*
X249279523Y-43312380D02*
X249755714Y-43312380D01*
X249803333Y-43788571D01*
X249755714Y-43740952D01*
X249660476Y-43693333D01*
X249422380Y-43693333D01*
X249327142Y-43740952D01*
X249279523Y-43788571D01*
X249231904Y-43883809D01*
X249231904Y-44121904D01*
X249279523Y-44217142D01*
X249327142Y-44264761D01*
X249422380Y-44312380D01*
X249660476Y-44312380D01*
X249755714Y-44264761D01*
X249803333Y-44217142D01*
%TO.C,C124*%
X203747142Y-49800952D02*
X203794761Y-49753333D01*
X203842380Y-49610476D01*
X203842380Y-49515238D01*
X203794761Y-49372380D01*
X203699523Y-49277142D01*
X203604285Y-49229523D01*
X203413809Y-49181904D01*
X203270952Y-49181904D01*
X203080476Y-49229523D01*
X202985238Y-49277142D01*
X202890000Y-49372380D01*
X202842380Y-49515238D01*
X202842380Y-49610476D01*
X202890000Y-49753333D01*
X202937619Y-49800952D01*
X203842380Y-50753333D02*
X203842380Y-50181904D01*
X203842380Y-50467619D02*
X202842380Y-50467619D01*
X202985238Y-50372380D01*
X203080476Y-50277142D01*
X203128095Y-50181904D01*
X202937619Y-51134285D02*
X202890000Y-51181904D01*
X202842380Y-51277142D01*
X202842380Y-51515238D01*
X202890000Y-51610476D01*
X202937619Y-51658095D01*
X203032857Y-51705714D01*
X203128095Y-51705714D01*
X203270952Y-51658095D01*
X203842380Y-51086666D01*
X203842380Y-51705714D01*
X203175714Y-52562857D02*
X203842380Y-52562857D01*
X202794761Y-52324761D02*
X203509047Y-52086666D01*
X203509047Y-52705714D01*
%TO.C,C123*%
X215437142Y-49730952D02*
X215484761Y-49683333D01*
X215532380Y-49540476D01*
X215532380Y-49445238D01*
X215484761Y-49302380D01*
X215389523Y-49207142D01*
X215294285Y-49159523D01*
X215103809Y-49111904D01*
X214960952Y-49111904D01*
X214770476Y-49159523D01*
X214675238Y-49207142D01*
X214580000Y-49302380D01*
X214532380Y-49445238D01*
X214532380Y-49540476D01*
X214580000Y-49683333D01*
X214627619Y-49730952D01*
X215532380Y-50683333D02*
X215532380Y-50111904D01*
X215532380Y-50397619D02*
X214532380Y-50397619D01*
X214675238Y-50302380D01*
X214770476Y-50207142D01*
X214818095Y-50111904D01*
X214627619Y-51064285D02*
X214580000Y-51111904D01*
X214532380Y-51207142D01*
X214532380Y-51445238D01*
X214580000Y-51540476D01*
X214627619Y-51588095D01*
X214722857Y-51635714D01*
X214818095Y-51635714D01*
X214960952Y-51588095D01*
X215532380Y-51016666D01*
X215532380Y-51635714D01*
X214532380Y-51969047D02*
X214532380Y-52588095D01*
X214913333Y-52254761D01*
X214913333Y-52397619D01*
X214960952Y-52492857D01*
X215008571Y-52540476D01*
X215103809Y-52588095D01*
X215341904Y-52588095D01*
X215437142Y-52540476D01*
X215484761Y-52492857D01*
X215532380Y-52397619D01*
X215532380Y-52111904D01*
X215484761Y-52016666D01*
X215437142Y-51969047D01*
%TO.C,C122*%
X218007142Y-48455952D02*
X218054761Y-48408333D01*
X218102380Y-48265476D01*
X218102380Y-48170238D01*
X218054761Y-48027380D01*
X217959523Y-47932142D01*
X217864285Y-47884523D01*
X217673809Y-47836904D01*
X217530952Y-47836904D01*
X217340476Y-47884523D01*
X217245238Y-47932142D01*
X217150000Y-48027380D01*
X217102380Y-48170238D01*
X217102380Y-48265476D01*
X217150000Y-48408333D01*
X217197619Y-48455952D01*
X218102380Y-49408333D02*
X218102380Y-48836904D01*
X218102380Y-49122619D02*
X217102380Y-49122619D01*
X217245238Y-49027380D01*
X217340476Y-48932142D01*
X217388095Y-48836904D01*
X217197619Y-49789285D02*
X217150000Y-49836904D01*
X217102380Y-49932142D01*
X217102380Y-50170238D01*
X217150000Y-50265476D01*
X217197619Y-50313095D01*
X217292857Y-50360714D01*
X217388095Y-50360714D01*
X217530952Y-50313095D01*
X218102380Y-49741666D01*
X218102380Y-50360714D01*
X217197619Y-50741666D02*
X217150000Y-50789285D01*
X217102380Y-50884523D01*
X217102380Y-51122619D01*
X217150000Y-51217857D01*
X217197619Y-51265476D01*
X217292857Y-51313095D01*
X217388095Y-51313095D01*
X217530952Y-51265476D01*
X218102380Y-50694047D01*
X218102380Y-51313095D01*
%TO.C,C121*%
X233019581Y-101984169D02*
X233019581Y-102051512D01*
X233086924Y-102186199D01*
X233154268Y-102253543D01*
X233288955Y-102320886D01*
X233423642Y-102320886D01*
X233524657Y-102287215D01*
X233693016Y-102186199D01*
X233794031Y-102085184D01*
X233895046Y-101916825D01*
X233928718Y-101815810D01*
X233928718Y-101681123D01*
X233861374Y-101546436D01*
X233794031Y-101479093D01*
X233659344Y-101411749D01*
X233592000Y-101411749D01*
X232278802Y-101378077D02*
X232682863Y-101782138D01*
X232480833Y-101580108D02*
X233187939Y-100873001D01*
X233154268Y-101041360D01*
X233154268Y-101176047D01*
X233187939Y-101277062D01*
X232649191Y-100468940D02*
X232649191Y-100401596D01*
X232615520Y-100300581D01*
X232447161Y-100132222D01*
X232346145Y-100098551D01*
X232278802Y-100098551D01*
X232177787Y-100132222D01*
X232110443Y-100199566D01*
X232043100Y-100334253D01*
X232043100Y-101142375D01*
X231605367Y-100704642D01*
X230931932Y-100031207D02*
X231335993Y-100435268D01*
X231133962Y-100233238D02*
X231841069Y-99526131D01*
X231807397Y-99694490D01*
X231807397Y-99829177D01*
X231841069Y-99930192D01*
%TO.C,C120*%
X228774169Y-111720418D02*
X228841512Y-111720418D01*
X228976199Y-111653075D01*
X229043543Y-111585731D01*
X229110886Y-111451044D01*
X229110886Y-111316357D01*
X229077215Y-111215342D01*
X228976199Y-111046983D01*
X228875184Y-110945968D01*
X228706825Y-110844953D01*
X228605810Y-110811281D01*
X228471123Y-110811281D01*
X228336436Y-110878625D01*
X228269093Y-110945968D01*
X228201749Y-111080655D01*
X228201749Y-111147999D01*
X228168077Y-112461197D02*
X228572138Y-112057136D01*
X228370108Y-112259167D02*
X227663001Y-111552060D01*
X227831360Y-111585731D01*
X227966047Y-111585731D01*
X228067062Y-111552060D01*
X227258940Y-112090808D02*
X227191596Y-112090808D01*
X227090581Y-112124479D01*
X226922222Y-112292838D01*
X226888551Y-112393854D01*
X226888551Y-112461197D01*
X226922222Y-112562212D01*
X226989566Y-112629556D01*
X227124253Y-112696899D01*
X227932375Y-112696899D01*
X227494642Y-113134632D01*
X226349803Y-112865258D02*
X226282459Y-112932602D01*
X226248787Y-113033617D01*
X226248787Y-113100960D01*
X226282459Y-113201976D01*
X226383474Y-113370334D01*
X226551833Y-113538693D01*
X226720192Y-113639708D01*
X226821207Y-113673380D01*
X226888551Y-113673380D01*
X226989566Y-113639708D01*
X227056909Y-113572365D01*
X227090581Y-113471350D01*
X227090581Y-113404006D01*
X227056909Y-113302991D01*
X226955894Y-113134632D01*
X226787535Y-112966273D01*
X226619177Y-112865258D01*
X226518161Y-112831586D01*
X226450818Y-112831586D01*
X226349803Y-112865258D01*
%TO.C,C119*%
X228024169Y-110970418D02*
X228091512Y-110970418D01*
X228226199Y-110903075D01*
X228293543Y-110835731D01*
X228360886Y-110701044D01*
X228360886Y-110566357D01*
X228327215Y-110465342D01*
X228226199Y-110296983D01*
X228125184Y-110195968D01*
X227956825Y-110094953D01*
X227855810Y-110061281D01*
X227721123Y-110061281D01*
X227586436Y-110128625D01*
X227519093Y-110195968D01*
X227451749Y-110330655D01*
X227451749Y-110397999D01*
X227418077Y-111711197D02*
X227822138Y-111307136D01*
X227620108Y-111509167D02*
X226913001Y-110802060D01*
X227081360Y-110835731D01*
X227216047Y-110835731D01*
X227317062Y-110802060D01*
X226744642Y-112384632D02*
X227148703Y-111980571D01*
X226946673Y-112182602D02*
X226239566Y-111475495D01*
X226407925Y-111509167D01*
X226542612Y-111509167D01*
X226643627Y-111475495D01*
X226407925Y-112721350D02*
X226273238Y-112856037D01*
X226172222Y-112889708D01*
X226104879Y-112889708D01*
X225936520Y-112856037D01*
X225768161Y-112755021D01*
X225498787Y-112485647D01*
X225465116Y-112384632D01*
X225465116Y-112317289D01*
X225498787Y-112216273D01*
X225633474Y-112081586D01*
X225734490Y-112047915D01*
X225801833Y-112047915D01*
X225902848Y-112081586D01*
X226071207Y-112249945D01*
X226104879Y-112350960D01*
X226104879Y-112418304D01*
X226071207Y-112519319D01*
X225936520Y-112654006D01*
X225835505Y-112687678D01*
X225768161Y-112687678D01*
X225667146Y-112654006D01*
%TO.C,C118*%
X227899581Y-102524169D02*
X227899581Y-102591512D01*
X227966924Y-102726199D01*
X228034268Y-102793543D01*
X228168955Y-102860886D01*
X228303642Y-102860886D01*
X228404657Y-102827215D01*
X228573016Y-102726199D01*
X228674031Y-102625184D01*
X228775046Y-102456825D01*
X228808718Y-102355810D01*
X228808718Y-102221123D01*
X228741374Y-102086436D01*
X228674031Y-102019093D01*
X228539344Y-101951749D01*
X228472000Y-101951749D01*
X227158802Y-101918077D02*
X227562863Y-102322138D01*
X227360833Y-102120108D02*
X228067939Y-101413001D01*
X228034268Y-101581360D01*
X228034268Y-101716047D01*
X228067939Y-101817062D01*
X226485367Y-101244642D02*
X226889428Y-101648703D01*
X226687397Y-101446673D02*
X227394504Y-100739566D01*
X227360833Y-100907925D01*
X227360833Y-101042612D01*
X227394504Y-101143627D01*
X226485367Y-100436520D02*
X226586382Y-100470192D01*
X226653726Y-100470192D01*
X226754741Y-100436520D01*
X226788413Y-100402848D01*
X226822084Y-100301833D01*
X226822084Y-100234490D01*
X226788413Y-100133474D01*
X226653726Y-99998787D01*
X226552710Y-99965116D01*
X226485367Y-99965116D01*
X226384352Y-99998787D01*
X226350680Y-100032459D01*
X226317008Y-100133474D01*
X226317008Y-100200818D01*
X226350680Y-100301833D01*
X226485367Y-100436520D01*
X226519039Y-100537535D01*
X226519039Y-100604879D01*
X226485367Y-100705894D01*
X226350680Y-100840581D01*
X226249665Y-100874253D01*
X226182321Y-100874253D01*
X226081306Y-100840581D01*
X225946619Y-100705894D01*
X225912947Y-100604879D01*
X225912947Y-100537535D01*
X225946619Y-100436520D01*
X226081306Y-100301833D01*
X226182321Y-100268161D01*
X226249665Y-100268161D01*
X226350680Y-100301833D01*
%TO.C,C117*%
X224743504Y-107689068D02*
X224743504Y-107756411D01*
X224810847Y-107891098D01*
X224878191Y-107958442D01*
X225012878Y-108025785D01*
X225147565Y-108025785D01*
X225248580Y-107992114D01*
X225416939Y-107891098D01*
X225517954Y-107790083D01*
X225618969Y-107621724D01*
X225652641Y-107520709D01*
X225652641Y-107386022D01*
X225585297Y-107251335D01*
X225517954Y-107183992D01*
X225383267Y-107116648D01*
X225315923Y-107116648D01*
X224002725Y-107082976D02*
X224406786Y-107487037D01*
X224204756Y-107285007D02*
X224911862Y-106577900D01*
X224878191Y-106746259D01*
X224878191Y-106880946D01*
X224911862Y-106981961D01*
X223329290Y-106409541D02*
X223733351Y-106813602D01*
X223531320Y-106611572D02*
X224238427Y-105904465D01*
X224204756Y-106072824D01*
X224204756Y-106207511D01*
X224238427Y-106308526D01*
X223800694Y-105466732D02*
X223329290Y-104995328D01*
X222925229Y-106005480D01*
%TO.C,C116*%
X229279093Y-101974657D02*
X229279093Y-102042000D01*
X229346436Y-102176687D01*
X229413780Y-102244031D01*
X229548467Y-102311374D01*
X229683154Y-102311374D01*
X229784169Y-102277703D01*
X229952528Y-102176687D01*
X230053543Y-102075672D01*
X230154558Y-101907313D01*
X230188230Y-101806298D01*
X230188230Y-101671611D01*
X230120886Y-101536924D01*
X230053543Y-101469581D01*
X229918856Y-101402237D01*
X229851512Y-101402237D01*
X228538314Y-101368565D02*
X228942375Y-101772626D01*
X228740345Y-101570596D02*
X229447451Y-100863489D01*
X229413780Y-101031848D01*
X229413780Y-101166535D01*
X229447451Y-101267550D01*
X227864879Y-100695130D02*
X228268940Y-101099191D01*
X228066909Y-100897161D02*
X228774016Y-100190054D01*
X228740345Y-100358413D01*
X228740345Y-100493100D01*
X228774016Y-100594115D01*
X227965894Y-99381932D02*
X228100581Y-99516619D01*
X228134253Y-99617634D01*
X228134253Y-99684978D01*
X228100581Y-99853336D01*
X227999566Y-100021695D01*
X227730192Y-100291069D01*
X227629177Y-100324741D01*
X227561833Y-100324741D01*
X227460818Y-100291069D01*
X227326131Y-100156382D01*
X227292459Y-100055367D01*
X227292459Y-99988023D01*
X227326131Y-99887008D01*
X227494490Y-99718649D01*
X227595505Y-99684978D01*
X227662848Y-99684978D01*
X227763864Y-99718649D01*
X227898551Y-99853336D01*
X227932222Y-99954352D01*
X227932222Y-100021695D01*
X227898551Y-100122710D01*
%TO.C,C115*%
X237553514Y-110827439D02*
X237620857Y-110827439D01*
X237755544Y-110760096D01*
X237822888Y-110692752D01*
X237890231Y-110558065D01*
X237890231Y-110423378D01*
X237856560Y-110322363D01*
X237755544Y-110154004D01*
X237654529Y-110052989D01*
X237486170Y-109951974D01*
X237385155Y-109918302D01*
X237250468Y-109918302D01*
X237115781Y-109985646D01*
X237048438Y-110052989D01*
X236981094Y-110187676D01*
X236981094Y-110255020D01*
X236947422Y-111568218D02*
X237351483Y-111164157D01*
X237149453Y-111366188D02*
X236442346Y-110659081D01*
X236610705Y-110692752D01*
X236745392Y-110692752D01*
X236846407Y-110659081D01*
X236273987Y-112241653D02*
X236678048Y-111837592D01*
X236476018Y-112039623D02*
X235768911Y-111332516D01*
X235937270Y-111366188D01*
X236071957Y-111366188D01*
X236172972Y-111332516D01*
X234927117Y-112174310D02*
X235263835Y-111837592D01*
X235634224Y-112140638D01*
X235566880Y-112140638D01*
X235465865Y-112174310D01*
X235297506Y-112342668D01*
X235263835Y-112443684D01*
X235263835Y-112511027D01*
X235297506Y-112612042D01*
X235465865Y-112780401D01*
X235566880Y-112814073D01*
X235634224Y-112814073D01*
X235735239Y-112780401D01*
X235903598Y-112612042D01*
X235937270Y-112511027D01*
X235937270Y-112443684D01*
%TO.C,C113*%
X227142142Y-109905952D02*
X227189761Y-109858333D01*
X227237380Y-109715476D01*
X227237380Y-109620238D01*
X227189761Y-109477380D01*
X227094523Y-109382142D01*
X226999285Y-109334523D01*
X226808809Y-109286904D01*
X226665952Y-109286904D01*
X226475476Y-109334523D01*
X226380238Y-109382142D01*
X226285000Y-109477380D01*
X226237380Y-109620238D01*
X226237380Y-109715476D01*
X226285000Y-109858333D01*
X226332619Y-109905952D01*
X227237380Y-110858333D02*
X227237380Y-110286904D01*
X227237380Y-110572619D02*
X226237380Y-110572619D01*
X226380238Y-110477380D01*
X226475476Y-110382142D01*
X226523095Y-110286904D01*
X227237380Y-111810714D02*
X227237380Y-111239285D01*
X227237380Y-111525000D02*
X226237380Y-111525000D01*
X226380238Y-111429761D01*
X226475476Y-111334523D01*
X226523095Y-111239285D01*
X226237380Y-112144047D02*
X226237380Y-112763095D01*
X226618333Y-112429761D01*
X226618333Y-112572619D01*
X226665952Y-112667857D01*
X226713571Y-112715476D01*
X226808809Y-112763095D01*
X227046904Y-112763095D01*
X227142142Y-112715476D01*
X227189761Y-112667857D01*
X227237380Y-112572619D01*
X227237380Y-112286904D01*
X227189761Y-112191666D01*
X227142142Y-112144047D01*
%TO.C,C112*%
X245144047Y-108942142D02*
X245191666Y-108989761D01*
X245334523Y-109037380D01*
X245429761Y-109037380D01*
X245572619Y-108989761D01*
X245667857Y-108894523D01*
X245715476Y-108799285D01*
X245763095Y-108608809D01*
X245763095Y-108465952D01*
X245715476Y-108275476D01*
X245667857Y-108180238D01*
X245572619Y-108085000D01*
X245429761Y-108037380D01*
X245334523Y-108037380D01*
X245191666Y-108085000D01*
X245144047Y-108132619D01*
X244191666Y-109037380D02*
X244763095Y-109037380D01*
X244477380Y-109037380D02*
X244477380Y-108037380D01*
X244572619Y-108180238D01*
X244667857Y-108275476D01*
X244763095Y-108323095D01*
X243239285Y-109037380D02*
X243810714Y-109037380D01*
X243525000Y-109037380D02*
X243525000Y-108037380D01*
X243620238Y-108180238D01*
X243715476Y-108275476D01*
X243810714Y-108323095D01*
X242858333Y-108132619D02*
X242810714Y-108085000D01*
X242715476Y-108037380D01*
X242477380Y-108037380D01*
X242382142Y-108085000D01*
X242334523Y-108132619D01*
X242286904Y-108227857D01*
X242286904Y-108323095D01*
X242334523Y-108465952D01*
X242905952Y-109037380D01*
X242286904Y-109037380D01*
%TO.C,C111*%
X235912991Y-101451596D02*
X235980334Y-101451596D01*
X236115021Y-101384253D01*
X236182365Y-101316909D01*
X236249708Y-101182222D01*
X236249708Y-101047535D01*
X236216037Y-100946520D01*
X236115021Y-100778161D01*
X236014006Y-100677146D01*
X235845647Y-100576131D01*
X235744632Y-100542459D01*
X235609945Y-100542459D01*
X235475258Y-100609803D01*
X235407915Y-100677146D01*
X235340571Y-100811833D01*
X235340571Y-100879177D01*
X235306899Y-102192375D02*
X235710960Y-101788314D01*
X235508930Y-101990345D02*
X234801823Y-101283238D01*
X234970182Y-101316909D01*
X235104869Y-101316909D01*
X235205884Y-101283238D01*
X234633464Y-102865810D02*
X235037525Y-102461749D01*
X234835495Y-102663780D02*
X234128388Y-101956673D01*
X234296747Y-101990345D01*
X234431434Y-101990345D01*
X234532449Y-101956673D01*
X233960029Y-103539245D02*
X234364090Y-103135184D01*
X234162060Y-103337215D02*
X233454953Y-102630108D01*
X233623312Y-102663780D01*
X233757999Y-102663780D01*
X233859014Y-102630108D01*
%TO.C,C110*%
X232912991Y-98251596D02*
X232980334Y-98251596D01*
X233115021Y-98184253D01*
X233182365Y-98116909D01*
X233249708Y-97982222D01*
X233249708Y-97847535D01*
X233216037Y-97746520D01*
X233115021Y-97578161D01*
X233014006Y-97477146D01*
X232845647Y-97376131D01*
X232744632Y-97342459D01*
X232609945Y-97342459D01*
X232475258Y-97409803D01*
X232407915Y-97477146D01*
X232340571Y-97611833D01*
X232340571Y-97679177D01*
X232306899Y-98992375D02*
X232710960Y-98588314D01*
X232508930Y-98790345D02*
X231801823Y-98083238D01*
X231970182Y-98116909D01*
X232104869Y-98116909D01*
X232205884Y-98083238D01*
X231633464Y-99665810D02*
X232037525Y-99261749D01*
X231835495Y-99463780D02*
X231128388Y-98756673D01*
X231296747Y-98790345D01*
X231431434Y-98790345D01*
X231532449Y-98756673D01*
X230488625Y-99396436D02*
X230421281Y-99463780D01*
X230387609Y-99564795D01*
X230387609Y-99632138D01*
X230421281Y-99733154D01*
X230522296Y-99901512D01*
X230690655Y-100069871D01*
X230859014Y-100170886D01*
X230960029Y-100204558D01*
X231027373Y-100204558D01*
X231128388Y-100170886D01*
X231195731Y-100103543D01*
X231229403Y-100002528D01*
X231229403Y-99935184D01*
X231195731Y-99834169D01*
X231094716Y-99665810D01*
X230926357Y-99497451D01*
X230757999Y-99396436D01*
X230656983Y-99362764D01*
X230589640Y-99362764D01*
X230488625Y-99396436D01*
%TO.C,C109*%
X240644047Y-106622142D02*
X240691666Y-106669761D01*
X240834523Y-106717380D01*
X240929761Y-106717380D01*
X241072619Y-106669761D01*
X241167857Y-106574523D01*
X241215476Y-106479285D01*
X241263095Y-106288809D01*
X241263095Y-106145952D01*
X241215476Y-105955476D01*
X241167857Y-105860238D01*
X241072619Y-105765000D01*
X240929761Y-105717380D01*
X240834523Y-105717380D01*
X240691666Y-105765000D01*
X240644047Y-105812619D01*
X239691666Y-106717380D02*
X240263095Y-106717380D01*
X239977380Y-106717380D02*
X239977380Y-105717380D01*
X240072619Y-105860238D01*
X240167857Y-105955476D01*
X240263095Y-106003095D01*
X239072619Y-105717380D02*
X238977380Y-105717380D01*
X238882142Y-105765000D01*
X238834523Y-105812619D01*
X238786904Y-105907857D01*
X238739285Y-106098333D01*
X238739285Y-106336428D01*
X238786904Y-106526904D01*
X238834523Y-106622142D01*
X238882142Y-106669761D01*
X238977380Y-106717380D01*
X239072619Y-106717380D01*
X239167857Y-106669761D01*
X239215476Y-106622142D01*
X239263095Y-106526904D01*
X239310714Y-106336428D01*
X239310714Y-106098333D01*
X239263095Y-105907857D01*
X239215476Y-105812619D01*
X239167857Y-105765000D01*
X239072619Y-105717380D01*
X238263095Y-106717380D02*
X238072619Y-106717380D01*
X237977380Y-106669761D01*
X237929761Y-106622142D01*
X237834523Y-106479285D01*
X237786904Y-106288809D01*
X237786904Y-105907857D01*
X237834523Y-105812619D01*
X237882142Y-105765000D01*
X237977380Y-105717380D01*
X238167857Y-105717380D01*
X238263095Y-105765000D01*
X238310714Y-105812619D01*
X238358333Y-105907857D01*
X238358333Y-106145952D01*
X238310714Y-106241190D01*
X238263095Y-106288809D01*
X238167857Y-106336428D01*
X237977380Y-106336428D01*
X237882142Y-106288809D01*
X237834523Y-106241190D01*
X237786904Y-106145952D01*
%TO.C,C108*%
X223583992Y-58448580D02*
X223583992Y-58515923D01*
X223651335Y-58650610D01*
X223718679Y-58717954D01*
X223853366Y-58785297D01*
X223988053Y-58785297D01*
X224089068Y-58751626D01*
X224257427Y-58650610D01*
X224358442Y-58549595D01*
X224459457Y-58381236D01*
X224493129Y-58280221D01*
X224493129Y-58145534D01*
X224425785Y-58010847D01*
X224358442Y-57943504D01*
X224223755Y-57876160D01*
X224156411Y-57876160D01*
X222843213Y-57842488D02*
X223247274Y-58246549D01*
X223045244Y-58044519D02*
X223752350Y-57337412D01*
X223718679Y-57505771D01*
X223718679Y-57640458D01*
X223752350Y-57741473D01*
X223112587Y-56697649D02*
X223045244Y-56630305D01*
X222944228Y-56596633D01*
X222876885Y-56596633D01*
X222775869Y-56630305D01*
X222607511Y-56731320D01*
X222439152Y-56899679D01*
X222338137Y-57068038D01*
X222304465Y-57169053D01*
X222304465Y-57236397D01*
X222338137Y-57337412D01*
X222405480Y-57404756D01*
X222506495Y-57438427D01*
X222573839Y-57438427D01*
X222674854Y-57404755D01*
X222843213Y-57303740D01*
X223011572Y-57135381D01*
X223112587Y-56967023D01*
X223146259Y-56866007D01*
X223146259Y-56798664D01*
X223112587Y-56697649D01*
X222169778Y-56360931D02*
X222270793Y-56394603D01*
X222338137Y-56394603D01*
X222439152Y-56360931D01*
X222472824Y-56327259D01*
X222506495Y-56226244D01*
X222506495Y-56158901D01*
X222472824Y-56057885D01*
X222338137Y-55923198D01*
X222237121Y-55889527D01*
X222169778Y-55889527D01*
X222068763Y-55923198D01*
X222035091Y-55956870D01*
X222001419Y-56057885D01*
X222001419Y-56125229D01*
X222035091Y-56226244D01*
X222169778Y-56360931D01*
X222203450Y-56461946D01*
X222203450Y-56529290D01*
X222169778Y-56630305D01*
X222035091Y-56764992D01*
X221934076Y-56798664D01*
X221866732Y-56798664D01*
X221765717Y-56764992D01*
X221631030Y-56630305D01*
X221597358Y-56529290D01*
X221597358Y-56461946D01*
X221631030Y-56360931D01*
X221765717Y-56226244D01*
X221866732Y-56192572D01*
X221934076Y-56192572D01*
X222035091Y-56226244D01*
%TO.C,C107*%
X226448580Y-59766007D02*
X226515923Y-59766007D01*
X226650610Y-59698664D01*
X226717954Y-59631320D01*
X226785297Y-59496633D01*
X226785297Y-59361946D01*
X226751626Y-59260931D01*
X226650610Y-59092572D01*
X226549595Y-58991557D01*
X226381236Y-58890542D01*
X226280221Y-58856870D01*
X226145534Y-58856870D01*
X226010847Y-58924214D01*
X225943504Y-58991557D01*
X225876160Y-59126244D01*
X225876160Y-59193588D01*
X225842488Y-60506786D02*
X226246549Y-60102725D01*
X226044519Y-60304756D02*
X225337412Y-59597649D01*
X225505771Y-59631320D01*
X225640458Y-59631320D01*
X225741473Y-59597649D01*
X224697649Y-60237412D02*
X224630305Y-60304756D01*
X224596633Y-60405771D01*
X224596633Y-60473114D01*
X224630305Y-60574130D01*
X224731320Y-60742488D01*
X224899679Y-60910847D01*
X225068038Y-61011862D01*
X225169053Y-61045534D01*
X225236397Y-61045534D01*
X225337412Y-61011862D01*
X225404756Y-60944519D01*
X225438427Y-60843504D01*
X225438427Y-60776160D01*
X225404756Y-60675145D01*
X225303740Y-60506786D01*
X225135381Y-60338427D01*
X224967023Y-60237412D01*
X224866007Y-60203740D01*
X224798664Y-60203740D01*
X224697649Y-60237412D01*
X224226244Y-60708817D02*
X223754840Y-61180221D01*
X224764992Y-61584282D01*
%TO.C,C104*%
X251439047Y-38717142D02*
X251486666Y-38764761D01*
X251629523Y-38812380D01*
X251724761Y-38812380D01*
X251867619Y-38764761D01*
X251962857Y-38669523D01*
X252010476Y-38574285D01*
X252058095Y-38383809D01*
X252058095Y-38240952D01*
X252010476Y-38050476D01*
X251962857Y-37955238D01*
X251867619Y-37860000D01*
X251724761Y-37812380D01*
X251629523Y-37812380D01*
X251486666Y-37860000D01*
X251439047Y-37907619D01*
X250486666Y-38812380D02*
X251058095Y-38812380D01*
X250772380Y-38812380D02*
X250772380Y-37812380D01*
X250867619Y-37955238D01*
X250962857Y-38050476D01*
X251058095Y-38098095D01*
X249867619Y-37812380D02*
X249772380Y-37812380D01*
X249677142Y-37860000D01*
X249629523Y-37907619D01*
X249581904Y-38002857D01*
X249534285Y-38193333D01*
X249534285Y-38431428D01*
X249581904Y-38621904D01*
X249629523Y-38717142D01*
X249677142Y-38764761D01*
X249772380Y-38812380D01*
X249867619Y-38812380D01*
X249962857Y-38764761D01*
X250010476Y-38717142D01*
X250058095Y-38621904D01*
X250105714Y-38431428D01*
X250105714Y-38193333D01*
X250058095Y-38002857D01*
X250010476Y-37907619D01*
X249962857Y-37860000D01*
X249867619Y-37812380D01*
X248677142Y-38145714D02*
X248677142Y-38812380D01*
X248915238Y-37764761D02*
X249153333Y-38479047D01*
X248534285Y-38479047D01*
%TO.C,C101*%
X254617142Y-37000952D02*
X254664761Y-36953333D01*
X254712380Y-36810476D01*
X254712380Y-36715238D01*
X254664761Y-36572380D01*
X254569523Y-36477142D01*
X254474285Y-36429523D01*
X254283809Y-36381904D01*
X254140952Y-36381904D01*
X253950476Y-36429523D01*
X253855238Y-36477142D01*
X253760000Y-36572380D01*
X253712380Y-36715238D01*
X253712380Y-36810476D01*
X253760000Y-36953333D01*
X253807619Y-37000952D01*
X254712380Y-37953333D02*
X254712380Y-37381904D01*
X254712380Y-37667619D02*
X253712380Y-37667619D01*
X253855238Y-37572380D01*
X253950476Y-37477142D01*
X253998095Y-37381904D01*
X253712380Y-38572380D02*
X253712380Y-38667619D01*
X253760000Y-38762857D01*
X253807619Y-38810476D01*
X253902857Y-38858095D01*
X254093333Y-38905714D01*
X254331428Y-38905714D01*
X254521904Y-38858095D01*
X254617142Y-38810476D01*
X254664761Y-38762857D01*
X254712380Y-38667619D01*
X254712380Y-38572380D01*
X254664761Y-38477142D01*
X254617142Y-38429523D01*
X254521904Y-38381904D01*
X254331428Y-38334285D01*
X254093333Y-38334285D01*
X253902857Y-38381904D01*
X253807619Y-38429523D01*
X253760000Y-38477142D01*
X253712380Y-38572380D01*
X254712380Y-39858095D02*
X254712380Y-39286666D01*
X254712380Y-39572380D02*
X253712380Y-39572380D01*
X253855238Y-39477142D01*
X253950476Y-39381904D01*
X253998095Y-39286666D01*
%TO.C,C99*%
X249727142Y-46682142D02*
X249774761Y-46634523D01*
X249822380Y-46491666D01*
X249822380Y-46396428D01*
X249774761Y-46253571D01*
X249679523Y-46158333D01*
X249584285Y-46110714D01*
X249393809Y-46063095D01*
X249250952Y-46063095D01*
X249060476Y-46110714D01*
X248965238Y-46158333D01*
X248870000Y-46253571D01*
X248822380Y-46396428D01*
X248822380Y-46491666D01*
X248870000Y-46634523D01*
X248917619Y-46682142D01*
X249822380Y-47158333D02*
X249822380Y-47348809D01*
X249774761Y-47444047D01*
X249727142Y-47491666D01*
X249584285Y-47586904D01*
X249393809Y-47634523D01*
X249012857Y-47634523D01*
X248917619Y-47586904D01*
X248870000Y-47539285D01*
X248822380Y-47444047D01*
X248822380Y-47253571D01*
X248870000Y-47158333D01*
X248917619Y-47110714D01*
X249012857Y-47063095D01*
X249250952Y-47063095D01*
X249346190Y-47110714D01*
X249393809Y-47158333D01*
X249441428Y-47253571D01*
X249441428Y-47444047D01*
X249393809Y-47539285D01*
X249346190Y-47586904D01*
X249250952Y-47634523D01*
X249822380Y-48110714D02*
X249822380Y-48301190D01*
X249774761Y-48396428D01*
X249727142Y-48444047D01*
X249584285Y-48539285D01*
X249393809Y-48586904D01*
X249012857Y-48586904D01*
X248917619Y-48539285D01*
X248870000Y-48491666D01*
X248822380Y-48396428D01*
X248822380Y-48205952D01*
X248870000Y-48110714D01*
X248917619Y-48063095D01*
X249012857Y-48015476D01*
X249250952Y-48015476D01*
X249346190Y-48063095D01*
X249393809Y-48110714D01*
X249441428Y-48205952D01*
X249441428Y-48396428D01*
X249393809Y-48491666D01*
X249346190Y-48539285D01*
X249250952Y-48586904D01*
%TO.C,C97*%
X251777142Y-46682142D02*
X251824761Y-46634523D01*
X251872380Y-46491666D01*
X251872380Y-46396428D01*
X251824761Y-46253571D01*
X251729523Y-46158333D01*
X251634285Y-46110714D01*
X251443809Y-46063095D01*
X251300952Y-46063095D01*
X251110476Y-46110714D01*
X251015238Y-46158333D01*
X250920000Y-46253571D01*
X250872380Y-46396428D01*
X250872380Y-46491666D01*
X250920000Y-46634523D01*
X250967619Y-46682142D01*
X251872380Y-47158333D02*
X251872380Y-47348809D01*
X251824761Y-47444047D01*
X251777142Y-47491666D01*
X251634285Y-47586904D01*
X251443809Y-47634523D01*
X251062857Y-47634523D01*
X250967619Y-47586904D01*
X250920000Y-47539285D01*
X250872380Y-47444047D01*
X250872380Y-47253571D01*
X250920000Y-47158333D01*
X250967619Y-47110714D01*
X251062857Y-47063095D01*
X251300952Y-47063095D01*
X251396190Y-47110714D01*
X251443809Y-47158333D01*
X251491428Y-47253571D01*
X251491428Y-47444047D01*
X251443809Y-47539285D01*
X251396190Y-47586904D01*
X251300952Y-47634523D01*
X250872380Y-47967857D02*
X250872380Y-48634523D01*
X251872380Y-48205952D01*
%TO.C,C95*%
X249722142Y-43687141D02*
X249769761Y-43639522D01*
X249817380Y-43496665D01*
X249817380Y-43401427D01*
X249769761Y-43258570D01*
X249674523Y-43163332D01*
X249579285Y-43115713D01*
X249388809Y-43068094D01*
X249245952Y-43068094D01*
X249055476Y-43115713D01*
X248960238Y-43163332D01*
X248865000Y-43258570D01*
X248817380Y-43401427D01*
X248817380Y-43496665D01*
X248865000Y-43639522D01*
X248912619Y-43687141D01*
X249817380Y-44163332D02*
X249817380Y-44353808D01*
X249769761Y-44449046D01*
X249722142Y-44496665D01*
X249579285Y-44591903D01*
X249388809Y-44639522D01*
X249007857Y-44639522D01*
X248912619Y-44591903D01*
X248865000Y-44544284D01*
X248817380Y-44449046D01*
X248817380Y-44258570D01*
X248865000Y-44163332D01*
X248912619Y-44115713D01*
X249007857Y-44068094D01*
X249245952Y-44068094D01*
X249341190Y-44115713D01*
X249388809Y-44163332D01*
X249436428Y-44258570D01*
X249436428Y-44449046D01*
X249388809Y-44544284D01*
X249341190Y-44591903D01*
X249245952Y-44639522D01*
X248817380Y-45544284D02*
X248817380Y-45068094D01*
X249293571Y-45020475D01*
X249245952Y-45068094D01*
X249198333Y-45163332D01*
X249198333Y-45401427D01*
X249245952Y-45496665D01*
X249293571Y-45544284D01*
X249388809Y-45591903D01*
X249626904Y-45591903D01*
X249722142Y-45544284D01*
X249769761Y-45496665D01*
X249817380Y-45401427D01*
X249817380Y-45163332D01*
X249769761Y-45068094D01*
X249722142Y-45020475D01*
%TO.C,C94*%
X242597142Y-43937142D02*
X242644761Y-43889523D01*
X242692380Y-43746666D01*
X242692380Y-43651428D01*
X242644761Y-43508571D01*
X242549523Y-43413333D01*
X242454285Y-43365714D01*
X242263809Y-43318095D01*
X242120952Y-43318095D01*
X241930476Y-43365714D01*
X241835238Y-43413333D01*
X241740000Y-43508571D01*
X241692380Y-43651428D01*
X241692380Y-43746666D01*
X241740000Y-43889523D01*
X241787619Y-43937142D01*
X242692380Y-44413333D02*
X242692380Y-44603809D01*
X242644761Y-44699047D01*
X242597142Y-44746666D01*
X242454285Y-44841904D01*
X242263809Y-44889523D01*
X241882857Y-44889523D01*
X241787619Y-44841904D01*
X241740000Y-44794285D01*
X241692380Y-44699047D01*
X241692380Y-44508571D01*
X241740000Y-44413333D01*
X241787619Y-44365714D01*
X241882857Y-44318095D01*
X242120952Y-44318095D01*
X242216190Y-44365714D01*
X242263809Y-44413333D01*
X242311428Y-44508571D01*
X242311428Y-44699047D01*
X242263809Y-44794285D01*
X242216190Y-44841904D01*
X242120952Y-44889523D01*
X242025714Y-45746666D02*
X242692380Y-45746666D01*
X241644761Y-45508571D02*
X242359047Y-45270476D01*
X242359047Y-45889523D01*
%TO.C,C93*%
X244942142Y-38887142D02*
X244989761Y-38839523D01*
X245037380Y-38696666D01*
X245037380Y-38601428D01*
X244989761Y-38458571D01*
X244894523Y-38363333D01*
X244799285Y-38315714D01*
X244608809Y-38268095D01*
X244465952Y-38268095D01*
X244275476Y-38315714D01*
X244180238Y-38363333D01*
X244085000Y-38458571D01*
X244037380Y-38601428D01*
X244037380Y-38696666D01*
X244085000Y-38839523D01*
X244132619Y-38887142D01*
X245037380Y-39363333D02*
X245037380Y-39553809D01*
X244989761Y-39649047D01*
X244942142Y-39696666D01*
X244799285Y-39791904D01*
X244608809Y-39839523D01*
X244227857Y-39839523D01*
X244132619Y-39791904D01*
X244085000Y-39744285D01*
X244037380Y-39649047D01*
X244037380Y-39458571D01*
X244085000Y-39363333D01*
X244132619Y-39315714D01*
X244227857Y-39268095D01*
X244465952Y-39268095D01*
X244561190Y-39315714D01*
X244608809Y-39363333D01*
X244656428Y-39458571D01*
X244656428Y-39649047D01*
X244608809Y-39744285D01*
X244561190Y-39791904D01*
X244465952Y-39839523D01*
X244037380Y-40172857D02*
X244037380Y-40791904D01*
X244418333Y-40458571D01*
X244418333Y-40601428D01*
X244465952Y-40696666D01*
X244513571Y-40744285D01*
X244608809Y-40791904D01*
X244846904Y-40791904D01*
X244942142Y-40744285D01*
X244989761Y-40696666D01*
X245037380Y-40601428D01*
X245037380Y-40315714D01*
X244989761Y-40220476D01*
X244942142Y-40172857D01*
%TO.C,C92*%
X241697142Y-40877143D02*
X241744761Y-40829524D01*
X241792380Y-40686667D01*
X241792380Y-40591429D01*
X241744761Y-40448572D01*
X241649523Y-40353334D01*
X241554285Y-40305715D01*
X241363809Y-40258096D01*
X241220952Y-40258096D01*
X241030476Y-40305715D01*
X240935238Y-40353334D01*
X240840000Y-40448572D01*
X240792380Y-40591429D01*
X240792380Y-40686667D01*
X240840000Y-40829524D01*
X240887619Y-40877143D01*
X241792380Y-41353334D02*
X241792380Y-41543810D01*
X241744761Y-41639048D01*
X241697142Y-41686667D01*
X241554285Y-41781905D01*
X241363809Y-41829524D01*
X240982857Y-41829524D01*
X240887619Y-41781905D01*
X240840000Y-41734286D01*
X240792380Y-41639048D01*
X240792380Y-41448572D01*
X240840000Y-41353334D01*
X240887619Y-41305715D01*
X240982857Y-41258096D01*
X241220952Y-41258096D01*
X241316190Y-41305715D01*
X241363809Y-41353334D01*
X241411428Y-41448572D01*
X241411428Y-41639048D01*
X241363809Y-41734286D01*
X241316190Y-41781905D01*
X241220952Y-41829524D01*
X240887619Y-42210477D02*
X240840000Y-42258096D01*
X240792380Y-42353334D01*
X240792380Y-42591429D01*
X240840000Y-42686667D01*
X240887619Y-42734286D01*
X240982857Y-42781905D01*
X241078095Y-42781905D01*
X241220952Y-42734286D01*
X241792380Y-42162858D01*
X241792380Y-42781905D01*
%TO.C,C91*%
X242697143Y-40877142D02*
X242744762Y-40829523D01*
X242792381Y-40686666D01*
X242792381Y-40591428D01*
X242744762Y-40448571D01*
X242649524Y-40353333D01*
X242554286Y-40305714D01*
X242363810Y-40258095D01*
X242220953Y-40258095D01*
X242030477Y-40305714D01*
X241935239Y-40353333D01*
X241840001Y-40448571D01*
X241792381Y-40591428D01*
X241792381Y-40686666D01*
X241840001Y-40829523D01*
X241887620Y-40877142D01*
X242792381Y-41353333D02*
X242792381Y-41543809D01*
X242744762Y-41639047D01*
X242697143Y-41686666D01*
X242554286Y-41781904D01*
X242363810Y-41829523D01*
X241982858Y-41829523D01*
X241887620Y-41781904D01*
X241840001Y-41734285D01*
X241792381Y-41639047D01*
X241792381Y-41448571D01*
X241840001Y-41353333D01*
X241887620Y-41305714D01*
X241982858Y-41258095D01*
X242220953Y-41258095D01*
X242316191Y-41305714D01*
X242363810Y-41353333D01*
X242411429Y-41448571D01*
X242411429Y-41639047D01*
X242363810Y-41734285D01*
X242316191Y-41781904D01*
X242220953Y-41829523D01*
X242792381Y-42781904D02*
X242792381Y-42210476D01*
X242792381Y-42496190D02*
X241792381Y-42496190D01*
X241935239Y-42400952D01*
X242030477Y-42305714D01*
X242078096Y-42210476D01*
%TO.C,C90*%
X250722142Y-43687142D02*
X250769761Y-43639523D01*
X250817380Y-43496666D01*
X250817380Y-43401428D01*
X250769761Y-43258571D01*
X250674523Y-43163333D01*
X250579285Y-43115714D01*
X250388809Y-43068095D01*
X250245952Y-43068095D01*
X250055476Y-43115714D01*
X249960238Y-43163333D01*
X249865000Y-43258571D01*
X249817380Y-43401428D01*
X249817380Y-43496666D01*
X249865000Y-43639523D01*
X249912619Y-43687142D01*
X250817380Y-44163333D02*
X250817380Y-44353809D01*
X250769761Y-44449047D01*
X250722142Y-44496666D01*
X250579285Y-44591904D01*
X250388809Y-44639523D01*
X250007857Y-44639523D01*
X249912619Y-44591904D01*
X249865000Y-44544285D01*
X249817380Y-44449047D01*
X249817380Y-44258571D01*
X249865000Y-44163333D01*
X249912619Y-44115714D01*
X250007857Y-44068095D01*
X250245952Y-44068095D01*
X250341190Y-44115714D01*
X250388809Y-44163333D01*
X250436428Y-44258571D01*
X250436428Y-44449047D01*
X250388809Y-44544285D01*
X250341190Y-44591904D01*
X250245952Y-44639523D01*
X249817380Y-45258571D02*
X249817380Y-45353809D01*
X249865000Y-45449047D01*
X249912619Y-45496666D01*
X250007857Y-45544285D01*
X250198333Y-45591904D01*
X250436428Y-45591904D01*
X250626904Y-45544285D01*
X250722142Y-45496666D01*
X250769761Y-45449047D01*
X250817380Y-45353809D01*
X250817380Y-45258571D01*
X250769761Y-45163333D01*
X250722142Y-45115714D01*
X250626904Y-45068095D01*
X250436428Y-45020476D01*
X250198333Y-45020476D01*
X250007857Y-45068095D01*
X249912619Y-45115714D01*
X249865000Y-45163333D01*
X249817380Y-45258571D01*
%TO.C,C89*%
X241597142Y-43937142D02*
X241644761Y-43889523D01*
X241692380Y-43746666D01*
X241692380Y-43651428D01*
X241644761Y-43508571D01*
X241549523Y-43413333D01*
X241454285Y-43365714D01*
X241263809Y-43318095D01*
X241120952Y-43318095D01*
X240930476Y-43365714D01*
X240835238Y-43413333D01*
X240740000Y-43508571D01*
X240692380Y-43651428D01*
X240692380Y-43746666D01*
X240740000Y-43889523D01*
X240787619Y-43937142D01*
X241120952Y-44508571D02*
X241073333Y-44413333D01*
X241025714Y-44365714D01*
X240930476Y-44318095D01*
X240882857Y-44318095D01*
X240787619Y-44365714D01*
X240740000Y-44413333D01*
X240692380Y-44508571D01*
X240692380Y-44699047D01*
X240740000Y-44794285D01*
X240787619Y-44841904D01*
X240882857Y-44889523D01*
X240930476Y-44889523D01*
X241025714Y-44841904D01*
X241073333Y-44794285D01*
X241120952Y-44699047D01*
X241120952Y-44508571D01*
X241168571Y-44413333D01*
X241216190Y-44365714D01*
X241311428Y-44318095D01*
X241501904Y-44318095D01*
X241597142Y-44365714D01*
X241644761Y-44413333D01*
X241692380Y-44508571D01*
X241692380Y-44699047D01*
X241644761Y-44794285D01*
X241597142Y-44841904D01*
X241501904Y-44889523D01*
X241311428Y-44889523D01*
X241216190Y-44841904D01*
X241168571Y-44794285D01*
X241120952Y-44699047D01*
X241692380Y-45365714D02*
X241692380Y-45556190D01*
X241644761Y-45651428D01*
X241597142Y-45699047D01*
X241454285Y-45794285D01*
X241263809Y-45841904D01*
X240882857Y-45841904D01*
X240787619Y-45794285D01*
X240740000Y-45746666D01*
X240692380Y-45651428D01*
X240692380Y-45460952D01*
X240740000Y-45365714D01*
X240787619Y-45318095D01*
X240882857Y-45270476D01*
X241120952Y-45270476D01*
X241216190Y-45318095D01*
X241263809Y-45365714D01*
X241311428Y-45460952D01*
X241311428Y-45651428D01*
X241263809Y-45746666D01*
X241216190Y-45794285D01*
X241120952Y-45841904D01*
%TO.C,C88*%
X226505781Y-79425071D02*
X226505781Y-79492415D01*
X226573125Y-79627102D01*
X226640468Y-79694445D01*
X226775155Y-79761789D01*
X226909842Y-79761789D01*
X227010857Y-79728117D01*
X227179216Y-79627102D01*
X227280231Y-79526087D01*
X227381247Y-79357728D01*
X227414918Y-79256713D01*
X227414918Y-79122026D01*
X227347575Y-78987339D01*
X227280231Y-78919995D01*
X227145544Y-78852652D01*
X227078201Y-78852652D01*
X226438438Y-78684293D02*
X226539453Y-78717964D01*
X226606796Y-78717964D01*
X226707812Y-78684293D01*
X226741483Y-78650621D01*
X226775155Y-78549606D01*
X226775155Y-78482262D01*
X226741483Y-78381247D01*
X226606796Y-78246560D01*
X226505781Y-78212888D01*
X226438438Y-78212888D01*
X226337422Y-78246560D01*
X226303751Y-78280232D01*
X226270079Y-78381247D01*
X226270079Y-78448590D01*
X226303751Y-78549606D01*
X226438438Y-78684293D01*
X226472109Y-78785308D01*
X226472109Y-78852652D01*
X226438438Y-78953667D01*
X226303751Y-79088354D01*
X226202735Y-79122026D01*
X226135392Y-79122026D01*
X226034376Y-79088354D01*
X225899689Y-78953667D01*
X225866018Y-78852652D01*
X225866018Y-78785308D01*
X225899689Y-78684293D01*
X226034376Y-78549606D01*
X226135392Y-78515934D01*
X226202735Y-78515934D01*
X226303751Y-78549606D01*
X225765002Y-78010858D02*
X225866018Y-78044529D01*
X225933361Y-78044529D01*
X226034376Y-78010858D01*
X226068048Y-77977186D01*
X226101720Y-77876171D01*
X226101720Y-77808827D01*
X226068048Y-77707812D01*
X225933361Y-77573125D01*
X225832346Y-77539453D01*
X225765002Y-77539453D01*
X225663987Y-77573125D01*
X225630315Y-77606797D01*
X225596644Y-77707812D01*
X225596644Y-77775155D01*
X225630315Y-77876171D01*
X225765002Y-78010858D01*
X225798674Y-78111873D01*
X225798674Y-78179216D01*
X225765002Y-78280232D01*
X225630315Y-78414919D01*
X225529300Y-78448590D01*
X225461957Y-78448590D01*
X225360941Y-78414919D01*
X225226254Y-78280232D01*
X225192583Y-78179216D01*
X225192583Y-78111873D01*
X225226254Y-78010858D01*
X225360941Y-77876171D01*
X225461957Y-77842499D01*
X225529300Y-77842499D01*
X225630315Y-77876171D01*
%TO.C,C87*%
X250167857Y-68307142D02*
X250215476Y-68354761D01*
X250358333Y-68402380D01*
X250453571Y-68402380D01*
X250596428Y-68354761D01*
X250691666Y-68259523D01*
X250739285Y-68164285D01*
X250786904Y-67973809D01*
X250786904Y-67830952D01*
X250739285Y-67640476D01*
X250691666Y-67545238D01*
X250596428Y-67450000D01*
X250453571Y-67402380D01*
X250358333Y-67402380D01*
X250215476Y-67450000D01*
X250167857Y-67497619D01*
X249596428Y-67830952D02*
X249691666Y-67783333D01*
X249739285Y-67735714D01*
X249786904Y-67640476D01*
X249786904Y-67592857D01*
X249739285Y-67497619D01*
X249691666Y-67450000D01*
X249596428Y-67402380D01*
X249405952Y-67402380D01*
X249310714Y-67450000D01*
X249263095Y-67497619D01*
X249215476Y-67592857D01*
X249215476Y-67640476D01*
X249263095Y-67735714D01*
X249310714Y-67783333D01*
X249405952Y-67830952D01*
X249596428Y-67830952D01*
X249691666Y-67878571D01*
X249739285Y-67926190D01*
X249786904Y-68021428D01*
X249786904Y-68211904D01*
X249739285Y-68307142D01*
X249691666Y-68354761D01*
X249596428Y-68402380D01*
X249405952Y-68402380D01*
X249310714Y-68354761D01*
X249263095Y-68307142D01*
X249215476Y-68211904D01*
X249215476Y-68021428D01*
X249263095Y-67926190D01*
X249310714Y-67878571D01*
X249405952Y-67830952D01*
X248882142Y-67402380D02*
X248215476Y-67402380D01*
X248644047Y-68402380D01*
%TO.C,C86*%
X250192857Y-64932142D02*
X250240476Y-64979761D01*
X250383333Y-65027380D01*
X250478571Y-65027380D01*
X250621428Y-64979761D01*
X250716666Y-64884523D01*
X250764285Y-64789285D01*
X250811904Y-64598809D01*
X250811904Y-64455952D01*
X250764285Y-64265476D01*
X250716666Y-64170238D01*
X250621428Y-64075000D01*
X250478571Y-64027380D01*
X250383333Y-64027380D01*
X250240476Y-64075000D01*
X250192857Y-64122619D01*
X249621428Y-64455952D02*
X249716666Y-64408333D01*
X249764285Y-64360714D01*
X249811904Y-64265476D01*
X249811904Y-64217857D01*
X249764285Y-64122619D01*
X249716666Y-64075000D01*
X249621428Y-64027380D01*
X249430952Y-64027380D01*
X249335714Y-64075000D01*
X249288095Y-64122619D01*
X249240476Y-64217857D01*
X249240476Y-64265476D01*
X249288095Y-64360714D01*
X249335714Y-64408333D01*
X249430952Y-64455952D01*
X249621428Y-64455952D01*
X249716666Y-64503571D01*
X249764285Y-64551190D01*
X249811904Y-64646428D01*
X249811904Y-64836904D01*
X249764285Y-64932142D01*
X249716666Y-64979761D01*
X249621428Y-65027380D01*
X249430952Y-65027380D01*
X249335714Y-64979761D01*
X249288095Y-64932142D01*
X249240476Y-64836904D01*
X249240476Y-64646428D01*
X249288095Y-64551190D01*
X249335714Y-64503571D01*
X249430952Y-64455952D01*
X248383333Y-64027380D02*
X248573809Y-64027380D01*
X248669047Y-64075000D01*
X248716666Y-64122619D01*
X248811904Y-64265476D01*
X248859523Y-64455952D01*
X248859523Y-64836904D01*
X248811904Y-64932142D01*
X248764285Y-64979761D01*
X248669047Y-65027380D01*
X248478571Y-65027380D01*
X248383333Y-64979761D01*
X248335714Y-64932142D01*
X248288095Y-64836904D01*
X248288095Y-64598809D01*
X248335714Y-64503571D01*
X248383333Y-64455952D01*
X248478571Y-64408333D01*
X248669047Y-64408333D01*
X248764285Y-64455952D01*
X248811904Y-64503571D01*
X248859523Y-64598809D01*
%TO.C,C85*%
X250167857Y-71632142D02*
X250215476Y-71679761D01*
X250358333Y-71727380D01*
X250453571Y-71727380D01*
X250596428Y-71679761D01*
X250691666Y-71584523D01*
X250739285Y-71489285D01*
X250786904Y-71298809D01*
X250786904Y-71155952D01*
X250739285Y-70965476D01*
X250691666Y-70870238D01*
X250596428Y-70775000D01*
X250453571Y-70727380D01*
X250358333Y-70727380D01*
X250215476Y-70775000D01*
X250167857Y-70822619D01*
X249596428Y-71155952D02*
X249691666Y-71108333D01*
X249739285Y-71060714D01*
X249786904Y-70965476D01*
X249786904Y-70917857D01*
X249739285Y-70822619D01*
X249691666Y-70775000D01*
X249596428Y-70727380D01*
X249405952Y-70727380D01*
X249310714Y-70775000D01*
X249263095Y-70822619D01*
X249215476Y-70917857D01*
X249215476Y-70965476D01*
X249263095Y-71060714D01*
X249310714Y-71108333D01*
X249405952Y-71155952D01*
X249596428Y-71155952D01*
X249691666Y-71203571D01*
X249739285Y-71251190D01*
X249786904Y-71346428D01*
X249786904Y-71536904D01*
X249739285Y-71632142D01*
X249691666Y-71679761D01*
X249596428Y-71727380D01*
X249405952Y-71727380D01*
X249310714Y-71679761D01*
X249263095Y-71632142D01*
X249215476Y-71536904D01*
X249215476Y-71346428D01*
X249263095Y-71251190D01*
X249310714Y-71203571D01*
X249405952Y-71155952D01*
X248310714Y-70727380D02*
X248786904Y-70727380D01*
X248834523Y-71203571D01*
X248786904Y-71155952D01*
X248691666Y-71108333D01*
X248453571Y-71108333D01*
X248358333Y-71155952D01*
X248310714Y-71203571D01*
X248263095Y-71298809D01*
X248263095Y-71536904D01*
X248310714Y-71632142D01*
X248358333Y-71679761D01*
X248453571Y-71727380D01*
X248691666Y-71727380D01*
X248786904Y-71679761D01*
X248834523Y-71632142D01*
%TO.C,C84*%
X240367857Y-72042142D02*
X240415476Y-72089761D01*
X240558333Y-72137380D01*
X240653571Y-72137380D01*
X240796428Y-72089761D01*
X240891666Y-71994523D01*
X240939285Y-71899285D01*
X240986904Y-71708809D01*
X240986904Y-71565952D01*
X240939285Y-71375476D01*
X240891666Y-71280238D01*
X240796428Y-71185000D01*
X240653571Y-71137380D01*
X240558333Y-71137380D01*
X240415476Y-71185000D01*
X240367857Y-71232619D01*
X239796428Y-71565952D02*
X239891666Y-71518333D01*
X239939285Y-71470714D01*
X239986904Y-71375476D01*
X239986904Y-71327857D01*
X239939285Y-71232619D01*
X239891666Y-71185000D01*
X239796428Y-71137380D01*
X239605952Y-71137380D01*
X239510714Y-71185000D01*
X239463095Y-71232619D01*
X239415476Y-71327857D01*
X239415476Y-71375476D01*
X239463095Y-71470714D01*
X239510714Y-71518333D01*
X239605952Y-71565952D01*
X239796428Y-71565952D01*
X239891666Y-71613571D01*
X239939285Y-71661190D01*
X239986904Y-71756428D01*
X239986904Y-71946904D01*
X239939285Y-72042142D01*
X239891666Y-72089761D01*
X239796428Y-72137380D01*
X239605952Y-72137380D01*
X239510714Y-72089761D01*
X239463095Y-72042142D01*
X239415476Y-71946904D01*
X239415476Y-71756428D01*
X239463095Y-71661190D01*
X239510714Y-71613571D01*
X239605952Y-71565952D01*
X238558333Y-71470714D02*
X238558333Y-72137380D01*
X238796428Y-71089761D02*
X239034523Y-71804047D01*
X238415476Y-71804047D01*
%TO.C,C83*%
X236867857Y-69747142D02*
X236915476Y-69794761D01*
X237058333Y-69842380D01*
X237153571Y-69842380D01*
X237296428Y-69794761D01*
X237391666Y-69699523D01*
X237439285Y-69604285D01*
X237486904Y-69413809D01*
X237486904Y-69270952D01*
X237439285Y-69080476D01*
X237391666Y-68985238D01*
X237296428Y-68890000D01*
X237153571Y-68842380D01*
X237058333Y-68842380D01*
X236915476Y-68890000D01*
X236867857Y-68937619D01*
X236296428Y-69270952D02*
X236391666Y-69223333D01*
X236439285Y-69175714D01*
X236486904Y-69080476D01*
X236486904Y-69032857D01*
X236439285Y-68937619D01*
X236391666Y-68890000D01*
X236296428Y-68842380D01*
X236105952Y-68842380D01*
X236010714Y-68890000D01*
X235963095Y-68937619D01*
X235915476Y-69032857D01*
X235915476Y-69080476D01*
X235963095Y-69175714D01*
X236010714Y-69223333D01*
X236105952Y-69270952D01*
X236296428Y-69270952D01*
X236391666Y-69318571D01*
X236439285Y-69366190D01*
X236486904Y-69461428D01*
X236486904Y-69651904D01*
X236439285Y-69747142D01*
X236391666Y-69794761D01*
X236296428Y-69842380D01*
X236105952Y-69842380D01*
X236010714Y-69794761D01*
X235963095Y-69747142D01*
X235915476Y-69651904D01*
X235915476Y-69461428D01*
X235963095Y-69366190D01*
X236010714Y-69318571D01*
X236105952Y-69270952D01*
X235582142Y-68842380D02*
X234963095Y-68842380D01*
X235296428Y-69223333D01*
X235153571Y-69223333D01*
X235058333Y-69270952D01*
X235010714Y-69318571D01*
X234963095Y-69413809D01*
X234963095Y-69651904D01*
X235010714Y-69747142D01*
X235058333Y-69794761D01*
X235153571Y-69842380D01*
X235439285Y-69842380D01*
X235534523Y-69794761D01*
X235582142Y-69747142D01*
%TO.C,C82*%
X236706786Y-66052350D02*
X236706786Y-66119694D01*
X236774130Y-66254381D01*
X236841473Y-66321724D01*
X236976160Y-66389068D01*
X237110847Y-66389068D01*
X237211862Y-66355396D01*
X237380221Y-66254381D01*
X237481236Y-66153366D01*
X237582252Y-65985007D01*
X237615923Y-65883992D01*
X237615923Y-65749305D01*
X237548580Y-65614618D01*
X237481236Y-65547274D01*
X237346549Y-65479931D01*
X237279206Y-65479931D01*
X236639443Y-65311572D02*
X236740458Y-65345243D01*
X236807801Y-65345243D01*
X236908817Y-65311572D01*
X236942488Y-65277900D01*
X236976160Y-65176885D01*
X236976160Y-65109541D01*
X236942488Y-65008526D01*
X236807801Y-64873839D01*
X236706786Y-64840167D01*
X236639443Y-64840167D01*
X236538427Y-64873839D01*
X236504756Y-64907511D01*
X236471084Y-65008526D01*
X236471084Y-65075869D01*
X236504756Y-65176885D01*
X236639443Y-65311572D01*
X236673114Y-65412587D01*
X236673114Y-65479931D01*
X236639443Y-65580946D01*
X236504756Y-65715633D01*
X236403740Y-65749305D01*
X236336397Y-65749305D01*
X236235381Y-65715633D01*
X236100694Y-65580946D01*
X236067023Y-65479931D01*
X236067023Y-65412587D01*
X236100694Y-65311572D01*
X236235381Y-65176885D01*
X236336397Y-65143213D01*
X236403740Y-65143213D01*
X236504756Y-65176885D01*
X236336397Y-64537121D02*
X236336397Y-64469778D01*
X236302725Y-64368763D01*
X236134366Y-64200404D01*
X236033351Y-64166732D01*
X235966007Y-64166732D01*
X235864992Y-64200404D01*
X235797649Y-64267747D01*
X235730305Y-64402434D01*
X235730305Y-65210556D01*
X235292572Y-64772824D01*
%TO.C,C81*%
X222807863Y-55572452D02*
X222807863Y-55639796D01*
X222875207Y-55774483D01*
X222942550Y-55841826D01*
X223077237Y-55909170D01*
X223211924Y-55909170D01*
X223312939Y-55875498D01*
X223481298Y-55774483D01*
X223582313Y-55673468D01*
X223683329Y-55505109D01*
X223717000Y-55404094D01*
X223717000Y-55269407D01*
X223649657Y-55134720D01*
X223582313Y-55067376D01*
X223447626Y-55000033D01*
X223380283Y-55000033D01*
X222740520Y-54831674D02*
X222841535Y-54865345D01*
X222908878Y-54865345D01*
X223009894Y-54831674D01*
X223043565Y-54798002D01*
X223077237Y-54696987D01*
X223077237Y-54629643D01*
X223043565Y-54528628D01*
X222908878Y-54393941D01*
X222807863Y-54360269D01*
X222740520Y-54360269D01*
X222639504Y-54393941D01*
X222605833Y-54427613D01*
X222572161Y-54528628D01*
X222572161Y-54595971D01*
X222605833Y-54696987D01*
X222740520Y-54831674D01*
X222774191Y-54932689D01*
X222774191Y-55000033D01*
X222740520Y-55101048D01*
X222605833Y-55235735D01*
X222504817Y-55269407D01*
X222437474Y-55269407D01*
X222336458Y-55235735D01*
X222201771Y-55101048D01*
X222168100Y-55000033D01*
X222168100Y-54932689D01*
X222201771Y-54831674D01*
X222336458Y-54696987D01*
X222437474Y-54663315D01*
X222504817Y-54663315D01*
X222605833Y-54696987D01*
X221393649Y-54292926D02*
X221797710Y-54696987D01*
X221595680Y-54494956D02*
X222302787Y-53787849D01*
X222269115Y-53956208D01*
X222269115Y-54090895D01*
X222302787Y-54191910D01*
%TO.C,C80*%
X224037725Y-55079825D02*
X224037725Y-55147169D01*
X224105069Y-55281856D01*
X224172412Y-55349199D01*
X224307099Y-55416543D01*
X224441786Y-55416543D01*
X224542801Y-55382871D01*
X224711160Y-55281856D01*
X224812175Y-55180841D01*
X224913191Y-55012482D01*
X224946862Y-54911467D01*
X224946862Y-54776780D01*
X224879519Y-54642093D01*
X224812175Y-54574749D01*
X224677488Y-54507406D01*
X224610145Y-54507406D01*
X223970382Y-54339047D02*
X224071397Y-54372718D01*
X224138740Y-54372718D01*
X224239756Y-54339047D01*
X224273427Y-54305375D01*
X224307099Y-54204360D01*
X224307099Y-54137016D01*
X224273427Y-54036001D01*
X224138740Y-53901314D01*
X224037725Y-53867642D01*
X223970382Y-53867642D01*
X223869366Y-53901314D01*
X223835695Y-53934986D01*
X223802023Y-54036001D01*
X223802023Y-54103344D01*
X223835695Y-54204360D01*
X223970382Y-54339047D01*
X224004053Y-54440062D01*
X224004053Y-54507406D01*
X223970382Y-54608421D01*
X223835695Y-54743108D01*
X223734679Y-54776780D01*
X223667336Y-54776780D01*
X223566320Y-54743108D01*
X223431633Y-54608421D01*
X223397962Y-54507406D01*
X223397962Y-54440062D01*
X223431633Y-54339047D01*
X223566320Y-54204360D01*
X223667336Y-54170688D01*
X223734679Y-54170688D01*
X223835695Y-54204360D01*
X223566320Y-53328894D02*
X223498977Y-53261551D01*
X223397962Y-53227879D01*
X223330618Y-53227879D01*
X223229603Y-53261551D01*
X223061244Y-53362566D01*
X222892885Y-53530925D01*
X222791870Y-53699283D01*
X222758198Y-53800299D01*
X222758198Y-53867642D01*
X222791870Y-53968657D01*
X222859214Y-54036001D01*
X222960229Y-54069673D01*
X223027572Y-54069673D01*
X223128588Y-54036001D01*
X223296946Y-53934986D01*
X223465305Y-53766627D01*
X223566320Y-53598268D01*
X223599992Y-53497253D01*
X223599992Y-53429909D01*
X223566320Y-53328894D01*
%TO.C,C79*%
X236144704Y-60106010D02*
X236212048Y-60106010D01*
X236346735Y-60038666D01*
X236414078Y-59971323D01*
X236481422Y-59836636D01*
X236481422Y-59701949D01*
X236447750Y-59600934D01*
X236346735Y-59432575D01*
X236245720Y-59331560D01*
X236077361Y-59230544D01*
X235976346Y-59196873D01*
X235841659Y-59196873D01*
X235706972Y-59264216D01*
X235639628Y-59331560D01*
X235572285Y-59466247D01*
X235572285Y-59533590D01*
X235269239Y-59701949D02*
X234797834Y-60173353D01*
X235807987Y-60577415D01*
X235201895Y-61183506D02*
X235067208Y-61318193D01*
X234966193Y-61351865D01*
X234898849Y-61351865D01*
X234730491Y-61318193D01*
X234562132Y-61217178D01*
X234292758Y-60947804D01*
X234259086Y-60846789D01*
X234259086Y-60779445D01*
X234292758Y-60678430D01*
X234427445Y-60543743D01*
X234528460Y-60510071D01*
X234595804Y-60510071D01*
X234696819Y-60543743D01*
X234865178Y-60712102D01*
X234898849Y-60813117D01*
X234898849Y-60880460D01*
X234865178Y-60981476D01*
X234730491Y-61116163D01*
X234629475Y-61149834D01*
X234562132Y-61149834D01*
X234461117Y-61116163D01*
%TO.C,C78*%
X237054217Y-61065522D02*
X237121561Y-61065522D01*
X237256248Y-60998178D01*
X237323591Y-60930835D01*
X237390935Y-60796148D01*
X237390935Y-60661461D01*
X237357263Y-60560446D01*
X237256248Y-60392087D01*
X237155233Y-60291072D01*
X236986874Y-60190056D01*
X236885859Y-60156385D01*
X236751172Y-60156385D01*
X236616485Y-60223728D01*
X236549141Y-60291072D01*
X236481798Y-60425759D01*
X236481798Y-60493102D01*
X236178752Y-60661461D02*
X235707347Y-61132865D01*
X236717500Y-61536927D01*
X235640004Y-61806301D02*
X235673675Y-61705285D01*
X235673675Y-61637942D01*
X235640004Y-61536927D01*
X235606332Y-61503255D01*
X235505317Y-61469583D01*
X235437973Y-61469583D01*
X235336958Y-61503255D01*
X235202271Y-61637942D01*
X235168599Y-61738957D01*
X235168599Y-61806301D01*
X235202271Y-61907316D01*
X235235943Y-61940988D01*
X235336958Y-61974659D01*
X235404301Y-61974659D01*
X235505317Y-61940988D01*
X235640004Y-61806301D01*
X235741019Y-61772629D01*
X235808362Y-61772629D01*
X235909378Y-61806301D01*
X236044065Y-61940988D01*
X236077736Y-62042003D01*
X236077736Y-62109346D01*
X236044065Y-62210362D01*
X235909378Y-62345049D01*
X235808362Y-62378720D01*
X235741019Y-62378720D01*
X235640004Y-62345049D01*
X235505317Y-62210362D01*
X235471645Y-62109346D01*
X235471645Y-62042003D01*
X235505317Y-61940988D01*
%TO.C,C77*%
X232551273Y-56638314D02*
X232618617Y-56638314D01*
X232753304Y-56570970D01*
X232820647Y-56503627D01*
X232887991Y-56368940D01*
X232887991Y-56234253D01*
X232854319Y-56133238D01*
X232753304Y-55964879D01*
X232652289Y-55863864D01*
X232483930Y-55762848D01*
X232382915Y-55729177D01*
X232248228Y-55729177D01*
X232113541Y-55796520D01*
X232046197Y-55863864D01*
X231978854Y-55998551D01*
X231978854Y-56065894D01*
X231675808Y-56234253D02*
X231204403Y-56705657D01*
X232214556Y-57109719D01*
X231002373Y-56907688D02*
X230530968Y-57379093D01*
X231541121Y-57783154D01*
%TO.C,C76*%
X232186720Y-69965918D02*
X232186720Y-70033262D01*
X232254064Y-70167949D01*
X232321407Y-70235292D01*
X232456094Y-70302636D01*
X232590781Y-70302636D01*
X232691796Y-70268964D01*
X232860155Y-70167949D01*
X232961170Y-70066934D01*
X233062186Y-69898575D01*
X233095857Y-69797560D01*
X233095857Y-69662873D01*
X233028514Y-69528186D01*
X232961170Y-69460842D01*
X232826483Y-69393499D01*
X232759140Y-69393499D01*
X232590781Y-69090453D02*
X232119377Y-68619048D01*
X231715315Y-69629201D01*
X231546957Y-68046628D02*
X231681644Y-68181315D01*
X231715315Y-68282331D01*
X231715315Y-68349674D01*
X231681644Y-68518033D01*
X231580628Y-68686392D01*
X231311254Y-68955766D01*
X231210239Y-68989437D01*
X231142896Y-68989437D01*
X231041880Y-68955766D01*
X230907193Y-68821079D01*
X230873522Y-68720063D01*
X230873522Y-68652720D01*
X230907193Y-68551705D01*
X231075552Y-68383346D01*
X231176567Y-68349674D01*
X231243911Y-68349674D01*
X231344926Y-68383346D01*
X231479613Y-68518033D01*
X231513285Y-68619048D01*
X231513285Y-68686392D01*
X231479613Y-68787407D01*
%TO.C,C75*%
X229572142Y-56377142D02*
X229619761Y-56329523D01*
X229667380Y-56186666D01*
X229667380Y-56091428D01*
X229619761Y-55948571D01*
X229524523Y-55853333D01*
X229429285Y-55805714D01*
X229238809Y-55758095D01*
X229095952Y-55758095D01*
X228905476Y-55805714D01*
X228810238Y-55853333D01*
X228715000Y-55948571D01*
X228667380Y-56091428D01*
X228667380Y-56186666D01*
X228715000Y-56329523D01*
X228762619Y-56377142D01*
X228667380Y-56710476D02*
X228667380Y-57377142D01*
X229667380Y-56948571D01*
X228667380Y-58234285D02*
X228667380Y-57758095D01*
X229143571Y-57710476D01*
X229095952Y-57758095D01*
X229048333Y-57853333D01*
X229048333Y-58091428D01*
X229095952Y-58186666D01*
X229143571Y-58234285D01*
X229238809Y-58281904D01*
X229476904Y-58281904D01*
X229572142Y-58234285D01*
X229619761Y-58186666D01*
X229667380Y-58091428D01*
X229667380Y-57853333D01*
X229619761Y-57758095D01*
X229572142Y-57710476D01*
%TO.C,C74*%
X228137857Y-60417142D02*
X228185476Y-60464761D01*
X228328333Y-60512380D01*
X228423571Y-60512380D01*
X228566428Y-60464761D01*
X228661666Y-60369523D01*
X228709285Y-60274285D01*
X228756904Y-60083809D01*
X228756904Y-59940952D01*
X228709285Y-59750476D01*
X228661666Y-59655238D01*
X228566428Y-59560000D01*
X228423571Y-59512380D01*
X228328333Y-59512380D01*
X228185476Y-59560000D01*
X228137857Y-59607619D01*
X227804523Y-59512380D02*
X227137857Y-59512380D01*
X227566428Y-60512380D01*
X226328333Y-59845714D02*
X226328333Y-60512380D01*
X226566428Y-59464761D02*
X226804523Y-60179047D01*
X226185476Y-60179047D01*
%TO.C,C73*%
X237539629Y-68303480D02*
X237539629Y-68370824D01*
X237606973Y-68505511D01*
X237674316Y-68572854D01*
X237809003Y-68640198D01*
X237943690Y-68640198D01*
X238044705Y-68606526D01*
X238213064Y-68505511D01*
X238314079Y-68404496D01*
X238415095Y-68236137D01*
X238448766Y-68135122D01*
X238448766Y-68000435D01*
X238381423Y-67865748D01*
X238314079Y-67798404D01*
X238179392Y-67731061D01*
X238112049Y-67731061D01*
X237943690Y-67428015D02*
X237472286Y-66956610D01*
X237068224Y-67966763D01*
X237270255Y-66754580D02*
X236832522Y-66316847D01*
X236798850Y-66821923D01*
X236697835Y-66720908D01*
X236596820Y-66687236D01*
X236529476Y-66687236D01*
X236428461Y-66720908D01*
X236260102Y-66889267D01*
X236226431Y-66990282D01*
X236226431Y-67057625D01*
X236260102Y-67158641D01*
X236462133Y-67360671D01*
X236563148Y-67394343D01*
X236630492Y-67394343D01*
%TO.C,C72*%
X238739629Y-67103481D02*
X238739629Y-67170825D01*
X238806973Y-67305512D01*
X238874316Y-67372855D01*
X239009003Y-67440199D01*
X239143690Y-67440199D01*
X239244705Y-67406527D01*
X239413064Y-67305512D01*
X239514079Y-67204497D01*
X239615095Y-67036138D01*
X239648766Y-66935123D01*
X239648766Y-66800436D01*
X239581423Y-66665749D01*
X239514079Y-66598405D01*
X239379392Y-66531062D01*
X239312049Y-66531062D01*
X239143690Y-66228016D02*
X238672286Y-65756611D01*
X238268224Y-66766764D01*
X238369240Y-65588252D02*
X238369240Y-65520909D01*
X238335568Y-65419894D01*
X238167209Y-65251535D01*
X238066194Y-65217863D01*
X237998850Y-65217863D01*
X237897835Y-65251535D01*
X237830492Y-65318878D01*
X237763148Y-65453565D01*
X237763148Y-66261687D01*
X237325415Y-65823955D01*
%TO.C,C60*%
X231322274Y-99236862D02*
X231322274Y-99304206D01*
X231389618Y-99438893D01*
X231456961Y-99506236D01*
X231591648Y-99573580D01*
X231726335Y-99573580D01*
X231827350Y-99539908D01*
X231995709Y-99438893D01*
X232096724Y-99337878D01*
X232197740Y-99169519D01*
X232231411Y-99068504D01*
X232231411Y-98933817D01*
X232164068Y-98799130D01*
X232096724Y-98731786D01*
X231962037Y-98664443D01*
X231894694Y-98664443D01*
X231355946Y-97991007D02*
X231490633Y-98125694D01*
X231524305Y-98226710D01*
X231524305Y-98294053D01*
X231490633Y-98462412D01*
X231389618Y-98630771D01*
X231120244Y-98900145D01*
X231019228Y-98933817D01*
X230951885Y-98933817D01*
X230850869Y-98900145D01*
X230716182Y-98765458D01*
X230682511Y-98664443D01*
X230682511Y-98597099D01*
X230716182Y-98496084D01*
X230884541Y-98327725D01*
X230985556Y-98294053D01*
X231052900Y-98294053D01*
X231153915Y-98327725D01*
X231288602Y-98462412D01*
X231322274Y-98563427D01*
X231322274Y-98630771D01*
X231288602Y-98731786D01*
X230850869Y-97485931D02*
X230783526Y-97418588D01*
X230682511Y-97384916D01*
X230615167Y-97384916D01*
X230514152Y-97418588D01*
X230345793Y-97519603D01*
X230177434Y-97687962D01*
X230076419Y-97856320D01*
X230042747Y-97957336D01*
X230042747Y-98024679D01*
X230076419Y-98125694D01*
X230143763Y-98193038D01*
X230244778Y-98226710D01*
X230312121Y-98226710D01*
X230413137Y-98193038D01*
X230581495Y-98092023D01*
X230749854Y-97923664D01*
X230850869Y-97755305D01*
X230884541Y-97654290D01*
X230884541Y-97586946D01*
X230850869Y-97485931D01*
%TO.C,C3*%
X233342142Y-75658333D02*
X233389761Y-75610714D01*
X233437380Y-75467857D01*
X233437380Y-75372619D01*
X233389761Y-75229761D01*
X233294523Y-75134523D01*
X233199285Y-75086904D01*
X233008809Y-75039285D01*
X232865952Y-75039285D01*
X232675476Y-75086904D01*
X232580238Y-75134523D01*
X232485000Y-75229761D01*
X232437380Y-75372619D01*
X232437380Y-75467857D01*
X232485000Y-75610714D01*
X232532619Y-75658333D01*
X232437380Y-75991666D02*
X232437380Y-76610714D01*
X232818333Y-76277380D01*
X232818333Y-76420238D01*
X232865952Y-76515476D01*
X232913571Y-76563095D01*
X233008809Y-76610714D01*
X233246904Y-76610714D01*
X233342142Y-76563095D01*
X233389761Y-76515476D01*
X233437380Y-76420238D01*
X233437380Y-76134523D01*
X233389761Y-76039285D01*
X233342142Y-75991666D01*
%TO.C,C1*%
X239891666Y-102122142D02*
X239939285Y-102169761D01*
X240082142Y-102217380D01*
X240177380Y-102217380D01*
X240320238Y-102169761D01*
X240415476Y-102074523D01*
X240463095Y-101979285D01*
X240510714Y-101788809D01*
X240510714Y-101645952D01*
X240463095Y-101455476D01*
X240415476Y-101360238D01*
X240320238Y-101265000D01*
X240177380Y-101217380D01*
X240082142Y-101217380D01*
X239939285Y-101265000D01*
X239891666Y-101312619D01*
X238939285Y-102217380D02*
X239510714Y-102217380D01*
X239225000Y-102217380D02*
X239225000Y-101217380D01*
X239320238Y-101360238D01*
X239415476Y-101455476D01*
X239510714Y-101503095D01*
%TD*%
M02*
