%TF.GenerationSoftware,KiCad,Pcbnew,(5.1.9)-1*%
%TF.CreationDate,2021-07-25T18:06:35+01:00*%
%TF.ProjectId,P205,50323035-2e6b-4696-9361-645f70636258,rev?*%
%TF.SameCoordinates,Original*%
%TF.FileFunction,Paste,Top*%
%TF.FilePolarity,Positive*%
%FSLAX46Y46*%
G04 Gerber Fmt 4.6, Leading zero omitted, Abs format (unit mm)*
G04 Created by KiCad (PCBNEW (5.1.9)-1) date 2021-07-25 18:06:35*
%MOMM*%
%LPD*%
G01*
G04 APERTURE LIST*
%ADD10R,1.760000X1.760000*%
%ADD11R,0.300000X0.800000*%
%ADD12R,0.800000X0.300000*%
%ADD13R,1.000000X1.000000*%
%ADD14R,1.400000X0.300000*%
%ADD15R,2.000000X1.800000*%
%ADD16R,1.350000X1.000000*%
%ADD17C,0.418000*%
%ADD18R,1.000000X1.900000*%
%ADD19R,2.510000X1.000000*%
%ADD20R,1.200000X1.800000*%
%ADD21R,0.600000X1.550000*%
%ADD22R,0.325000X0.250000*%
%ADD23R,0.250000X0.200000*%
%ADD24R,0.650000X1.060000*%
%ADD25R,2.200000X1.000000*%
%ADD26R,1.800000X3.400000*%
%ADD27R,1.060000X0.650000*%
%ADD28R,1.450000X0.450000*%
%ADD29R,0.760000X0.430000*%
%ADD30R,0.800000X0.900000*%
%ADD31R,0.900000X0.800000*%
%ADD32R,0.300000X0.700000*%
%ADD33R,2.500000X1.800000*%
%ADD34R,0.600000X1.200000*%
%ADD35R,0.450000X0.600000*%
%ADD36R,1.800000X2.500000*%
%ADD37R,3.000000X0.650000*%
G04 APERTURE END LIST*
D10*
%TO.C,Z1*%
X247575000Y-45325000D03*
D11*
X246825000Y-43825000D03*
X247325000Y-43825000D03*
X247825000Y-43825000D03*
X248325000Y-43825000D03*
D12*
X249075000Y-44575000D03*
X249075000Y-45075000D03*
X249075000Y-45575000D03*
X249075000Y-46075000D03*
D11*
X248325000Y-46825000D03*
X247825000Y-46825000D03*
X247325000Y-46825000D03*
X246825000Y-46825000D03*
D12*
X246075000Y-46075000D03*
X246075000Y-45575000D03*
X246075000Y-45075000D03*
X246075000Y-44575000D03*
%TD*%
D13*
%TO.C,Y1*%
X253300000Y-78900000D03*
X253300000Y-80900000D03*
X253300000Y-84500000D03*
X248900000Y-84500000D03*
X248900000Y-80900000D03*
X248900000Y-78900000D03*
%TD*%
D14*
%TO.C,U5*%
X192175000Y-43625000D03*
X192175000Y-44125000D03*
X192175000Y-44625000D03*
X192175000Y-45125000D03*
X192175000Y-45625000D03*
X187775000Y-45625000D03*
X187775000Y-45125000D03*
X187775000Y-44625000D03*
X187775000Y-44125000D03*
X187775000Y-43625000D03*
%TD*%
D15*
%TO.C,S1*%
X174925000Y-18750000D03*
X174925000Y-26850000D03*
D16*
X178500000Y-24225000D03*
X178500000Y-22800000D03*
X178500000Y-21375000D03*
X171350000Y-24225000D03*
X171350000Y-22800000D03*
X171350000Y-21375000D03*
%TD*%
D17*
%TO.C,IC2*%
X207300000Y-100700000D03*
X206500000Y-100700000D03*
X205700000Y-100700000D03*
X204900000Y-100700000D03*
X204100000Y-100700000D03*
X203300000Y-100700000D03*
X202500000Y-100700000D03*
X201700000Y-100700000D03*
X207300000Y-99900000D03*
X206500000Y-99900000D03*
X205700000Y-99900000D03*
X204900000Y-99900000D03*
X204100000Y-99900000D03*
X203300000Y-99900000D03*
X202500000Y-99900000D03*
X201700000Y-99900000D03*
X207300000Y-99100000D03*
X206500000Y-99100000D03*
X205700000Y-99100000D03*
X204900000Y-99100000D03*
X204100000Y-99100000D03*
X203300000Y-99100000D03*
X202500000Y-99100000D03*
X201700000Y-99100000D03*
X207300000Y-98300000D03*
X206500000Y-98300000D03*
X205700000Y-98300000D03*
X204900000Y-98300000D03*
X204100000Y-98300000D03*
X203300000Y-98300000D03*
X202500000Y-98300000D03*
X201700000Y-98300000D03*
X207300000Y-97500000D03*
X206500000Y-97500000D03*
X205700000Y-97500000D03*
X204900000Y-97500000D03*
X204100000Y-97500000D03*
X203300000Y-97500000D03*
X202500000Y-97500000D03*
X201700000Y-97500000D03*
X207300000Y-96700000D03*
X206500000Y-96700000D03*
X205700000Y-96700000D03*
X204900000Y-96700000D03*
X204100000Y-96700000D03*
X203300000Y-96700000D03*
X202500000Y-96700000D03*
X201700000Y-96700000D03*
X207300000Y-95900000D03*
X206500000Y-95900000D03*
X205700000Y-95900000D03*
X204900000Y-95900000D03*
X204100000Y-95900000D03*
X203300000Y-95900000D03*
X202500000Y-95900000D03*
X201700000Y-95900000D03*
X207300000Y-95100000D03*
X206500000Y-95100000D03*
X205700000Y-95100000D03*
X204900000Y-95100000D03*
X204100000Y-95100000D03*
X203300000Y-95100000D03*
X202500000Y-95100000D03*
X201700000Y-95100000D03*
%TD*%
%TO.C,IC1*%
X207300000Y-82700000D03*
X206500000Y-82700000D03*
X205700000Y-82700000D03*
X204900000Y-82700000D03*
X204100000Y-82700000D03*
X203300000Y-82700000D03*
X202500000Y-82700000D03*
X201700000Y-82700000D03*
X207300000Y-81900000D03*
X206500000Y-81900000D03*
X205700000Y-81900000D03*
X204900000Y-81900000D03*
X204100000Y-81900000D03*
X203300000Y-81900000D03*
X202500000Y-81900000D03*
X201700000Y-81900000D03*
X207300000Y-81100000D03*
X206500000Y-81100000D03*
X205700000Y-81100000D03*
X204900000Y-81100000D03*
X204100000Y-81100000D03*
X203300000Y-81100000D03*
X202500000Y-81100000D03*
X201700000Y-81100000D03*
X207300000Y-80300000D03*
X206500000Y-80300000D03*
X205700000Y-80300000D03*
X204900000Y-80300000D03*
X204100000Y-80300000D03*
X203300000Y-80300000D03*
X202500000Y-80300000D03*
X201700000Y-80300000D03*
X207300000Y-79500000D03*
X206500000Y-79500000D03*
X205700000Y-79500000D03*
X204900000Y-79500000D03*
X204100000Y-79500000D03*
X203300000Y-79500000D03*
X202500000Y-79500000D03*
X201700000Y-79500000D03*
X207300000Y-78700000D03*
X206500000Y-78700000D03*
X205700000Y-78700000D03*
X204900000Y-78700000D03*
X204100000Y-78700000D03*
X203300000Y-78700000D03*
X202500000Y-78700000D03*
X201700000Y-78700000D03*
X207300000Y-77900000D03*
X206500000Y-77900000D03*
X205700000Y-77900000D03*
X204900000Y-77900000D03*
X204100000Y-77900000D03*
X203300000Y-77900000D03*
X202500000Y-77900000D03*
X201700000Y-77900000D03*
X207300000Y-77100000D03*
X206500000Y-77100000D03*
X205700000Y-77100000D03*
X204900000Y-77100000D03*
X204100000Y-77100000D03*
X203300000Y-77100000D03*
X202500000Y-77100000D03*
X201700000Y-77100000D03*
%TD*%
D18*
%TO.C,J7*%
X214785000Y-63225000D03*
X209705000Y-63225000D03*
X204625000Y-63225000D03*
X212245000Y-66525000D03*
X207165000Y-66525000D03*
%TD*%
%TO.C,J6*%
X251205000Y-110375000D03*
X246125000Y-110375000D03*
X241045000Y-110375000D03*
X248665000Y-113675000D03*
X243585000Y-113675000D03*
%TD*%
%TO.C,R68*%
G36*
G01*
X235210000Y-63185000D02*
X234840000Y-63185000D01*
G75*
G02*
X234705000Y-63050000I0J135000D01*
G01*
X234705000Y-62780000D01*
G75*
G02*
X234840000Y-62645000I135000J0D01*
G01*
X235210000Y-62645000D01*
G75*
G02*
X235345000Y-62780000I0J-135000D01*
G01*
X235345000Y-63050000D01*
G75*
G02*
X235210000Y-63185000I-135000J0D01*
G01*
G37*
G36*
G01*
X235210000Y-64205000D02*
X234840000Y-64205000D01*
G75*
G02*
X234705000Y-64070000I0J135000D01*
G01*
X234705000Y-63800000D01*
G75*
G02*
X234840000Y-63665000I135000J0D01*
G01*
X235210000Y-63665000D01*
G75*
G02*
X235345000Y-63800000I0J-135000D01*
G01*
X235345000Y-64070000D01*
G75*
G02*
X235210000Y-64205000I-135000J0D01*
G01*
G37*
%TD*%
D19*
%TO.C,U9*%
X212390000Y-43860000D03*
X212390000Y-48940000D03*
X212390000Y-54020000D03*
X212390000Y-59100000D03*
X215700000Y-46400000D03*
X215700000Y-51480000D03*
X215700000Y-56560000D03*
%TD*%
%TO.C,J9*%
X206900000Y-59300000D03*
X206900000Y-54220000D03*
X206900000Y-49140000D03*
X206900000Y-44060000D03*
X203590000Y-56760000D03*
X203590000Y-51680000D03*
X203590000Y-46600000D03*
%TD*%
D20*
%TO.C,J2*%
X245300000Y-33325000D03*
X250900000Y-33325000D03*
D21*
X246600000Y-37200000D03*
X247600000Y-37200000D03*
X248600000Y-37200000D03*
X249600000Y-37200000D03*
%TD*%
%TO.C,R84*%
G36*
G01*
X218380000Y-117635000D02*
X218380000Y-117265000D01*
G75*
G02*
X218515000Y-117130000I135000J0D01*
G01*
X218785000Y-117130000D01*
G75*
G02*
X218920000Y-117265000I0J-135000D01*
G01*
X218920000Y-117635000D01*
G75*
G02*
X218785000Y-117770000I-135000J0D01*
G01*
X218515000Y-117770000D01*
G75*
G02*
X218380000Y-117635000I0J135000D01*
G01*
G37*
G36*
G01*
X217360000Y-117635000D02*
X217360000Y-117265000D01*
G75*
G02*
X217495000Y-117130000I135000J0D01*
G01*
X217765000Y-117130000D01*
G75*
G02*
X217900000Y-117265000I0J-135000D01*
G01*
X217900000Y-117635000D01*
G75*
G02*
X217765000Y-117770000I-135000J0D01*
G01*
X217495000Y-117770000D01*
G75*
G02*
X217360000Y-117635000I0J135000D01*
G01*
G37*
%TD*%
%TO.C,R81*%
G36*
G01*
X218380000Y-118635000D02*
X218380000Y-118265000D01*
G75*
G02*
X218515000Y-118130000I135000J0D01*
G01*
X218785000Y-118130000D01*
G75*
G02*
X218920000Y-118265000I0J-135000D01*
G01*
X218920000Y-118635000D01*
G75*
G02*
X218785000Y-118770000I-135000J0D01*
G01*
X218515000Y-118770000D01*
G75*
G02*
X218380000Y-118635000I0J135000D01*
G01*
G37*
G36*
G01*
X217360000Y-118635000D02*
X217360000Y-118265000D01*
G75*
G02*
X217495000Y-118130000I135000J0D01*
G01*
X217765000Y-118130000D01*
G75*
G02*
X217900000Y-118265000I0J-135000D01*
G01*
X217900000Y-118635000D01*
G75*
G02*
X217765000Y-118770000I-135000J0D01*
G01*
X217495000Y-118770000D01*
G75*
G02*
X217360000Y-118635000I0J135000D01*
G01*
G37*
%TD*%
%TO.C,R79*%
G36*
G01*
X217900000Y-116255000D02*
X217900000Y-116625000D01*
G75*
G02*
X217765000Y-116760000I-135000J0D01*
G01*
X217495000Y-116760000D01*
G75*
G02*
X217360000Y-116625000I0J135000D01*
G01*
X217360000Y-116255000D01*
G75*
G02*
X217495000Y-116120000I135000J0D01*
G01*
X217765000Y-116120000D01*
G75*
G02*
X217900000Y-116255000I0J-135000D01*
G01*
G37*
G36*
G01*
X218920000Y-116255000D02*
X218920000Y-116625000D01*
G75*
G02*
X218785000Y-116760000I-135000J0D01*
G01*
X218515000Y-116760000D01*
G75*
G02*
X218380000Y-116625000I0J135000D01*
G01*
X218380000Y-116255000D01*
G75*
G02*
X218515000Y-116120000I135000J0D01*
G01*
X218785000Y-116120000D01*
G75*
G02*
X218920000Y-116255000I0J-135000D01*
G01*
G37*
%TD*%
%TO.C,R73*%
G36*
G01*
X217900000Y-119265000D02*
X217900000Y-119635000D01*
G75*
G02*
X217765000Y-119770000I-135000J0D01*
G01*
X217495000Y-119770000D01*
G75*
G02*
X217360000Y-119635000I0J135000D01*
G01*
X217360000Y-119265000D01*
G75*
G02*
X217495000Y-119130000I135000J0D01*
G01*
X217765000Y-119130000D01*
G75*
G02*
X217900000Y-119265000I0J-135000D01*
G01*
G37*
G36*
G01*
X218920000Y-119265000D02*
X218920000Y-119635000D01*
G75*
G02*
X218785000Y-119770000I-135000J0D01*
G01*
X218515000Y-119770000D01*
G75*
G02*
X218380000Y-119635000I0J135000D01*
G01*
X218380000Y-119265000D01*
G75*
G02*
X218515000Y-119130000I135000J0D01*
G01*
X218785000Y-119130000D01*
G75*
G02*
X218920000Y-119265000I0J-135000D01*
G01*
G37*
%TD*%
D22*
%TO.C,U15*%
X241200000Y-80400000D03*
X240912500Y-80900000D03*
X240912500Y-81400000D03*
X241487500Y-80900000D03*
X241487500Y-81400000D03*
%TD*%
D23*
%TO.C,U14*%
X242450000Y-80800000D03*
X242900000Y-80800000D03*
X242450000Y-80400000D03*
X242900000Y-80400000D03*
X242450000Y-80000000D03*
X242900000Y-80000000D03*
X242450000Y-79600000D03*
X242900000Y-79600000D03*
%TD*%
%TO.C,U12*%
G36*
G01*
X211135000Y-118640000D02*
X211135000Y-118840000D01*
G75*
G02*
X211035000Y-118940000I-100000J0D01*
G01*
X209760000Y-118940000D01*
G75*
G02*
X209660000Y-118840000I0J100000D01*
G01*
X209660000Y-118640000D01*
G75*
G02*
X209760000Y-118540000I100000J0D01*
G01*
X211035000Y-118540000D01*
G75*
G02*
X211135000Y-118640000I0J-100000D01*
G01*
G37*
G36*
G01*
X211135000Y-117990000D02*
X211135000Y-118190000D01*
G75*
G02*
X211035000Y-118290000I-100000J0D01*
G01*
X209760000Y-118290000D01*
G75*
G02*
X209660000Y-118190000I0J100000D01*
G01*
X209660000Y-117990000D01*
G75*
G02*
X209760000Y-117890000I100000J0D01*
G01*
X211035000Y-117890000D01*
G75*
G02*
X211135000Y-117990000I0J-100000D01*
G01*
G37*
G36*
G01*
X211135000Y-117340000D02*
X211135000Y-117540000D01*
G75*
G02*
X211035000Y-117640000I-100000J0D01*
G01*
X209760000Y-117640000D01*
G75*
G02*
X209660000Y-117540000I0J100000D01*
G01*
X209660000Y-117340000D01*
G75*
G02*
X209760000Y-117240000I100000J0D01*
G01*
X211035000Y-117240000D01*
G75*
G02*
X211135000Y-117340000I0J-100000D01*
G01*
G37*
G36*
G01*
X211135000Y-116690000D02*
X211135000Y-116890000D01*
G75*
G02*
X211035000Y-116990000I-100000J0D01*
G01*
X209760000Y-116990000D01*
G75*
G02*
X209660000Y-116890000I0J100000D01*
G01*
X209660000Y-116690000D01*
G75*
G02*
X209760000Y-116590000I100000J0D01*
G01*
X211035000Y-116590000D01*
G75*
G02*
X211135000Y-116690000I0J-100000D01*
G01*
G37*
G36*
G01*
X211135000Y-116040000D02*
X211135000Y-116240000D01*
G75*
G02*
X211035000Y-116340000I-100000J0D01*
G01*
X209760000Y-116340000D01*
G75*
G02*
X209660000Y-116240000I0J100000D01*
G01*
X209660000Y-116040000D01*
G75*
G02*
X209760000Y-115940000I100000J0D01*
G01*
X211035000Y-115940000D01*
G75*
G02*
X211135000Y-116040000I0J-100000D01*
G01*
G37*
G36*
G01*
X211135000Y-115390000D02*
X211135000Y-115590000D01*
G75*
G02*
X211035000Y-115690000I-100000J0D01*
G01*
X209760000Y-115690000D01*
G75*
G02*
X209660000Y-115590000I0J100000D01*
G01*
X209660000Y-115390000D01*
G75*
G02*
X209760000Y-115290000I100000J0D01*
G01*
X211035000Y-115290000D01*
G75*
G02*
X211135000Y-115390000I0J-100000D01*
G01*
G37*
G36*
G01*
X211135000Y-114740000D02*
X211135000Y-114940000D01*
G75*
G02*
X211035000Y-115040000I-100000J0D01*
G01*
X209760000Y-115040000D01*
G75*
G02*
X209660000Y-114940000I0J100000D01*
G01*
X209660000Y-114740000D01*
G75*
G02*
X209760000Y-114640000I100000J0D01*
G01*
X211035000Y-114640000D01*
G75*
G02*
X211135000Y-114740000I0J-100000D01*
G01*
G37*
G36*
G01*
X216860000Y-114740000D02*
X216860000Y-114940000D01*
G75*
G02*
X216760000Y-115040000I-100000J0D01*
G01*
X215485000Y-115040000D01*
G75*
G02*
X215385000Y-114940000I0J100000D01*
G01*
X215385000Y-114740000D01*
G75*
G02*
X215485000Y-114640000I100000J0D01*
G01*
X216760000Y-114640000D01*
G75*
G02*
X216860000Y-114740000I0J-100000D01*
G01*
G37*
G36*
G01*
X216860000Y-115390000D02*
X216860000Y-115590000D01*
G75*
G02*
X216760000Y-115690000I-100000J0D01*
G01*
X215485000Y-115690000D01*
G75*
G02*
X215385000Y-115590000I0J100000D01*
G01*
X215385000Y-115390000D01*
G75*
G02*
X215485000Y-115290000I100000J0D01*
G01*
X216760000Y-115290000D01*
G75*
G02*
X216860000Y-115390000I0J-100000D01*
G01*
G37*
G36*
G01*
X216860000Y-116040000D02*
X216860000Y-116240000D01*
G75*
G02*
X216760000Y-116340000I-100000J0D01*
G01*
X215485000Y-116340000D01*
G75*
G02*
X215385000Y-116240000I0J100000D01*
G01*
X215385000Y-116040000D01*
G75*
G02*
X215485000Y-115940000I100000J0D01*
G01*
X216760000Y-115940000D01*
G75*
G02*
X216860000Y-116040000I0J-100000D01*
G01*
G37*
G36*
G01*
X216860000Y-116690000D02*
X216860000Y-116890000D01*
G75*
G02*
X216760000Y-116990000I-100000J0D01*
G01*
X215485000Y-116990000D01*
G75*
G02*
X215385000Y-116890000I0J100000D01*
G01*
X215385000Y-116690000D01*
G75*
G02*
X215485000Y-116590000I100000J0D01*
G01*
X216760000Y-116590000D01*
G75*
G02*
X216860000Y-116690000I0J-100000D01*
G01*
G37*
G36*
G01*
X216860000Y-117340000D02*
X216860000Y-117540000D01*
G75*
G02*
X216760000Y-117640000I-100000J0D01*
G01*
X215485000Y-117640000D01*
G75*
G02*
X215385000Y-117540000I0J100000D01*
G01*
X215385000Y-117340000D01*
G75*
G02*
X215485000Y-117240000I100000J0D01*
G01*
X216760000Y-117240000D01*
G75*
G02*
X216860000Y-117340000I0J-100000D01*
G01*
G37*
G36*
G01*
X216860000Y-117990000D02*
X216860000Y-118190000D01*
G75*
G02*
X216760000Y-118290000I-100000J0D01*
G01*
X215485000Y-118290000D01*
G75*
G02*
X215385000Y-118190000I0J100000D01*
G01*
X215385000Y-117990000D01*
G75*
G02*
X215485000Y-117890000I100000J0D01*
G01*
X216760000Y-117890000D01*
G75*
G02*
X216860000Y-117990000I0J-100000D01*
G01*
G37*
G36*
G01*
X216860000Y-118640000D02*
X216860000Y-118840000D01*
G75*
G02*
X216760000Y-118940000I-100000J0D01*
G01*
X215485000Y-118940000D01*
G75*
G02*
X215385000Y-118840000I0J100000D01*
G01*
X215385000Y-118640000D01*
G75*
G02*
X215485000Y-118540000I100000J0D01*
G01*
X216760000Y-118540000D01*
G75*
G02*
X216860000Y-118640000I0J-100000D01*
G01*
G37*
%TD*%
D24*
%TO.C,U6*%
X184900000Y-41000000D03*
X185850000Y-41000000D03*
X183950000Y-41000000D03*
X183950000Y-38800000D03*
X184900000Y-38800000D03*
X185850000Y-38800000D03*
%TD*%
%TO.C,U4*%
G36*
G01*
X206975000Y-109000000D02*
X206975000Y-108700000D01*
G75*
G02*
X207125000Y-108550000I150000J0D01*
G01*
X208775000Y-108550000D01*
G75*
G02*
X208925000Y-108700000I0J-150000D01*
G01*
X208925000Y-109000000D01*
G75*
G02*
X208775000Y-109150000I-150000J0D01*
G01*
X207125000Y-109150000D01*
G75*
G02*
X206975000Y-109000000I0J150000D01*
G01*
G37*
G36*
G01*
X206975000Y-110270000D02*
X206975000Y-109970000D01*
G75*
G02*
X207125000Y-109820000I150000J0D01*
G01*
X208775000Y-109820000D01*
G75*
G02*
X208925000Y-109970000I0J-150000D01*
G01*
X208925000Y-110270000D01*
G75*
G02*
X208775000Y-110420000I-150000J0D01*
G01*
X207125000Y-110420000D01*
G75*
G02*
X206975000Y-110270000I0J150000D01*
G01*
G37*
G36*
G01*
X206975000Y-111540000D02*
X206975000Y-111240000D01*
G75*
G02*
X207125000Y-111090000I150000J0D01*
G01*
X208775000Y-111090000D01*
G75*
G02*
X208925000Y-111240000I0J-150000D01*
G01*
X208925000Y-111540000D01*
G75*
G02*
X208775000Y-111690000I-150000J0D01*
G01*
X207125000Y-111690000D01*
G75*
G02*
X206975000Y-111540000I0J150000D01*
G01*
G37*
G36*
G01*
X206975000Y-112810000D02*
X206975000Y-112510000D01*
G75*
G02*
X207125000Y-112360000I150000J0D01*
G01*
X208775000Y-112360000D01*
G75*
G02*
X208925000Y-112510000I0J-150000D01*
G01*
X208925000Y-112810000D01*
G75*
G02*
X208775000Y-112960000I-150000J0D01*
G01*
X207125000Y-112960000D01*
G75*
G02*
X206975000Y-112810000I0J150000D01*
G01*
G37*
G36*
G01*
X202025000Y-112810000D02*
X202025000Y-112510000D01*
G75*
G02*
X202175000Y-112360000I150000J0D01*
G01*
X203825000Y-112360000D01*
G75*
G02*
X203975000Y-112510000I0J-150000D01*
G01*
X203975000Y-112810000D01*
G75*
G02*
X203825000Y-112960000I-150000J0D01*
G01*
X202175000Y-112960000D01*
G75*
G02*
X202025000Y-112810000I0J150000D01*
G01*
G37*
G36*
G01*
X202025000Y-111540000D02*
X202025000Y-111240000D01*
G75*
G02*
X202175000Y-111090000I150000J0D01*
G01*
X203825000Y-111090000D01*
G75*
G02*
X203975000Y-111240000I0J-150000D01*
G01*
X203975000Y-111540000D01*
G75*
G02*
X203825000Y-111690000I-150000J0D01*
G01*
X202175000Y-111690000D01*
G75*
G02*
X202025000Y-111540000I0J150000D01*
G01*
G37*
G36*
G01*
X202025000Y-110270000D02*
X202025000Y-109970000D01*
G75*
G02*
X202175000Y-109820000I150000J0D01*
G01*
X203825000Y-109820000D01*
G75*
G02*
X203975000Y-109970000I0J-150000D01*
G01*
X203975000Y-110270000D01*
G75*
G02*
X203825000Y-110420000I-150000J0D01*
G01*
X202175000Y-110420000D01*
G75*
G02*
X202025000Y-110270000I0J150000D01*
G01*
G37*
G36*
G01*
X202025000Y-109000000D02*
X202025000Y-108700000D01*
G75*
G02*
X202175000Y-108550000I150000J0D01*
G01*
X203825000Y-108550000D01*
G75*
G02*
X203975000Y-108700000I0J-150000D01*
G01*
X203975000Y-109000000D01*
G75*
G02*
X203825000Y-109150000I-150000J0D01*
G01*
X202175000Y-109150000D01*
G75*
G02*
X202025000Y-109000000I0J150000D01*
G01*
G37*
%TD*%
D25*
%TO.C,U3*%
X244275000Y-62800000D03*
X244275000Y-65800000D03*
D26*
X250575000Y-65050000D03*
D25*
X244275000Y-64300000D03*
X244275000Y-67300000D03*
%TD*%
D27*
%TO.C,U2*%
X221250000Y-86325000D03*
X221250000Y-85375000D03*
X221250000Y-87275000D03*
X219050000Y-87275000D03*
X219050000Y-86325000D03*
X219050000Y-85375000D03*
%TD*%
D28*
%TO.C,U1*%
X211080000Y-92010000D03*
X211080000Y-91360000D03*
X211080000Y-90710000D03*
X211080000Y-90060000D03*
X215480000Y-90060000D03*
X215480000Y-90710000D03*
X215480000Y-91360000D03*
X215480000Y-92010000D03*
%TD*%
D29*
%TO.C,RN1*%
X187440000Y-49600000D03*
X187440000Y-47200000D03*
X188960000Y-47200000D03*
X188960000Y-49600000D03*
X187440000Y-48000000D03*
X188960000Y-48000000D03*
X187440000Y-48800000D03*
X188960000Y-48800000D03*
%TD*%
%TO.C,R105*%
G36*
G01*
X245805000Y-49260000D02*
X245805000Y-48890000D01*
G75*
G02*
X245940000Y-48755000I135000J0D01*
G01*
X246210000Y-48755000D01*
G75*
G02*
X246345000Y-48890000I0J-135000D01*
G01*
X246345000Y-49260000D01*
G75*
G02*
X246210000Y-49395000I-135000J0D01*
G01*
X245940000Y-49395000D01*
G75*
G02*
X245805000Y-49260000I0J135000D01*
G01*
G37*
G36*
G01*
X244785000Y-49260000D02*
X244785000Y-48890000D01*
G75*
G02*
X244920000Y-48755000I135000J0D01*
G01*
X245190000Y-48755000D01*
G75*
G02*
X245325000Y-48890000I0J-135000D01*
G01*
X245325000Y-49260000D01*
G75*
G02*
X245190000Y-49395000I-135000J0D01*
G01*
X244920000Y-49395000D01*
G75*
G02*
X244785000Y-49260000I0J135000D01*
G01*
G37*
%TD*%
%TO.C,R104*%
G36*
G01*
X212195000Y-94140000D02*
X212565000Y-94140000D01*
G75*
G02*
X212700000Y-94275000I0J-135000D01*
G01*
X212700000Y-94545000D01*
G75*
G02*
X212565000Y-94680000I-135000J0D01*
G01*
X212195000Y-94680000D01*
G75*
G02*
X212060000Y-94545000I0J135000D01*
G01*
X212060000Y-94275000D01*
G75*
G02*
X212195000Y-94140000I135000J0D01*
G01*
G37*
G36*
G01*
X212195000Y-93120000D02*
X212565000Y-93120000D01*
G75*
G02*
X212700000Y-93255000I0J-135000D01*
G01*
X212700000Y-93525000D01*
G75*
G02*
X212565000Y-93660000I-135000J0D01*
G01*
X212195000Y-93660000D01*
G75*
G02*
X212060000Y-93525000I0J135000D01*
G01*
X212060000Y-93255000D01*
G75*
G02*
X212195000Y-93120000I135000J0D01*
G01*
G37*
%TD*%
%TO.C,R103*%
G36*
G01*
X214565000Y-93670000D02*
X214195000Y-93670000D01*
G75*
G02*
X214060000Y-93535000I0J135000D01*
G01*
X214060000Y-93265000D01*
G75*
G02*
X214195000Y-93130000I135000J0D01*
G01*
X214565000Y-93130000D01*
G75*
G02*
X214700000Y-93265000I0J-135000D01*
G01*
X214700000Y-93535000D01*
G75*
G02*
X214565000Y-93670000I-135000J0D01*
G01*
G37*
G36*
G01*
X214565000Y-94690000D02*
X214195000Y-94690000D01*
G75*
G02*
X214060000Y-94555000I0J135000D01*
G01*
X214060000Y-94285000D01*
G75*
G02*
X214195000Y-94150000I135000J0D01*
G01*
X214565000Y-94150000D01*
G75*
G02*
X214700000Y-94285000I0J-135000D01*
G01*
X214700000Y-94555000D01*
G75*
G02*
X214565000Y-94690000I-135000J0D01*
G01*
G37*
%TD*%
%TO.C,R102*%
G36*
G01*
X196070000Y-115215000D02*
X196070000Y-115585000D01*
G75*
G02*
X195935000Y-115720000I-135000J0D01*
G01*
X195665000Y-115720000D01*
G75*
G02*
X195530000Y-115585000I0J135000D01*
G01*
X195530000Y-115215000D01*
G75*
G02*
X195665000Y-115080000I135000J0D01*
G01*
X195935000Y-115080000D01*
G75*
G02*
X196070000Y-115215000I0J-135000D01*
G01*
G37*
G36*
G01*
X197090000Y-115215000D02*
X197090000Y-115585000D01*
G75*
G02*
X196955000Y-115720000I-135000J0D01*
G01*
X196685000Y-115720000D01*
G75*
G02*
X196550000Y-115585000I0J135000D01*
G01*
X196550000Y-115215000D01*
G75*
G02*
X196685000Y-115080000I135000J0D01*
G01*
X196955000Y-115080000D01*
G75*
G02*
X197090000Y-115215000I0J-135000D01*
G01*
G37*
%TD*%
%TO.C,R101*%
G36*
G01*
X196450000Y-96885000D02*
X196450000Y-96515000D01*
G75*
G02*
X196585000Y-96380000I135000J0D01*
G01*
X196855000Y-96380000D01*
G75*
G02*
X196990000Y-96515000I0J-135000D01*
G01*
X196990000Y-96885000D01*
G75*
G02*
X196855000Y-97020000I-135000J0D01*
G01*
X196585000Y-97020000D01*
G75*
G02*
X196450000Y-96885000I0J135000D01*
G01*
G37*
G36*
G01*
X195430000Y-96885000D02*
X195430000Y-96515000D01*
G75*
G02*
X195565000Y-96380000I135000J0D01*
G01*
X195835000Y-96380000D01*
G75*
G02*
X195970000Y-96515000I0J-135000D01*
G01*
X195970000Y-96885000D01*
G75*
G02*
X195835000Y-97020000I-135000J0D01*
G01*
X195565000Y-97020000D01*
G75*
G02*
X195430000Y-96885000I0J135000D01*
G01*
G37*
%TD*%
%TO.C,R100*%
G36*
G01*
X251845000Y-53040000D02*
X251845000Y-53410000D01*
G75*
G02*
X251710000Y-53545000I-135000J0D01*
G01*
X251440000Y-53545000D01*
G75*
G02*
X251305000Y-53410000I0J135000D01*
G01*
X251305000Y-53040000D01*
G75*
G02*
X251440000Y-52905000I135000J0D01*
G01*
X251710000Y-52905000D01*
G75*
G02*
X251845000Y-53040000I0J-135000D01*
G01*
G37*
G36*
G01*
X252865000Y-53040000D02*
X252865000Y-53410000D01*
G75*
G02*
X252730000Y-53545000I-135000J0D01*
G01*
X252460000Y-53545000D01*
G75*
G02*
X252325000Y-53410000I0J135000D01*
G01*
X252325000Y-53040000D01*
G75*
G02*
X252460000Y-52905000I135000J0D01*
G01*
X252730000Y-52905000D01*
G75*
G02*
X252865000Y-53040000I0J-135000D01*
G01*
G37*
%TD*%
%TO.C,R82*%
G36*
G01*
X245325000Y-47840000D02*
X245325000Y-48210000D01*
G75*
G02*
X245190000Y-48345000I-135000J0D01*
G01*
X244920000Y-48345000D01*
G75*
G02*
X244785000Y-48210000I0J135000D01*
G01*
X244785000Y-47840000D01*
G75*
G02*
X244920000Y-47705000I135000J0D01*
G01*
X245190000Y-47705000D01*
G75*
G02*
X245325000Y-47840000I0J-135000D01*
G01*
G37*
G36*
G01*
X246345000Y-47840000D02*
X246345000Y-48210000D01*
G75*
G02*
X246210000Y-48345000I-135000J0D01*
G01*
X245940000Y-48345000D01*
G75*
G02*
X245805000Y-48210000I0J135000D01*
G01*
X245805000Y-47840000D01*
G75*
G02*
X245940000Y-47705000I135000J0D01*
G01*
X246210000Y-47705000D01*
G75*
G02*
X246345000Y-47840000I0J-135000D01*
G01*
G37*
%TD*%
%TO.C,R80*%
G36*
G01*
X248910000Y-48775000D02*
X249280000Y-48775000D01*
G75*
G02*
X249415000Y-48910000I0J-135000D01*
G01*
X249415000Y-49180000D01*
G75*
G02*
X249280000Y-49315000I-135000J0D01*
G01*
X248910000Y-49315000D01*
G75*
G02*
X248775000Y-49180000I0J135000D01*
G01*
X248775000Y-48910000D01*
G75*
G02*
X248910000Y-48775000I135000J0D01*
G01*
G37*
G36*
G01*
X248910000Y-47755000D02*
X249280000Y-47755000D01*
G75*
G02*
X249415000Y-47890000I0J-135000D01*
G01*
X249415000Y-48160000D01*
G75*
G02*
X249280000Y-48295000I-135000J0D01*
G01*
X248910000Y-48295000D01*
G75*
G02*
X248775000Y-48160000I0J135000D01*
G01*
X248775000Y-47890000D01*
G75*
G02*
X248910000Y-47755000I135000J0D01*
G01*
G37*
%TD*%
%TO.C,R71*%
G36*
G01*
X180550000Y-25390000D02*
X180550000Y-25760000D01*
G75*
G02*
X180415000Y-25895000I-135000J0D01*
G01*
X180145000Y-25895000D01*
G75*
G02*
X180010000Y-25760000I0J135000D01*
G01*
X180010000Y-25390000D01*
G75*
G02*
X180145000Y-25255000I135000J0D01*
G01*
X180415000Y-25255000D01*
G75*
G02*
X180550000Y-25390000I0J-135000D01*
G01*
G37*
G36*
G01*
X181570000Y-25390000D02*
X181570000Y-25760000D01*
G75*
G02*
X181435000Y-25895000I-135000J0D01*
G01*
X181165000Y-25895000D01*
G75*
G02*
X181030000Y-25760000I0J135000D01*
G01*
X181030000Y-25390000D01*
G75*
G02*
X181165000Y-25255000I135000J0D01*
G01*
X181435000Y-25255000D01*
G75*
G02*
X181570000Y-25390000I0J-135000D01*
G01*
G37*
%TD*%
%TO.C,R70*%
G36*
G01*
X180450000Y-19515000D02*
X180450000Y-19885000D01*
G75*
G02*
X180315000Y-20020000I-135000J0D01*
G01*
X180045000Y-20020000D01*
G75*
G02*
X179910000Y-19885000I0J135000D01*
G01*
X179910000Y-19515000D01*
G75*
G02*
X180045000Y-19380000I135000J0D01*
G01*
X180315000Y-19380000D01*
G75*
G02*
X180450000Y-19515000I0J-135000D01*
G01*
G37*
G36*
G01*
X181470000Y-19515000D02*
X181470000Y-19885000D01*
G75*
G02*
X181335000Y-20020000I-135000J0D01*
G01*
X181065000Y-20020000D01*
G75*
G02*
X180930000Y-19885000I0J135000D01*
G01*
X180930000Y-19515000D01*
G75*
G02*
X181065000Y-19380000I135000J0D01*
G01*
X181335000Y-19380000D01*
G75*
G02*
X181470000Y-19515000I0J-135000D01*
G01*
G37*
%TD*%
%TO.C,R69*%
G36*
G01*
X168550000Y-24115000D02*
X168550000Y-24485000D01*
G75*
G02*
X168415000Y-24620000I-135000J0D01*
G01*
X168145000Y-24620000D01*
G75*
G02*
X168010000Y-24485000I0J135000D01*
G01*
X168010000Y-24115000D01*
G75*
G02*
X168145000Y-23980000I135000J0D01*
G01*
X168415000Y-23980000D01*
G75*
G02*
X168550000Y-24115000I0J-135000D01*
G01*
G37*
G36*
G01*
X169570000Y-24115000D02*
X169570000Y-24485000D01*
G75*
G02*
X169435000Y-24620000I-135000J0D01*
G01*
X169165000Y-24620000D01*
G75*
G02*
X169030000Y-24485000I0J135000D01*
G01*
X169030000Y-24115000D01*
G75*
G02*
X169165000Y-23980000I135000J0D01*
G01*
X169435000Y-23980000D01*
G75*
G02*
X169570000Y-24115000I0J-135000D01*
G01*
G37*
%TD*%
%TO.C,R67*%
G36*
G01*
X168560000Y-22615000D02*
X168560000Y-22985000D01*
G75*
G02*
X168425000Y-23120000I-135000J0D01*
G01*
X168155000Y-23120000D01*
G75*
G02*
X168020000Y-22985000I0J135000D01*
G01*
X168020000Y-22615000D01*
G75*
G02*
X168155000Y-22480000I135000J0D01*
G01*
X168425000Y-22480000D01*
G75*
G02*
X168560000Y-22615000I0J-135000D01*
G01*
G37*
G36*
G01*
X169580000Y-22615000D02*
X169580000Y-22985000D01*
G75*
G02*
X169445000Y-23120000I-135000J0D01*
G01*
X169175000Y-23120000D01*
G75*
G02*
X169040000Y-22985000I0J135000D01*
G01*
X169040000Y-22615000D01*
G75*
G02*
X169175000Y-22480000I135000J0D01*
G01*
X169445000Y-22480000D01*
G75*
G02*
X169580000Y-22615000I0J-135000D01*
G01*
G37*
%TD*%
%TO.C,R66*%
G36*
G01*
X168560000Y-21215000D02*
X168560000Y-21585000D01*
G75*
G02*
X168425000Y-21720000I-135000J0D01*
G01*
X168155000Y-21720000D01*
G75*
G02*
X168020000Y-21585000I0J135000D01*
G01*
X168020000Y-21215000D01*
G75*
G02*
X168155000Y-21080000I135000J0D01*
G01*
X168425000Y-21080000D01*
G75*
G02*
X168560000Y-21215000I0J-135000D01*
G01*
G37*
G36*
G01*
X169580000Y-21215000D02*
X169580000Y-21585000D01*
G75*
G02*
X169445000Y-21720000I-135000J0D01*
G01*
X169175000Y-21720000D01*
G75*
G02*
X169040000Y-21585000I0J135000D01*
G01*
X169040000Y-21215000D01*
G75*
G02*
X169175000Y-21080000I135000J0D01*
G01*
X169445000Y-21080000D01*
G75*
G02*
X169580000Y-21215000I0J-135000D01*
G01*
G37*
%TD*%
%TO.C,R65*%
G36*
G01*
X235040000Y-59575000D02*
X235410000Y-59575000D01*
G75*
G02*
X235545000Y-59710000I0J-135000D01*
G01*
X235545000Y-59980000D01*
G75*
G02*
X235410000Y-60115000I-135000J0D01*
G01*
X235040000Y-60115000D01*
G75*
G02*
X234905000Y-59980000I0J135000D01*
G01*
X234905000Y-59710000D01*
G75*
G02*
X235040000Y-59575000I135000J0D01*
G01*
G37*
G36*
G01*
X235040000Y-58555000D02*
X235410000Y-58555000D01*
G75*
G02*
X235545000Y-58690000I0J-135000D01*
G01*
X235545000Y-58960000D01*
G75*
G02*
X235410000Y-59095000I-135000J0D01*
G01*
X235040000Y-59095000D01*
G75*
G02*
X234905000Y-58960000I0J135000D01*
G01*
X234905000Y-58690000D01*
G75*
G02*
X235040000Y-58555000I135000J0D01*
G01*
G37*
%TD*%
%TO.C,R64*%
G36*
G01*
X235040000Y-57615000D02*
X235410000Y-57615000D01*
G75*
G02*
X235545000Y-57750000I0J-135000D01*
G01*
X235545000Y-58020000D01*
G75*
G02*
X235410000Y-58155000I-135000J0D01*
G01*
X235040000Y-58155000D01*
G75*
G02*
X234905000Y-58020000I0J135000D01*
G01*
X234905000Y-57750000D01*
G75*
G02*
X235040000Y-57615000I135000J0D01*
G01*
G37*
G36*
G01*
X235040000Y-56595000D02*
X235410000Y-56595000D01*
G75*
G02*
X235545000Y-56730000I0J-135000D01*
G01*
X235545000Y-57000000D01*
G75*
G02*
X235410000Y-57135000I-135000J0D01*
G01*
X235040000Y-57135000D01*
G75*
G02*
X234905000Y-57000000I0J135000D01*
G01*
X234905000Y-56730000D01*
G75*
G02*
X235040000Y-56595000I135000J0D01*
G01*
G37*
%TD*%
%TO.C,R62*%
G36*
G01*
X241385000Y-51895000D02*
X241015000Y-51895000D01*
G75*
G02*
X240880000Y-51760000I0J135000D01*
G01*
X240880000Y-51490000D01*
G75*
G02*
X241015000Y-51355000I135000J0D01*
G01*
X241385000Y-51355000D01*
G75*
G02*
X241520000Y-51490000I0J-135000D01*
G01*
X241520000Y-51760000D01*
G75*
G02*
X241385000Y-51895000I-135000J0D01*
G01*
G37*
G36*
G01*
X241385000Y-52915000D02*
X241015000Y-52915000D01*
G75*
G02*
X240880000Y-52780000I0J135000D01*
G01*
X240880000Y-52510000D01*
G75*
G02*
X241015000Y-52375000I135000J0D01*
G01*
X241385000Y-52375000D01*
G75*
G02*
X241520000Y-52510000I0J-135000D01*
G01*
X241520000Y-52780000D01*
G75*
G02*
X241385000Y-52915000I-135000J0D01*
G01*
G37*
%TD*%
%TO.C,R61*%
G36*
G01*
X240950000Y-53540000D02*
X240950000Y-53910000D01*
G75*
G02*
X240815000Y-54045000I-135000J0D01*
G01*
X240545000Y-54045000D01*
G75*
G02*
X240410000Y-53910000I0J135000D01*
G01*
X240410000Y-53540000D01*
G75*
G02*
X240545000Y-53405000I135000J0D01*
G01*
X240815000Y-53405000D01*
G75*
G02*
X240950000Y-53540000I0J-135000D01*
G01*
G37*
G36*
G01*
X241970000Y-53540000D02*
X241970000Y-53910000D01*
G75*
G02*
X241835000Y-54045000I-135000J0D01*
G01*
X241565000Y-54045000D01*
G75*
G02*
X241430000Y-53910000I0J135000D01*
G01*
X241430000Y-53540000D01*
G75*
G02*
X241565000Y-53405000I135000J0D01*
G01*
X241835000Y-53405000D01*
G75*
G02*
X241970000Y-53540000I0J-135000D01*
G01*
G37*
%TD*%
%TO.C,R60*%
G36*
G01*
X247890000Y-48765000D02*
X248260000Y-48765000D01*
G75*
G02*
X248395000Y-48900000I0J-135000D01*
G01*
X248395000Y-49170000D01*
G75*
G02*
X248260000Y-49305000I-135000J0D01*
G01*
X247890000Y-49305000D01*
G75*
G02*
X247755000Y-49170000I0J135000D01*
G01*
X247755000Y-48900000D01*
G75*
G02*
X247890000Y-48765000I135000J0D01*
G01*
G37*
G36*
G01*
X247890000Y-47745000D02*
X248260000Y-47745000D01*
G75*
G02*
X248395000Y-47880000I0J-135000D01*
G01*
X248395000Y-48150000D01*
G75*
G02*
X248260000Y-48285000I-135000J0D01*
G01*
X247890000Y-48285000D01*
G75*
G02*
X247755000Y-48150000I0J135000D01*
G01*
X247755000Y-47880000D01*
G75*
G02*
X247890000Y-47745000I135000J0D01*
G01*
G37*
%TD*%
%TO.C,R59*%
G36*
G01*
X243815000Y-48730001D02*
X244185000Y-48730001D01*
G75*
G02*
X244320000Y-48865001I0J-135000D01*
G01*
X244320000Y-49135001D01*
G75*
G02*
X244185000Y-49270001I-135000J0D01*
G01*
X243815000Y-49270001D01*
G75*
G02*
X243680000Y-49135001I0J135000D01*
G01*
X243680000Y-48865001D01*
G75*
G02*
X243815000Y-48730001I135000J0D01*
G01*
G37*
G36*
G01*
X243815000Y-47710001D02*
X244185000Y-47710001D01*
G75*
G02*
X244320000Y-47845001I0J-135000D01*
G01*
X244320000Y-48115001D01*
G75*
G02*
X244185000Y-48250001I-135000J0D01*
G01*
X243815000Y-48250001D01*
G75*
G02*
X243680000Y-48115001I0J135000D01*
G01*
X243680000Y-47845001D01*
G75*
G02*
X243815000Y-47710001I135000J0D01*
G01*
G37*
%TD*%
%TO.C,R57*%
G36*
G01*
X187115000Y-42040000D02*
X187485000Y-42040000D01*
G75*
G02*
X187620000Y-42175000I0J-135000D01*
G01*
X187620000Y-42445000D01*
G75*
G02*
X187485000Y-42580000I-135000J0D01*
G01*
X187115000Y-42580000D01*
G75*
G02*
X186980000Y-42445000I0J135000D01*
G01*
X186980000Y-42175000D01*
G75*
G02*
X187115000Y-42040000I135000J0D01*
G01*
G37*
G36*
G01*
X187115000Y-41020000D02*
X187485000Y-41020000D01*
G75*
G02*
X187620000Y-41155000I0J-135000D01*
G01*
X187620000Y-41425000D01*
G75*
G02*
X187485000Y-41560000I-135000J0D01*
G01*
X187115000Y-41560000D01*
G75*
G02*
X186980000Y-41425000I0J135000D01*
G01*
X186980000Y-41155000D01*
G75*
G02*
X187115000Y-41020000I135000J0D01*
G01*
G37*
%TD*%
%TO.C,R56*%
G36*
G01*
X217195000Y-96290000D02*
X217565000Y-96290000D01*
G75*
G02*
X217700000Y-96425000I0J-135000D01*
G01*
X217700000Y-96695000D01*
G75*
G02*
X217565000Y-96830000I-135000J0D01*
G01*
X217195000Y-96830000D01*
G75*
G02*
X217060000Y-96695000I0J135000D01*
G01*
X217060000Y-96425000D01*
G75*
G02*
X217195000Y-96290000I135000J0D01*
G01*
G37*
G36*
G01*
X217195000Y-95270000D02*
X217565000Y-95270000D01*
G75*
G02*
X217700000Y-95405000I0J-135000D01*
G01*
X217700000Y-95675000D01*
G75*
G02*
X217565000Y-95810000I-135000J0D01*
G01*
X217195000Y-95810000D01*
G75*
G02*
X217060000Y-95675000I0J135000D01*
G01*
X217060000Y-95405000D01*
G75*
G02*
X217195000Y-95270000I135000J0D01*
G01*
G37*
%TD*%
%TO.C,R55*%
G36*
G01*
X216095000Y-96290000D02*
X216465000Y-96290000D01*
G75*
G02*
X216600000Y-96425000I0J-135000D01*
G01*
X216600000Y-96695000D01*
G75*
G02*
X216465000Y-96830000I-135000J0D01*
G01*
X216095000Y-96830000D01*
G75*
G02*
X215960000Y-96695000I0J135000D01*
G01*
X215960000Y-96425000D01*
G75*
G02*
X216095000Y-96290000I135000J0D01*
G01*
G37*
G36*
G01*
X216095000Y-95270000D02*
X216465000Y-95270000D01*
G75*
G02*
X216600000Y-95405000I0J-135000D01*
G01*
X216600000Y-95675000D01*
G75*
G02*
X216465000Y-95810000I-135000J0D01*
G01*
X216095000Y-95810000D01*
G75*
G02*
X215960000Y-95675000I0J135000D01*
G01*
X215960000Y-95405000D01*
G75*
G02*
X216095000Y-95270000I135000J0D01*
G01*
G37*
%TD*%
%TO.C,R54*%
G36*
G01*
X218295000Y-96310000D02*
X218665000Y-96310000D01*
G75*
G02*
X218800000Y-96445000I0J-135000D01*
G01*
X218800000Y-96715000D01*
G75*
G02*
X218665000Y-96850000I-135000J0D01*
G01*
X218295000Y-96850000D01*
G75*
G02*
X218160000Y-96715000I0J135000D01*
G01*
X218160000Y-96445000D01*
G75*
G02*
X218295000Y-96310000I135000J0D01*
G01*
G37*
G36*
G01*
X218295000Y-95290000D02*
X218665000Y-95290000D01*
G75*
G02*
X218800000Y-95425000I0J-135000D01*
G01*
X218800000Y-95695000D01*
G75*
G02*
X218665000Y-95830000I-135000J0D01*
G01*
X218295000Y-95830000D01*
G75*
G02*
X218160000Y-95695000I0J135000D01*
G01*
X218160000Y-95425000D01*
G75*
G02*
X218295000Y-95290000I135000J0D01*
G01*
G37*
%TD*%
%TO.C,R53*%
G36*
G01*
X211185000Y-81570000D02*
X210815000Y-81570000D01*
G75*
G02*
X210680000Y-81435000I0J135000D01*
G01*
X210680000Y-81165000D01*
G75*
G02*
X210815000Y-81030000I135000J0D01*
G01*
X211185000Y-81030000D01*
G75*
G02*
X211320000Y-81165000I0J-135000D01*
G01*
X211320000Y-81435000D01*
G75*
G02*
X211185000Y-81570000I-135000J0D01*
G01*
G37*
G36*
G01*
X211185000Y-82590000D02*
X210815000Y-82590000D01*
G75*
G02*
X210680000Y-82455000I0J135000D01*
G01*
X210680000Y-82185000D01*
G75*
G02*
X210815000Y-82050000I135000J0D01*
G01*
X211185000Y-82050000D01*
G75*
G02*
X211320000Y-82185000I0J-135000D01*
G01*
X211320000Y-82455000D01*
G75*
G02*
X211185000Y-82590000I-135000J0D01*
G01*
G37*
%TD*%
%TO.C,R52*%
G36*
G01*
X201345000Y-110910000D02*
X200975000Y-110910000D01*
G75*
G02*
X200840000Y-110775000I0J135000D01*
G01*
X200840000Y-110505000D01*
G75*
G02*
X200975000Y-110370000I135000J0D01*
G01*
X201345000Y-110370000D01*
G75*
G02*
X201480000Y-110505000I0J-135000D01*
G01*
X201480000Y-110775000D01*
G75*
G02*
X201345000Y-110910000I-135000J0D01*
G01*
G37*
G36*
G01*
X201345000Y-111930000D02*
X200975000Y-111930000D01*
G75*
G02*
X200840000Y-111795000I0J135000D01*
G01*
X200840000Y-111525000D01*
G75*
G02*
X200975000Y-111390000I135000J0D01*
G01*
X201345000Y-111390000D01*
G75*
G02*
X201480000Y-111525000I0J-135000D01*
G01*
X201480000Y-111795000D01*
G75*
G02*
X201345000Y-111930000I-135000J0D01*
G01*
G37*
%TD*%
%TO.C,R51*%
G36*
G01*
X210085000Y-112460000D02*
X209715000Y-112460000D01*
G75*
G02*
X209580000Y-112325000I0J135000D01*
G01*
X209580000Y-112055000D01*
G75*
G02*
X209715000Y-111920000I135000J0D01*
G01*
X210085000Y-111920000D01*
G75*
G02*
X210220000Y-112055000I0J-135000D01*
G01*
X210220000Y-112325000D01*
G75*
G02*
X210085000Y-112460000I-135000J0D01*
G01*
G37*
G36*
G01*
X210085000Y-113480000D02*
X209715000Y-113480000D01*
G75*
G02*
X209580000Y-113345000I0J135000D01*
G01*
X209580000Y-113075000D01*
G75*
G02*
X209715000Y-112940000I135000J0D01*
G01*
X210085000Y-112940000D01*
G75*
G02*
X210220000Y-113075000I0J-135000D01*
G01*
X210220000Y-113345000D01*
G75*
G02*
X210085000Y-113480000I-135000J0D01*
G01*
G37*
%TD*%
%TO.C,R50*%
G36*
G01*
X201345000Y-108930000D02*
X200975000Y-108930000D01*
G75*
G02*
X200840000Y-108795000I0J135000D01*
G01*
X200840000Y-108525000D01*
G75*
G02*
X200975000Y-108390000I135000J0D01*
G01*
X201345000Y-108390000D01*
G75*
G02*
X201480000Y-108525000I0J-135000D01*
G01*
X201480000Y-108795000D01*
G75*
G02*
X201345000Y-108930000I-135000J0D01*
G01*
G37*
G36*
G01*
X201345000Y-109950000D02*
X200975000Y-109950000D01*
G75*
G02*
X200840000Y-109815000I0J135000D01*
G01*
X200840000Y-109545000D01*
G75*
G02*
X200975000Y-109410000I135000J0D01*
G01*
X201345000Y-109410000D01*
G75*
G02*
X201480000Y-109545000I0J-135000D01*
G01*
X201480000Y-109815000D01*
G75*
G02*
X201345000Y-109950000I-135000J0D01*
G01*
G37*
%TD*%
%TO.C,R49*%
G36*
G01*
X210085000Y-110460000D02*
X209715000Y-110460000D01*
G75*
G02*
X209580000Y-110325000I0J135000D01*
G01*
X209580000Y-110055000D01*
G75*
G02*
X209715000Y-109920000I135000J0D01*
G01*
X210085000Y-109920000D01*
G75*
G02*
X210220000Y-110055000I0J-135000D01*
G01*
X210220000Y-110325000D01*
G75*
G02*
X210085000Y-110460000I-135000J0D01*
G01*
G37*
G36*
G01*
X210085000Y-111480000D02*
X209715000Y-111480000D01*
G75*
G02*
X209580000Y-111345000I0J135000D01*
G01*
X209580000Y-111075000D01*
G75*
G02*
X209715000Y-110940000I135000J0D01*
G01*
X210085000Y-110940000D01*
G75*
G02*
X210220000Y-111075000I0J-135000D01*
G01*
X210220000Y-111345000D01*
G75*
G02*
X210085000Y-111480000I-135000J0D01*
G01*
G37*
%TD*%
%TO.C,R48*%
G36*
G01*
X218120000Y-91765000D02*
X218490000Y-91765000D01*
G75*
G02*
X218625000Y-91900000I0J-135000D01*
G01*
X218625000Y-92170000D01*
G75*
G02*
X218490000Y-92305000I-135000J0D01*
G01*
X218120000Y-92305000D01*
G75*
G02*
X217985000Y-92170000I0J135000D01*
G01*
X217985000Y-91900000D01*
G75*
G02*
X218120000Y-91765000I135000J0D01*
G01*
G37*
G36*
G01*
X218120000Y-90745000D02*
X218490000Y-90745000D01*
G75*
G02*
X218625000Y-90880000I0J-135000D01*
G01*
X218625000Y-91150000D01*
G75*
G02*
X218490000Y-91285000I-135000J0D01*
G01*
X218120000Y-91285000D01*
G75*
G02*
X217985000Y-91150000I0J135000D01*
G01*
X217985000Y-90880000D01*
G75*
G02*
X218120000Y-90745000I135000J0D01*
G01*
G37*
%TD*%
%TO.C,R47*%
G36*
G01*
X213170000Y-88415000D02*
X213540000Y-88415000D01*
G75*
G02*
X213675000Y-88550000I0J-135000D01*
G01*
X213675000Y-88820000D01*
G75*
G02*
X213540000Y-88955000I-135000J0D01*
G01*
X213170000Y-88955000D01*
G75*
G02*
X213035000Y-88820000I0J135000D01*
G01*
X213035000Y-88550000D01*
G75*
G02*
X213170000Y-88415000I135000J0D01*
G01*
G37*
G36*
G01*
X213170000Y-87395000D02*
X213540000Y-87395000D01*
G75*
G02*
X213675000Y-87530000I0J-135000D01*
G01*
X213675000Y-87800000D01*
G75*
G02*
X213540000Y-87935000I-135000J0D01*
G01*
X213170000Y-87935000D01*
G75*
G02*
X213035000Y-87800000I0J135000D01*
G01*
X213035000Y-87530000D01*
G75*
G02*
X213170000Y-87395000I135000J0D01*
G01*
G37*
%TD*%
%TO.C,R46*%
G36*
G01*
X214590000Y-87935000D02*
X214220000Y-87935000D01*
G75*
G02*
X214085000Y-87800000I0J135000D01*
G01*
X214085000Y-87530000D01*
G75*
G02*
X214220000Y-87395000I135000J0D01*
G01*
X214590000Y-87395000D01*
G75*
G02*
X214725000Y-87530000I0J-135000D01*
G01*
X214725000Y-87800000D01*
G75*
G02*
X214590000Y-87935000I-135000J0D01*
G01*
G37*
G36*
G01*
X214590000Y-88955000D02*
X214220000Y-88955000D01*
G75*
G02*
X214085000Y-88820000I0J135000D01*
G01*
X214085000Y-88550000D01*
G75*
G02*
X214220000Y-88415000I135000J0D01*
G01*
X214590000Y-88415000D01*
G75*
G02*
X214725000Y-88550000I0J-135000D01*
G01*
X214725000Y-88820000D01*
G75*
G02*
X214590000Y-88955000I-135000J0D01*
G01*
G37*
%TD*%
%TO.C,R45*%
G36*
G01*
X211565000Y-93660000D02*
X211195000Y-93660000D01*
G75*
G02*
X211060000Y-93525000I0J135000D01*
G01*
X211060000Y-93255000D01*
G75*
G02*
X211195000Y-93120000I135000J0D01*
G01*
X211565000Y-93120000D01*
G75*
G02*
X211700000Y-93255000I0J-135000D01*
G01*
X211700000Y-93525000D01*
G75*
G02*
X211565000Y-93660000I-135000J0D01*
G01*
G37*
G36*
G01*
X211565000Y-94680000D02*
X211195000Y-94680000D01*
G75*
G02*
X211060000Y-94545000I0J135000D01*
G01*
X211060000Y-94275000D01*
G75*
G02*
X211195000Y-94140000I135000J0D01*
G01*
X211565000Y-94140000D01*
G75*
G02*
X211700000Y-94275000I0J-135000D01*
G01*
X211700000Y-94545000D01*
G75*
G02*
X211565000Y-94680000I-135000J0D01*
G01*
G37*
%TD*%
%TO.C,R44*%
G36*
G01*
X214540000Y-95375000D02*
X214540000Y-95745000D01*
G75*
G02*
X214405000Y-95880000I-135000J0D01*
G01*
X214135000Y-95880000D01*
G75*
G02*
X214000000Y-95745000I0J135000D01*
G01*
X214000000Y-95375000D01*
G75*
G02*
X214135000Y-95240000I135000J0D01*
G01*
X214405000Y-95240000D01*
G75*
G02*
X214540000Y-95375000I0J-135000D01*
G01*
G37*
G36*
G01*
X215560000Y-95375000D02*
X215560000Y-95745000D01*
G75*
G02*
X215425000Y-95880000I-135000J0D01*
G01*
X215155000Y-95880000D01*
G75*
G02*
X215020000Y-95745000I0J135000D01*
G01*
X215020000Y-95375000D01*
G75*
G02*
X215155000Y-95240000I135000J0D01*
G01*
X215425000Y-95240000D01*
G75*
G02*
X215560000Y-95375000I0J-135000D01*
G01*
G37*
%TD*%
%TO.C,R43*%
G36*
G01*
X216270000Y-93545000D02*
X216270000Y-93175000D01*
G75*
G02*
X216405000Y-93040000I135000J0D01*
G01*
X216675000Y-93040000D01*
G75*
G02*
X216810000Y-93175000I0J-135000D01*
G01*
X216810000Y-93545000D01*
G75*
G02*
X216675000Y-93680000I-135000J0D01*
G01*
X216405000Y-93680000D01*
G75*
G02*
X216270000Y-93545000I0J135000D01*
G01*
G37*
G36*
G01*
X215250000Y-93545000D02*
X215250000Y-93175000D01*
G75*
G02*
X215385000Y-93040000I135000J0D01*
G01*
X215655000Y-93040000D01*
G75*
G02*
X215790000Y-93175000I0J-135000D01*
G01*
X215790000Y-93545000D01*
G75*
G02*
X215655000Y-93680000I-135000J0D01*
G01*
X215385000Y-93680000D01*
G75*
G02*
X215250000Y-93545000I0J135000D01*
G01*
G37*
%TD*%
%TO.C,R42*%
G36*
G01*
X216280000Y-94595000D02*
X216280000Y-94225000D01*
G75*
G02*
X216415000Y-94090000I135000J0D01*
G01*
X216685000Y-94090000D01*
G75*
G02*
X216820000Y-94225000I0J-135000D01*
G01*
X216820000Y-94595000D01*
G75*
G02*
X216685000Y-94730000I-135000J0D01*
G01*
X216415000Y-94730000D01*
G75*
G02*
X216280000Y-94595000I0J135000D01*
G01*
G37*
G36*
G01*
X215260000Y-94595000D02*
X215260000Y-94225000D01*
G75*
G02*
X215395000Y-94090000I135000J0D01*
G01*
X215665000Y-94090000D01*
G75*
G02*
X215800000Y-94225000I0J-135000D01*
G01*
X215800000Y-94595000D01*
G75*
G02*
X215665000Y-94730000I-135000J0D01*
G01*
X215395000Y-94730000D01*
G75*
G02*
X215260000Y-94595000I0J135000D01*
G01*
G37*
%TD*%
%TO.C,R41*%
G36*
G01*
X180930000Y-22885000D02*
X180930000Y-22515000D01*
G75*
G02*
X181065000Y-22380000I135000J0D01*
G01*
X181335000Y-22380000D01*
G75*
G02*
X181470000Y-22515000I0J-135000D01*
G01*
X181470000Y-22885000D01*
G75*
G02*
X181335000Y-23020000I-135000J0D01*
G01*
X181065000Y-23020000D01*
G75*
G02*
X180930000Y-22885000I0J135000D01*
G01*
G37*
G36*
G01*
X179910000Y-22885000D02*
X179910000Y-22515000D01*
G75*
G02*
X180045000Y-22380000I135000J0D01*
G01*
X180315000Y-22380000D01*
G75*
G02*
X180450000Y-22515000I0J-135000D01*
G01*
X180450000Y-22885000D01*
G75*
G02*
X180315000Y-23020000I-135000J0D01*
G01*
X180045000Y-23020000D01*
G75*
G02*
X179910000Y-22885000I0J135000D01*
G01*
G37*
%TD*%
%TO.C,R39*%
G36*
G01*
X217760000Y-93165000D02*
X217760000Y-93535000D01*
G75*
G02*
X217625000Y-93670000I-135000J0D01*
G01*
X217355000Y-93670000D01*
G75*
G02*
X217220000Y-93535000I0J135000D01*
G01*
X217220000Y-93165000D01*
G75*
G02*
X217355000Y-93030000I135000J0D01*
G01*
X217625000Y-93030000D01*
G75*
G02*
X217760000Y-93165000I0J-135000D01*
G01*
G37*
G36*
G01*
X218780000Y-93165000D02*
X218780000Y-93535000D01*
G75*
G02*
X218645000Y-93670000I-135000J0D01*
G01*
X218375000Y-93670000D01*
G75*
G02*
X218240000Y-93535000I0J135000D01*
G01*
X218240000Y-93165000D01*
G75*
G02*
X218375000Y-93030000I135000J0D01*
G01*
X218645000Y-93030000D01*
G75*
G02*
X218780000Y-93165000I0J-135000D01*
G01*
G37*
%TD*%
%TO.C,R36*%
G36*
G01*
X217770000Y-94235000D02*
X217770000Y-94605000D01*
G75*
G02*
X217635000Y-94740000I-135000J0D01*
G01*
X217365000Y-94740000D01*
G75*
G02*
X217230000Y-94605000I0J135000D01*
G01*
X217230000Y-94235000D01*
G75*
G02*
X217365000Y-94100000I135000J0D01*
G01*
X217635000Y-94100000D01*
G75*
G02*
X217770000Y-94235000I0J-135000D01*
G01*
G37*
G36*
G01*
X218790000Y-94235000D02*
X218790000Y-94605000D01*
G75*
G02*
X218655000Y-94740000I-135000J0D01*
G01*
X218385000Y-94740000D01*
G75*
G02*
X218250000Y-94605000I0J135000D01*
G01*
X218250000Y-94235000D01*
G75*
G02*
X218385000Y-94100000I135000J0D01*
G01*
X218655000Y-94100000D01*
G75*
G02*
X218790000Y-94235000I0J-135000D01*
G01*
G37*
%TD*%
%TO.C,R35*%
G36*
G01*
X210895000Y-88415000D02*
X211265000Y-88415000D01*
G75*
G02*
X211400000Y-88550000I0J-135000D01*
G01*
X211400000Y-88820000D01*
G75*
G02*
X211265000Y-88955000I-135000J0D01*
G01*
X210895000Y-88955000D01*
G75*
G02*
X210760000Y-88820000I0J135000D01*
G01*
X210760000Y-88550000D01*
G75*
G02*
X210895000Y-88415000I135000J0D01*
G01*
G37*
G36*
G01*
X210895000Y-87395000D02*
X211265000Y-87395000D01*
G75*
G02*
X211400000Y-87530000I0J-135000D01*
G01*
X211400000Y-87800000D01*
G75*
G02*
X211265000Y-87935000I-135000J0D01*
G01*
X210895000Y-87935000D01*
G75*
G02*
X210760000Y-87800000I0J135000D01*
G01*
X210760000Y-87530000D01*
G75*
G02*
X210895000Y-87395000I135000J0D01*
G01*
G37*
%TD*%
%TO.C,R34*%
G36*
G01*
X208320000Y-92105000D02*
X208320000Y-92475000D01*
G75*
G02*
X208185000Y-92610000I-135000J0D01*
G01*
X207915000Y-92610000D01*
G75*
G02*
X207780000Y-92475000I0J135000D01*
G01*
X207780000Y-92105000D01*
G75*
G02*
X207915000Y-91970000I135000J0D01*
G01*
X208185000Y-91970000D01*
G75*
G02*
X208320000Y-92105000I0J-135000D01*
G01*
G37*
G36*
G01*
X209340000Y-92105000D02*
X209340000Y-92475000D01*
G75*
G02*
X209205000Y-92610000I-135000J0D01*
G01*
X208935000Y-92610000D01*
G75*
G02*
X208800000Y-92475000I0J135000D01*
G01*
X208800000Y-92105000D01*
G75*
G02*
X208935000Y-91970000I135000J0D01*
G01*
X209205000Y-91970000D01*
G75*
G02*
X209340000Y-92105000I0J-135000D01*
G01*
G37*
%TD*%
%TO.C,R33*%
G36*
G01*
X210265000Y-87935000D02*
X209895000Y-87935000D01*
G75*
G02*
X209760000Y-87800000I0J135000D01*
G01*
X209760000Y-87530000D01*
G75*
G02*
X209895000Y-87395000I135000J0D01*
G01*
X210265000Y-87395000D01*
G75*
G02*
X210400000Y-87530000I0J-135000D01*
G01*
X210400000Y-87800000D01*
G75*
G02*
X210265000Y-87935000I-135000J0D01*
G01*
G37*
G36*
G01*
X210265000Y-88955000D02*
X209895000Y-88955000D01*
G75*
G02*
X209760000Y-88820000I0J135000D01*
G01*
X209760000Y-88550000D01*
G75*
G02*
X209895000Y-88415000I135000J0D01*
G01*
X210265000Y-88415000D01*
G75*
G02*
X210400000Y-88550000I0J-135000D01*
G01*
X210400000Y-88820000D01*
G75*
G02*
X210265000Y-88955000I-135000J0D01*
G01*
G37*
%TD*%
%TO.C,R32*%
G36*
G01*
X197110000Y-116215000D02*
X197110000Y-116585000D01*
G75*
G02*
X196975000Y-116720000I-135000J0D01*
G01*
X196705000Y-116720000D01*
G75*
G02*
X196570000Y-116585000I0J135000D01*
G01*
X196570000Y-116215000D01*
G75*
G02*
X196705000Y-116080000I135000J0D01*
G01*
X196975000Y-116080000D01*
G75*
G02*
X197110000Y-116215000I0J-135000D01*
G01*
G37*
G36*
G01*
X198130000Y-116215000D02*
X198130000Y-116585000D01*
G75*
G02*
X197995000Y-116720000I-135000J0D01*
G01*
X197725000Y-116720000D01*
G75*
G02*
X197590000Y-116585000I0J135000D01*
G01*
X197590000Y-116215000D01*
G75*
G02*
X197725000Y-116080000I135000J0D01*
G01*
X197995000Y-116080000D01*
G75*
G02*
X198130000Y-116215000I0J-135000D01*
G01*
G37*
%TD*%
%TO.C,R31*%
G36*
G01*
X195970000Y-97515000D02*
X195970000Y-97885000D01*
G75*
G02*
X195835000Y-98020000I-135000J0D01*
G01*
X195565000Y-98020000D01*
G75*
G02*
X195430000Y-97885000I0J135000D01*
G01*
X195430000Y-97515000D01*
G75*
G02*
X195565000Y-97380000I135000J0D01*
G01*
X195835000Y-97380000D01*
G75*
G02*
X195970000Y-97515000I0J-135000D01*
G01*
G37*
G36*
G01*
X196990000Y-97515000D02*
X196990000Y-97885000D01*
G75*
G02*
X196855000Y-98020000I-135000J0D01*
G01*
X196585000Y-98020000D01*
G75*
G02*
X196450000Y-97885000I0J135000D01*
G01*
X196450000Y-97515000D01*
G75*
G02*
X196585000Y-97380000I135000J0D01*
G01*
X196855000Y-97380000D01*
G75*
G02*
X196990000Y-97515000I0J-135000D01*
G01*
G37*
%TD*%
%TO.C,R30*%
G36*
G01*
X208320000Y-91085000D02*
X208320000Y-91455000D01*
G75*
G02*
X208185000Y-91590000I-135000J0D01*
G01*
X207915000Y-91590000D01*
G75*
G02*
X207780000Y-91455000I0J135000D01*
G01*
X207780000Y-91085000D01*
G75*
G02*
X207915000Y-90950000I135000J0D01*
G01*
X208185000Y-90950000D01*
G75*
G02*
X208320000Y-91085000I0J-135000D01*
G01*
G37*
G36*
G01*
X209340000Y-91085000D02*
X209340000Y-91455000D01*
G75*
G02*
X209205000Y-91590000I-135000J0D01*
G01*
X208935000Y-91590000D01*
G75*
G02*
X208800000Y-91455000I0J135000D01*
G01*
X208800000Y-91085000D01*
G75*
G02*
X208935000Y-90950000I135000J0D01*
G01*
X209205000Y-90950000D01*
G75*
G02*
X209340000Y-91085000I0J-135000D01*
G01*
G37*
%TD*%
%TO.C,R29*%
G36*
G01*
X194615000Y-118150000D02*
X194985000Y-118150000D01*
G75*
G02*
X195120000Y-118285000I0J-135000D01*
G01*
X195120000Y-118555000D01*
G75*
G02*
X194985000Y-118690000I-135000J0D01*
G01*
X194615000Y-118690000D01*
G75*
G02*
X194480000Y-118555000I0J135000D01*
G01*
X194480000Y-118285000D01*
G75*
G02*
X194615000Y-118150000I135000J0D01*
G01*
G37*
G36*
G01*
X194615000Y-117130000D02*
X194985000Y-117130000D01*
G75*
G02*
X195120000Y-117265000I0J-135000D01*
G01*
X195120000Y-117535000D01*
G75*
G02*
X194985000Y-117670000I-135000J0D01*
G01*
X194615000Y-117670000D01*
G75*
G02*
X194480000Y-117535000I0J135000D01*
G01*
X194480000Y-117265000D01*
G75*
G02*
X194615000Y-117130000I135000J0D01*
G01*
G37*
%TD*%
%TO.C,R28*%
G36*
G01*
X195665000Y-118130000D02*
X196035000Y-118130000D01*
G75*
G02*
X196170000Y-118265000I0J-135000D01*
G01*
X196170000Y-118535000D01*
G75*
G02*
X196035000Y-118670000I-135000J0D01*
G01*
X195665000Y-118670000D01*
G75*
G02*
X195530000Y-118535000I0J135000D01*
G01*
X195530000Y-118265000D01*
G75*
G02*
X195665000Y-118130000I135000J0D01*
G01*
G37*
G36*
G01*
X195665000Y-117110000D02*
X196035000Y-117110000D01*
G75*
G02*
X196170000Y-117245000I0J-135000D01*
G01*
X196170000Y-117515000D01*
G75*
G02*
X196035000Y-117650000I-135000J0D01*
G01*
X195665000Y-117650000D01*
G75*
G02*
X195530000Y-117515000I0J135000D01*
G01*
X195530000Y-117245000D01*
G75*
G02*
X195665000Y-117110000I135000J0D01*
G01*
G37*
%TD*%
%TO.C,R27*%
G36*
G01*
X194515000Y-99450000D02*
X194885000Y-99450000D01*
G75*
G02*
X195020000Y-99585000I0J-135000D01*
G01*
X195020000Y-99855000D01*
G75*
G02*
X194885000Y-99990000I-135000J0D01*
G01*
X194515000Y-99990000D01*
G75*
G02*
X194380000Y-99855000I0J135000D01*
G01*
X194380000Y-99585000D01*
G75*
G02*
X194515000Y-99450000I135000J0D01*
G01*
G37*
G36*
G01*
X194515000Y-98430000D02*
X194885000Y-98430000D01*
G75*
G02*
X195020000Y-98565000I0J-135000D01*
G01*
X195020000Y-98835000D01*
G75*
G02*
X194885000Y-98970000I-135000J0D01*
G01*
X194515000Y-98970000D01*
G75*
G02*
X194380000Y-98835000I0J135000D01*
G01*
X194380000Y-98565000D01*
G75*
G02*
X194515000Y-98430000I135000J0D01*
G01*
G37*
%TD*%
%TO.C,R26*%
G36*
G01*
X195535000Y-99450000D02*
X195905000Y-99450000D01*
G75*
G02*
X196040000Y-99585000I0J-135000D01*
G01*
X196040000Y-99855000D01*
G75*
G02*
X195905000Y-99990000I-135000J0D01*
G01*
X195535000Y-99990000D01*
G75*
G02*
X195400000Y-99855000I0J135000D01*
G01*
X195400000Y-99585000D01*
G75*
G02*
X195535000Y-99450000I135000J0D01*
G01*
G37*
G36*
G01*
X195535000Y-98430000D02*
X195905000Y-98430000D01*
G75*
G02*
X196040000Y-98565000I0J-135000D01*
G01*
X196040000Y-98835000D01*
G75*
G02*
X195905000Y-98970000I-135000J0D01*
G01*
X195535000Y-98970000D01*
G75*
G02*
X195400000Y-98835000I0J135000D01*
G01*
X195400000Y-98565000D01*
G75*
G02*
X195535000Y-98430000I135000J0D01*
G01*
G37*
%TD*%
%TO.C,R9*%
G36*
G01*
X213455000Y-37585000D02*
X213455000Y-37215000D01*
G75*
G02*
X213590000Y-37080000I135000J0D01*
G01*
X213860000Y-37080000D01*
G75*
G02*
X213995000Y-37215000I0J-135000D01*
G01*
X213995000Y-37585000D01*
G75*
G02*
X213860000Y-37720000I-135000J0D01*
G01*
X213590000Y-37720000D01*
G75*
G02*
X213455000Y-37585000I0J135000D01*
G01*
G37*
G36*
G01*
X212435000Y-37585000D02*
X212435000Y-37215000D01*
G75*
G02*
X212570000Y-37080000I135000J0D01*
G01*
X212840000Y-37080000D01*
G75*
G02*
X212975000Y-37215000I0J-135000D01*
G01*
X212975000Y-37585000D01*
G75*
G02*
X212840000Y-37720000I-135000J0D01*
G01*
X212570000Y-37720000D01*
G75*
G02*
X212435000Y-37585000I0J135000D01*
G01*
G37*
%TD*%
%TO.C,R8*%
G36*
G01*
X213455000Y-38585000D02*
X213455000Y-38215000D01*
G75*
G02*
X213590000Y-38080000I135000J0D01*
G01*
X213860000Y-38080000D01*
G75*
G02*
X213995000Y-38215000I0J-135000D01*
G01*
X213995000Y-38585000D01*
G75*
G02*
X213860000Y-38720000I-135000J0D01*
G01*
X213590000Y-38720000D01*
G75*
G02*
X213455000Y-38585000I0J135000D01*
G01*
G37*
G36*
G01*
X212435000Y-38585000D02*
X212435000Y-38215000D01*
G75*
G02*
X212570000Y-38080000I135000J0D01*
G01*
X212840000Y-38080000D01*
G75*
G02*
X212975000Y-38215000I0J-135000D01*
G01*
X212975000Y-38585000D01*
G75*
G02*
X212840000Y-38720000I-135000J0D01*
G01*
X212570000Y-38720000D01*
G75*
G02*
X212435000Y-38585000I0J135000D01*
G01*
G37*
%TD*%
%TO.C,R7*%
G36*
G01*
X212975001Y-39215000D02*
X212975001Y-39585000D01*
G75*
G02*
X212840001Y-39720000I-135000J0D01*
G01*
X212570001Y-39720000D01*
G75*
G02*
X212435001Y-39585000I0J135000D01*
G01*
X212435001Y-39215000D01*
G75*
G02*
X212570001Y-39080000I135000J0D01*
G01*
X212840001Y-39080000D01*
G75*
G02*
X212975001Y-39215000I0J-135000D01*
G01*
G37*
G36*
G01*
X213995001Y-39215000D02*
X213995001Y-39585000D01*
G75*
G02*
X213860001Y-39720000I-135000J0D01*
G01*
X213590001Y-39720000D01*
G75*
G02*
X213455001Y-39585000I0J135000D01*
G01*
X213455001Y-39215000D01*
G75*
G02*
X213590001Y-39080000I135000J0D01*
G01*
X213860001Y-39080000D01*
G75*
G02*
X213995001Y-39215000I0J-135000D01*
G01*
G37*
%TD*%
%TO.C,R6*%
G36*
G01*
X213474999Y-40585000D02*
X213474999Y-40215000D01*
G75*
G02*
X213609999Y-40080000I135000J0D01*
G01*
X213879999Y-40080000D01*
G75*
G02*
X214014999Y-40215000I0J-135000D01*
G01*
X214014999Y-40585000D01*
G75*
G02*
X213879999Y-40720000I-135000J0D01*
G01*
X213609999Y-40720000D01*
G75*
G02*
X213474999Y-40585000I0J135000D01*
G01*
G37*
G36*
G01*
X212454999Y-40585000D02*
X212454999Y-40215000D01*
G75*
G02*
X212589999Y-40080000I135000J0D01*
G01*
X212859999Y-40080000D01*
G75*
G02*
X212994999Y-40215000I0J-135000D01*
G01*
X212994999Y-40585000D01*
G75*
G02*
X212859999Y-40720000I-135000J0D01*
G01*
X212589999Y-40720000D01*
G75*
G02*
X212454999Y-40585000I0J135000D01*
G01*
G37*
%TD*%
%TO.C,R4*%
G36*
G01*
X252340000Y-54435000D02*
X252340000Y-54065000D01*
G75*
G02*
X252475000Y-53930000I135000J0D01*
G01*
X252745000Y-53930000D01*
G75*
G02*
X252880000Y-54065000I0J-135000D01*
G01*
X252880000Y-54435000D01*
G75*
G02*
X252745000Y-54570000I-135000J0D01*
G01*
X252475000Y-54570000D01*
G75*
G02*
X252340000Y-54435000I0J135000D01*
G01*
G37*
G36*
G01*
X251320000Y-54435000D02*
X251320000Y-54065000D01*
G75*
G02*
X251455000Y-53930000I135000J0D01*
G01*
X251725000Y-53930000D01*
G75*
G02*
X251860000Y-54065000I0J-135000D01*
G01*
X251860000Y-54435000D01*
G75*
G02*
X251725000Y-54570000I-135000J0D01*
G01*
X251455000Y-54570000D01*
G75*
G02*
X251320000Y-54435000I0J135000D01*
G01*
G37*
%TD*%
%TO.C,R3*%
G36*
G01*
X251810000Y-51520000D02*
X251440000Y-51520000D01*
G75*
G02*
X251305000Y-51385000I0J135000D01*
G01*
X251305000Y-51115000D01*
G75*
G02*
X251440000Y-50980000I135000J0D01*
G01*
X251810000Y-50980000D01*
G75*
G02*
X251945000Y-51115000I0J-135000D01*
G01*
X251945000Y-51385000D01*
G75*
G02*
X251810000Y-51520000I-135000J0D01*
G01*
G37*
G36*
G01*
X251810000Y-52540000D02*
X251440000Y-52540000D01*
G75*
G02*
X251305000Y-52405000I0J135000D01*
G01*
X251305000Y-52135000D01*
G75*
G02*
X251440000Y-52000000I135000J0D01*
G01*
X251810000Y-52000000D01*
G75*
G02*
X251945000Y-52135000I0J-135000D01*
G01*
X251945000Y-52405000D01*
G75*
G02*
X251810000Y-52540000I-135000J0D01*
G01*
G37*
%TD*%
%TO.C,R2*%
G36*
G01*
X225140000Y-38950000D02*
X225510000Y-38950000D01*
G75*
G02*
X225645000Y-39085000I0J-135000D01*
G01*
X225645000Y-39355000D01*
G75*
G02*
X225510000Y-39490000I-135000J0D01*
G01*
X225140000Y-39490000D01*
G75*
G02*
X225005000Y-39355000I0J135000D01*
G01*
X225005000Y-39085000D01*
G75*
G02*
X225140000Y-38950000I135000J0D01*
G01*
G37*
G36*
G01*
X225140000Y-37930000D02*
X225510000Y-37930000D01*
G75*
G02*
X225645000Y-38065000I0J-135000D01*
G01*
X225645000Y-38335000D01*
G75*
G02*
X225510000Y-38470000I-135000J0D01*
G01*
X225140000Y-38470000D01*
G75*
G02*
X225005000Y-38335000I0J135000D01*
G01*
X225005000Y-38065000D01*
G75*
G02*
X225140000Y-37930000I135000J0D01*
G01*
G37*
%TD*%
%TO.C,R1*%
G36*
G01*
X213455000Y-36585000D02*
X213455000Y-36215000D01*
G75*
G02*
X213590000Y-36080000I135000J0D01*
G01*
X213860000Y-36080000D01*
G75*
G02*
X213995000Y-36215000I0J-135000D01*
G01*
X213995000Y-36585000D01*
G75*
G02*
X213860000Y-36720000I-135000J0D01*
G01*
X213590000Y-36720000D01*
G75*
G02*
X213455000Y-36585000I0J135000D01*
G01*
G37*
G36*
G01*
X212435000Y-36585000D02*
X212435000Y-36215000D01*
G75*
G02*
X212570000Y-36080000I135000J0D01*
G01*
X212840000Y-36080000D01*
G75*
G02*
X212975000Y-36215000I0J-135000D01*
G01*
X212975000Y-36585000D01*
G75*
G02*
X212840000Y-36720000I-135000J0D01*
G01*
X212570000Y-36720000D01*
G75*
G02*
X212435000Y-36585000I0J135000D01*
G01*
G37*
%TD*%
D30*
%TO.C,Q4*%
X249150000Y-53525000D03*
X248200000Y-51525000D03*
X250100000Y-51525000D03*
%TD*%
D31*
%TO.C,Q3*%
X237400000Y-52525000D03*
X239400000Y-51575000D03*
X239400000Y-53475000D03*
%TD*%
%TO.C,Q2*%
X245000000Y-52525000D03*
X243000000Y-53475000D03*
X243000000Y-51575000D03*
%TD*%
%TO.C,L6*%
G36*
G01*
X250225000Y-41550000D02*
X250225000Y-39850000D01*
G75*
G02*
X250475000Y-39600000I250000J0D01*
G01*
X251225000Y-39600000D01*
G75*
G02*
X251475000Y-39850000I0J-250000D01*
G01*
X251475000Y-41550000D01*
G75*
G02*
X251225000Y-41800000I-250000J0D01*
G01*
X250475000Y-41800000D01*
G75*
G02*
X250225000Y-41550000I0J250000D01*
G01*
G37*
G36*
G01*
X248075000Y-41550000D02*
X248075000Y-39850000D01*
G75*
G02*
X248325000Y-39600000I250000J0D01*
G01*
X249075000Y-39600000D01*
G75*
G02*
X249325000Y-39850000I0J-250000D01*
G01*
X249325000Y-41550000D01*
G75*
G02*
X249075000Y-41800000I-250000J0D01*
G01*
X248325000Y-41800000D01*
G75*
G02*
X248075000Y-41550000I0J250000D01*
G01*
G37*
%TD*%
%TO.C,L4*%
G36*
G01*
X243730000Y-82080000D02*
X244070000Y-82080000D01*
G75*
G02*
X244210000Y-82220000I0J-140000D01*
G01*
X244210000Y-82500000D01*
G75*
G02*
X244070000Y-82640000I-140000J0D01*
G01*
X243730000Y-82640000D01*
G75*
G02*
X243590000Y-82500000I0J140000D01*
G01*
X243590000Y-82220000D01*
G75*
G02*
X243730000Y-82080000I140000J0D01*
G01*
G37*
G36*
G01*
X243730000Y-81120000D02*
X244070000Y-81120000D01*
G75*
G02*
X244210000Y-81260000I0J-140000D01*
G01*
X244210000Y-81540000D01*
G75*
G02*
X244070000Y-81680000I-140000J0D01*
G01*
X243730000Y-81680000D01*
G75*
G02*
X243590000Y-81540000I0J140000D01*
G01*
X243590000Y-81260000D01*
G75*
G02*
X243730000Y-81120000I140000J0D01*
G01*
G37*
%TD*%
%TO.C,L3*%
G36*
G01*
X247255000Y-82080000D02*
X247595000Y-82080000D01*
G75*
G02*
X247735000Y-82220000I0J-140000D01*
G01*
X247735000Y-82500000D01*
G75*
G02*
X247595000Y-82640000I-140000J0D01*
G01*
X247255000Y-82640000D01*
G75*
G02*
X247115000Y-82500000I0J140000D01*
G01*
X247115000Y-82220000D01*
G75*
G02*
X247255000Y-82080000I140000J0D01*
G01*
G37*
G36*
G01*
X247255000Y-81120000D02*
X247595000Y-81120000D01*
G75*
G02*
X247735000Y-81260000I0J-140000D01*
G01*
X247735000Y-81540000D01*
G75*
G02*
X247595000Y-81680000I-140000J0D01*
G01*
X247255000Y-81680000D01*
G75*
G02*
X247115000Y-81540000I0J140000D01*
G01*
X247115000Y-81260000D01*
G75*
G02*
X247255000Y-81120000I140000J0D01*
G01*
G37*
%TD*%
D32*
%TO.C,J14*%
X216750000Y-40860000D03*
X217250000Y-40860000D03*
X217750000Y-40860000D03*
X218250000Y-40860000D03*
X218750000Y-40860000D03*
X219250000Y-40860000D03*
X219750000Y-40860000D03*
X220250000Y-40860000D03*
X220750000Y-40860000D03*
X221250000Y-40860000D03*
X221750000Y-40860000D03*
X222500000Y-39160000D03*
X222000000Y-39160000D03*
X221500000Y-39160000D03*
X221000000Y-39160000D03*
X220500000Y-39160000D03*
X220000000Y-39160000D03*
X219500000Y-39160000D03*
X219000000Y-39160000D03*
X218500000Y-39160000D03*
X218000000Y-39160000D03*
X217500000Y-39160000D03*
X217000000Y-39160000D03*
X222250000Y-40860000D03*
%TD*%
%TO.C,FB2*%
G36*
G01*
X193749999Y-45937500D02*
X194650001Y-45937500D01*
G75*
G02*
X194900000Y-46187499I0J-249999D01*
G01*
X194900000Y-46712501D01*
G75*
G02*
X194650001Y-46962500I-249999J0D01*
G01*
X193749999Y-46962500D01*
G75*
G02*
X193500000Y-46712501I0J249999D01*
G01*
X193500000Y-46187499D01*
G75*
G02*
X193749999Y-45937500I249999J0D01*
G01*
G37*
G36*
G01*
X193749999Y-44112500D02*
X194650001Y-44112500D01*
G75*
G02*
X194900000Y-44362499I0J-249999D01*
G01*
X194900000Y-44887501D01*
G75*
G02*
X194650001Y-45137500I-249999J0D01*
G01*
X193749999Y-45137500D01*
G75*
G02*
X193500000Y-44887501I0J249999D01*
G01*
X193500000Y-44362499D01*
G75*
G02*
X193749999Y-44112500I249999J0D01*
G01*
G37*
%TD*%
D33*
%TO.C,D34*%
X249400000Y-56025000D03*
X245400000Y-56025000D03*
%TD*%
%TO.C,D33*%
X238200000Y-56025000D03*
X242200000Y-56025000D03*
%TD*%
D34*
%TO.C,D32*%
X235225000Y-55500000D03*
X235225000Y-53700000D03*
X234275000Y-55500000D03*
X234275000Y-53700000D03*
%TD*%
D33*
%TO.C,D31*%
X249400000Y-59525000D03*
X245400000Y-59525000D03*
%TD*%
%TO.C,D30*%
X238200000Y-59525000D03*
X242200000Y-59525000D03*
%TD*%
D35*
%TO.C,D17*%
X253075000Y-57500000D03*
X253075000Y-59600000D03*
%TD*%
D36*
%TO.C,D15*%
X203550000Y-115490000D03*
X203550000Y-119490000D03*
%TD*%
%TO.C,D14*%
X207400000Y-115490000D03*
X207400000Y-119490000D03*
%TD*%
D35*
%TO.C,D13*%
X191000000Y-117250000D03*
X191000000Y-115150000D03*
%TD*%
%TO.C,D12*%
X191000000Y-99800000D03*
X191000000Y-97700000D03*
%TD*%
%TO.C,D11*%
X191000000Y-60750000D03*
X191000000Y-58650000D03*
%TD*%
%TO.C,D10*%
X191000000Y-93700000D03*
X191000000Y-91600000D03*
%TD*%
%TO.C,D9*%
X191000000Y-82750000D03*
X191000000Y-80650000D03*
%TD*%
%TO.C,D8*%
X190950000Y-111375000D03*
X190950000Y-109275000D03*
%TD*%
%TO.C,D7*%
X191000000Y-66250000D03*
X191000000Y-64150000D03*
%TD*%
%TO.C,D6*%
X191000000Y-77300000D03*
X191000000Y-75200000D03*
%TD*%
%TO.C,D5*%
X191000000Y-88250000D03*
X191000000Y-86150000D03*
%TD*%
%TO.C,D4*%
X191000000Y-105800000D03*
X191000000Y-103700000D03*
%TD*%
%TO.C,D3*%
X191000000Y-123250000D03*
X191000000Y-121150000D03*
%TD*%
%TO.C,D2*%
X191000000Y-71800000D03*
X191000000Y-69700000D03*
%TD*%
%TO.C,D1*%
X239125000Y-94975000D03*
X239125000Y-92875000D03*
%TD*%
%TO.C,C131*%
G36*
G01*
X206625000Y-105300000D02*
X207575000Y-105300000D01*
G75*
G02*
X207825000Y-105550000I0J-250000D01*
G01*
X207825000Y-106050000D01*
G75*
G02*
X207575000Y-106300000I-250000J0D01*
G01*
X206625000Y-106300000D01*
G75*
G02*
X206375000Y-106050000I0J250000D01*
G01*
X206375000Y-105550000D01*
G75*
G02*
X206625000Y-105300000I250000J0D01*
G01*
G37*
G36*
G01*
X206625000Y-103400000D02*
X207575000Y-103400000D01*
G75*
G02*
X207825000Y-103650000I0J-250000D01*
G01*
X207825000Y-104150000D01*
G75*
G02*
X207575000Y-104400000I-250000J0D01*
G01*
X206625000Y-104400000D01*
G75*
G02*
X206375000Y-104150000I0J250000D01*
G01*
X206375000Y-103650000D01*
G75*
G02*
X206625000Y-103400000I250000J0D01*
G01*
G37*
%TD*%
%TO.C,C130*%
G36*
G01*
X243605000Y-46205000D02*
X243945000Y-46205000D01*
G75*
G02*
X244085000Y-46345000I0J-140000D01*
G01*
X244085000Y-46625000D01*
G75*
G02*
X243945000Y-46765000I-140000J0D01*
G01*
X243605000Y-46765000D01*
G75*
G02*
X243465000Y-46625000I0J140000D01*
G01*
X243465000Y-46345000D01*
G75*
G02*
X243605000Y-46205000I140000J0D01*
G01*
G37*
G36*
G01*
X243605000Y-45245000D02*
X243945000Y-45245000D01*
G75*
G02*
X244085000Y-45385000I0J-140000D01*
G01*
X244085000Y-45665000D01*
G75*
G02*
X243945000Y-45805000I-140000J0D01*
G01*
X243605000Y-45805000D01*
G75*
G02*
X243465000Y-45665000I0J140000D01*
G01*
X243465000Y-45385000D01*
G75*
G02*
X243605000Y-45245000I140000J0D01*
G01*
G37*
%TD*%
%TO.C,C129*%
G36*
G01*
X243945000Y-43405000D02*
X243605000Y-43405000D01*
G75*
G02*
X243465000Y-43265000I0J140000D01*
G01*
X243465000Y-42985000D01*
G75*
G02*
X243605000Y-42845000I140000J0D01*
G01*
X243945000Y-42845000D01*
G75*
G02*
X244085000Y-42985000I0J-140000D01*
G01*
X244085000Y-43265000D01*
G75*
G02*
X243945000Y-43405000I-140000J0D01*
G01*
G37*
G36*
G01*
X243945000Y-44365000D02*
X243605000Y-44365000D01*
G75*
G02*
X243465000Y-44225000I0J140000D01*
G01*
X243465000Y-43945000D01*
G75*
G02*
X243605000Y-43805000I140000J0D01*
G01*
X243945000Y-43805000D01*
G75*
G02*
X244085000Y-43945000I0J-140000D01*
G01*
X244085000Y-44225000D01*
G75*
G02*
X243945000Y-44365000I-140000J0D01*
G01*
G37*
%TD*%
%TO.C,C106*%
G36*
G01*
X252325000Y-39700000D02*
X253275000Y-39700000D01*
G75*
G02*
X253525000Y-39950000I0J-250000D01*
G01*
X253525000Y-40450000D01*
G75*
G02*
X253275000Y-40700000I-250000J0D01*
G01*
X252325000Y-40700000D01*
G75*
G02*
X252075000Y-40450000I0J250000D01*
G01*
X252075000Y-39950000D01*
G75*
G02*
X252325000Y-39700000I250000J0D01*
G01*
G37*
G36*
G01*
X252325000Y-41600000D02*
X253275000Y-41600000D01*
G75*
G02*
X253525000Y-41850000I0J-250000D01*
G01*
X253525000Y-42350000D01*
G75*
G02*
X253275000Y-42600000I-250000J0D01*
G01*
X252325000Y-42600000D01*
G75*
G02*
X252075000Y-42350000I0J250000D01*
G01*
X252075000Y-41850000D01*
G75*
G02*
X252325000Y-41600000I250000J0D01*
G01*
G37*
%TD*%
%TO.C,C105*%
G36*
G01*
X248255000Y-42455000D02*
X248255000Y-42795000D01*
G75*
G02*
X248115000Y-42935000I-140000J0D01*
G01*
X247835000Y-42935000D01*
G75*
G02*
X247695000Y-42795000I0J140000D01*
G01*
X247695000Y-42455000D01*
G75*
G02*
X247835000Y-42315000I140000J0D01*
G01*
X248115000Y-42315000D01*
G75*
G02*
X248255000Y-42455000I0J-140000D01*
G01*
G37*
G36*
G01*
X249215000Y-42455000D02*
X249215000Y-42795000D01*
G75*
G02*
X249075000Y-42935000I-140000J0D01*
G01*
X248795000Y-42935000D01*
G75*
G02*
X248655000Y-42795000I0J140000D01*
G01*
X248655000Y-42455000D01*
G75*
G02*
X248795000Y-42315000I140000J0D01*
G01*
X249075000Y-42315000D01*
G75*
G02*
X249215000Y-42455000I0J-140000D01*
G01*
G37*
%TD*%
%TO.C,C103*%
G36*
G01*
X251030000Y-44069999D02*
X251030000Y-43729999D01*
G75*
G02*
X251170000Y-43589999I140000J0D01*
G01*
X251450000Y-43589999D01*
G75*
G02*
X251590000Y-43729999I0J-140000D01*
G01*
X251590000Y-44069999D01*
G75*
G02*
X251450000Y-44209999I-140000J0D01*
G01*
X251170000Y-44209999D01*
G75*
G02*
X251030000Y-44069999I0J140000D01*
G01*
G37*
G36*
G01*
X250070000Y-44069999D02*
X250070000Y-43729999D01*
G75*
G02*
X250210000Y-43589999I140000J0D01*
G01*
X250490000Y-43589999D01*
G75*
G02*
X250630000Y-43729999I0J-140000D01*
G01*
X250630000Y-44069999D01*
G75*
G02*
X250490000Y-44209999I-140000J0D01*
G01*
X250210000Y-44209999D01*
G75*
G02*
X250070000Y-44069999I0J140000D01*
G01*
G37*
%TD*%
%TO.C,C102*%
G36*
G01*
X251020000Y-43070000D02*
X251020000Y-42730000D01*
G75*
G02*
X251160000Y-42590000I140000J0D01*
G01*
X251440000Y-42590000D01*
G75*
G02*
X251580000Y-42730000I0J-140000D01*
G01*
X251580000Y-43070000D01*
G75*
G02*
X251440000Y-43210000I-140000J0D01*
G01*
X251160000Y-43210000D01*
G75*
G02*
X251020000Y-43070000I0J140000D01*
G01*
G37*
G36*
G01*
X250060000Y-43070000D02*
X250060000Y-42730000D01*
G75*
G02*
X250200000Y-42590000I140000J0D01*
G01*
X250480000Y-42590000D01*
G75*
G02*
X250620000Y-42730000I0J-140000D01*
G01*
X250620000Y-43070000D01*
G75*
G02*
X250480000Y-43210000I-140000J0D01*
G01*
X250200000Y-43210000D01*
G75*
G02*
X250060000Y-43070000I0J140000D01*
G01*
G37*
%TD*%
%TO.C,C100*%
G36*
G01*
X244605000Y-46195000D02*
X244945000Y-46195000D01*
G75*
G02*
X245085000Y-46335000I0J-140000D01*
G01*
X245085000Y-46615000D01*
G75*
G02*
X244945000Y-46755000I-140000J0D01*
G01*
X244605000Y-46755000D01*
G75*
G02*
X244465000Y-46615000I0J140000D01*
G01*
X244465000Y-46335000D01*
G75*
G02*
X244605000Y-46195000I140000J0D01*
G01*
G37*
G36*
G01*
X244605000Y-45235000D02*
X244945000Y-45235000D01*
G75*
G02*
X245085000Y-45375000I0J-140000D01*
G01*
X245085000Y-45655000D01*
G75*
G02*
X244945000Y-45795000I-140000J0D01*
G01*
X244605000Y-45795000D01*
G75*
G02*
X244465000Y-45655000I0J140000D01*
G01*
X244465000Y-45375000D01*
G75*
G02*
X244605000Y-45235000I140000J0D01*
G01*
G37*
%TD*%
%TO.C,C98*%
G36*
G01*
X246975000Y-40900001D02*
X246025000Y-40900001D01*
G75*
G02*
X245775000Y-40650001I0J250000D01*
G01*
X245775000Y-40150001D01*
G75*
G02*
X246025000Y-39900001I250000J0D01*
G01*
X246975000Y-39900001D01*
G75*
G02*
X247225000Y-40150001I0J-250000D01*
G01*
X247225000Y-40650001D01*
G75*
G02*
X246975000Y-40900001I-250000J0D01*
G01*
G37*
G36*
G01*
X246975000Y-42800001D02*
X246025000Y-42800001D01*
G75*
G02*
X245775000Y-42550001I0J250000D01*
G01*
X245775000Y-42050001D01*
G75*
G02*
X246025000Y-41800001I250000J0D01*
G01*
X246975000Y-41800001D01*
G75*
G02*
X247225000Y-42050001I0J-250000D01*
G01*
X247225000Y-42550001D01*
G75*
G02*
X246975000Y-42800001I-250000J0D01*
G01*
G37*
%TD*%
%TO.C,C96*%
G36*
G01*
X244945000Y-43405000D02*
X244605000Y-43405000D01*
G75*
G02*
X244465000Y-43265000I0J140000D01*
G01*
X244465000Y-42985000D01*
G75*
G02*
X244605000Y-42845000I140000J0D01*
G01*
X244945000Y-42845000D01*
G75*
G02*
X245085000Y-42985000I0J-140000D01*
G01*
X245085000Y-43265000D01*
G75*
G02*
X244945000Y-43405000I-140000J0D01*
G01*
G37*
G36*
G01*
X244945000Y-44365000D02*
X244605000Y-44365000D01*
G75*
G02*
X244465000Y-44225000I0J140000D01*
G01*
X244465000Y-43945000D01*
G75*
G02*
X244605000Y-43805000I140000J0D01*
G01*
X244945000Y-43805000D01*
G75*
G02*
X245085000Y-43945000I0J-140000D01*
G01*
X245085000Y-44225000D01*
G75*
G02*
X244945000Y-44365000I-140000J0D01*
G01*
G37*
%TD*%
%TO.C,C71*%
G36*
G01*
X195920000Y-44920000D02*
X195580000Y-44920000D01*
G75*
G02*
X195440000Y-44780000I0J140000D01*
G01*
X195440000Y-44500000D01*
G75*
G02*
X195580000Y-44360000I140000J0D01*
G01*
X195920000Y-44360000D01*
G75*
G02*
X196060000Y-44500000I0J-140000D01*
G01*
X196060000Y-44780000D01*
G75*
G02*
X195920000Y-44920000I-140000J0D01*
G01*
G37*
G36*
G01*
X195920000Y-45880000D02*
X195580000Y-45880000D01*
G75*
G02*
X195440000Y-45740000I0J140000D01*
G01*
X195440000Y-45460000D01*
G75*
G02*
X195580000Y-45320000I140000J0D01*
G01*
X195920000Y-45320000D01*
G75*
G02*
X196060000Y-45460000I0J-140000D01*
G01*
X196060000Y-45740000D01*
G75*
G02*
X195920000Y-45880000I-140000J0D01*
G01*
G37*
%TD*%
%TO.C,C70*%
G36*
G01*
X191800000Y-48000000D02*
X191800000Y-47050000D01*
G75*
G02*
X192050000Y-46800000I250000J0D01*
G01*
X192550000Y-46800000D01*
G75*
G02*
X192800000Y-47050000I0J-250000D01*
G01*
X192800000Y-48000000D01*
G75*
G02*
X192550000Y-48250000I-250000J0D01*
G01*
X192050000Y-48250000D01*
G75*
G02*
X191800000Y-48000000I0J250000D01*
G01*
G37*
G36*
G01*
X189900000Y-48000000D02*
X189900000Y-47050000D01*
G75*
G02*
X190150000Y-46800000I250000J0D01*
G01*
X190650000Y-46800000D01*
G75*
G02*
X190900000Y-47050000I0J-250000D01*
G01*
X190900000Y-48000000D01*
G75*
G02*
X190650000Y-48250000I-250000J0D01*
G01*
X190150000Y-48250000D01*
G75*
G02*
X189900000Y-48000000I0J250000D01*
G01*
G37*
%TD*%
%TO.C,C69*%
G36*
G01*
X186200000Y-48500000D02*
X185250000Y-48500000D01*
G75*
G02*
X185000000Y-48250000I0J250000D01*
G01*
X185000000Y-47750000D01*
G75*
G02*
X185250000Y-47500000I250000J0D01*
G01*
X186200000Y-47500000D01*
G75*
G02*
X186450000Y-47750000I0J-250000D01*
G01*
X186450000Y-48250000D01*
G75*
G02*
X186200000Y-48500000I-250000J0D01*
G01*
G37*
G36*
G01*
X186200000Y-50400000D02*
X185250000Y-50400000D01*
G75*
G02*
X185000000Y-50150000I0J250000D01*
G01*
X185000000Y-49650000D01*
G75*
G02*
X185250000Y-49400000I250000J0D01*
G01*
X186200000Y-49400000D01*
G75*
G02*
X186450000Y-49650000I0J-250000D01*
G01*
X186450000Y-50150000D01*
G75*
G02*
X186200000Y-50400000I-250000J0D01*
G01*
G37*
%TD*%
%TO.C,C68*%
G36*
G01*
X186420000Y-42625000D02*
X186080000Y-42625000D01*
G75*
G02*
X185940000Y-42485000I0J140000D01*
G01*
X185940000Y-42205000D01*
G75*
G02*
X186080000Y-42065000I140000J0D01*
G01*
X186420000Y-42065000D01*
G75*
G02*
X186560000Y-42205000I0J-140000D01*
G01*
X186560000Y-42485000D01*
G75*
G02*
X186420000Y-42625000I-140000J0D01*
G01*
G37*
G36*
G01*
X186420000Y-43585000D02*
X186080000Y-43585000D01*
G75*
G02*
X185940000Y-43445000I0J140000D01*
G01*
X185940000Y-43165000D01*
G75*
G02*
X186080000Y-43025000I140000J0D01*
G01*
X186420000Y-43025000D01*
G75*
G02*
X186560000Y-43165000I0J-140000D01*
G01*
X186560000Y-43445000D01*
G75*
G02*
X186420000Y-43585000I-140000J0D01*
G01*
G37*
%TD*%
%TO.C,C67*%
G36*
G01*
X187470000Y-39600000D02*
X187130000Y-39600000D01*
G75*
G02*
X186990000Y-39460000I0J140000D01*
G01*
X186990000Y-39180000D01*
G75*
G02*
X187130000Y-39040000I140000J0D01*
G01*
X187470000Y-39040000D01*
G75*
G02*
X187610000Y-39180000I0J-140000D01*
G01*
X187610000Y-39460000D01*
G75*
G02*
X187470000Y-39600000I-140000J0D01*
G01*
G37*
G36*
G01*
X187470000Y-40560000D02*
X187130000Y-40560000D01*
G75*
G02*
X186990000Y-40420000I0J140000D01*
G01*
X186990000Y-40140000D01*
G75*
G02*
X187130000Y-40000000I140000J0D01*
G01*
X187470000Y-40000000D01*
G75*
G02*
X187610000Y-40140000I0J-140000D01*
G01*
X187610000Y-40420000D01*
G75*
G02*
X187470000Y-40560000I-140000J0D01*
G01*
G37*
%TD*%
%TO.C,C64*%
G36*
G01*
X206825000Y-73665000D02*
X206485000Y-73665000D01*
G75*
G02*
X206345000Y-73525000I0J140000D01*
G01*
X206345000Y-73245000D01*
G75*
G02*
X206485000Y-73105000I140000J0D01*
G01*
X206825000Y-73105000D01*
G75*
G02*
X206965000Y-73245000I0J-140000D01*
G01*
X206965000Y-73525000D01*
G75*
G02*
X206825000Y-73665000I-140000J0D01*
G01*
G37*
G36*
G01*
X206825000Y-74625000D02*
X206485000Y-74625000D01*
G75*
G02*
X206345000Y-74485000I0J140000D01*
G01*
X206345000Y-74205000D01*
G75*
G02*
X206485000Y-74065000I140000J0D01*
G01*
X206825000Y-74065000D01*
G75*
G02*
X206965000Y-74205000I0J-140000D01*
G01*
X206965000Y-74485000D01*
G75*
G02*
X206825000Y-74625000I-140000J0D01*
G01*
G37*
%TD*%
%TO.C,C62*%
G36*
G01*
X205825000Y-73665000D02*
X205485000Y-73665000D01*
G75*
G02*
X205345000Y-73525000I0J140000D01*
G01*
X205345000Y-73245000D01*
G75*
G02*
X205485000Y-73105000I140000J0D01*
G01*
X205825000Y-73105000D01*
G75*
G02*
X205965000Y-73245000I0J-140000D01*
G01*
X205965000Y-73525000D01*
G75*
G02*
X205825000Y-73665000I-140000J0D01*
G01*
G37*
G36*
G01*
X205825000Y-74625000D02*
X205485000Y-74625000D01*
G75*
G02*
X205345000Y-74485000I0J140000D01*
G01*
X205345000Y-74205000D01*
G75*
G02*
X205485000Y-74065000I140000J0D01*
G01*
X205825000Y-74065000D01*
G75*
G02*
X205965000Y-74205000I0J-140000D01*
G01*
X205965000Y-74485000D01*
G75*
G02*
X205825000Y-74625000I-140000J0D01*
G01*
G37*
%TD*%
%TO.C,C59*%
G36*
G01*
X206845000Y-91660000D02*
X206505000Y-91660000D01*
G75*
G02*
X206365000Y-91520000I0J140000D01*
G01*
X206365000Y-91240000D01*
G75*
G02*
X206505000Y-91100000I140000J0D01*
G01*
X206845000Y-91100000D01*
G75*
G02*
X206985000Y-91240000I0J-140000D01*
G01*
X206985000Y-91520000D01*
G75*
G02*
X206845000Y-91660000I-140000J0D01*
G01*
G37*
G36*
G01*
X206845000Y-92620000D02*
X206505000Y-92620000D01*
G75*
G02*
X206365000Y-92480000I0J140000D01*
G01*
X206365000Y-92200000D01*
G75*
G02*
X206505000Y-92060000I140000J0D01*
G01*
X206845000Y-92060000D01*
G75*
G02*
X206985000Y-92200000I0J-140000D01*
G01*
X206985000Y-92480000D01*
G75*
G02*
X206845000Y-92620000I-140000J0D01*
G01*
G37*
%TD*%
%TO.C,C58*%
G36*
G01*
X185120000Y-37230000D02*
X185120000Y-37570000D01*
G75*
G02*
X184980000Y-37710000I-140000J0D01*
G01*
X184700000Y-37710000D01*
G75*
G02*
X184560000Y-37570000I0J140000D01*
G01*
X184560000Y-37230000D01*
G75*
G02*
X184700000Y-37090000I140000J0D01*
G01*
X184980000Y-37090000D01*
G75*
G02*
X185120000Y-37230000I0J-140000D01*
G01*
G37*
G36*
G01*
X186080000Y-37230000D02*
X186080000Y-37570000D01*
G75*
G02*
X185940000Y-37710000I-140000J0D01*
G01*
X185660000Y-37710000D01*
G75*
G02*
X185520000Y-37570000I0J140000D01*
G01*
X185520000Y-37230000D01*
G75*
G02*
X185660000Y-37090000I140000J0D01*
G01*
X185940000Y-37090000D01*
G75*
G02*
X186080000Y-37230000I0J-140000D01*
G01*
G37*
%TD*%
%TO.C,C57*%
G36*
G01*
X250350000Y-47075000D02*
X250350000Y-46125000D01*
G75*
G02*
X250600000Y-45875000I250000J0D01*
G01*
X251100000Y-45875000D01*
G75*
G02*
X251350000Y-46125000I0J-250000D01*
G01*
X251350000Y-47075000D01*
G75*
G02*
X251100000Y-47325000I-250000J0D01*
G01*
X250600000Y-47325000D01*
G75*
G02*
X250350000Y-47075000I0J250000D01*
G01*
G37*
G36*
G01*
X252250000Y-47075000D02*
X252250000Y-46125000D01*
G75*
G02*
X252500000Y-45875000I250000J0D01*
G01*
X253000000Y-45875000D01*
G75*
G02*
X253250000Y-46125000I0J-250000D01*
G01*
X253250000Y-47075000D01*
G75*
G02*
X253000000Y-47325000I-250000J0D01*
G01*
X252500000Y-47325000D01*
G75*
G02*
X252250000Y-47075000I0J250000D01*
G01*
G37*
%TD*%
%TO.C,C56*%
G36*
G01*
X205845000Y-91660000D02*
X205505000Y-91660000D01*
G75*
G02*
X205365000Y-91520000I0J140000D01*
G01*
X205365000Y-91240000D01*
G75*
G02*
X205505000Y-91100000I140000J0D01*
G01*
X205845000Y-91100000D01*
G75*
G02*
X205985000Y-91240000I0J-140000D01*
G01*
X205985000Y-91520000D01*
G75*
G02*
X205845000Y-91660000I-140000J0D01*
G01*
G37*
G36*
G01*
X205845000Y-92620000D02*
X205505000Y-92620000D01*
G75*
G02*
X205365000Y-92480000I0J140000D01*
G01*
X205365000Y-92200000D01*
G75*
G02*
X205505000Y-92060000I140000J0D01*
G01*
X205845000Y-92060000D01*
G75*
G02*
X205985000Y-92200000I0J-140000D01*
G01*
X205985000Y-92480000D01*
G75*
G02*
X205845000Y-92620000I-140000J0D01*
G01*
G37*
%TD*%
%TO.C,C55*%
G36*
G01*
X208480000Y-104280000D02*
X208820000Y-104280000D01*
G75*
G02*
X208960000Y-104420000I0J-140000D01*
G01*
X208960000Y-104700000D01*
G75*
G02*
X208820000Y-104840000I-140000J0D01*
G01*
X208480000Y-104840000D01*
G75*
G02*
X208340000Y-104700000I0J140000D01*
G01*
X208340000Y-104420000D01*
G75*
G02*
X208480000Y-104280000I140000J0D01*
G01*
G37*
G36*
G01*
X208480000Y-103320000D02*
X208820000Y-103320000D01*
G75*
G02*
X208960000Y-103460000I0J-140000D01*
G01*
X208960000Y-103740000D01*
G75*
G02*
X208820000Y-103880000I-140000J0D01*
G01*
X208480000Y-103880000D01*
G75*
G02*
X208340000Y-103740000I0J140000D01*
G01*
X208340000Y-103460000D01*
G75*
G02*
X208480000Y-103320000I140000J0D01*
G01*
G37*
%TD*%
%TO.C,C54*%
G36*
G01*
X208130000Y-86250000D02*
X208470000Y-86250000D01*
G75*
G02*
X208610000Y-86390000I0J-140000D01*
G01*
X208610000Y-86670000D01*
G75*
G02*
X208470000Y-86810000I-140000J0D01*
G01*
X208130000Y-86810000D01*
G75*
G02*
X207990000Y-86670000I0J140000D01*
G01*
X207990000Y-86390000D01*
G75*
G02*
X208130000Y-86250000I140000J0D01*
G01*
G37*
G36*
G01*
X208130000Y-85290000D02*
X208470000Y-85290000D01*
G75*
G02*
X208610000Y-85430000I0J-140000D01*
G01*
X208610000Y-85710000D01*
G75*
G02*
X208470000Y-85850000I-140000J0D01*
G01*
X208130000Y-85850000D01*
G75*
G02*
X207990000Y-85710000I0J140000D01*
G01*
X207990000Y-85430000D01*
G75*
G02*
X208130000Y-85290000I140000J0D01*
G01*
G37*
%TD*%
%TO.C,C53*%
G36*
G01*
X206300000Y-87275000D02*
X207250000Y-87275000D01*
G75*
G02*
X207500000Y-87525000I0J-250000D01*
G01*
X207500000Y-88025000D01*
G75*
G02*
X207250000Y-88275000I-250000J0D01*
G01*
X206300000Y-88275000D01*
G75*
G02*
X206050000Y-88025000I0J250000D01*
G01*
X206050000Y-87525000D01*
G75*
G02*
X206300000Y-87275000I250000J0D01*
G01*
G37*
G36*
G01*
X206300000Y-85375000D02*
X207250000Y-85375000D01*
G75*
G02*
X207500000Y-85625000I0J-250000D01*
G01*
X207500000Y-86125000D01*
G75*
G02*
X207250000Y-86375000I-250000J0D01*
G01*
X206300000Y-86375000D01*
G75*
G02*
X206050000Y-86125000I0J250000D01*
G01*
X206050000Y-85625000D01*
G75*
G02*
X206300000Y-85375000I250000J0D01*
G01*
G37*
%TD*%
%TO.C,C52*%
G36*
G01*
X180920000Y-24270000D02*
X180920000Y-23930000D01*
G75*
G02*
X181060000Y-23790000I140000J0D01*
G01*
X181340000Y-23790000D01*
G75*
G02*
X181480000Y-23930000I0J-140000D01*
G01*
X181480000Y-24270000D01*
G75*
G02*
X181340000Y-24410000I-140000J0D01*
G01*
X181060000Y-24410000D01*
G75*
G02*
X180920000Y-24270000I0J140000D01*
G01*
G37*
G36*
G01*
X179960000Y-24270000D02*
X179960000Y-23930000D01*
G75*
G02*
X180100000Y-23790000I140000J0D01*
G01*
X180380000Y-23790000D01*
G75*
G02*
X180520000Y-23930000I0J-140000D01*
G01*
X180520000Y-24270000D01*
G75*
G02*
X180380000Y-24410000I-140000J0D01*
G01*
X180100000Y-24410000D01*
G75*
G02*
X179960000Y-24270000I0J140000D01*
G01*
G37*
%TD*%
%TO.C,C51*%
G36*
G01*
X180920000Y-21470000D02*
X180920000Y-21130000D01*
G75*
G02*
X181060000Y-20990000I140000J0D01*
G01*
X181340000Y-20990000D01*
G75*
G02*
X181480000Y-21130000I0J-140000D01*
G01*
X181480000Y-21470000D01*
G75*
G02*
X181340000Y-21610000I-140000J0D01*
G01*
X181060000Y-21610000D01*
G75*
G02*
X180920000Y-21470000I0J140000D01*
G01*
G37*
G36*
G01*
X179960000Y-21470000D02*
X179960000Y-21130000D01*
G75*
G02*
X180100000Y-20990000I140000J0D01*
G01*
X180380000Y-20990000D01*
G75*
G02*
X180520000Y-21130000I0J-140000D01*
G01*
X180520000Y-21470000D01*
G75*
G02*
X180380000Y-21610000I-140000J0D01*
G01*
X180100000Y-21610000D01*
G75*
G02*
X179960000Y-21470000I0J140000D01*
G01*
G37*
%TD*%
%TO.C,C50*%
G36*
G01*
X168620000Y-25430000D02*
X168620000Y-25770000D01*
G75*
G02*
X168480000Y-25910000I-140000J0D01*
G01*
X168200000Y-25910000D01*
G75*
G02*
X168060000Y-25770000I0J140000D01*
G01*
X168060000Y-25430000D01*
G75*
G02*
X168200000Y-25290000I140000J0D01*
G01*
X168480000Y-25290000D01*
G75*
G02*
X168620000Y-25430000I0J-140000D01*
G01*
G37*
G36*
G01*
X169580000Y-25430000D02*
X169580000Y-25770000D01*
G75*
G02*
X169440000Y-25910000I-140000J0D01*
G01*
X169160000Y-25910000D01*
G75*
G02*
X169020000Y-25770000I0J140000D01*
G01*
X169020000Y-25430000D01*
G75*
G02*
X169160000Y-25290000I140000J0D01*
G01*
X169440000Y-25290000D01*
G75*
G02*
X169580000Y-25430000I0J-140000D01*
G01*
G37*
%TD*%
%TO.C,C49*%
G36*
G01*
X169475000Y-26480000D02*
X169475000Y-26820000D01*
G75*
G02*
X169335000Y-26960000I-140000J0D01*
G01*
X169055000Y-26960000D01*
G75*
G02*
X168915000Y-26820000I0J140000D01*
G01*
X168915000Y-26480000D01*
G75*
G02*
X169055000Y-26340000I140000J0D01*
G01*
X169335000Y-26340000D01*
G75*
G02*
X169475000Y-26480000I0J-140000D01*
G01*
G37*
G36*
G01*
X170435000Y-26480000D02*
X170435000Y-26820000D01*
G75*
G02*
X170295000Y-26960000I-140000J0D01*
G01*
X170015000Y-26960000D01*
G75*
G02*
X169875000Y-26820000I0J140000D01*
G01*
X169875000Y-26480000D01*
G75*
G02*
X170015000Y-26340000I140000J0D01*
G01*
X170295000Y-26340000D01*
G75*
G02*
X170435000Y-26480000I0J-140000D01*
G01*
G37*
%TD*%
%TO.C,C48*%
G36*
G01*
X168580000Y-19930000D02*
X168580000Y-20270000D01*
G75*
G02*
X168440000Y-20410000I-140000J0D01*
G01*
X168160000Y-20410000D01*
G75*
G02*
X168020000Y-20270000I0J140000D01*
G01*
X168020000Y-19930000D01*
G75*
G02*
X168160000Y-19790000I140000J0D01*
G01*
X168440000Y-19790000D01*
G75*
G02*
X168580000Y-19930000I0J-140000D01*
G01*
G37*
G36*
G01*
X169540000Y-19930000D02*
X169540000Y-20270000D01*
G75*
G02*
X169400000Y-20410000I-140000J0D01*
G01*
X169120000Y-20410000D01*
G75*
G02*
X168980000Y-20270000I0J140000D01*
G01*
X168980000Y-19930000D01*
G75*
G02*
X169120000Y-19790000I140000J0D01*
G01*
X169400000Y-19790000D01*
G75*
G02*
X169540000Y-19930000I0J-140000D01*
G01*
G37*
%TD*%
%TO.C,C47*%
G36*
G01*
X210350000Y-97700000D02*
X210350000Y-98040000D01*
G75*
G02*
X210210000Y-98180000I-140000J0D01*
G01*
X209930000Y-98180000D01*
G75*
G02*
X209790000Y-98040000I0J140000D01*
G01*
X209790000Y-97700000D01*
G75*
G02*
X209930000Y-97560000I140000J0D01*
G01*
X210210000Y-97560000D01*
G75*
G02*
X210350000Y-97700000I0J-140000D01*
G01*
G37*
G36*
G01*
X211310000Y-97700000D02*
X211310000Y-98040000D01*
G75*
G02*
X211170000Y-98180000I-140000J0D01*
G01*
X210890000Y-98180000D01*
G75*
G02*
X210750000Y-98040000I0J140000D01*
G01*
X210750000Y-97700000D01*
G75*
G02*
X210890000Y-97560000I140000J0D01*
G01*
X211170000Y-97560000D01*
G75*
G02*
X211310000Y-97700000I0J-140000D01*
G01*
G37*
%TD*%
%TO.C,C46*%
G36*
G01*
X210320000Y-79720000D02*
X210320000Y-80060000D01*
G75*
G02*
X210180000Y-80200000I-140000J0D01*
G01*
X209900000Y-80200000D01*
G75*
G02*
X209760000Y-80060000I0J140000D01*
G01*
X209760000Y-79720000D01*
G75*
G02*
X209900000Y-79580000I140000J0D01*
G01*
X210180000Y-79580000D01*
G75*
G02*
X210320000Y-79720000I0J-140000D01*
G01*
G37*
G36*
G01*
X211280000Y-79720000D02*
X211280000Y-80060000D01*
G75*
G02*
X211140000Y-80200000I-140000J0D01*
G01*
X210860000Y-80200000D01*
G75*
G02*
X210720000Y-80060000I0J140000D01*
G01*
X210720000Y-79720000D01*
G75*
G02*
X210860000Y-79580000I140000J0D01*
G01*
X211140000Y-79580000D01*
G75*
G02*
X211280000Y-79720000I0J-140000D01*
G01*
G37*
%TD*%
%TO.C,C45*%
G36*
G01*
X216500000Y-86050000D02*
X216840000Y-86050000D01*
G75*
G02*
X216980000Y-86190000I0J-140000D01*
G01*
X216980000Y-86470000D01*
G75*
G02*
X216840000Y-86610000I-140000J0D01*
G01*
X216500000Y-86610000D01*
G75*
G02*
X216360000Y-86470000I0J140000D01*
G01*
X216360000Y-86190000D01*
G75*
G02*
X216500000Y-86050000I140000J0D01*
G01*
G37*
G36*
G01*
X216500000Y-85090000D02*
X216840000Y-85090000D01*
G75*
G02*
X216980000Y-85230000I0J-140000D01*
G01*
X216980000Y-85510000D01*
G75*
G02*
X216840000Y-85650000I-140000J0D01*
G01*
X216500000Y-85650000D01*
G75*
G02*
X216360000Y-85510000I0J140000D01*
G01*
X216360000Y-85230000D01*
G75*
G02*
X216500000Y-85090000I140000J0D01*
G01*
G37*
%TD*%
%TO.C,C44*%
G36*
G01*
X210350000Y-96720000D02*
X210350000Y-97060000D01*
G75*
G02*
X210210000Y-97200000I-140000J0D01*
G01*
X209930000Y-97200000D01*
G75*
G02*
X209790000Y-97060000I0J140000D01*
G01*
X209790000Y-96720000D01*
G75*
G02*
X209930000Y-96580000I140000J0D01*
G01*
X210210000Y-96580000D01*
G75*
G02*
X210350000Y-96720000I0J-140000D01*
G01*
G37*
G36*
G01*
X211310000Y-96720000D02*
X211310000Y-97060000D01*
G75*
G02*
X211170000Y-97200000I-140000J0D01*
G01*
X210890000Y-97200000D01*
G75*
G02*
X210750000Y-97060000I0J140000D01*
G01*
X210750000Y-96720000D01*
G75*
G02*
X210890000Y-96580000I140000J0D01*
G01*
X211170000Y-96580000D01*
G75*
G02*
X211310000Y-96720000I0J-140000D01*
G01*
G37*
%TD*%
%TO.C,C43*%
G36*
G01*
X210320000Y-78720000D02*
X210320000Y-79060000D01*
G75*
G02*
X210180000Y-79200000I-140000J0D01*
G01*
X209900000Y-79200000D01*
G75*
G02*
X209760000Y-79060000I0J140000D01*
G01*
X209760000Y-78720000D01*
G75*
G02*
X209900000Y-78580000I140000J0D01*
G01*
X210180000Y-78580000D01*
G75*
G02*
X210320000Y-78720000I0J-140000D01*
G01*
G37*
G36*
G01*
X211280000Y-78720000D02*
X211280000Y-79060000D01*
G75*
G02*
X211140000Y-79200000I-140000J0D01*
G01*
X210860000Y-79200000D01*
G75*
G02*
X210720000Y-79060000I0J140000D01*
G01*
X210720000Y-78720000D01*
G75*
G02*
X210860000Y-78580000I140000J0D01*
G01*
X211140000Y-78580000D01*
G75*
G02*
X211280000Y-78720000I0J-140000D01*
G01*
G37*
%TD*%
%TO.C,C42*%
G36*
G01*
X247050000Y-71895000D02*
X247050000Y-71555000D01*
G75*
G02*
X247190000Y-71415000I140000J0D01*
G01*
X247470000Y-71415000D01*
G75*
G02*
X247610000Y-71555000I0J-140000D01*
G01*
X247610000Y-71895000D01*
G75*
G02*
X247470000Y-72035000I-140000J0D01*
G01*
X247190000Y-72035000D01*
G75*
G02*
X247050000Y-71895000I0J140000D01*
G01*
G37*
G36*
G01*
X246090000Y-71895000D02*
X246090000Y-71555000D01*
G75*
G02*
X246230000Y-71415000I140000J0D01*
G01*
X246510000Y-71415000D01*
G75*
G02*
X246650000Y-71555000I0J-140000D01*
G01*
X246650000Y-71895000D01*
G75*
G02*
X246510000Y-72035000I-140000J0D01*
G01*
X246230000Y-72035000D01*
G75*
G02*
X246090000Y-71895000I0J140000D01*
G01*
G37*
%TD*%
%TO.C,C41*%
G36*
G01*
X217505000Y-86050000D02*
X217845000Y-86050000D01*
G75*
G02*
X217985000Y-86190000I0J-140000D01*
G01*
X217985000Y-86470000D01*
G75*
G02*
X217845000Y-86610000I-140000J0D01*
G01*
X217505000Y-86610000D01*
G75*
G02*
X217365000Y-86470000I0J140000D01*
G01*
X217365000Y-86190000D01*
G75*
G02*
X217505000Y-86050000I140000J0D01*
G01*
G37*
G36*
G01*
X217505000Y-85090000D02*
X217845000Y-85090000D01*
G75*
G02*
X217985000Y-85230000I0J-140000D01*
G01*
X217985000Y-85510000D01*
G75*
G02*
X217845000Y-85650000I-140000J0D01*
G01*
X217505000Y-85650000D01*
G75*
G02*
X217365000Y-85510000I0J140000D01*
G01*
X217365000Y-85230000D01*
G75*
G02*
X217505000Y-85090000I140000J0D01*
G01*
G37*
%TD*%
%TO.C,C40*%
G36*
G01*
X247045000Y-72895000D02*
X247045000Y-72555000D01*
G75*
G02*
X247185000Y-72415000I140000J0D01*
G01*
X247465000Y-72415000D01*
G75*
G02*
X247605000Y-72555000I0J-140000D01*
G01*
X247605000Y-72895000D01*
G75*
G02*
X247465000Y-73035000I-140000J0D01*
G01*
X247185000Y-73035000D01*
G75*
G02*
X247045000Y-72895000I0J140000D01*
G01*
G37*
G36*
G01*
X246085000Y-72895000D02*
X246085000Y-72555000D01*
G75*
G02*
X246225000Y-72415000I140000J0D01*
G01*
X246505000Y-72415000D01*
G75*
G02*
X246645000Y-72555000I0J-140000D01*
G01*
X246645000Y-72895000D01*
G75*
G02*
X246505000Y-73035000I-140000J0D01*
G01*
X246225000Y-73035000D01*
G75*
G02*
X246085000Y-72895000I0J140000D01*
G01*
G37*
%TD*%
%TO.C,C39*%
G36*
G01*
X222700000Y-86700000D02*
X223650000Y-86700000D01*
G75*
G02*
X223900000Y-86950000I0J-250000D01*
G01*
X223900000Y-87450000D01*
G75*
G02*
X223650000Y-87700000I-250000J0D01*
G01*
X222700000Y-87700000D01*
G75*
G02*
X222450000Y-87450000I0J250000D01*
G01*
X222450000Y-86950000D01*
G75*
G02*
X222700000Y-86700000I250000J0D01*
G01*
G37*
G36*
G01*
X222700000Y-84800000D02*
X223650000Y-84800000D01*
G75*
G02*
X223900000Y-85050000I0J-250000D01*
G01*
X223900000Y-85550000D01*
G75*
G02*
X223650000Y-85800000I-250000J0D01*
G01*
X222700000Y-85800000D01*
G75*
G02*
X222450000Y-85550000I0J250000D01*
G01*
X222450000Y-85050000D01*
G75*
G02*
X222700000Y-84800000I250000J0D01*
G01*
G37*
%TD*%
%TO.C,C38*%
G36*
G01*
X252350000Y-63600000D02*
X253300000Y-63600000D01*
G75*
G02*
X253550000Y-63850000I0J-250000D01*
G01*
X253550000Y-64350000D01*
G75*
G02*
X253300000Y-64600000I-250000J0D01*
G01*
X252350000Y-64600000D01*
G75*
G02*
X252100000Y-64350000I0J250000D01*
G01*
X252100000Y-63850000D01*
G75*
G02*
X252350000Y-63600000I250000J0D01*
G01*
G37*
G36*
G01*
X252350000Y-61700000D02*
X253300000Y-61700000D01*
G75*
G02*
X253550000Y-61950000I0J-250000D01*
G01*
X253550000Y-62450000D01*
G75*
G02*
X253300000Y-62700000I-250000J0D01*
G01*
X252350000Y-62700000D01*
G75*
G02*
X252100000Y-62450000I0J250000D01*
G01*
X252100000Y-61950000D01*
G75*
G02*
X252350000Y-61700000I250000J0D01*
G01*
G37*
%TD*%
%TO.C,C37*%
G36*
G01*
X204200000Y-87275000D02*
X205150000Y-87275000D01*
G75*
G02*
X205400000Y-87525000I0J-250000D01*
G01*
X205400000Y-88025000D01*
G75*
G02*
X205150000Y-88275000I-250000J0D01*
G01*
X204200000Y-88275000D01*
G75*
G02*
X203950000Y-88025000I0J250000D01*
G01*
X203950000Y-87525000D01*
G75*
G02*
X204200000Y-87275000I250000J0D01*
G01*
G37*
G36*
G01*
X204200000Y-85375000D02*
X205150000Y-85375000D01*
G75*
G02*
X205400000Y-85625000I0J-250000D01*
G01*
X205400000Y-86125000D01*
G75*
G02*
X205150000Y-86375000I-250000J0D01*
G01*
X204200000Y-86375000D01*
G75*
G02*
X203950000Y-86125000I0J250000D01*
G01*
X203950000Y-85625000D01*
G75*
G02*
X204200000Y-85375000I250000J0D01*
G01*
G37*
%TD*%
%TO.C,C36*%
G36*
G01*
X217135000Y-91735000D02*
X217475000Y-91735000D01*
G75*
G02*
X217615000Y-91875000I0J-140000D01*
G01*
X217615000Y-92155000D01*
G75*
G02*
X217475000Y-92295000I-140000J0D01*
G01*
X217135000Y-92295000D01*
G75*
G02*
X216995000Y-92155000I0J140000D01*
G01*
X216995000Y-91875000D01*
G75*
G02*
X217135000Y-91735000I140000J0D01*
G01*
G37*
G36*
G01*
X217135000Y-90775000D02*
X217475000Y-90775000D01*
G75*
G02*
X217615000Y-90915000I0J-140000D01*
G01*
X217615000Y-91195000D01*
G75*
G02*
X217475000Y-91335000I-140000J0D01*
G01*
X217135000Y-91335000D01*
G75*
G02*
X216995000Y-91195000I0J140000D01*
G01*
X216995000Y-90915000D01*
G75*
G02*
X217135000Y-90775000I140000J0D01*
G01*
G37*
%TD*%
%TO.C,C35*%
G36*
G01*
X204575000Y-105300000D02*
X205525000Y-105300000D01*
G75*
G02*
X205775000Y-105550000I0J-250000D01*
G01*
X205775000Y-106050000D01*
G75*
G02*
X205525000Y-106300000I-250000J0D01*
G01*
X204575000Y-106300000D01*
G75*
G02*
X204325000Y-106050000I0J250000D01*
G01*
X204325000Y-105550000D01*
G75*
G02*
X204575000Y-105300000I250000J0D01*
G01*
G37*
G36*
G01*
X204575000Y-103400000D02*
X205525000Y-103400000D01*
G75*
G02*
X205775000Y-103650000I0J-250000D01*
G01*
X205775000Y-104150000D01*
G75*
G02*
X205525000Y-104400000I-250000J0D01*
G01*
X204575000Y-104400000D01*
G75*
G02*
X204325000Y-104150000I0J250000D01*
G01*
X204325000Y-103650000D01*
G75*
G02*
X204575000Y-103400000I250000J0D01*
G01*
G37*
%TD*%
%TO.C,C34*%
G36*
G01*
X210780000Y-84645000D02*
X210780000Y-84305000D01*
G75*
G02*
X210920000Y-84165000I140000J0D01*
G01*
X211200000Y-84165000D01*
G75*
G02*
X211340000Y-84305000I0J-140000D01*
G01*
X211340000Y-84645000D01*
G75*
G02*
X211200000Y-84785000I-140000J0D01*
G01*
X210920000Y-84785000D01*
G75*
G02*
X210780000Y-84645000I0J140000D01*
G01*
G37*
G36*
G01*
X209820000Y-84645000D02*
X209820000Y-84305000D01*
G75*
G02*
X209960000Y-84165000I140000J0D01*
G01*
X210240000Y-84165000D01*
G75*
G02*
X210380000Y-84305000I0J-140000D01*
G01*
X210380000Y-84645000D01*
G75*
G02*
X210240000Y-84785000I-140000J0D01*
G01*
X209960000Y-84785000D01*
G75*
G02*
X209820000Y-84645000I0J140000D01*
G01*
G37*
%TD*%
%TO.C,C33*%
G36*
G01*
X210770000Y-102670000D02*
X210770000Y-102330000D01*
G75*
G02*
X210910000Y-102190000I140000J0D01*
G01*
X211190000Y-102190000D01*
G75*
G02*
X211330000Y-102330000I0J-140000D01*
G01*
X211330000Y-102670000D01*
G75*
G02*
X211190000Y-102810000I-140000J0D01*
G01*
X210910000Y-102810000D01*
G75*
G02*
X210770000Y-102670000I0J140000D01*
G01*
G37*
G36*
G01*
X209810000Y-102670000D02*
X209810000Y-102330000D01*
G75*
G02*
X209950000Y-102190000I140000J0D01*
G01*
X210230000Y-102190000D01*
G75*
G02*
X210370000Y-102330000I0J-140000D01*
G01*
X210370000Y-102670000D01*
G75*
G02*
X210230000Y-102810000I-140000J0D01*
G01*
X209950000Y-102810000D01*
G75*
G02*
X209810000Y-102670000I0J140000D01*
G01*
G37*
%TD*%
%TO.C,C32*%
G36*
G01*
X210540000Y-93720000D02*
X210200000Y-93720000D01*
G75*
G02*
X210060000Y-93580000I0J140000D01*
G01*
X210060000Y-93300000D01*
G75*
G02*
X210200000Y-93160000I140000J0D01*
G01*
X210540000Y-93160000D01*
G75*
G02*
X210680000Y-93300000I0J-140000D01*
G01*
X210680000Y-93580000D01*
G75*
G02*
X210540000Y-93720000I-140000J0D01*
G01*
G37*
G36*
G01*
X210540000Y-94680000D02*
X210200000Y-94680000D01*
G75*
G02*
X210060000Y-94540000I0J140000D01*
G01*
X210060000Y-94260000D01*
G75*
G02*
X210200000Y-94120000I140000J0D01*
G01*
X210540000Y-94120000D01*
G75*
G02*
X210680000Y-94260000I0J-140000D01*
G01*
X210680000Y-94540000D01*
G75*
G02*
X210540000Y-94680000I-140000J0D01*
G01*
G37*
%TD*%
%TO.C,C31*%
G36*
G01*
X210720000Y-78070000D02*
X210720000Y-77730000D01*
G75*
G02*
X210860000Y-77590000I140000J0D01*
G01*
X211140000Y-77590000D01*
G75*
G02*
X211280000Y-77730000I0J-140000D01*
G01*
X211280000Y-78070000D01*
G75*
G02*
X211140000Y-78210000I-140000J0D01*
G01*
X210860000Y-78210000D01*
G75*
G02*
X210720000Y-78070000I0J140000D01*
G01*
G37*
G36*
G01*
X209760000Y-78070000D02*
X209760000Y-77730000D01*
G75*
G02*
X209900000Y-77590000I140000J0D01*
G01*
X210180000Y-77590000D01*
G75*
G02*
X210320000Y-77730000I0J-140000D01*
G01*
X210320000Y-78070000D01*
G75*
G02*
X210180000Y-78210000I-140000J0D01*
G01*
X209900000Y-78210000D01*
G75*
G02*
X209760000Y-78070000I0J140000D01*
G01*
G37*
%TD*%
%TO.C,C30*%
G36*
G01*
X210750000Y-96080000D02*
X210750000Y-95740000D01*
G75*
G02*
X210890000Y-95600000I140000J0D01*
G01*
X211170000Y-95600000D01*
G75*
G02*
X211310000Y-95740000I0J-140000D01*
G01*
X211310000Y-96080000D01*
G75*
G02*
X211170000Y-96220000I-140000J0D01*
G01*
X210890000Y-96220000D01*
G75*
G02*
X210750000Y-96080000I0J140000D01*
G01*
G37*
G36*
G01*
X209790000Y-96080000D02*
X209790000Y-95740000D01*
G75*
G02*
X209930000Y-95600000I140000J0D01*
G01*
X210210000Y-95600000D01*
G75*
G02*
X210350000Y-95740000I0J-140000D01*
G01*
X210350000Y-96080000D01*
G75*
G02*
X210210000Y-96220000I-140000J0D01*
G01*
X209930000Y-96220000D01*
G75*
G02*
X209790000Y-96080000I0J140000D01*
G01*
G37*
%TD*%
%TO.C,C29*%
G36*
G01*
X199880000Y-86245000D02*
X200220000Y-86245000D01*
G75*
G02*
X200360000Y-86385000I0J-140000D01*
G01*
X200360000Y-86665000D01*
G75*
G02*
X200220000Y-86805000I-140000J0D01*
G01*
X199880000Y-86805000D01*
G75*
G02*
X199740000Y-86665000I0J140000D01*
G01*
X199740000Y-86385000D01*
G75*
G02*
X199880000Y-86245000I140000J0D01*
G01*
G37*
G36*
G01*
X199880000Y-85285000D02*
X200220000Y-85285000D01*
G75*
G02*
X200360000Y-85425000I0J-140000D01*
G01*
X200360000Y-85705000D01*
G75*
G02*
X200220000Y-85845000I-140000J0D01*
G01*
X199880000Y-85845000D01*
G75*
G02*
X199740000Y-85705000I0J140000D01*
G01*
X199740000Y-85425000D01*
G75*
G02*
X199880000Y-85285000I140000J0D01*
G01*
G37*
%TD*%
%TO.C,C28*%
G36*
G01*
X199080000Y-104220000D02*
X199420000Y-104220000D01*
G75*
G02*
X199560000Y-104360000I0J-140000D01*
G01*
X199560000Y-104640000D01*
G75*
G02*
X199420000Y-104780000I-140000J0D01*
G01*
X199080000Y-104780000D01*
G75*
G02*
X198940000Y-104640000I0J140000D01*
G01*
X198940000Y-104360000D01*
G75*
G02*
X199080000Y-104220000I140000J0D01*
G01*
G37*
G36*
G01*
X199080000Y-103260000D02*
X199420000Y-103260000D01*
G75*
G02*
X199560000Y-103400000I0J-140000D01*
G01*
X199560000Y-103680000D01*
G75*
G02*
X199420000Y-103820000I-140000J0D01*
G01*
X199080000Y-103820000D01*
G75*
G02*
X198940000Y-103680000I0J140000D01*
G01*
X198940000Y-103400000D01*
G75*
G02*
X199080000Y-103260000I140000J0D01*
G01*
G37*
%TD*%
%TO.C,C27*%
G36*
G01*
X213210000Y-94110000D02*
X213550000Y-94110000D01*
G75*
G02*
X213690000Y-94250000I0J-140000D01*
G01*
X213690000Y-94530000D01*
G75*
G02*
X213550000Y-94670000I-140000J0D01*
G01*
X213210000Y-94670000D01*
G75*
G02*
X213070000Y-94530000I0J140000D01*
G01*
X213070000Y-94250000D01*
G75*
G02*
X213210000Y-94110000I140000J0D01*
G01*
G37*
G36*
G01*
X213210000Y-93150000D02*
X213550000Y-93150000D01*
G75*
G02*
X213690000Y-93290000I0J-140000D01*
G01*
X213690000Y-93570000D01*
G75*
G02*
X213550000Y-93710000I-140000J0D01*
G01*
X213210000Y-93710000D01*
G75*
G02*
X213070000Y-93570000I0J140000D01*
G01*
X213070000Y-93290000D01*
G75*
G02*
X213210000Y-93150000I140000J0D01*
G01*
G37*
%TD*%
%TO.C,C26*%
G36*
G01*
X198880000Y-86230000D02*
X199220000Y-86230000D01*
G75*
G02*
X199360000Y-86370000I0J-140000D01*
G01*
X199360000Y-86650000D01*
G75*
G02*
X199220000Y-86790000I-140000J0D01*
G01*
X198880000Y-86790000D01*
G75*
G02*
X198740000Y-86650000I0J140000D01*
G01*
X198740000Y-86370000D01*
G75*
G02*
X198880000Y-86230000I140000J0D01*
G01*
G37*
G36*
G01*
X198880000Y-85270000D02*
X199220000Y-85270000D01*
G75*
G02*
X199360000Y-85410000I0J-140000D01*
G01*
X199360000Y-85690000D01*
G75*
G02*
X199220000Y-85830000I-140000J0D01*
G01*
X198880000Y-85830000D01*
G75*
G02*
X198740000Y-85690000I0J140000D01*
G01*
X198740000Y-85410000D01*
G75*
G02*
X198880000Y-85270000I140000J0D01*
G01*
G37*
%TD*%
%TO.C,C25*%
G36*
G01*
X200080000Y-104230000D02*
X200420000Y-104230000D01*
G75*
G02*
X200560000Y-104370000I0J-140000D01*
G01*
X200560000Y-104650000D01*
G75*
G02*
X200420000Y-104790000I-140000J0D01*
G01*
X200080000Y-104790000D01*
G75*
G02*
X199940000Y-104650000I0J140000D01*
G01*
X199940000Y-104370000D01*
G75*
G02*
X200080000Y-104230000I140000J0D01*
G01*
G37*
G36*
G01*
X200080000Y-103270000D02*
X200420000Y-103270000D01*
G75*
G02*
X200560000Y-103410000I0J-140000D01*
G01*
X200560000Y-103690000D01*
G75*
G02*
X200420000Y-103830000I-140000J0D01*
G01*
X200080000Y-103830000D01*
G75*
G02*
X199940000Y-103690000I0J140000D01*
G01*
X199940000Y-103410000D01*
G75*
G02*
X200080000Y-103270000I140000J0D01*
G01*
G37*
%TD*%
%TO.C,C24*%
G36*
G01*
X200880000Y-86230000D02*
X201220000Y-86230000D01*
G75*
G02*
X201360000Y-86370000I0J-140000D01*
G01*
X201360000Y-86650000D01*
G75*
G02*
X201220000Y-86790000I-140000J0D01*
G01*
X200880000Y-86790000D01*
G75*
G02*
X200740000Y-86650000I0J140000D01*
G01*
X200740000Y-86370000D01*
G75*
G02*
X200880000Y-86230000I140000J0D01*
G01*
G37*
G36*
G01*
X200880000Y-85270000D02*
X201220000Y-85270000D01*
G75*
G02*
X201360000Y-85410000I0J-140000D01*
G01*
X201360000Y-85690000D01*
G75*
G02*
X201220000Y-85830000I-140000J0D01*
G01*
X200880000Y-85830000D01*
G75*
G02*
X200740000Y-85690000I0J140000D01*
G01*
X200740000Y-85410000D01*
G75*
G02*
X200880000Y-85270000I140000J0D01*
G01*
G37*
%TD*%
%TO.C,C23*%
G36*
G01*
X201080000Y-104220000D02*
X201420000Y-104220000D01*
G75*
G02*
X201560000Y-104360000I0J-140000D01*
G01*
X201560000Y-104640000D01*
G75*
G02*
X201420000Y-104780000I-140000J0D01*
G01*
X201080000Y-104780000D01*
G75*
G02*
X200940000Y-104640000I0J140000D01*
G01*
X200940000Y-104360000D01*
G75*
G02*
X201080000Y-104220000I140000J0D01*
G01*
G37*
G36*
G01*
X201080000Y-103260000D02*
X201420000Y-103260000D01*
G75*
G02*
X201560000Y-103400000I0J-140000D01*
G01*
X201560000Y-103680000D01*
G75*
G02*
X201420000Y-103820000I-140000J0D01*
G01*
X201080000Y-103820000D01*
G75*
G02*
X200940000Y-103680000I0J140000D01*
G01*
X200940000Y-103400000D01*
G75*
G02*
X201080000Y-103260000I140000J0D01*
G01*
G37*
%TD*%
%TO.C,C22*%
G36*
G01*
X202100000Y-87225000D02*
X203050000Y-87225000D01*
G75*
G02*
X203300000Y-87475000I0J-250000D01*
G01*
X203300000Y-87975000D01*
G75*
G02*
X203050000Y-88225000I-250000J0D01*
G01*
X202100000Y-88225000D01*
G75*
G02*
X201850000Y-87975000I0J250000D01*
G01*
X201850000Y-87475000D01*
G75*
G02*
X202100000Y-87225000I250000J0D01*
G01*
G37*
G36*
G01*
X202100000Y-85325000D02*
X203050000Y-85325000D01*
G75*
G02*
X203300000Y-85575000I0J-250000D01*
G01*
X203300000Y-86075000D01*
G75*
G02*
X203050000Y-86325000I-250000J0D01*
G01*
X202100000Y-86325000D01*
G75*
G02*
X201850000Y-86075000I0J250000D01*
G01*
X201850000Y-85575000D01*
G75*
G02*
X202100000Y-85325000I250000J0D01*
G01*
G37*
%TD*%
%TO.C,C21*%
G36*
G01*
X202275000Y-105250000D02*
X203225000Y-105250000D01*
G75*
G02*
X203475000Y-105500000I0J-250000D01*
G01*
X203475000Y-106000000D01*
G75*
G02*
X203225000Y-106250000I-250000J0D01*
G01*
X202275000Y-106250000D01*
G75*
G02*
X202025000Y-106000000I0J250000D01*
G01*
X202025000Y-105500000D01*
G75*
G02*
X202275000Y-105250000I250000J0D01*
G01*
G37*
G36*
G01*
X202275000Y-103350000D02*
X203225000Y-103350000D01*
G75*
G02*
X203475000Y-103600000I0J-250000D01*
G01*
X203475000Y-104100000D01*
G75*
G02*
X203225000Y-104350000I-250000J0D01*
G01*
X202275000Y-104350000D01*
G75*
G02*
X202025000Y-104100000I0J250000D01*
G01*
X202025000Y-103600000D01*
G75*
G02*
X202275000Y-103350000I250000J0D01*
G01*
G37*
%TD*%
%TO.C,C20*%
G36*
G01*
X203190000Y-92480000D02*
X203190000Y-92140000D01*
G75*
G02*
X203330000Y-92000000I140000J0D01*
G01*
X203610000Y-92000000D01*
G75*
G02*
X203750000Y-92140000I0J-140000D01*
G01*
X203750000Y-92480000D01*
G75*
G02*
X203610000Y-92620000I-140000J0D01*
G01*
X203330000Y-92620000D01*
G75*
G02*
X203190000Y-92480000I0J140000D01*
G01*
G37*
G36*
G01*
X202230000Y-92480000D02*
X202230000Y-92140000D01*
G75*
G02*
X202370000Y-92000000I140000J0D01*
G01*
X202650000Y-92000000D01*
G75*
G02*
X202790000Y-92140000I0J-140000D01*
G01*
X202790000Y-92480000D01*
G75*
G02*
X202650000Y-92620000I-140000J0D01*
G01*
X202370000Y-92620000D01*
G75*
G02*
X202230000Y-92480000I0J140000D01*
G01*
G37*
%TD*%
%TO.C,C19*%
G36*
G01*
X208350000Y-90100000D02*
X208350000Y-90440000D01*
G75*
G02*
X208210000Y-90580000I-140000J0D01*
G01*
X207930000Y-90580000D01*
G75*
G02*
X207790000Y-90440000I0J140000D01*
G01*
X207790000Y-90100000D01*
G75*
G02*
X207930000Y-89960000I140000J0D01*
G01*
X208210000Y-89960000D01*
G75*
G02*
X208350000Y-90100000I0J-140000D01*
G01*
G37*
G36*
G01*
X209310000Y-90100000D02*
X209310000Y-90440000D01*
G75*
G02*
X209170000Y-90580000I-140000J0D01*
G01*
X208890000Y-90580000D01*
G75*
G02*
X208750000Y-90440000I0J140000D01*
G01*
X208750000Y-90100000D01*
G75*
G02*
X208890000Y-89960000I140000J0D01*
G01*
X209170000Y-89960000D01*
G75*
G02*
X209310000Y-90100000I0J-140000D01*
G01*
G37*
%TD*%
%TO.C,C18*%
G36*
G01*
X195000000Y-114230000D02*
X195000000Y-114570000D01*
G75*
G02*
X194860000Y-114710000I-140000J0D01*
G01*
X194580000Y-114710000D01*
G75*
G02*
X194440000Y-114570000I0J140000D01*
G01*
X194440000Y-114230000D01*
G75*
G02*
X194580000Y-114090000I140000J0D01*
G01*
X194860000Y-114090000D01*
G75*
G02*
X195000000Y-114230000I0J-140000D01*
G01*
G37*
G36*
G01*
X195960000Y-114230000D02*
X195960000Y-114570000D01*
G75*
G02*
X195820000Y-114710000I-140000J0D01*
G01*
X195540000Y-114710000D01*
G75*
G02*
X195400000Y-114570000I0J140000D01*
G01*
X195400000Y-114230000D01*
G75*
G02*
X195540000Y-114090000I140000J0D01*
G01*
X195820000Y-114090000D01*
G75*
G02*
X195960000Y-114230000I0J-140000D01*
G01*
G37*
%TD*%
%TO.C,C17*%
G36*
G01*
X195020000Y-95530000D02*
X195020000Y-95870000D01*
G75*
G02*
X194880000Y-96010000I-140000J0D01*
G01*
X194600000Y-96010000D01*
G75*
G02*
X194460000Y-95870000I0J140000D01*
G01*
X194460000Y-95530000D01*
G75*
G02*
X194600000Y-95390000I140000J0D01*
G01*
X194880000Y-95390000D01*
G75*
G02*
X195020000Y-95530000I0J-140000D01*
G01*
G37*
G36*
G01*
X195980000Y-95530000D02*
X195980000Y-95870000D01*
G75*
G02*
X195840000Y-96010000I-140000J0D01*
G01*
X195560000Y-96010000D01*
G75*
G02*
X195420000Y-95870000I0J140000D01*
G01*
X195420000Y-95530000D01*
G75*
G02*
X195560000Y-95390000I140000J0D01*
G01*
X195840000Y-95390000D01*
G75*
G02*
X195980000Y-95530000I0J-140000D01*
G01*
G37*
%TD*%
%TO.C,C16*%
G36*
G01*
X194630000Y-116080000D02*
X194970000Y-116080000D01*
G75*
G02*
X195110000Y-116220000I0J-140000D01*
G01*
X195110000Y-116500000D01*
G75*
G02*
X194970000Y-116640000I-140000J0D01*
G01*
X194630000Y-116640000D01*
G75*
G02*
X194490000Y-116500000I0J140000D01*
G01*
X194490000Y-116220000D01*
G75*
G02*
X194630000Y-116080000I140000J0D01*
G01*
G37*
G36*
G01*
X194630000Y-115120000D02*
X194970000Y-115120000D01*
G75*
G02*
X195110000Y-115260000I0J-140000D01*
G01*
X195110000Y-115540000D01*
G75*
G02*
X194970000Y-115680000I-140000J0D01*
G01*
X194630000Y-115680000D01*
G75*
G02*
X194490000Y-115540000I0J140000D01*
G01*
X194490000Y-115260000D01*
G75*
G02*
X194630000Y-115120000I140000J0D01*
G01*
G37*
%TD*%
%TO.C,C15*%
G36*
G01*
X194870000Y-97020000D02*
X194530000Y-97020000D01*
G75*
G02*
X194390000Y-96880000I0J140000D01*
G01*
X194390000Y-96600000D01*
G75*
G02*
X194530000Y-96460000I140000J0D01*
G01*
X194870000Y-96460000D01*
G75*
G02*
X195010000Y-96600000I0J-140000D01*
G01*
X195010000Y-96880000D01*
G75*
G02*
X194870000Y-97020000I-140000J0D01*
G01*
G37*
G36*
G01*
X194870000Y-97980000D02*
X194530000Y-97980000D01*
G75*
G02*
X194390000Y-97840000I0J140000D01*
G01*
X194390000Y-97560000D01*
G75*
G02*
X194530000Y-97420000I140000J0D01*
G01*
X194870000Y-97420000D01*
G75*
G02*
X195010000Y-97560000I0J-140000D01*
G01*
X195010000Y-97840000D01*
G75*
G02*
X194870000Y-97980000I-140000J0D01*
G01*
G37*
%TD*%
%TO.C,C14*%
G36*
G01*
X192480000Y-92250000D02*
X192820000Y-92250000D01*
G75*
G02*
X192960000Y-92390000I0J-140000D01*
G01*
X192960000Y-92670000D01*
G75*
G02*
X192820000Y-92810000I-140000J0D01*
G01*
X192480000Y-92810000D01*
G75*
G02*
X192340000Y-92670000I0J140000D01*
G01*
X192340000Y-92390000D01*
G75*
G02*
X192480000Y-92250000I140000J0D01*
G01*
G37*
G36*
G01*
X192480000Y-91290000D02*
X192820000Y-91290000D01*
G75*
G02*
X192960000Y-91430000I0J-140000D01*
G01*
X192960000Y-91710000D01*
G75*
G02*
X192820000Y-91850000I-140000J0D01*
G01*
X192480000Y-91850000D01*
G75*
G02*
X192340000Y-91710000I0J140000D01*
G01*
X192340000Y-91430000D01*
G75*
G02*
X192480000Y-91290000I140000J0D01*
G01*
G37*
%TD*%
%TO.C,C13*%
G36*
G01*
X192530000Y-81320000D02*
X192870000Y-81320000D01*
G75*
G02*
X193010000Y-81460000I0J-140000D01*
G01*
X193010000Y-81740000D01*
G75*
G02*
X192870000Y-81880000I-140000J0D01*
G01*
X192530000Y-81880000D01*
G75*
G02*
X192390000Y-81740000I0J140000D01*
G01*
X192390000Y-81460000D01*
G75*
G02*
X192530000Y-81320000I140000J0D01*
G01*
G37*
G36*
G01*
X192530000Y-80360000D02*
X192870000Y-80360000D01*
G75*
G02*
X193010000Y-80500000I0J-140000D01*
G01*
X193010000Y-80780000D01*
G75*
G02*
X192870000Y-80920000I-140000J0D01*
G01*
X192530000Y-80920000D01*
G75*
G02*
X192390000Y-80780000I0J140000D01*
G01*
X192390000Y-80500000D01*
G75*
G02*
X192530000Y-80360000I140000J0D01*
G01*
G37*
%TD*%
%TO.C,C12*%
G36*
G01*
X192480000Y-109955000D02*
X192820000Y-109955000D01*
G75*
G02*
X192960000Y-110095000I0J-140000D01*
G01*
X192960000Y-110375000D01*
G75*
G02*
X192820000Y-110515000I-140000J0D01*
G01*
X192480000Y-110515000D01*
G75*
G02*
X192340000Y-110375000I0J140000D01*
G01*
X192340000Y-110095000D01*
G75*
G02*
X192480000Y-109955000I140000J0D01*
G01*
G37*
G36*
G01*
X192480000Y-108995000D02*
X192820000Y-108995000D01*
G75*
G02*
X192960000Y-109135000I0J-140000D01*
G01*
X192960000Y-109415000D01*
G75*
G02*
X192820000Y-109555000I-140000J0D01*
G01*
X192480000Y-109555000D01*
G75*
G02*
X192340000Y-109415000I0J140000D01*
G01*
X192340000Y-109135000D01*
G75*
G02*
X192480000Y-108995000I140000J0D01*
G01*
G37*
%TD*%
%TO.C,C11*%
G36*
G01*
X192580000Y-64850000D02*
X192920000Y-64850000D01*
G75*
G02*
X193060000Y-64990000I0J-140000D01*
G01*
X193060000Y-65270000D01*
G75*
G02*
X192920000Y-65410000I-140000J0D01*
G01*
X192580000Y-65410000D01*
G75*
G02*
X192440000Y-65270000I0J140000D01*
G01*
X192440000Y-64990000D01*
G75*
G02*
X192580000Y-64850000I140000J0D01*
G01*
G37*
G36*
G01*
X192580000Y-63890000D02*
X192920000Y-63890000D01*
G75*
G02*
X193060000Y-64030000I0J-140000D01*
G01*
X193060000Y-64310000D01*
G75*
G02*
X192920000Y-64450000I-140000J0D01*
G01*
X192580000Y-64450000D01*
G75*
G02*
X192440000Y-64310000I0J140000D01*
G01*
X192440000Y-64030000D01*
G75*
G02*
X192580000Y-63890000I140000J0D01*
G01*
G37*
%TD*%
%TO.C,C10*%
G36*
G01*
X192580000Y-75870000D02*
X192920000Y-75870000D01*
G75*
G02*
X193060000Y-76010000I0J-140000D01*
G01*
X193060000Y-76290000D01*
G75*
G02*
X192920000Y-76430000I-140000J0D01*
G01*
X192580000Y-76430000D01*
G75*
G02*
X192440000Y-76290000I0J140000D01*
G01*
X192440000Y-76010000D01*
G75*
G02*
X192580000Y-75870000I140000J0D01*
G01*
G37*
G36*
G01*
X192580000Y-74910000D02*
X192920000Y-74910000D01*
G75*
G02*
X193060000Y-75050000I0J-140000D01*
G01*
X193060000Y-75330000D01*
G75*
G02*
X192920000Y-75470000I-140000J0D01*
G01*
X192580000Y-75470000D01*
G75*
G02*
X192440000Y-75330000I0J140000D01*
G01*
X192440000Y-75050000D01*
G75*
G02*
X192580000Y-74910000I140000J0D01*
G01*
G37*
%TD*%
%TO.C,C9*%
G36*
G01*
X192530000Y-86870000D02*
X192870000Y-86870000D01*
G75*
G02*
X193010000Y-87010000I0J-140000D01*
G01*
X193010000Y-87290000D01*
G75*
G02*
X192870000Y-87430000I-140000J0D01*
G01*
X192530000Y-87430000D01*
G75*
G02*
X192390000Y-87290000I0J140000D01*
G01*
X192390000Y-87010000D01*
G75*
G02*
X192530000Y-86870000I140000J0D01*
G01*
G37*
G36*
G01*
X192530000Y-85910000D02*
X192870000Y-85910000D01*
G75*
G02*
X193010000Y-86050000I0J-140000D01*
G01*
X193010000Y-86330000D01*
G75*
G02*
X192870000Y-86470000I-140000J0D01*
G01*
X192530000Y-86470000D01*
G75*
G02*
X192390000Y-86330000I0J140000D01*
G01*
X192390000Y-86050000D01*
G75*
G02*
X192530000Y-85910000I140000J0D01*
G01*
G37*
%TD*%
%TO.C,C8*%
G36*
G01*
X192530000Y-104380000D02*
X192870000Y-104380000D01*
G75*
G02*
X193010000Y-104520000I0J-140000D01*
G01*
X193010000Y-104800000D01*
G75*
G02*
X192870000Y-104940000I-140000J0D01*
G01*
X192530000Y-104940000D01*
G75*
G02*
X192390000Y-104800000I0J140000D01*
G01*
X192390000Y-104520000D01*
G75*
G02*
X192530000Y-104380000I140000J0D01*
G01*
G37*
G36*
G01*
X192530000Y-103420000D02*
X192870000Y-103420000D01*
G75*
G02*
X193010000Y-103560000I0J-140000D01*
G01*
X193010000Y-103840000D01*
G75*
G02*
X192870000Y-103980000I-140000J0D01*
G01*
X192530000Y-103980000D01*
G75*
G02*
X192390000Y-103840000I0J140000D01*
G01*
X192390000Y-103560000D01*
G75*
G02*
X192530000Y-103420000I140000J0D01*
G01*
G37*
%TD*%
%TO.C,C7*%
G36*
G01*
X192530000Y-121800000D02*
X192870000Y-121800000D01*
G75*
G02*
X193010000Y-121940000I0J-140000D01*
G01*
X193010000Y-122220000D01*
G75*
G02*
X192870000Y-122360000I-140000J0D01*
G01*
X192530000Y-122360000D01*
G75*
G02*
X192390000Y-122220000I0J140000D01*
G01*
X192390000Y-121940000D01*
G75*
G02*
X192530000Y-121800000I140000J0D01*
G01*
G37*
G36*
G01*
X192530000Y-120840000D02*
X192870000Y-120840000D01*
G75*
G02*
X193010000Y-120980000I0J-140000D01*
G01*
X193010000Y-121260000D01*
G75*
G02*
X192870000Y-121400000I-140000J0D01*
G01*
X192530000Y-121400000D01*
G75*
G02*
X192390000Y-121260000I0J140000D01*
G01*
X192390000Y-120980000D01*
G75*
G02*
X192530000Y-120840000I140000J0D01*
G01*
G37*
%TD*%
%TO.C,C6*%
G36*
G01*
X192580000Y-70370000D02*
X192920000Y-70370000D01*
G75*
G02*
X193060000Y-70510000I0J-140000D01*
G01*
X193060000Y-70790000D01*
G75*
G02*
X192920000Y-70930000I-140000J0D01*
G01*
X192580000Y-70930000D01*
G75*
G02*
X192440000Y-70790000I0J140000D01*
G01*
X192440000Y-70510000D01*
G75*
G02*
X192580000Y-70370000I140000J0D01*
G01*
G37*
G36*
G01*
X192580000Y-69410000D02*
X192920000Y-69410000D01*
G75*
G02*
X193060000Y-69550000I0J-140000D01*
G01*
X193060000Y-69830000D01*
G75*
G02*
X192920000Y-69970000I-140000J0D01*
G01*
X192580000Y-69970000D01*
G75*
G02*
X192440000Y-69830000I0J140000D01*
G01*
X192440000Y-69550000D01*
G75*
G02*
X192580000Y-69410000I140000J0D01*
G01*
G37*
%TD*%
%TO.C,C5*%
G36*
G01*
X193120000Y-115230000D02*
X193120000Y-115570000D01*
G75*
G02*
X192980000Y-115710000I-140000J0D01*
G01*
X192700000Y-115710000D01*
G75*
G02*
X192560000Y-115570000I0J140000D01*
G01*
X192560000Y-115230000D01*
G75*
G02*
X192700000Y-115090000I140000J0D01*
G01*
X192980000Y-115090000D01*
G75*
G02*
X193120000Y-115230000I0J-140000D01*
G01*
G37*
G36*
G01*
X194080000Y-115230000D02*
X194080000Y-115570000D01*
G75*
G02*
X193940000Y-115710000I-140000J0D01*
G01*
X193660000Y-115710000D01*
G75*
G02*
X193520000Y-115570000I0J140000D01*
G01*
X193520000Y-115230000D01*
G75*
G02*
X193660000Y-115090000I140000J0D01*
G01*
X193940000Y-115090000D01*
G75*
G02*
X194080000Y-115230000I0J-140000D01*
G01*
G37*
%TD*%
%TO.C,C4*%
G36*
G01*
X192920000Y-96630000D02*
X192920000Y-96970000D01*
G75*
G02*
X192780000Y-97110000I-140000J0D01*
G01*
X192500000Y-97110000D01*
G75*
G02*
X192360000Y-96970000I0J140000D01*
G01*
X192360000Y-96630000D01*
G75*
G02*
X192500000Y-96490000I140000J0D01*
G01*
X192780000Y-96490000D01*
G75*
G02*
X192920000Y-96630000I0J-140000D01*
G01*
G37*
G36*
G01*
X193880000Y-96630000D02*
X193880000Y-96970000D01*
G75*
G02*
X193740000Y-97110000I-140000J0D01*
G01*
X193460000Y-97110000D01*
G75*
G02*
X193320000Y-96970000I0J140000D01*
G01*
X193320000Y-96630000D01*
G75*
G02*
X193460000Y-96490000I140000J0D01*
G01*
X193740000Y-96490000D01*
G75*
G02*
X193880000Y-96630000I0J-140000D01*
G01*
G37*
%TD*%
%TO.C,C2*%
G36*
G01*
X245425000Y-80630000D02*
X245425000Y-80970000D01*
G75*
G02*
X245285000Y-81110000I-140000J0D01*
G01*
X245005000Y-81110000D01*
G75*
G02*
X244865000Y-80970000I0J140000D01*
G01*
X244865000Y-80630000D01*
G75*
G02*
X245005000Y-80490000I140000J0D01*
G01*
X245285000Y-80490000D01*
G75*
G02*
X245425000Y-80630000I0J-140000D01*
G01*
G37*
G36*
G01*
X246385000Y-80630000D02*
X246385000Y-80970000D01*
G75*
G02*
X246245000Y-81110000I-140000J0D01*
G01*
X245965000Y-81110000D01*
G75*
G02*
X245825000Y-80970000I0J140000D01*
G01*
X245825000Y-80630000D01*
G75*
G02*
X245965000Y-80490000I140000J0D01*
G01*
X246245000Y-80490000D01*
G75*
G02*
X246385000Y-80630000I0J-140000D01*
G01*
G37*
%TD*%
D37*
%TO.C,BZ1*%
X237625000Y-63960000D03*
X240625000Y-62690000D03*
%TD*%
M02*
