M48
; DRILL file {KiCad (5.1.9)-1} date 07/25/21 18:06:38
; FORMAT={-:-/ absolute / inch / decimal}
; #@! TF.CreationDate,2021-07-25T18:06:38+01:00
; #@! TF.GenerationSoftware,Kicad,Pcbnew,(5.1.9)-1
; #@! TF.FileFunction,Plated,1,2,Blind
FMAT,2
INCH
T1C0.0059
%
G90
G05
T1
X7.3248Y-3.3652
X7.5443Y-3.5197
X7.562Y-4.002
X7.5768Y-3.8484
X7.6211Y-3.9173
X7.6417Y-2.3494
X7.6417Y-3.4843
X7.6722Y-3.3091
X7.7264Y-3.7431
X7.7618Y-3.2254
X7.7963Y-3.3337
X7.8209Y-3.8878
X7.8222Y-4.0203
X7.8612Y-3.7431
X7.8681Y-3.8071
X7.9114Y-3.7756
X7.9114Y-3.9173
X7.9203Y-3.2431
X7.925Y-3.9501
X7.939Y-3.3307
X7.9478Y-4.0423
X7.9567Y-3.1142
X7.9567Y-3.2402
X7.9567Y-3.7283
X7.9567Y-3.8858
X7.9567Y-3.9173
X7.972Y-3.2748
X7.9882Y-3.1772
X7.9882Y-3.2087
X7.9882Y-3.2402
X7.9882Y-3.7913
X7.9882Y-3.8858
X7.9882Y-3.9173
X7.9882Y-3.9488
X8.0197Y-3.1457
X8.0197Y-3.1772
X8.0197Y-3.2087
X8.0197Y-3.2402
X8.0197Y-3.7913
X8.0197Y-3.8543
X8.0197Y-3.8858
X8.0512Y-3.0827
X8.0512Y-3.1142
X8.0512Y-3.1457
X8.0512Y-3.1772
X8.0512Y-3.2087
X8.0512Y-3.2402
X8.0512Y-3.7913
X8.0512Y-3.8228
X8.0512Y-3.8543
X8.0512Y-3.8858
X8.0512Y-3.9173
X8.0512Y-3.9488
X8.0827Y-3.0827
X8.0827Y-3.1142
X8.0827Y-3.1772
X8.0827Y-3.2087
X8.0827Y-3.2402
X8.0827Y-3.7913
X8.0827Y-3.8228
X8.0827Y-3.8543
X8.0827Y-3.8848
X8.0827Y-3.9173
X8.0827Y-3.9488
X8.114Y-3.9173
X8.1142Y-3.0827
X8.1142Y-3.1142
X8.1142Y-3.1457
X8.1142Y-3.1772
X8.1142Y-3.2087
X8.1142Y-3.2402
X8.1142Y-3.7913
X8.1142Y-3.8228
X8.1142Y-3.8543
X8.1142Y-3.8858
X8.1142Y-3.9488
X8.186Y-3.7756
X8.188Y-3.0669
X8.1909Y-3.6998
X8.2028Y-3.2008
X8.2165Y-3.6594
X8.3504Y-3.2008
X8.4803Y-3.7933
X8.5591Y-3.8406
X8.5817Y-3.7392
X8.5837Y-3.6988
X8.6083Y-4.5443
T0
M30
